<svg width="24" height="24" viewBox="0 0 24 24" fill="none" xmlns="http://www.w3.org/2000/svg">
<g clip-path="url(#clip0_109_44)">
<path fill-rule="evenodd" clip-rule="evenodd" d="M12.4266 2.31148C12.1538 2.19848 11.8472 2.19848 11.5744 2.31148C11.5281 2.33066 11.4388 2.37807 11.247 2.54533C11.0477 2.71917 10.8035 2.96251 10.4259 3.34009C10.0484 3.71758 9.8051 3.96178 9.63123 4.1611C9.46393 4.3529 9.41651 4.44223 9.39735 4.4885C9.28435 4.7613 9.28435 5.06789 9.39735 5.34069C9.41654 5.38702 9.46395 5.47634 9.6312 5.66808C9.80504 5.86737 10.0484 6.11157 10.426 6.48916C10.8034 6.86653 11.0476 7.10991 11.247 7.28382C11.4389 7.45123 11.5282 7.49866 11.5744 7.51778C11.8472 7.63078 12.1538 7.63078 12.4266 7.51778C12.4729 7.49858 12.5623 7.45118 12.754 7.28393C12.9533 7.11009 13.1975 6.86675 13.5751 6.48916C13.9524 6.11186 14.1955 5.86767 14.3689 5.66863C14.5356 5.4772 14.5832 5.38763 14.6026 5.34069C14.7156 5.06789 14.7156 4.7613 14.6026 4.48849C14.5832 4.44158 14.5356 4.35203 14.3689 4.16062C14.1955 3.96158 13.9524 3.71741 13.5751 3.34009C13.1975 2.9625 12.9533 2.71916 12.754 2.54532C12.5623 2.37807 12.4729 2.33066 12.4266 2.31148ZM10.7223 0.254249C11.5407 -0.0847497 12.4603 -0.0847497 13.2788 0.254249C13.6416 0.404558 13.9403 0.625316 14.2177 0.867262C14.4812 1.09705 14.7791 1.39502 15.1244 1.74035L15.1497 1.76555L15.1675 1.7834C15.5162 2.13211 15.8166 2.43242 16.0479 2.69796C16.2898 2.97564 16.5098 3.27408 16.6599 3.63636C16.9989 4.45478 16.9989 5.37441 16.6599 6.19282C16.5098 6.55509 16.2898 6.85353 16.0479 7.13123C15.8165 7.39691 15.516 7.69738 15.1671 8.0463L15.1245 8.08884C14.7792 8.4342 14.4812 8.73219 14.2177 8.96199C13.9403 9.20394 13.6416 9.42469 13.2788 9.575C12.4603 9.914 11.5407 9.91401 10.7223 9.57501C10.3593 9.42468 10.0605 9.20373 9.78317 8.96183C9.5197 8.732 9.22174 8.43402 8.87659 8.08886L8.82623 8.0385C8.48089 7.69318 8.1829 7.39522 7.95311 7.13178C7.71116 6.8544 7.4904 6.5557 7.34009 6.19282C7.00109 5.37441 7.00109 4.45478 7.34009 3.63636C7.49041 3.27347 7.71124 2.97473 7.95317 2.69738C8.18297 2.43393 8.48094 2.13598 8.82621 1.79074L8.85139 1.76556L8.87657 1.74038C9.22189 1.39504 9.51986 1.09706 9.78331 0.867266C10.0607 0.625322 10.3594 0.404558 10.7223 0.254249ZM5.34078 9.39666C5.06797 9.28366 4.7614 9.28366 4.4886 9.39666C4.44227 9.41585 4.35295 9.46326 4.1612 9.63051C3.9619 9.80434 3.71771 10.0477 3.34011 10.4253C2.96262 10.8028 2.71927 11.047 2.5454 11.2463C2.37808 11.4381 2.33067 11.5274 2.31151 11.5737C2.19851 11.8465 2.19851 12.1531 2.31151 12.4259C2.3307 12.4722 2.37811 12.5615 2.54536 12.7533C2.7192 12.9526 2.96255 13.1968 3.34014 13.5743C3.71751 13.9517 3.96175 14.1951 4.16112 14.369C4.35304 14.5364 4.4424 14.5838 4.48857 14.603C4.76137 14.716 5.06796 14.716 5.34078 14.603C5.38711 14.5838 5.47642 14.5364 5.66817 14.3691C5.86747 14.1953 6.11166 13.9519 6.48926 13.5743C6.86656 13.197 7.10964 12.9529 7.28302 12.7538C7.44978 12.5624 7.49736 12.4728 7.51681 12.4259C7.62981 12.1531 7.62981 11.8465 7.51681 11.5737C7.49737 11.5268 7.4498 11.4372 7.28305 11.2458C7.10965 11.0468 6.86658 10.8026 6.48926 10.4253C6.11166 10.0477 5.86747 9.80434 5.66817 9.6305C5.47642 9.46326 5.38711 9.41585 5.34078 9.39666ZM3.63645 7.33943C4.45488 7.00043 5.37449 7.00043 6.19292 7.33943C6.5558 7.48974 6.85451 7.7105 7.13189 7.95244C7.39534 8.18223 7.6933 8.48021 8.03863 8.82555L8.08168 8.8686C8.4304 9.2173 8.73072 9.51761 8.96204 9.78314C9.20395 10.0608 9.424 10.3593 9.57407 10.7215C9.91307 11.54 9.91307 12.4596 9.57407 13.278C9.42401 13.6403 9.20398 13.9387 8.96207 14.2164C8.73063 14.4821 8.43013 14.7826 8.08119 15.1315L8.0386 15.1741C7.69328 15.5194 7.39533 15.8174 7.13189 16.0472C6.85451 16.2891 6.5558 16.5099 6.19292 16.6602C5.3745 16.9992 4.45485 16.9992 3.63642 16.6602C3.27348 16.5099 2.97465 16.2889 2.69734 16.047C2.43385 15.8172 2.13589 15.5192 1.79073 15.174L1.76558 15.1489L1.74037 15.1237C1.39504 14.7784 1.09706 14.4804 0.867276 14.217C0.625326 13.9396 0.404564 13.6409 0.254253 13.278C-0.084751 12.4596 -0.084751 11.54 0.254253 10.7215C0.404572 10.3587 0.62541 10.0599 0.867337 9.78255C1.09714 9.51911 1.39511 9.22116 1.74036 8.87593L1.76555 8.85074L1.79075 8.82554C2.13607 8.48021 2.43403 8.18223 2.69748 7.95244C2.97486 7.7105 3.27357 7.48974 3.63645 7.33943ZM19.5125 9.39666C19.2396 9.28366 18.9331 9.28366 18.6603 9.39666C18.6139 9.41585 18.5246 9.46325 18.3329 9.63051C18.1336 9.80435 17.8894 10.0477 17.5118 10.4253C17.1343 10.8028 16.8909 11.047 16.7171 11.2463C16.5498 11.4381 16.5023 11.5274 16.4832 11.5737C16.3702 11.8465 16.3702 12.1531 16.4832 12.4259C16.5024 12.4722 16.5498 12.5615 16.717 12.7533C16.8909 12.9526 17.1342 13.1968 17.5118 13.5743C17.8892 13.9517 18.1334 14.1951 18.3328 14.369C18.5247 14.5364 18.6141 14.5838 18.6602 14.603C18.933 14.716 19.2396 14.716 19.5125 14.603C19.5588 14.5838 19.6481 14.5364 19.8398 14.3691C20.0391 14.1953 20.2833 13.9519 20.6609 13.5743C21.0382 13.1971 21.2813 12.9529 21.4547 12.7538C21.6215 12.5624 21.669 12.4728 21.6885 12.4259C21.8015 12.1531 21.8015 11.8465 21.6885 11.5737C21.6691 11.5268 21.6215 11.4372 21.4547 11.2458C21.2813 11.0468 21.0383 10.8026 20.6609 10.4253C20.2833 10.0477 20.0391 9.80434 19.8398 9.6305C19.6481 9.46325 19.5588 9.41585 19.5125 9.39666ZM17.8081 7.33943C18.6266 7.00043 19.5462 7.00043 20.3646 7.33943C20.7275 7.48974 21.0262 7.7105 21.3036 7.95244C21.567 8.18223 21.865 8.48019 22.2103 8.82552L22.2534 8.8686C22.6021 9.2173 22.9024 9.51761 23.1337 9.78314C23.3756 10.0608 23.5957 10.3593 23.7457 10.7215C24.0848 11.54 24.0848 12.4596 23.7457 13.278C23.5957 13.6403 23.3756 13.9387 23.1337 14.2164C22.9023 14.4821 22.6018 14.7826 22.2529 15.1315L22.2102 15.1742C21.8649 15.5195 21.567 15.8174 21.3036 16.0472C21.0262 16.2891 20.7275 16.5099 20.3646 16.6602C19.5462 16.9992 18.6265 16.9992 17.8081 16.6602C17.4452 16.5099 17.1463 16.2889 16.869 16.047C16.6055 15.8172 16.3076 15.5192 15.9624 15.174L15.9121 15.1237C15.5667 14.7784 15.2688 14.4804 15.039 14.217C14.797 13.9396 14.5762 13.6409 14.4259 13.278C14.0869 12.4596 14.0869 11.54 14.4259 10.7215C14.5762 10.3587 14.7971 10.0599 15.039 9.78256C15.2688 9.51911 15.5668 9.22117 15.912 8.87594L15.9624 8.82555C16.3077 8.48021 16.6057 8.18224 16.8692 7.95245C17.1465 7.7105 17.4452 7.48974 17.8081 7.33943ZM12.4266 16.4824C12.1538 16.3694 11.8472 16.3694 11.5744 16.4824C11.5281 16.5016 11.4388 16.549 11.247 16.7162C11.0477 16.8901 10.8035 17.1334 10.4259 17.511C10.0485 17.8885 9.80511 18.1327 9.63124 18.332C9.46393 18.5238 9.41651 18.6131 9.39735 18.6594C9.28435 18.9322 9.28435 19.2388 9.39735 19.5116C9.41654 19.5579 9.46395 19.6472 9.6312 19.839C9.80504 20.0383 10.0484 20.2825 10.426 20.6601C10.8034 21.0374 11.0476 21.2808 11.247 21.4547C11.4389 21.6221 11.5282 21.6696 11.5744 21.6887C11.8472 21.8017 12.1538 21.8017 12.4266 21.6887C12.4729 21.6695 12.5623 21.6221 12.754 21.4548C12.9533 21.281 13.1975 21.0377 13.5751 20.6601C13.9524 20.2828 14.1955 20.0386 14.3689 19.8395C14.5356 19.6481 14.5832 19.5585 14.6026 19.5116C14.7156 19.2388 14.7156 18.9322 14.6026 18.6594C14.5832 18.6125 14.5356 18.5229 14.3689 18.3315C14.1955 18.1325 13.9524 17.8883 13.5751 17.511C13.1975 17.1334 12.9533 16.8901 12.754 16.7162C12.5623 16.549 12.4729 16.5016 12.4266 16.4824ZM10.7223 14.4252C11.5407 14.0862 12.4603 14.0862 13.2788 14.4252C13.6416 14.5755 13.9403 14.7962 14.2177 15.0382C14.4812 15.268 14.7792 15.566 15.1245 15.9113L15.1675 15.9543C15.5162 16.303 15.8165 16.6033 16.0479 16.8689C16.2898 17.1465 16.5098 17.445 16.6599 17.8073C16.9989 18.6257 16.9989 19.5453 16.6599 20.3637C16.5098 20.726 16.2898 21.0244 16.0479 21.3021C15.8165 21.5678 15.516 21.8683 15.1671 22.2172L15.1245 22.2598C14.7791 22.6051 14.4812 22.9031 14.2177 23.1329C13.9403 23.3749 13.6416 23.5956 13.2788 23.7459C12.4603 24.0849 11.5407 24.0849 10.7223 23.7459C10.3593 23.5956 10.0605 23.3746 9.78317 23.1327C9.51969 22.9029 9.22173 22.6049 8.87658 22.2598L8.85142 22.2346L8.8262 22.2094C8.48087 21.8641 8.1829 21.5661 7.95311 21.3027C7.71116 21.0253 7.4904 20.7266 7.34009 20.3637C7.00109 19.5453 7.00109 18.6257 7.34009 17.8073C7.49041 17.4444 7.71124 17.1456 7.95317 16.8683C8.18299 16.6048 8.48099 16.3068 8.82627 15.9616L8.87653 15.9113C9.22187 15.566 9.51986 15.268 9.78332 15.0382C10.0607 14.7962 10.3594 14.5755 10.7223 14.4252Z" fill="#111827"/>
</g>
<defs>
<clipPath id="clip0_109_44">
<rect width="24" height="24" fill="white"/>
</clipPath>
</defs>
</svg>
