<svg width="251" height="86" viewBox="0 0 251 86" fill="none" xmlns="http://www.w3.org/2000/svg">
<g clip-path="url(#clip0_46_10)">
<path fill-rule="evenodd" clip-rule="evenodd" d="M44.5314 8.1912C43.5512 7.78522 42.4499 7.78522 41.4698 8.1912C41.3033 8.26014 40.9824 8.43046 40.2935 9.03136C39.5775 9.65592 38.7002 10.5302 37.3436 11.8867C35.9874 13.243 35.1131 14.1203 34.4885 14.8364C33.8874 15.5255 33.7171 15.8464 33.6482 16.0126C33.2423 16.9927 33.2423 18.0942 33.6482 19.0743C33.7172 19.2408 33.8875 19.5617 34.4884 20.2505C35.1129 20.9665 35.9872 21.8439 37.3438 23.2004C38.6995 24.5562 39.577 25.4306 40.2933 26.0554C40.9827 26.6569 41.3038 26.8273 41.4696 26.896C42.4497 27.302 43.5512 27.302 44.5314 26.896C44.6978 26.827 45.0187 26.6567 45.7076 26.0558C46.4236 25.4313 47.3009 24.557 48.6575 23.2005C50.013 21.8449 50.8863 20.9676 51.5092 20.2525C52.1083 19.5648 52.2793 19.243 52.3491 19.0743C52.7551 18.0942 52.7551 16.9927 52.3491 16.0126C52.2793 15.8441 52.1084 15.5223 51.5093 14.8346C50.8863 14.1196 50.0131 13.2423 48.6575 11.8867C47.3009 10.5302 46.4236 9.6559 45.7076 9.03135C45.0187 8.43046 44.6978 8.26014 44.5314 8.1912ZM38.4083 0.800165C41.3486 -0.417763 44.6525 -0.417763 47.5928 0.800165C48.8965 1.34018 49.9697 2.13331 50.9662 3.00255C51.9127 3.8281 52.9832 4.89863 54.2238 6.1393L54.3143 6.22986L54.3784 6.29397C55.6313 7.54679 56.7103 8.62573 57.5414 9.57973C58.4104 10.5773 59.201 11.6496 59.7402 12.9512C60.9581 15.8915 60.9581 19.1955 59.7402 22.1358C59.201 23.4373 58.4105 24.5095 57.5414 25.5072C56.71 26.4617 55.6304 27.5412 54.3768 28.7948L54.224 28.9477C52.9833 30.1884 51.9127 31.259 50.9662 32.0846C49.9697 32.9539 48.8965 33.747 47.5928 34.287C44.6525 35.5049 41.3485 35.505 38.4082 34.287C37.1043 33.7469 36.0307 32.9531 35.0344 32.084C34.0878 31.2583 33.0173 30.1878 31.7773 28.9477L31.5964 28.7668C30.3557 27.5262 29.2851 26.4557 28.4596 25.5092C27.5903 24.5127 26.7972 23.4395 26.2572 22.1358C25.0393 19.1955 25.0393 15.8915 26.2572 12.9512C26.7972 11.6474 27.5906 10.5741 28.4598 9.57764C29.2854 8.63114 30.3559 7.56069 31.5963 6.32033L31.6868 6.22987L31.7772 6.13942C33.0179 4.89871 34.0884 3.82815 35.0349 3.00256C36.0314 2.13332 37.1046 1.34018 38.4083 0.800165ZM19.0743 33.6463C18.0942 33.2403 16.9928 33.2403 16.0127 33.6463C15.8463 33.7152 15.5254 33.8855 14.8365 34.4864C14.1205 35.111 13.2432 35.9852 11.8866 37.3418C10.5304 38.698 9.65615 39.5753 9.03149 40.2914C8.43038 40.9806 8.26003 41.3015 8.1912 41.4677C7.78522 42.4478 7.78522 43.5493 8.1912 44.5294C8.26014 44.6958 8.43046 45.0167 9.03135 45.7056C9.6559 46.4216 10.5302 47.299 11.8867 48.6555C13.2425 50.0113 14.1199 50.8857 14.8362 51.5105C15.5257 52.112 15.8468 52.2824 16.0126 52.3511C16.9927 52.757 18.0942 52.757 19.0743 52.3511C19.2408 52.2821 19.5617 52.1118 20.2505 51.5109C20.9665 50.8864 21.8439 50.0121 23.2004 48.6555C24.556 47.3 25.4292 46.4227 26.0522 45.7076C26.6513 45.0199 26.8222 44.6981 26.8921 44.5294C27.2981 43.5493 27.2981 42.4478 26.8921 41.4677C26.8223 41.2991 26.6514 40.9774 26.0523 40.2897C25.4293 39.5746 24.556 38.6974 23.2004 37.3418C21.8439 35.9852 20.9665 35.111 20.2505 34.4864C19.5617 33.8855 19.2408 33.7152 19.0743 33.6463ZM12.9513 26.2552C15.8916 25.0373 19.1955 25.0373 22.1358 26.2552C23.4395 26.7953 24.5127 27.5884 25.5092 28.4576C26.4557 29.2832 27.5262 30.3537 28.7668 31.5944L28.9215 31.7491C30.1743 33.0019 31.2532 34.0808 32.0843 35.0348C32.9534 36.0324 33.744 37.1046 34.2831 38.4062C35.501 41.3466 35.501 44.6505 34.2831 47.5909C33.744 48.8924 32.9535 49.9646 32.0844 50.9623C31.2529 51.9168 30.1733 52.9964 28.9197 54.25L28.7667 54.403C27.5261 55.6437 26.4556 56.7142 25.5092 57.5397C24.5126 58.409 23.4395 59.2021 22.1358 59.7421C19.1955 60.96 15.8915 60.96 12.9512 59.7421C11.6472 59.202 10.5736 58.4082 9.57734 57.5391C8.63074 56.7134 7.56025 55.6428 6.32023 54.4027L6.22987 54.3124L6.1393 54.2218C4.89863 52.9812 3.8281 51.9107 3.00255 50.9643C2.13331 49.9677 1.34018 48.8946 0.800165 47.5909C-0.417763 44.6505 -0.417763 41.3466 0.800165 38.4062C1.34021 37.1024 2.13361 36.0291 3.00277 35.0327C3.82838 34.0862 4.89888 33.0157 6.13926 31.7754L6.22975 31.6849L6.32027 31.5944C7.5609 30.3537 8.63138 29.2832 9.57785 28.4576C10.5744 27.5884 11.6475 26.7953 12.9513 26.2552ZM69.9884 33.6463C69.0083 33.2403 67.9069 33.2403 66.9268 33.6463C66.7604 33.7152 66.4395 33.8855 65.7506 34.4864C65.0345 35.111 64.1572 35.9852 62.8007 37.3418C61.4445 38.698 60.5702 39.5754 59.9455 40.2915C59.3444 40.9806 59.1741 41.3015 59.1053 41.4677C58.6993 42.4478 58.6993 43.5493 59.1053 44.5294C59.1742 44.6959 59.3445 45.0167 59.9454 45.7056C60.57 46.4216 61.4442 47.2989 62.8008 48.6555C64.1565 50.0113 65.034 50.8857 65.7503 51.5105C66.4398 52.112 66.7608 52.2824 66.9267 52.3511C67.9068 52.757 69.0082 52.757 69.9884 52.3511C70.1548 52.2821 70.4757 52.1118 71.1646 51.5109C71.8806 50.8864 72.7579 50.0121 74.1145 48.6555C75.47 47.3 76.3433 46.4227 76.9662 45.7076C77.5653 45.0198 77.7363 44.698 77.8062 44.5294C78.2121 43.5493 78.2121 42.4478 77.8062 41.4677C77.7363 41.2991 77.5654 40.9774 76.9663 40.2897C76.3434 39.5746 75.4701 38.6974 74.1145 37.3418C72.7579 35.9852 71.8806 35.111 71.1646 34.4864C70.4757 33.8855 70.1548 33.7152 69.9884 33.6463ZM63.8653 26.2552C66.8057 25.0373 70.1095 25.0373 73.0499 26.2552C74.3536 26.7953 75.4267 27.5884 76.4233 28.4576C77.3697 29.2832 78.4402 30.3537 79.6807 31.5943L79.8355 31.7491C81.0883 33.0019 82.1673 34.0808 82.9984 35.0348C83.8674 36.0324 84.6581 37.1046 85.1972 38.4062C86.4151 41.3466 86.4151 44.6505 85.1972 47.5909C84.6581 48.8924 83.8675 49.9646 82.9985 50.9623C82.167 51.9168 81.0875 52.9963 79.8339 54.2498L79.6805 54.4032C78.44 55.6438 77.3696 56.7142 76.4233 57.5397C75.4267 58.409 74.3536 59.2021 73.0499 59.7421C70.1095 60.96 66.8056 60.96 63.8652 59.7421C62.5613 59.202 61.4877 58.4082 60.4914 57.5391C59.5448 56.7134 58.4743 55.6428 57.2343 54.4027L57.0536 54.222C55.8128 52.9813 54.7422 51.9108 53.9166 50.9643C53.0474 49.9677 52.2542 48.8946 51.7142 47.5909C50.4963 44.6505 50.4963 41.3466 51.7142 38.4062C52.2543 37.1024 53.0476 36.0291 53.9168 35.0327C54.7424 34.0862 55.8129 33.0158 57.0533 31.7755L57.2343 31.5944C58.4749 30.3538 59.5454 29.2832 60.4919 28.4576C61.4884 27.5884 62.5616 26.7953 63.8653 26.2552ZM44.5314 59.1033C43.5512 58.6973 42.4499 58.6973 41.4698 59.1033C41.3033 59.1723 40.9824 59.3426 40.2935 59.9435C39.5775 60.568 38.7002 61.4423 37.3436 62.7988C35.9874 64.155 35.1132 65.0324 34.4885 65.7485C33.8874 66.4376 33.7171 66.7585 33.6482 66.9247C33.2423 67.9048 33.2423 69.0063 33.6482 69.9864C33.7172 70.1529 33.8875 70.4738 34.4884 71.1626C35.1129 71.8787 35.9872 72.756 37.3438 74.1126C38.6995 75.4683 39.577 76.3427 40.2933 76.9675C40.9827 77.569 41.3038 77.7394 41.4697 77.8081C42.4497 78.2141 43.5512 78.2141 44.5314 77.8081C44.6978 77.7391 45.0187 77.5688 45.7076 76.9679C46.4236 76.3434 47.3009 75.4691 48.6575 74.1126C50.013 72.757 50.8863 71.8797 51.5092 71.1646C52.1083 70.4769 52.2793 70.1551 52.3491 69.9864C52.7551 69.0063 52.7551 67.9048 52.3491 66.9247C52.2793 66.7562 52.1084 66.4345 51.5093 65.7468C50.8863 65.0317 50.0131 64.1544 48.6575 62.7988C47.3009 61.4423 46.4236 60.568 45.7076 59.9435C45.0187 59.3426 44.6978 59.1723 44.5314 59.1033ZM38.4083 51.7123C41.3486 50.4943 44.6525 50.4943 47.5928 51.7123C48.8965 52.2523 49.9697 53.0454 50.9662 53.9146C51.9127 54.7403 52.9833 55.8108 54.224 57.0516L54.3784 57.206C55.6312 58.4589 56.7102 59.5378 57.5414 60.4918C58.4104 61.4894 59.201 62.5617 59.7402 63.8633C60.9581 66.8036 60.9581 70.1076 59.7402 73.0479C59.201 74.3494 58.4105 75.4216 57.5414 76.4193C56.71 77.3738 55.6305 78.4533 54.3769 79.7069L54.2239 79.8599C52.9832 81.1006 51.9127 82.1712 50.9662 82.9967C49.9697 83.866 48.8965 84.6591 47.5928 85.1991C44.6525 86.417 41.3485 86.4171 38.4082 85.1991C37.1043 84.659 36.0307 83.8652 35.0344 82.9961C34.0878 82.1704 33.0173 81.0999 31.7773 79.8598L31.6869 79.7694L31.5963 79.6788C30.3556 78.4382 29.2851 77.3678 28.4596 76.4213C27.5903 75.4248 26.7972 74.3516 26.2572 73.0479C25.0393 70.1076 25.0393 66.8036 26.2572 63.8633C26.7972 62.5595 27.5906 61.4862 28.4598 60.4897C29.2855 59.5432 30.356 58.4726 31.5965 57.2322L31.7771 57.0517C33.0178 55.8109 34.0884 54.7403 35.0349 53.9146C36.0314 53.0454 37.1046 52.2523 38.4083 51.7123Z" fill="white"/>
<path d="M212.361 44.535C212.361 32.805 220.521 24.815 231.741 24.815C243.046 24.815 251.206 32.805 251.206 44.535C251.206 56.18 243.046 64.17 231.741 64.17C220.521 64.17 212.361 56.18 212.361 44.535ZM242.706 44.535C242.706 36.885 238.201 32.04 231.741 32.04C225.451 32.04 220.861 36.885 220.861 44.535C220.861 52.1 225.451 56.945 231.741 56.945C238.201 56.945 242.706 52.1 242.706 44.535Z" fill="white"/>
<path d="M195.109 34.165V63.32H186.694V28.81C190.774 26.515 196.044 25.07 201.399 25.07C204.034 25.07 206.074 25.325 208.624 26.005V34.165C206.244 33.23 203.609 32.975 201.399 32.975C198.849 32.975 196.809 33.485 195.109 34.165Z" fill="white"/>
<path d="M177.722 46.405H151.542V46.575C152.052 53.29 157.832 56.945 163.697 56.945C168.882 56.945 172.622 55.755 176.362 53.29V60.685C172.962 63.065 167.947 64.17 163.102 64.17C151.372 64.17 143.382 56.69 143.382 44.79C143.382 32.805 151.202 24.815 161.572 24.815C172.537 24.815 177.722 31.87 177.722 42.155V46.405ZM161.317 31.87C156.472 31.87 152.902 35.27 151.797 40.965H169.817C169.647 35.1 166.757 31.87 161.317 31.87Z" fill="white"/>
<path d="M127.65 20.48V63.32H118.98V20.48H103V12.83H143.545V20.48H127.65Z" fill="white"/>
</g>
<defs>
<clipPath id="clip0_46_10">
<rect width="251" height="86" fill="white"/>
</clipPath>
</defs>
</svg>
