<svg width="436" height="93" viewBox="0 0 436 93" fill="none" xmlns="http://www.w3.org/2000/svg">
<g clip-path="url(#clip0_53_53)">
<g clip-path="url(#clip1_53_53)">
<path fill-rule="evenodd" clip-rule="evenodd" d="M48.1531 8.95711C47.096 8.51923 45.9081 8.51923 44.8509 8.95711C44.6714 9.03146 44.3253 9.21516 43.5823 9.86329C42.81 10.5369 41.8637 11.4799 40.4005 12.943C38.9377 14.4059 37.9948 15.3521 37.321 16.1245C36.6727 16.8678 36.489 17.2139 36.4147 17.3932C35.9769 18.4503 35.9769 19.6384 36.4147 20.6955C36.4891 20.875 36.6728 21.2211 37.3209 21.9641C37.9945 22.7364 38.9375 23.6827 40.4007 25.1459C41.863 26.6082 42.8094 27.5513 43.582 28.2252C44.3256 28.874 44.6719 29.0578 44.8508 29.1318C45.9079 29.5697 47.096 29.5697 48.1531 29.1318C48.3327 29.0575 48.6788 28.8738 49.4218 28.2257C50.1941 27.552 51.1403 26.6091 52.6035 25.1459C54.0656 23.6838 55.0075 22.7376 55.6793 21.9663C56.3255 21.2245 56.5099 20.8774 56.5853 20.6955C57.0231 19.6384 57.0231 18.4503 56.5853 17.3932C56.5099 17.2114 56.3256 16.8644 55.6794 16.1226C55.0075 15.3514 54.0656 14.4052 52.6035 12.943C51.1403 11.4799 50.1941 10.5369 49.4218 9.86328C48.6787 9.21517 48.3326 9.03147 48.1531 8.95711ZM41.5489 0.985231C44.7203 -0.32841 48.2838 -0.32841 51.4552 0.985231C52.8614 1.56769 54.0188 2.42314 55.0937 3.36069C56.1145 4.25113 57.2691 5.40578 58.6072 6.74395L58.7049 6.84163L58.7741 6.91078C60.1254 8.26205 61.2891 9.42578 62.1855 10.4548C63.1229 11.5308 63.9756 12.6872 64.5571 14.0911C65.8708 17.2625 65.8708 20.8262 64.5571 23.9976C63.9757 25.4014 63.123 26.5579 62.1856 27.6339C61.2888 28.6635 60.1244 29.8278 58.7723 31.1799L58.6075 31.3448C57.2693 32.683 56.1146 33.8378 55.0937 34.7283C54.0188 35.6658 52.8614 36.5213 51.4552 37.1037C48.2838 38.4173 44.7202 38.4174 41.5488 37.1037C40.1424 36.5212 38.9844 35.665 37.9098 34.7276C36.8888 33.837 35.7342 32.6824 34.3968 31.3448L34.2016 31.1497C32.8634 29.8115 31.7088 28.6569 30.8183 27.6361C29.8807 26.5612 29.0253 25.4037 28.4429 23.9976C27.1292 20.8262 27.1292 17.2625 28.4429 14.0911C29.0253 12.6849 29.881 11.5272 30.8185 10.4525C31.709 9.43162 32.8637 8.27704 34.2016 6.93921L34.2991 6.84164L34.3967 6.74408C35.7348 5.40587 36.8895 4.25118 37.9103 3.36071C38.9852 2.42316 40.1427 1.56769 41.5489 0.985231ZM20.6955 36.4126C19.6384 35.9747 18.4504 35.9747 17.3933 36.4126C17.2138 36.487 16.8677 36.6707 16.1247 37.3188C15.3524 37.9924 14.4061 38.9354 12.9429 40.3986C11.4802 41.8613 10.5372 42.8076 9.86343 43.58C9.21508 44.3233 9.03135 44.6695 8.95711 44.8487C8.51923 45.9058 8.51923 47.0939 8.95711 48.151C9.03147 48.3305 9.21517 48.6766 9.86328 49.4197C10.5369 50.192 11.4799 51.1382 12.943 52.6014C14.4054 54.0637 15.3518 55.0068 16.1243 55.6808C16.868 56.3295 17.2143 56.5133 17.3932 56.5874C18.4503 57.0252 19.6383 57.0252 20.6955 56.5873C20.875 56.513 21.2211 56.3293 21.9641 55.6812C22.7364 55.0076 23.6827 54.0646 25.1459 52.6014C26.6079 51.1394 27.5498 50.1931 28.2217 49.4218C28.8679 48.68 29.0523 48.3329 29.1276 48.151C29.5655 47.0939 29.5655 45.9058 29.1276 44.8487C29.0523 44.6669 28.868 44.3199 28.2218 43.5782C27.5499 42.8069 26.608 41.8607 25.1459 40.3986C23.6827 38.9354 22.7364 37.9924 21.9641 37.3188C21.2211 36.6707 20.875 36.487 20.6955 36.4126ZM14.0912 28.4407C17.2627 27.1271 20.8262 27.1271 23.9976 28.4407C25.4037 29.0232 26.5612 29.8786 27.6361 30.8162C28.6569 31.7066 29.8115 32.8613 31.1497 34.1995L31.3165 34.3664C32.6678 35.7176 33.8315 36.8813 34.7279 37.9103C35.6653 38.9863 36.518 40.1428 37.0995 41.5466C38.4132 44.7181 38.4132 48.2817 37.0995 51.4531C36.518 52.8569 35.6654 54.0134 34.728 55.0895C33.8312 56.119 32.6668 57.2834 31.3146 58.6355L31.1496 58.8005C29.8115 60.1387 28.6569 61.2934 27.6361 62.1838C26.5612 63.1213 25.4037 63.9768 23.9976 64.5592C20.8262 65.8729 17.2626 65.8729 14.0911 64.5592C12.6848 63.9767 11.5268 63.1205 10.4522 62.1831C9.43119 61.2925 8.27657 60.1378 6.9391 58.8003L6.84164 58.7028L6.74395 58.6051C5.40578 57.267 4.25113 56.1124 3.36069 55.0916C2.42314 54.0167 1.56769 52.8593 0.985231 51.4531C-0.32841 48.2817 -0.32841 44.7181 0.985231 41.5466C1.56772 40.1404 2.42347 38.9827 3.36093 37.908C4.25143 36.8871 5.40605 35.7325 6.74391 34.3948L6.84151 34.2972L6.93915 34.1995C8.27727 32.8613 9.43188 31.7066 10.4527 30.8162C11.5276 29.8786 12.6851 29.0232 14.0912 28.4407ZM75.6108 36.4126C74.5536 35.9747 73.3657 35.9747 72.3086 36.4126C72.129 36.487 71.7829 36.6707 71.0399 37.3188C70.2676 37.9924 69.3213 38.9354 67.8582 40.3986C66.3954 41.8614 65.4524 42.8076 64.7787 43.58C64.1303 44.3233 63.9466 44.6694 63.8724 44.8487C63.4345 45.9058 63.4345 47.0939 63.8724 48.151C63.9467 48.3305 64.1304 48.6766 64.7785 49.4197C65.4522 50.192 66.3951 51.1382 67.8583 52.6014C69.3206 54.0637 70.267 55.0068 71.0396 55.6807C71.7833 56.3295 72.1296 56.5133 72.3084 56.5874C73.3655 57.0252 74.5536 57.0252 75.6108 56.5873C75.7903 56.513 76.1364 56.3293 76.8794 55.6812C77.6517 55.0076 78.5979 54.0646 80.0611 52.6014C81.5232 51.1394 82.4651 50.1931 83.1369 49.4218C83.7831 48.68 83.9675 48.3329 84.0429 48.151C84.4808 47.0939 84.4808 45.9058 84.0429 44.8487C83.9676 44.6669 83.7833 44.3199 83.137 43.5782C82.4651 42.8069 81.5232 41.8607 80.0611 40.3986C78.598 38.9354 77.6517 37.9924 76.8794 37.3188C76.1364 36.6707 75.7903 36.487 75.6108 36.4126ZM69.0065 28.4407C72.1779 27.1271 75.7414 27.1271 78.9128 28.4407C80.319 29.0232 81.4765 29.8786 82.5513 30.8162C83.5722 31.7066 84.7267 32.8613 86.0648 34.1994L86.2318 34.3664C87.583 35.7176 88.7468 36.8813 89.6431 37.9103C90.5805 38.9863 91.4333 40.1428 92.0148 41.5467C93.3284 44.7181 93.3284 48.2817 92.0148 51.4531C91.4333 52.8569 90.5806 54.0134 89.6432 55.0895C88.7464 56.119 87.5821 57.2833 86.23 58.6354L86.0646 58.8008C84.7266 60.1389 83.5721 61.2934 82.5513 62.1838C81.4765 63.1213 80.319 63.9768 78.9128 64.5592C75.7414 65.8729 72.1778 65.8729 69.0064 64.5592C67.6 63.9767 66.442 63.1205 65.3674 62.1831C64.3464 61.2925 63.1918 60.1378 61.8543 58.8002L61.6594 58.6054C60.3211 57.2672 59.1664 56.1125 58.2759 55.0916C57.3384 54.0167 56.4829 52.8592 55.9005 51.4531C54.5868 48.2817 54.5868 44.7181 55.9005 41.5466C56.483 40.1404 57.3387 38.9827 58.2762 37.908C59.1666 36.8871 60.3213 35.7326 61.6591 34.3948L61.8544 34.1995C63.1925 32.8613 64.3471 31.7067 65.368 30.8162C66.4428 29.8787 67.6003 29.0232 69.0065 28.4407ZM48.1531 63.8702C47.096 63.4324 45.9081 63.4324 44.8509 63.8702C44.6714 63.9446 44.3253 64.1283 43.5823 64.7764C42.81 65.45 41.8637 66.393 40.4005 67.8562C38.9378 69.319 37.9948 70.2653 37.3211 71.0376C36.6727 71.7809 36.489 72.1271 36.4147 72.3063C35.9769 73.3635 35.9769 74.5515 36.4147 75.6086C36.4891 75.7882 36.6728 76.1343 37.3209 76.8773C37.9945 77.6496 38.9375 78.5958 40.4007 80.059C41.863 81.5213 42.8094 82.4644 43.582 83.1384C44.3256 83.7871 44.6719 83.9709 44.8508 84.045C45.9079 84.4829 47.096 84.4829 48.1531 84.045C48.3327 83.9706 48.6788 83.7869 49.4218 83.1388C50.1941 82.4652 51.1403 81.5222 52.6035 80.059C54.0656 78.597 55.0075 77.6507 55.6793 76.8794C56.3255 76.1376 56.5099 75.7905 56.5853 75.6086C57.0231 74.5515 57.0231 73.3635 56.5853 72.3063C56.5099 72.1245 56.3256 71.7775 55.6794 71.0358C55.0075 70.2645 54.0656 69.3183 52.6035 67.8562C51.1403 66.393 50.1941 65.45 49.4218 64.7764C48.6788 64.1283 48.3327 63.9446 48.1531 63.8702ZM41.5489 55.8984C44.7203 54.5847 48.2838 54.5847 51.4552 55.8984C52.8614 56.4808 54.0188 57.3363 55.0937 58.2738C56.1146 59.1643 57.2693 60.319 58.6075 61.6573L58.774 61.8238C60.1253 63.1751 61.2891 64.3389 62.1855 65.3679C63.1229 66.4439 63.9756 67.6004 64.5571 69.0043C65.8708 72.1757 65.8708 75.7393 64.5571 78.9107C63.9757 80.3145 63.123 81.471 62.1856 82.5471C61.2888 83.5766 60.1245 84.7409 58.7724 86.093L58.6074 86.258C57.2692 87.5963 56.1146 88.7509 55.0937 89.6414C54.0188 90.579 52.8614 91.4344 51.4552 92.0169C48.2838 93.3305 44.7202 93.3305 41.5488 92.0169C40.1424 91.4343 38.9844 90.5781 37.9098 89.6408C36.8888 88.7501 35.7342 87.5955 34.3967 86.2579L34.2993 86.1604L34.2015 86.0627C32.8634 84.7246 31.7087 83.57 30.8183 82.5492C29.8808 81.4744 29.0253 80.3169 28.4429 78.9107C27.1292 75.7393 27.1292 72.1757 28.4429 69.0043C29.0253 67.598 29.8811 66.4404 30.8185 65.3656C31.7091 64.3447 32.8638 63.19 34.2018 61.8521L34.3965 61.6574C35.7348 60.3191 36.8894 59.1643 37.9104 58.2738C38.9852 57.3363 40.1427 56.4808 41.5489 55.8984Z" fill="#111827"/>
<path d="M222.361 52.5361C222.361 40.8061 230.521 32.8161 241.741 32.8161C253.046 32.8161 261.206 40.8061 261.206 52.5361C261.206 64.1811 253.046 72.1711 241.741 72.1711C230.521 72.1711 222.361 64.1811 222.361 52.5361ZM252.706 52.5361C252.706 44.8861 248.201 40.0411 241.741 40.0411C235.451 40.0411 230.861 44.8861 230.861 52.5361C230.861 60.1011 235.451 64.9461 241.741 64.9461C248.201 64.9461 252.706 60.1011 252.706 52.5361Z" fill="#111827"/>
<path d="M205.109 42.166V71.321H196.694V36.811C200.774 34.516 206.044 33.071 211.399 33.071C214.034 33.071 216.074 33.326 218.624 34.006V42.166C216.244 41.231 213.609 40.976 211.399 40.976C208.849 40.976 206.809 41.486 205.109 42.166Z" fill="#111827"/>
<path d="M187.722 54.4061H161.542V54.5761C162.052 61.2911 167.832 64.9461 173.697 64.9461C178.882 64.9461 182.622 63.7561 186.362 61.2911V68.6861C182.962 71.0661 177.947 72.1711 173.102 72.1711C161.372 72.1711 153.382 64.6911 153.382 52.7911C153.382 40.8061 161.202 32.8161 171.572 32.8161C182.537 32.8161 187.722 39.8711 187.722 50.1561V54.4061ZM171.317 39.8711C166.472 39.8711 162.902 43.2711 161.797 48.9661H179.817C179.647 43.1011 176.757 39.8711 171.317 39.8711Z" fill="#111827"/>
<path d="M137.65 28.4811V71.3211H128.98V28.4811H113V20.8311H153.545V28.4811H137.65Z" fill="#111827"/>
</g>
<path d="M409.963 69.536V61.546C413.448 64.181 417.613 65.796 421.438 65.796C425.178 65.796 427.643 64.521 427.643 61.546C427.643 58.486 425.433 57.381 420.588 56.106C412.768 54.321 409.453 51.176 409.453 44.631C409.453 36.981 415.233 33.241 422.883 33.241C427.133 33.241 430.533 34.176 433.678 36.131V43.866C430.363 41.486 427.133 40.041 423.138 40.041C419.483 40.041 417.528 41.826 417.528 44.291C417.528 46.756 419.143 48.031 423.478 49.221C432.063 51.091 435.803 54.321 435.803 61.121C435.803 69.026 429.768 72.596 421.608 72.596C417.188 72.596 412.768 71.406 409.963 69.536Z" fill="#14B8A6"/>
<path d="M401.936 36.046V44.206C398.791 41.741 395.476 40.721 391.991 40.721C385.191 40.721 379.921 45.056 379.921 52.961C379.921 60.441 385.021 65.201 392.331 65.201C396.071 65.201 399.301 64.011 402.361 61.801V69.791C398.876 71.746 395.221 72.596 391.226 72.596C379.751 72.596 371.421 65.031 371.421 52.961C371.421 40.806 380.176 33.241 391.226 33.241C395.391 33.241 398.621 34.176 401.936 36.046Z" fill="#14B8A6"/>
<path d="M326.182 52.961C326.182 41.231 334.342 33.241 345.562 33.241C356.867 33.241 365.027 41.231 365.027 52.961C365.027 64.606 356.867 72.596 345.562 72.596C334.342 72.596 326.182 64.606 326.182 52.961ZM356.527 52.961C356.527 45.311 352.022 40.466 345.562 40.466C339.272 40.466 334.682 45.311 334.682 52.961C334.682 60.526 339.272 65.371 345.562 65.371C352.022 65.371 356.527 60.526 356.527 52.961Z" fill="#14B8A6"/>
<path d="M276.206 71.576V21.341C279.946 20.831 285.046 20.406 289.636 20.406C309.781 20.406 319.301 30.861 319.301 45.651C319.301 61.801 309.356 72.511 289.806 72.511C284.706 72.511 279.946 72.171 276.206 71.576ZM284.876 28.651V64.606C286.746 64.861 288.701 64.946 290.571 64.946C302.216 64.946 310.291 58.826 310.291 45.651C310.291 34.771 303.321 28.396 289.976 28.396C288.361 28.396 286.576 28.481 284.876 28.651Z" fill="#14B8A6"/>
</g>
<defs>
<clipPath id="clip0_53_53">
<rect width="436" height="93" fill="white"/>
</clipPath>
<clipPath id="clip1_53_53">
<rect width="296.206" height="133.002" fill="white" transform="translate(-20 -20)"/>
</clipPath>
</defs>
</svg>
