<svg width="438" height="96" viewBox="0 0 438 96" fill="none" xmlns="http://www.w3.org/2000/svg">
<g clip-path="url(#clip0_6_355)">
<g clip-path="url(#clip1_6_355)">
<g clip-path="url(#clip2_6_355)">
<path fill-rule="evenodd" clip-rule="evenodd" d="M49.7065 9.2459C48.6152 8.7939 47.389 8.7939 46.2977 9.2459C46.1124 9.32265 45.7552 9.51228 44.9881 10.1813C44.1909 10.8767 43.2141 11.85 41.7038 13.3604C40.1938 14.8703 39.2204 15.8471 38.5249 16.6444C37.8557 17.4116 37.6661 17.7689 37.5894 17.954C37.1374 19.0452 37.1374 20.2715 37.5894 21.3628C37.6662 21.5481 37.8558 21.9053 38.5248 22.6723C39.2202 23.4695 40.1935 24.4463 41.7039 25.9566C43.2134 27.4661 44.1904 28.4396 44.9878 29.1353C45.7555 29.8049 46.113 29.9946 46.2976 30.0711C47.3888 30.5231 48.6152 30.5231 49.7065 30.0711C49.8918 29.9943 50.249 29.8047 51.016 29.1357C51.8132 28.4404 52.79 27.467 54.3004 25.9566C55.8096 24.4475 56.7819 23.4707 57.4754 22.6745C58.1425 21.9088 58.3328 21.5505 58.4106 21.3628C58.8626 20.2715 58.8626 19.0452 58.4106 17.954C58.3329 17.7663 58.1426 17.4081 57.4755 16.6425C56.782 15.8463 55.8097 14.8696 54.3004 13.3604C52.79 11.85 51.8132 10.8766 51.016 10.1813C50.249 9.51228 49.8918 9.32266 49.7065 9.2459ZM42.8892 1.017C46.1629 -0.338999 49.8413 -0.338999 53.115 1.017C54.5666 1.61823 55.7614 2.50127 56.8709 3.46905C57.9247 4.38819 59.1165 5.58007 60.4978 6.96139L60.5986 7.06222L60.67 7.1336C62.0649 8.52844 63.2662 9.72969 64.1915 10.7918C65.1591 11.9025 66.0394 13.0963 66.6396 14.5455C67.9956 17.8191 67.9956 21.4976 66.6396 24.7713C66.0394 26.2203 65.1593 27.4141 64.1916 28.5249C63.2659 29.5876 62.0639 30.7895 60.6682 32.1852L60.498 32.3554C59.1167 33.7368 57.9247 34.9288 56.8709 35.848C55.7614 36.8158 54.5666 37.6988 53.115 38.3C49.8413 39.656 46.1628 39.656 42.889 38.3C41.4373 37.6987 40.242 36.8149 39.1327 35.8473C38.0788 34.928 36.887 33.7361 35.5064 32.3554L35.3049 32.154C33.9235 30.7727 32.7316 29.5809 31.8124 28.5271C30.8446 27.4176 29.9616 26.2228 29.3604 24.7713C28.0044 21.4976 28.0044 17.8191 29.3604 14.5455C29.9616 13.0939 30.8449 11.8989 31.8127 10.7895C32.7319 9.73571 33.9238 8.54391 35.3048 7.16294L35.4056 7.06222L35.5063 6.96152C36.8876 5.58017 38.0794 4.38824 39.1333 3.46906C40.2428 2.50129 41.4376 1.61823 42.8892 1.017ZM21.3631 37.5866C20.2719 37.1346 19.0456 37.1346 17.9544 37.5866C17.7691 37.6634 17.4118 37.853 16.6448 38.522C15.8476 39.2174 14.8708 40.1907 13.3604 41.7011C11.8505 43.211 10.8771 44.1878 10.1816 44.9851C9.51234 45.7524 9.32268 46.1097 9.24605 46.2947C8.79404 47.3859 8.79404 48.6123 9.24605 49.7035C9.3228 49.8888 9.51243 50.2461 10.1814 51.013C10.8768 51.8102 11.8502 52.787 13.3606 54.2974C14.8701 55.8068 15.847 56.7803 16.6445 57.476C17.4122 58.1456 17.7696 58.3354 17.9543 58.4118C19.0455 58.8638 20.2718 58.8638 21.3631 58.4118C21.5484 58.3351 21.9057 58.1454 22.6727 57.4765C23.4699 56.7811 24.4467 55.8077 25.957 54.2974C27.4663 52.7882 28.4385 51.8114 29.1321 51.0153C29.7991 50.2496 29.9895 49.8913 30.0672 49.7035C30.5192 48.6123 30.5192 47.3859 30.0672 46.2947C29.9895 46.107 29.7992 45.7489 29.1322 44.9832C28.4386 44.1871 27.4663 43.2104 25.957 41.7011C24.4467 40.1907 23.4699 39.2174 22.6727 38.522C21.9057 37.853 21.5484 37.6634 21.3631 37.5866ZM14.5458 29.3577C17.8195 28.0017 21.498 28.0017 24.7717 29.3577C26.2232 29.959 27.418 30.842 28.5276 31.8098C29.5813 32.7289 30.7732 33.9208 32.1545 35.3022L32.3267 35.4744C33.7216 36.8692 34.9229 38.0704 35.8482 39.1326C36.8158 40.2433 37.696 41.437 38.2963 42.8862C39.6523 46.1598 39.6523 49.8384 38.2963 53.112C37.696 54.5611 36.8159 55.7549 35.8483 56.8656C34.9225 57.9284 33.7205 59.1303 32.3247 60.526L32.1544 60.6964C30.7731 62.0777 29.5813 63.2696 28.5276 64.1887C27.418 65.1565 26.2232 66.0395 24.7717 66.6407C21.498 67.9967 17.8194 67.9968 14.5457 66.6408C13.0939 66.0394 11.8986 65.1556 10.7893 64.188C9.73542 63.2687 8.54356 62.0768 7.16294 60.6961L7.06233 60.5955L6.9615 60.4947C5.58016 59.1134 4.38826 57.9216 3.4691 56.8679C2.5013 55.7583 1.61826 54.5635 1.01701 53.112C-0.339004 49.8384 -0.339004 46.1598 1.01701 42.8862C1.61829 41.4346 2.50164 40.2396 3.46935 39.1302C4.38857 38.0764 5.58044 36.8846 6.96145 35.5037L7.06221 35.403L7.16299 35.3022C8.54428 33.9208 9.73613 32.7289 10.7899 31.8098C11.8994 30.842 13.0943 29.959 14.5458 29.3577ZM78.0498 37.5866C76.9586 37.1346 75.7323 37.1346 74.6411 37.5866C74.4558 37.6634 74.0985 37.853 73.3315 38.522C72.5343 39.2174 71.5575 40.1907 70.0471 41.7011C68.5372 43.211 67.5638 44.1878 66.8683 44.9851C66.1991 45.7523 66.0094 46.1097 65.9328 46.2947C65.4807 47.3859 65.4807 48.6123 65.9328 49.7035C66.0095 49.8888 66.1991 50.2461 66.8682 51.013C67.5635 51.8102 68.5369 52.787 70.0473 54.2974C71.5568 55.8068 72.5337 56.7803 73.3312 57.476C74.0989 58.1456 74.4563 58.3354 74.641 58.4118C75.7322 58.8638 76.9585 58.8638 78.0498 58.4118C78.2351 58.3351 78.5924 58.1454 79.3594 57.4765C80.1566 56.7811 81.1334 55.8077 82.6438 54.2974C84.1529 52.7882 85.1252 51.8114 85.8188 51.0153C86.4858 50.2495 86.6762 49.8913 86.754 49.7035C87.206 48.6123 87.206 47.3859 86.754 46.2947C86.6762 46.107 86.4859 45.7489 85.8189 44.9832C85.1253 44.187 84.153 43.2103 82.6438 41.7011C81.1334 40.1907 80.1566 39.2174 79.3594 38.522C78.5924 37.853 78.2351 37.6634 78.0498 37.5866ZM71.2325 29.3577C74.5062 28.0017 78.1847 28.0017 81.4584 29.3577C82.9099 29.959 84.1047 30.842 85.2143 31.8098C86.268 32.7289 87.4598 33.9208 88.8411 35.3021L89.0134 35.4744C90.4083 36.8692 91.6096 38.0704 92.5349 39.1326C93.5025 40.2432 94.3827 41.437 94.983 42.8862C96.339 46.1598 96.339 49.8384 94.983 53.112C94.3828 54.5611 93.5026 55.7549 92.535 56.8657C91.6092 57.9284 90.4073 59.1302 89.0116 60.5259L88.8408 60.6967C87.4597 62.0779 86.268 63.2696 85.2143 64.1887C84.1047 65.1565 82.9099 66.0395 81.4584 66.6407C78.1847 67.9967 74.5061 67.9968 71.2324 66.6408C69.7806 66.0394 68.5853 65.1556 67.476 64.188C66.4221 63.2687 65.2302 62.0767 63.8496 60.6961L63.6484 60.4949C62.267 59.1136 61.075 57.9217 60.1558 56.8678C59.188 55.7583 58.305 54.5635 57.7037 53.112C56.3477 49.8384 56.3477 46.1598 57.7037 42.8862C58.305 41.4346 59.1883 40.2396 60.156 39.1302C61.0752 38.0764 62.2671 36.8847 63.6481 35.5038L63.8497 35.3022C65.231 33.9209 66.4228 32.729 67.4766 31.8098C68.5861 30.842 69.781 29.959 71.2325 29.3577ZM49.7065 65.9295C48.6152 65.4775 47.389 65.4775 46.2977 65.9295C46.1124 66.0063 45.7552 66.1959 44.9882 66.8649C44.191 67.5603 43.2142 68.5336 41.7038 70.044C40.1938 71.5539 39.2204 72.5307 38.525 73.328C37.8557 74.0953 37.666 74.4526 37.5894 74.6376C37.1374 75.7288 37.1374 76.9552 37.5894 78.0464C37.6662 78.2317 37.8558 78.589 38.5248 79.356C39.2202 80.1531 40.1935 81.1299 41.7039 82.6403C43.2134 84.1497 44.1903 85.1232 44.9878 85.8189C45.7555 86.4886 46.113 86.6783 46.2976 86.7548C47.3888 87.2067 48.6152 87.2067 49.7065 86.7547C49.8918 86.678 50.249 86.4884 51.016 85.8194C51.8132 85.124 52.79 84.1507 54.3004 82.6403C55.8096 81.1311 56.7819 80.1543 57.4754 79.3582C58.1425 78.5925 58.3328 78.2342 58.4106 78.0464C58.8626 76.9552 58.8626 75.7288 58.4106 74.6376C58.3329 74.4499 58.1426 74.0918 57.4755 73.3261C56.782 72.53 55.8097 71.5533 54.3004 70.044C52.79 68.5336 51.8132 67.5603 51.016 66.8649C50.249 66.1959 49.8918 66.0063 49.7065 65.9295ZM42.8892 57.7006C46.1629 56.3446 49.8413 56.3446 53.115 57.7006C54.5666 58.3019 55.7614 59.1849 56.8709 60.1527C57.9247 61.0719 59.1167 62.2638 60.498 63.6453L60.6699 63.8171C62.0649 65.212 63.2662 66.4133 64.1915 67.4755C65.1591 68.5862 66.0394 69.7799 66.6396 71.2291C67.9956 74.5028 67.9956 78.1813 66.6396 81.4549C66.0394 82.904 65.1593 84.0978 64.1916 85.2086C63.2659 86.2713 62.064 87.4731 60.6683 88.8688L60.4979 89.0391C59.1166 90.4205 57.9247 91.6124 56.8709 92.5316C55.7614 93.4994 54.5666 94.3824 53.115 94.9836C49.8413 96.3396 46.1628 96.3397 42.889 94.9837C41.4373 94.3823 40.242 93.4986 39.1327 92.5309C38.0788 91.6116 36.8869 90.4197 35.5063 89.039L35.4057 88.9384L35.3048 88.8375C33.9235 87.4563 32.7316 86.2645 31.8125 85.2108C30.8447 84.1012 29.9616 82.9064 29.3604 81.4549C28.0044 78.1813 28.0044 74.5028 29.3604 71.2291C29.9616 69.7775 30.845 68.5825 31.8127 67.4731C32.732 66.4193 33.9239 65.2274 35.3051 63.8463L35.5061 63.6453C36.8875 62.2639 38.0794 61.0719 39.1333 60.1527C40.2428 59.1849 41.4376 58.3019 42.8892 57.7006Z" fill="#020618"/>
</g>
<path d="M222.361 53.7054C222.361 41.9754 230.521 33.9854 241.741 33.9854C253.046 33.9854 261.206 41.9754 261.206 53.7054C261.206 65.3504 253.046 73.3404 241.741 73.3404C230.521 73.3404 222.361 65.3504 222.361 53.7054ZM252.706 53.7054C252.706 46.0554 248.201 41.2104 241.741 41.2104C235.451 41.2104 230.861 46.0554 230.861 53.7054C230.861 61.2704 235.451 66.1154 241.741 66.1154C248.201 66.1154 252.706 61.2704 252.706 53.7054Z" fill="#020618"/>
<path d="M205.11 43.3352V72.4902H196.695V37.9802C200.775 35.6852 206.045 34.2402 211.4 34.2402C214.035 34.2402 216.075 34.4952 218.625 35.1752V43.3352C216.245 42.4002 213.61 42.1452 211.4 42.1452C208.85 42.1452 206.81 42.6552 205.11 43.3352Z" fill="#020618"/>
<path d="M187.721 55.5754H161.541V55.7453C162.051 62.4604 167.831 66.1154 173.696 66.1154C178.881 66.1154 182.621 64.9254 186.361 62.4604V69.8554C182.961 72.2354 177.946 73.3404 173.101 73.3404C161.371 73.3404 153.381 65.8604 153.381 53.9604C153.381 41.9753 161.201 33.9854 171.571 33.9854C182.536 33.9854 187.721 41.0404 187.721 51.3254V55.5754ZM171.316 41.0404C166.471 41.0404 162.901 44.4404 161.796 50.1354H179.816C179.646 44.2704 176.756 41.0404 171.316 41.0404Z" fill="#020618"/>
<path d="M137.65 29.65V72.49H128.98V29.65H113V22H153.545V29.65H137.65Z" fill="#020618"/>
</g>
<path d="M411.756 71.13V63.14C415.241 65.775 419.406 67.39 423.231 67.39C426.971 67.39 429.436 66.115 429.436 63.14C429.436 60.08 427.226 58.975 422.381 57.7C414.561 55.915 411.246 52.77 411.246 46.225C411.246 38.575 417.026 34.835 424.676 34.835C428.926 34.835 432.326 35.77 435.471 37.725V45.46C432.156 43.08 428.926 41.635 424.931 41.635C421.276 41.635 419.321 43.42 419.321 45.885C419.321 48.35 420.936 49.625 425.271 50.815C433.856 52.685 437.596 55.915 437.596 62.715C437.596 70.62 431.561 74.19 423.401 74.19C418.981 74.19 414.561 73 411.756 71.13Z" fill="#38BDF8"/>
<path d="M403.73 37.64V45.8C400.585 43.335 397.27 42.315 393.785 42.315C386.985 42.315 381.715 46.65 381.715 54.555C381.715 62.035 386.815 66.795 394.125 66.795C397.865 66.795 401.095 65.605 404.155 63.395V71.385C400.67 73.34 397.015 74.19 393.02 74.19C381.545 74.19 373.215 66.625 373.215 54.555C373.215 42.4 381.97 34.835 393.02 34.835C397.185 34.835 400.415 35.77 403.73 37.64Z" fill="#38BDF8"/>
<path d="M327.977 54.555C327.977 42.825 336.137 34.835 347.357 34.835C358.662 34.835 366.822 42.825 366.822 54.555C366.822 66.2 358.662 74.19 347.357 74.19C336.137 74.19 327.977 66.2 327.977 54.555ZM358.322 54.555C358.322 46.905 353.817 42.06 347.357 42.06C341.067 42.06 336.477 46.905 336.477 54.555C336.477 62.12 341.067 66.965 347.357 66.965C353.817 66.965 358.322 62.12 358.322 54.555Z" fill="#38BDF8"/>
<path d="M278 73.17V22.935C281.74 22.425 286.84 22 291.43 22C311.575 22 321.095 32.455 321.095 47.245C321.095 63.395 311.15 74.105 291.6 74.105C286.5 74.105 281.74 73.765 278 73.17ZM286.67 30.245V66.2C288.54 66.455 290.495 66.54 292.365 66.54C304.01 66.54 312.085 60.42 312.085 47.245C312.085 36.365 305.115 29.99 291.77 29.99C290.155 29.99 288.37 30.075 286.67 30.245Z" fill="#38BDF8"/>
</g>
<defs>
<clipPath id="clip0_6_355">
<rect width="438" height="96" fill="white"/>
</clipPath>
<clipPath id="clip1_6_355">
<rect width="262" height="96" fill="white"/>
</clipPath>
<clipPath id="clip2_6_355">
<rect width="96" height="96" fill="white"/>
</clipPath>
</defs>
</svg>
