<svg width="1920" height="768" viewBox="0 0 1920 768" fill="none" xmlns="http://www.w3.org/2000/svg">
<g clip-path="url(#clip0_83_1748)">
<rect width="1920" height="768" fill="#111827"/>
<g filter="url(#filter0_f_83_1748)">
<ellipse cx="2081" cy="693.689" rx="830" ry="496" fill="#4200FF"/>
</g>
<g filter="url(#filter1_f_83_1748)">
<ellipse cx="681.68" cy="316.107" rx="681.68" ry="316.107" transform="matrix(0.992714 -0.120492 0.233398 0.972381 196 598.763)" fill="#001F8F"/>
</g>
<g filter="url(#filter2_f_83_1748)">
<ellipse cx="1393.5" cy="981.689" rx="702.5" ry="499.556" fill="#00FFF0"/>
</g>
<g filter="url(#filter3_b_83_1748)">
<rect width="1920" height="768" fill="black" fill-opacity="0.2"/>
</g>
<g filter="url(#filter4_d_83_1748)">
<path fill-rule="evenodd" clip-rule="evenodd" d="M961.676 234.794C959.575 233.924 957.215 233.924 955.115 234.794C954.758 234.941 954.07 235.306 952.594 236.594C951.059 237.932 949.179 239.806 946.272 242.713C943.366 245.62 941.492 247.5 940.153 249.034C938.865 250.511 938.5 251.199 938.353 251.555C937.483 253.655 937.483 256.016 938.353 258.116C938.5 258.473 938.865 259.161 940.153 260.637C941.491 262.171 943.365 264.051 946.272 266.959C949.178 269.864 951.058 271.738 952.593 273.077C954.071 274.366 954.759 274.731 955.114 274.878C957.215 275.748 959.575 275.748 961.676 274.878C962.032 274.73 962.72 274.365 964.196 273.078C965.731 271.739 967.611 269.866 970.518 266.959C973.423 264.054 975.295 262.174 976.629 260.641C977.913 259.167 978.28 258.478 978.429 258.116C979.299 256.016 979.299 253.655 978.429 251.555C978.28 251.194 977.914 250.504 976.63 249.031C975.295 247.498 973.423 245.618 970.518 242.713C967.611 239.806 965.731 237.932 964.196 236.594C962.72 235.306 962.032 234.941 961.676 234.794ZM948.554 218.954C954.855 216.344 961.935 216.344 968.237 218.954C971.03 220.112 973.33 221.811 975.466 223.674C977.494 225.443 979.788 227.738 982.447 230.396L982.641 230.59L982.778 230.728C985.463 233.413 987.776 235.725 989.557 237.769C991.419 239.907 993.113 242.205 994.269 244.994C996.879 251.295 996.879 258.376 994.269 264.677C993.113 267.466 991.419 269.764 989.557 271.902C987.775 273.948 985.461 276.261 982.775 278.947L982.447 279.275C979.789 281.934 977.494 284.228 975.466 285.998C973.33 287.86 971.03 289.56 968.237 290.717C961.935 293.327 954.855 293.327 948.553 290.717C945.759 289.56 943.458 287.859 941.323 285.996C939.295 284.227 937.001 281.933 934.343 279.275L933.955 278.887C931.297 276.229 929.002 273.935 927.233 271.906C925.37 269.771 923.671 267.471 922.513 264.677C919.903 258.376 919.903 251.295 922.513 244.994C923.671 242.2 925.371 239.9 927.233 237.765C929.003 235.736 931.297 233.442 933.955 230.784L934.149 230.59L934.343 230.397C937.002 227.738 939.296 225.443 941.324 223.674C943.46 221.811 945.76 220.112 948.554 218.954ZM907.12 289.344C905.02 288.474 902.659 288.474 900.559 289.344C900.202 289.492 899.514 289.857 898.038 291.145C896.504 292.483 894.624 294.357 891.716 297.264C888.81 300.17 886.936 302.05 885.598 303.585C884.31 305.062 883.944 305.749 883.797 306.106C882.927 308.206 882.927 310.566 883.797 312.667C883.945 313.024 884.31 313.711 885.597 315.187C886.936 316.722 888.809 318.602 891.717 321.509C894.622 324.415 896.503 326.288 898.038 327.627C899.515 328.916 900.203 329.282 900.559 329.429C902.659 330.299 905.02 330.299 907.12 329.429C907.477 329.281 908.164 328.916 909.641 327.628C911.175 326.29 913.055 324.416 915.962 321.509C918.867 318.604 920.739 316.724 922.074 315.192C923.358 313.718 923.724 313.028 923.874 312.667C924.744 310.566 924.744 308.206 923.874 306.106C923.724 305.744 923.358 305.055 922.074 303.581C920.739 302.049 918.868 300.169 915.962 297.264C913.055 294.357 911.175 292.483 909.641 291.145C908.164 289.857 907.477 289.492 907.12 289.344ZM893.998 273.505C900.299 270.895 907.38 270.895 913.681 273.505C916.475 274.662 918.775 276.362 920.91 278.225C922.939 279.994 925.233 282.288 927.891 284.947L928.223 285.279C930.908 287.963 933.22 290.275 935.001 292.32C936.864 294.458 938.558 296.755 939.713 299.545C942.323 305.846 942.323 312.926 939.713 319.228C938.558 322.017 936.864 324.315 935.001 326.453C933.219 328.498 930.906 330.812 928.219 333.498L927.891 333.826C925.233 336.485 922.939 338.779 920.91 340.548C918.775 342.411 916.475 344.111 913.681 345.268C907.38 347.878 900.299 347.878 893.998 345.268C891.203 344.11 888.903 342.409 886.768 340.547C884.739 338.777 882.445 336.483 879.787 333.826L879.594 333.632L879.4 333.438C876.741 330.779 874.447 328.485 872.677 326.457C870.815 324.321 869.115 322.022 867.958 319.228C865.348 312.926 865.348 305.846 867.958 299.545C869.115 296.751 870.815 294.451 872.678 292.315C874.447 290.287 876.741 287.993 879.4 285.335L879.593 285.141L879.787 284.947C882.446 282.288 884.74 279.994 886.769 278.225C888.904 276.362 891.204 274.662 893.998 273.505ZM1016.23 289.344C1014.13 288.474 1011.77 288.474 1009.67 289.344C1009.31 289.492 1008.63 289.857 1007.15 291.145C1005.61 292.483 1003.73 294.357 1000.83 297.264C997.921 300.17 996.048 302.05 994.709 303.585C993.421 305.062 993.056 305.749 992.908 306.106C992.038 308.206 992.038 310.566 992.908 312.667C993.056 313.024 993.421 313.711 994.709 315.187C996.047 316.722 997.921 318.602 1000.83 321.509C1003.73 324.415 1005.61 326.288 1007.15 327.627C1008.63 328.916 1009.31 329.282 1009.67 329.429C1011.77 330.299 1014.13 330.299 1016.23 329.429C1016.59 329.281 1017.28 328.916 1018.75 327.628C1020.29 326.29 1022.17 324.416 1025.07 321.509C1027.98 318.604 1029.85 316.724 1031.19 315.192C1032.47 313.718 1032.84 313.028 1032.99 312.667C1033.86 310.566 1033.86 308.206 1032.99 306.106C1032.84 305.744 1032.47 305.055 1031.19 303.581C1029.85 302.049 1027.98 300.169 1025.07 297.264C1022.17 294.357 1020.29 292.483 1018.75 291.145C1017.28 289.857 1016.59 289.492 1016.23 289.344ZM1003.11 273.505C1009.41 270.895 1016.49 270.895 1022.79 273.505C1025.59 274.662 1027.89 276.362 1030.02 278.225C1032.05 279.994 1034.34 282.288 1037 284.947L1037.33 285.279C1040.02 287.963 1042.33 290.275 1044.11 292.32C1045.97 294.458 1047.67 296.755 1048.82 299.545C1051.43 305.846 1051.43 312.926 1048.82 319.228C1047.67 322.017 1045.97 324.315 1044.11 326.453C1042.33 328.498 1040.02 330.812 1037.33 333.498L1037 333.827C1034.34 336.485 1032.05 338.779 1030.02 340.548C1027.89 342.411 1025.59 344.111 1022.79 345.268C1016.49 347.878 1009.41 347.878 1003.11 345.268C1000.31 344.11 998.014 342.409 995.879 340.547C993.85 338.777 991.556 336.483 988.899 333.825L988.511 333.438C985.852 330.779 983.558 328.485 981.789 326.457C979.926 324.321 978.226 322.021 977.069 319.228C974.459 312.926 974.459 305.846 977.069 299.545C978.226 296.751 979.926 294.451 981.789 292.315C983.558 290.287 985.853 287.993 988.511 285.335L988.899 284.947C991.557 282.288 993.852 279.994 995.88 278.225C998.015 276.362 1000.32 274.662 1003.11 273.505ZM961.676 343.899C959.575 343.029 957.215 343.029 955.114 343.899C954.758 344.047 954.07 344.412 952.594 345.699C951.059 347.038 949.179 348.911 946.272 351.818C943.366 354.725 941.492 356.605 940.153 358.14C938.865 359.616 938.5 360.304 938.353 360.66C937.483 362.761 937.483 365.121 938.353 367.222C938.5 367.578 938.865 368.266 940.153 369.742C941.491 371.277 943.365 373.157 946.272 376.064C949.178 378.969 951.058 380.843 952.593 382.182C954.071 383.471 954.759 383.836 955.114 383.984C957.215 384.854 959.575 384.854 961.676 383.984C962.032 383.836 962.72 383.471 964.196 382.183C965.731 380.845 967.611 378.971 970.518 376.064C973.423 373.159 975.295 371.279 976.629 369.747C977.913 368.273 978.28 367.583 978.429 367.222C979.299 365.121 979.299 362.761 978.429 360.66C978.28 360.299 977.914 359.61 976.63 358.136C975.295 356.604 973.423 354.724 970.518 351.818C967.611 348.911 965.731 347.038 964.196 345.699C962.72 344.412 962.032 344.047 961.676 343.899ZM948.554 328.06C954.855 325.45 961.935 325.45 968.237 328.06C971.03 329.217 973.33 330.917 975.466 332.78C977.494 334.549 979.789 336.843 982.447 339.502L982.778 339.833C985.463 342.518 987.776 344.83 989.557 346.875C991.419 349.012 993.113 351.31 994.269 354.1C996.879 360.401 996.879 367.481 994.269 373.782C993.113 376.572 991.419 378.869 989.557 381.007C987.775 383.053 985.462 385.366 982.775 388.053L982.447 388.381C979.788 391.039 977.494 393.334 975.466 395.103C973.33 396.966 971.03 398.665 968.237 399.823C961.935 402.433 954.855 402.433 948.553 399.823C945.759 398.665 943.458 396.964 941.323 395.102C939.295 393.332 937 391.038 934.343 388.38L934.149 388.187L933.955 387.992C931.296 385.334 929.002 383.04 927.233 381.012C925.37 378.876 923.671 376.576 922.513 373.782C919.903 367.481 919.903 360.401 922.513 354.1C923.671 351.306 925.371 349.005 927.234 346.87C929.003 344.842 931.297 342.547 933.956 339.889L934.343 339.502C937.002 336.843 939.296 334.549 941.324 332.78C943.46 330.917 945.76 329.217 948.554 328.06Z" fill="white"/>
</g>
<path d="M469.04 429.488V494H455.984V429.488H431.92V417.968H492.976V429.488H469.04ZM544.442 468.528H505.018V468.784C505.786 478.896 514.49 484.4 523.322 484.4C531.13 484.4 536.762 482.608 542.394 478.896V490.032C537.274 493.616 529.722 495.28 522.426 495.28C504.762 495.28 492.73 484.016 492.73 466.096C492.73 448.048 504.506 436.016 520.122 436.016C536.634 436.016 544.442 446.64 544.442 462.128V468.528ZM519.738 446.64C512.442 446.64 507.066 451.76 505.402 460.336H532.538C532.282 451.504 527.93 446.64 519.738 446.64ZM570.626 450.096V494H557.954V442.032C564.098 438.576 572.034 436.4 580.098 436.4C584.066 436.4 587.138 436.784 590.978 437.808V450.096C587.394 448.688 583.426 448.304 580.098 448.304C576.258 448.304 573.186 449.072 570.626 450.096ZM596.605 465.712C596.605 448.048 608.893 436.016 625.789 436.016C642.813 436.016 655.101 448.048 655.101 465.712C655.101 483.248 642.813 495.28 625.789 495.28C608.893 495.28 596.605 483.248 596.605 465.712ZM642.301 465.712C642.301 454.192 635.517 446.896 625.789 446.896C616.317 446.896 609.405 454.192 609.405 465.712C609.405 477.104 616.317 484.4 625.789 484.4C635.517 484.4 642.301 477.104 642.301 465.712Z" fill="white"/>
<path d="M693.472 493.744V418.096C699.104 417.328 706.784 416.688 713.696 416.688C744.032 416.688 758.368 432.432 758.368 454.704C758.368 479.024 743.392 495.152 713.952 495.152C706.272 495.152 699.104 494.64 693.472 493.744ZM706.528 429.104V483.248C709.344 483.632 712.288 483.76 715.104 483.76C732.64 483.76 744.8 474.544 744.8 454.704C744.8 438.32 734.304 428.72 714.208 428.72C711.776 428.72 709.088 428.848 706.528 429.104ZM768.73 465.712C768.73 448.048 781.018 436.016 797.914 436.016C814.938 436.016 827.226 448.048 827.226 465.712C827.226 483.248 814.938 495.28 797.914 495.28C781.018 495.28 768.73 483.248 768.73 465.712ZM814.426 465.712C814.426 454.192 807.642 446.896 797.914 446.896C788.442 446.896 781.53 454.192 781.53 465.712C781.53 477.104 788.442 484.4 797.914 484.4C807.642 484.4 814.426 477.104 814.426 465.712ZM882.807 440.24V452.528C878.071 448.816 873.079 447.28 867.831 447.28C857.591 447.28 849.655 453.808 849.655 465.712C849.655 476.976 857.335 484.144 868.343 484.144C873.975 484.144 878.839 482.352 883.447 479.024V491.056C878.199 494 872.695 495.28 866.679 495.28C849.399 495.28 836.855 483.888 836.855 465.712C836.855 447.408 850.039 436.016 866.679 436.016C872.951 436.016 877.815 437.424 882.807 440.24ZM943.933 437.296V492.72C937.277 494.384 928.573 495.28 921.917 495.28C905.661 495.28 895.677 490.032 895.677 474.16V437.296H908.221V473.264C908.221 481.712 913.341 484.784 921.661 484.784C924.477 484.784 928.061 484.528 931.389 484.016V437.296H943.933ZM1007.15 449.712C1007.92 451.504 1008.43 453.808 1008.43 456.88V494H995.886V457.648C995.886 450.096 991.662 447.152 985.518 447.152C980.91 447.152 977.326 448.048 974.126 449.072V494H961.454V441.008C969.262 438.064 977.966 436.016 986.03 436.016C992.686 436.016 997.934 437.68 1001.39 440.496C1007.15 438.064 1013.55 436.016 1021.23 436.016C1034.8 436.016 1042.86 441.52 1042.86 457.264V494H1030.32V457.648C1030.32 450.096 1025.97 447.152 1019.95 447.152C1014.96 447.152 1009.97 448.432 1007.15 449.712ZM1107.07 468.528H1067.64V468.784C1068.41 478.896 1077.12 484.4 1085.95 484.4C1093.76 484.4 1099.39 482.608 1105.02 478.896V490.032C1099.9 493.616 1092.35 495.28 1085.05 495.28C1067.39 495.28 1055.36 484.016 1055.36 466.096C1055.36 448.048 1067.13 436.016 1082.75 436.016C1099.26 436.016 1107.07 446.64 1107.07 462.128V468.528ZM1082.36 446.64C1075.07 446.64 1069.69 451.76 1068.03 460.336H1095.16C1094.91 451.504 1090.56 446.64 1082.36 446.64ZM1120.58 494V440.88C1128.52 437.808 1138.24 436.016 1146.56 436.016C1161.03 436.016 1170.24 441.52 1170.24 457.52V494H1157.7V458.672C1157.7 450.48 1152.58 447.536 1145.54 447.536C1141.06 447.536 1136.58 448.176 1133.25 449.2V494H1120.58ZM1179.27 447.92V437.296H1187.85V423.472H1200.39V437.296H1216.52V447.92H1200.39V474.928C1200.39 481.712 1203.34 484.016 1208.2 484.016C1211.91 484.016 1215.11 482.864 1218.57 480.816V492.208C1214.86 494.128 1210.25 495.28 1204.87 495.28C1195.66 495.28 1187.85 490.672 1187.85 477.744V447.92H1179.27ZM1259.37 485.04V469.168H1254C1245.17 469.168 1239.41 471.728 1239.41 477.488C1239.41 483.376 1244.78 485.68 1252.46 485.68C1254.38 485.68 1257.07 485.424 1259.37 485.04ZM1259.37 460.72V455.984C1259.37 449.84 1254.77 447.024 1248.49 447.024C1241.97 447.024 1236.85 448.944 1232.11 451.632V440.624C1237.1 437.808 1243.5 436.016 1250.54 436.016C1262.96 436.016 1271.79 441.136 1271.79 455.344V492.848C1266.41 494.256 1258.73 495.152 1252.33 495.152C1237.61 495.152 1226.86 490.672 1226.86 477.872C1226.86 466.352 1236.72 460.72 1253.1 460.72H1259.37ZM1280.65 447.92V437.296H1289.23V423.472H1301.77V437.296H1317.9V447.92H1301.77V474.928C1301.77 481.712 1304.71 484.016 1309.58 484.016C1313.29 484.016 1316.49 482.864 1319.95 480.816V492.208C1316.23 494.128 1311.62 495.28 1306.25 495.28C1297.03 495.28 1289.23 490.672 1289.23 477.744V447.92H1280.65ZM1344.88 437.296V494H1332.2V437.296H1344.88ZM1338.6 427.952C1334.25 427.952 1330.54 424.368 1330.54 420.016C1330.54 415.664 1334.25 412.208 1338.6 412.208C1342.83 412.208 1346.54 415.664 1346.54 420.016C1346.54 424.368 1342.83 427.952 1338.6 427.952ZM1358.11 465.712C1358.11 448.048 1370.39 436.016 1387.29 436.016C1404.31 436.016 1416.6 448.048 1416.6 465.712C1416.6 483.248 1404.31 495.28 1387.29 495.28C1370.39 495.28 1358.11 483.248 1358.11 465.712ZM1403.8 465.712C1403.8 454.192 1397.02 446.896 1387.29 446.896C1377.82 446.896 1370.91 454.192 1370.91 465.712C1370.91 477.104 1377.82 484.4 1387.29 484.4C1397.02 484.4 1403.8 477.104 1403.8 465.712ZM1429.83 494V440.88C1437.77 437.808 1447.49 436.016 1455.81 436.016C1470.28 436.016 1479.49 441.52 1479.49 457.52V494H1466.95V458.672C1466.95 450.48 1461.83 447.536 1454.79 447.536C1450.31 447.536 1445.83 448.176 1442.5 449.2V494H1429.83Z" fill="#2DD4BF"/>
<path d="M527.14 534.536H531.748L526.9 569H522.292L524.5 553.208H506.02L503.812 569H499.204L504.052 534.536H508.66L506.596 549.176H525.076L527.14 534.536ZM554.756 569C551.204 569.624 548.948 568.376 548.564 566.312C547.076 568.136 544.34 569.432 541.172 569.432C536.612 569.432 533.204 566.936 533.204 562.52C533.204 558.248 536.42 555.032 543.428 553.928L550.052 552.872L550.244 551.72C550.628 548.984 548.9 547.208 545.684 547.208C542.708 547.16 540.644 548.504 539.54 551.288L535.7 549.992C537.428 545.864 541.028 543.416 546.116 543.416C551.636 543.416 555.236 546.44 554.516 551.528L552.788 563.816C552.596 565.256 553.316 565.784 555.236 565.544L554.756 569ZM548.948 560.552L549.572 556.28L543.956 557.24C539.348 557.96 537.476 559.688 537.476 562.328C537.476 564.632 539.3 565.928 542.036 565.928C545.828 565.928 548.564 563.576 548.948 560.552ZM568.954 569H564.682L559.306 543.896H563.674L567.514 563.672L577.738 543.896H582.346L568.954 569ZM593.105 569.528C586.481 569.528 582.449 565.016 582.449 558.2C582.449 550.328 587.537 543.416 595.361 543.416C602.273 543.416 605.921 548.744 604.865 555.848L604.673 557.144H586.625V557.912C586.625 562.952 589.313 565.784 593.345 565.784C596.561 565.784 599.105 563.96 600.353 560.984L603.761 562.568C601.793 567.032 598.001 569.528 593.105 569.528ZM595.073 547.112C591.137 547.112 588.305 549.896 587.201 553.832H600.833C601.217 549.8 599.009 547.112 595.073 547.112ZM644.514 545.24C643.602 540.776 640.53 538.088 636.066 538.088C628.674 538.088 623.538 545.624 623.538 553.88C623.538 560.984 627.474 565.448 632.994 565.448C637.074 565.448 640.578 563.048 642.546 558.584L646.626 560.36C643.794 566.312 639.138 569.528 632.946 569.528C624.642 569.528 618.93 563.576 618.93 554.12C618.93 543.608 625.89 534.008 636.21 534.008C642.738 534.008 647.682 537.752 648.786 543.944L644.514 545.24ZM662.908 543.416C669.292 543.416 673.324 547.736 673.324 554.792C673.324 562.76 668.236 569.528 660.412 569.528C654.028 569.528 649.996 565.16 649.996 558.152C649.996 550.184 655.084 543.416 662.908 543.416ZM660.652 565.832C665.596 565.832 669.004 560.888 669.004 554.936C669.004 549.848 666.46 547.064 662.668 547.064C657.772 547.064 654.316 552.056 654.316 558.008C654.316 563.096 656.86 565.832 660.652 565.832ZM676.949 569L680.453 543.896H684.821L684.341 547.112C686.069 544.808 688.805 543.416 691.973 543.416C697.061 543.416 700.181 546.92 699.365 552.872L697.109 569H692.789L694.949 553.544C695.477 549.752 693.797 547.448 690.389 547.448C686.741 547.448 683.957 550.04 683.381 554.072L681.269 569H676.949ZM719.883 534.248L719.307 538.04C715.179 537.32 713.403 538.616 712.923 542.168L712.683 543.896H718.299L717.771 547.592H712.155L709.179 569H704.859L707.835 547.592H704.091L704.619 543.896H708.363L708.699 541.736C709.515 536.024 713.115 533.24 719.883 534.248ZM722.698 539.528L723.418 534.536H728.122L727.402 539.528H722.698ZM726.634 543.896L723.082 569H718.762L722.266 543.896H726.634ZM730.245 558.44C730.245 550.376 735.045 543.368 742.485 543.368C746.085 543.368 748.965 545.048 750.213 547.976L752.085 534.536H756.405L751.557 569H747.237L747.717 565.448C746.181 567.8 743.349 569.48 739.893 569.48C733.989 569.48 730.245 565.112 730.245 558.44ZM748.965 557.384L749.205 555.656C749.877 550.472 746.997 547.16 742.869 547.16C737.973 547.16 734.661 552.056 734.661 558.104C734.661 562.856 737.061 565.688 740.997 565.688C745.125 565.688 748.293 562.472 748.965 557.384ZM769.402 569.528C762.778 569.528 758.746 565.016 758.746 558.2C758.746 550.328 763.834 543.416 771.658 543.416C778.57 543.416 782.218 548.744 781.162 555.848L780.97 557.144H762.922V557.912C762.922 562.952 765.61 565.784 769.642 565.784C772.858 565.784 775.402 563.96 776.65 560.984L780.058 562.568C778.09 567.032 774.298 569.528 769.402 569.528ZM771.37 547.112C767.434 547.112 764.602 549.896 763.498 553.832H777.13C777.514 549.8 775.306 547.112 771.37 547.112ZM784.574 569L788.078 543.896H792.446L791.966 547.112C793.694 544.808 796.43 543.416 799.598 543.416C804.686 543.416 807.806 546.92 806.99 552.872L804.734 569H800.414L802.574 553.544C803.102 549.752 801.422 547.448 798.014 547.448C794.366 547.448 791.582 550.04 791.006 554.072L788.894 569H784.574ZM815.94 557.96C815.94 563 818.628 565.736 822.468 565.736C825.684 565.736 828.036 563.912 829.236 560.552L832.692 562.136C831.108 566.648 827.22 569.528 822.132 569.528C815.94 569.528 811.62 565.208 811.62 558.2C811.62 550.376 816.852 543.416 824.676 543.416C829.956 543.416 833.412 546.632 834.228 550.808L830.34 552.344C829.716 549.128 827.652 547.16 824.436 547.16C819.54 547.16 815.94 552.056 815.94 557.96ZM847.214 569.528C840.59 569.528 836.558 565.016 836.558 558.2C836.558 550.328 841.646 543.416 849.47 543.416C856.382 543.416 860.03 548.744 858.974 555.848L858.782 557.144H840.734V557.912C840.734 562.952 843.422 565.784 847.454 565.784C850.67 565.784 853.214 563.96 854.462 560.984L857.87 562.568C855.902 567.032 852.11 569.528 847.214 569.528ZM849.182 547.112C845.246 547.112 842.414 549.896 841.31 553.832H854.942C855.326 549.8 853.118 547.112 849.182 547.112ZM882.16 534.536L877.312 569H872.704L877.552 534.536H882.16ZM884.699 569L888.203 543.896H892.571L892.091 547.112C893.819 544.808 896.555 543.416 899.723 543.416C904.811 543.416 907.931 546.92 907.115 552.872L904.859 569H900.539L902.699 553.544C903.227 549.752 901.547 547.448 898.139 547.448C894.491 547.448 891.707 550.04 891.131 554.072L889.019 569H884.699ZM935.934 550.424L947.982 534.536H953.118L937.806 554.504L935.79 569H931.182L933.246 554.504L923.502 534.536H928.302L935.934 550.424ZM960.752 543.416C967.136 543.416 971.168 547.736 971.168 554.792C971.168 562.76 966.08 569.528 958.256 569.528C951.872 569.528 947.84 565.16 947.84 558.152C947.84 550.184 952.928 543.416 960.752 543.416ZM958.496 565.832C963.44 565.832 966.848 560.888 966.848 554.936C966.848 549.848 964.304 547.064 960.512 547.064C955.616 547.064 952.16 552.056 952.16 558.008C952.16 563.096 954.704 565.832 958.496 565.832ZM998.123 543.896L994.619 569H990.299L990.731 565.784C989.003 568.088 986.267 569.48 983.147 569.48C978.011 569.48 974.891 565.976 975.707 560.024L977.963 543.896H982.283L980.123 559.352C979.595 563.144 981.275 565.448 984.683 565.448C988.331 565.448 991.115 562.856 991.691 558.824L993.803 543.896H998.123ZM1018.3 543.848L1017.73 548.168C1017.06 548.024 1016.34 547.928 1015.76 547.928C1012.06 547.928 1008.66 550.808 1008.03 555.464L1006.11 569H1001.79L1005.3 543.896H1009.66L1009.04 548.024C1010.48 545.48 1013.12 543.704 1016.43 543.704C1017.01 543.704 1017.78 543.752 1018.3 543.848ZM1047.59 534.008C1055.89 534.008 1061.6 539.912 1061.6 549.368C1061.6 560.024 1054.64 569.528 1044.28 569.528C1035.97 569.528 1030.21 563.624 1030.21 554.168C1030.21 543.512 1037.22 534.008 1047.59 534.008ZM1047.4 538.088C1039.96 538.088 1034.87 545.48 1034.87 553.928C1034.87 561.08 1038.66 565.448 1044.52 565.448C1051.91 565.448 1057 558.056 1057 549.608C1057 542.456 1053.2 538.088 1047.4 538.088ZM1079.73 543.416C1085.63 543.416 1089.38 547.736 1089.38 554.456C1089.38 562.52 1084.53 569.528 1077.09 569.528C1073.54 569.528 1070.66 567.8 1069.36 564.92L1068.83 569H1064.51L1069.36 534.536H1073.68L1071.86 547.448C1073.39 545.048 1076.22 543.416 1079.73 543.416ZM1070.61 555.512L1070.42 557.192C1069.7 562.424 1072.62 565.736 1076.7 565.736C1081.6 565.736 1084.96 560.84 1084.96 554.792C1084.96 549.992 1082.56 547.208 1078.62 547.208C1074.45 547.208 1071.28 550.376 1070.61 555.512ZM1090.85 563.192L1094.07 560.744C1095.56 564.008 1098.63 565.928 1102.08 565.928C1105.59 565.928 1107.6 564.152 1107.6 561.896C1107.6 560.168 1106.55 559.064 1102.23 558.056C1096.37 556.664 1094.31 554.648 1094.31 551.144C1094.31 546.92 1097.76 543.416 1103.67 543.416C1108.52 543.416 1112.07 545.96 1113.27 548.936L1110.1 551.288C1109.04 548.744 1106.5 546.968 1103.33 546.968C1100.26 546.968 1098.44 548.6 1098.44 550.664C1098.44 552.44 1099.83 553.4 1104.15 554.408C1109.76 555.8 1111.78 557.912 1111.78 561.368C1111.78 565.784 1108.13 569.528 1101.89 569.528C1096.61 569.528 1092.34 566.744 1090.85 563.192ZM1126.54 569.528C1119.92 569.528 1115.89 565.016 1115.89 558.2C1115.89 550.328 1120.97 543.416 1128.8 543.416C1135.71 543.416 1139.36 548.744 1138.3 555.848L1138.11 557.144H1120.06V557.912C1120.06 562.952 1122.75 565.784 1126.78 565.784C1130 565.784 1132.54 563.96 1133.79 560.984L1137.2 562.568C1135.23 567.032 1131.44 569.528 1126.54 569.528ZM1128.51 547.112C1124.57 547.112 1121.74 549.896 1120.64 553.832H1134.27C1134.65 549.8 1132.45 547.112 1128.51 547.112ZM1158.23 543.848L1157.65 548.168C1156.98 548.024 1156.26 547.928 1155.68 547.928C1151.99 547.928 1148.58 550.808 1147.95 555.464L1146.03 569H1141.71L1145.22 543.896H1149.59L1148.96 548.024C1150.4 545.48 1153.04 543.704 1156.35 543.704C1156.93 543.704 1157.7 543.752 1158.23 543.848ZM1169.99 569H1165.71L1160.34 543.896H1164.71L1168.55 563.672L1178.77 543.896H1183.38L1169.99 569ZM1203.93 569C1200.38 569.624 1198.12 568.376 1197.74 566.312C1196.25 568.136 1193.51 569.432 1190.34 569.432C1185.78 569.432 1182.38 566.936 1182.38 562.52C1182.38 558.248 1185.59 555.032 1192.6 553.928L1199.22 552.872L1199.42 551.72C1199.8 548.984 1198.07 547.208 1194.86 547.208C1191.88 547.16 1189.82 548.504 1188.71 551.288L1184.87 549.992C1186.6 545.864 1190.2 543.416 1195.29 543.416C1200.81 543.416 1204.41 546.44 1203.69 551.528L1201.96 563.816C1201.77 565.256 1202.49 565.784 1204.41 565.544L1203.93 569ZM1198.12 560.552L1198.74 556.28L1193.13 557.24C1188.52 557.96 1186.65 559.688 1186.65 562.328C1186.65 564.632 1188.47 565.928 1191.21 565.928C1195 565.928 1197.74 563.576 1198.12 560.552ZM1223.96 543.416C1229.87 543.416 1233.61 547.736 1233.61 554.456C1233.61 562.52 1228.76 569.528 1221.32 569.528C1217.77 569.528 1214.89 567.8 1213.59 564.92L1213.07 569H1208.75L1213.59 534.536H1217.91L1216.09 547.448C1217.63 545.048 1220.46 543.416 1223.96 543.416ZM1214.84 555.512L1214.65 557.192C1213.93 562.424 1216.86 565.736 1220.94 565.736C1225.83 565.736 1229.19 560.84 1229.19 554.792C1229.19 549.992 1226.79 547.208 1222.86 547.208C1218.68 547.208 1215.51 550.376 1214.84 555.512ZM1241.14 539.528L1241.86 534.536H1246.56L1245.84 539.528H1241.14ZM1245.07 543.896L1241.52 569H1237.2L1240.7 543.896H1245.07ZM1257.9 534.536L1253.05 569H1248.73L1253.58 534.536H1257.9ZM1264.2 539.528L1264.92 534.536H1269.62L1268.9 539.528H1264.2ZM1268.13 543.896L1264.58 569H1260.26L1263.77 543.896H1268.13ZM1273.38 562.904L1275.49 547.592H1271.6L1272.13 543.896H1276.02L1277.02 536.552H1281.25L1280.24 543.896H1285.95L1285.42 547.592H1279.71L1277.65 562.328C1277.36 564.44 1278.27 565.496 1280.91 565.496C1281.63 565.496 1282.54 565.4 1283.5 565.16L1283.02 568.856C1281.87 569.096 1280.86 569.24 1279.62 569.24C1274.67 569.24 1272.8 567.08 1273.38 562.904ZM1311.53 543.896L1296.7 571.976C1294.54 576.2 1292.48 577.928 1288.73 577.928C1287.73 577.928 1286.77 577.832 1285.85 577.544L1286.38 573.848C1287.2 574.136 1287.92 574.232 1288.64 574.232C1290.32 574.232 1291.42 573.368 1292.67 571.016L1294.25 568.04L1288.49 543.896H1292.86L1297.18 563.096L1306.88 543.896H1311.53ZM1322.56 569L1327.41 534.536H1337.78C1347.28 534.536 1353.14 540.152 1353.14 549.512C1353.14 560.12 1346.37 569 1334.42 569H1322.56ZM1327.65 565.016H1334.56C1343.44 565.016 1348.63 558.104 1348.63 549.752C1348.63 542.648 1344.26 538.52 1337.25 538.52H1331.35L1327.65 565.016ZM1376.48 569C1372.92 569.624 1370.67 568.376 1370.28 566.312C1368.8 568.136 1366.06 569.432 1362.89 569.432C1358.33 569.432 1354.92 566.936 1354.92 562.52C1354.92 558.248 1358.14 555.032 1365.15 553.928L1371.77 552.872L1371.96 551.72C1372.35 548.984 1370.62 547.208 1367.4 547.208C1364.43 547.16 1362.36 548.504 1361.26 551.288L1357.42 549.992C1359.15 545.864 1362.75 543.416 1367.84 543.416C1373.36 543.416 1376.96 546.44 1376.24 551.528L1374.51 563.816C1374.32 565.256 1375.04 565.784 1376.96 565.544L1376.48 569ZM1370.67 560.552L1371.29 556.28L1365.68 557.24C1361.07 557.96 1359.2 559.688 1359.2 562.328C1359.2 564.632 1361.02 565.928 1363.76 565.928C1367.55 565.928 1370.28 563.576 1370.67 560.552ZM1382.64 562.904L1384.75 547.592H1380.87L1381.39 543.896H1385.28L1386.29 536.552H1390.51L1389.51 543.896H1395.22L1394.69 547.592H1388.98L1386.91 562.328C1386.63 564.44 1387.54 565.496 1390.18 565.496C1390.9 565.496 1391.81 565.4 1392.77 565.16L1392.29 568.856C1391.14 569.096 1390.13 569.24 1388.88 569.24C1383.94 569.24 1382.07 567.08 1382.64 562.904ZM1417.82 569C1414.27 569.624 1412.01 568.376 1411.63 566.312C1410.14 568.136 1407.4 569.432 1404.23 569.432C1399.67 569.432 1396.27 566.936 1396.27 562.52C1396.27 558.248 1399.48 555.032 1406.49 553.928L1413.11 552.872L1413.31 551.72C1413.69 548.984 1411.96 547.208 1408.75 547.208C1405.77 547.16 1403.71 548.504 1402.6 551.288L1398.76 549.992C1400.49 545.864 1404.09 543.416 1409.18 543.416C1414.7 543.416 1418.3 546.44 1417.58 551.528L1415.85 563.816C1415.66 565.256 1416.38 565.784 1418.3 565.544L1417.82 569ZM1412.01 560.552L1412.63 556.28L1407.02 557.24C1402.41 557.96 1400.54 559.688 1400.54 562.328C1400.54 564.632 1402.36 565.928 1405.1 565.928C1408.89 565.928 1411.63 563.576 1412.01 560.552Z" fill="#D1D5DB"/>
</g>
<rect x="0.5" y="0.5" width="1919" height="767" stroke="white" stroke-opacity="0.25"/>
<defs>
<filter id="filter0_f_83_1748" x="851" y="-202.311" width="2460" height="1792" filterUnits="userSpaceOnUse" color-interpolation-filters="sRGB">
<feFlood flood-opacity="0" result="BackgroundImageFix"/>
<feBlend mode="normal" in="SourceGraphic" in2="BackgroundImageFix" result="shape"/>
<feGaussianBlur stdDeviation="200" result="effect1_foregroundBlur_83_1748"/>
</filter>
<filter id="filter1_f_83_1748" x="-134.29" y="105.762" width="2161.56" height="1436.48" filterUnits="userSpaceOnUse" color-interpolation-filters="sRGB">
<feFlood flood-opacity="0" result="BackgroundImageFix"/>
<feBlend mode="normal" in="SourceGraphic" in2="BackgroundImageFix" result="shape"/>
<feGaussianBlur stdDeviation="200" result="effect1_foregroundBlur_83_1748"/>
</filter>
<filter id="filter2_f_83_1748" x="291" y="82.1333" width="2205" height="1799.11" filterUnits="userSpaceOnUse" color-interpolation-filters="sRGB">
<feFlood flood-opacity="0" result="BackgroundImageFix"/>
<feBlend mode="normal" in="SourceGraphic" in2="BackgroundImageFix" result="shape"/>
<feGaussianBlur stdDeviation="200" result="effect1_foregroundBlur_83_1748"/>
</filter>
<filter id="filter3_b_83_1748" x="-300" y="-300" width="2520" height="1368" filterUnits="userSpaceOnUse" color-interpolation-filters="sRGB">
<feFlood flood-opacity="0" result="BackgroundImageFix"/>
<feGaussianBlur in="BackgroundImageFix" stdDeviation="150"/>
<feComposite in2="SourceAlpha" operator="in" result="effect1_backgroundBlur_83_1748"/>
<feBlend mode="normal" in="SourceGraphic" in2="effect1_backgroundBlur_83_1748" result="shape"/>
</filter>
<filter id="filter4_d_83_1748" x="788" y="214" width="342" height="342" filterUnits="userSpaceOnUse" color-interpolation-filters="sRGB">
<feFlood flood-opacity="0" result="BackgroundImageFix"/>
<feColorMatrix in="SourceAlpha" type="matrix" values="0 0 0 0 0 0 0 0 0 0 0 0 0 0 0 0 0 0 127 0" result="hardAlpha"/>
<feOffset dy="75"/>
<feGaussianBlur stdDeviation="37.5"/>
<feColorMatrix type="matrix" values="0 0 0 0 0 0 0 0 0 0 0 0 0 0 0 0 0 0 0.75 0"/>
<feBlend mode="normal" in2="BackgroundImageFix" result="effect1_dropShadow_83_1748"/>
<feBlend mode="normal" in="SourceGraphic" in2="effect1_dropShadow_83_1748" result="shape"/>
</filter>
<clipPath id="clip0_83_1748">
<rect width="1920" height="768" fill="white"/>
</clipPath>
</defs>
</svg>
