<svg width="1920" height="768" viewBox="0 0 1920 768" fill="none" xmlns="http://www.w3.org/2000/svg">
<g clip-path="url(#clip0_83_1746)">
<rect width="1920" height="768" fill="#F9FAFB"/>
<g filter="url(#filter0_f_83_1746)">
<ellipse cx="2081" cy="975.5" rx="830" ry="697.5" fill="#4200FF"/>
</g>
<g filter="url(#filter1_f_83_1746)">
<ellipse cx="946.492" cy="1158.75" rx="686.5" ry="438.5" transform="rotate(-9.68623 946.492 1158.75)" fill="#001F8F"/>
</g>
<g filter="url(#filter2_f_83_1746)">
<circle cx="1393.5" cy="1380.5" r="702.5" fill="#00FFAA"/>
</g>
<g filter="url(#filter3_b_83_1746)">
<rect width="1920" height="1080" fill="white" fill-opacity="0.2"/>
</g>
<g clip-path="url(#clip1_83_1746)">
<path fill-rule="evenodd" clip-rule="evenodd" d="M962.413 232.492C960.23 231.588 957.778 231.588 955.595 232.492C955.225 232.645 954.51 233.025 952.976 234.363C951.382 235.753 949.428 237.7 946.408 240.721C943.388 243.741 941.441 245.694 940.05 247.289C938.711 248.823 938.332 249.538 938.179 249.908C937.275 252.09 937.275 254.543 938.179 256.726C938.332 257.096 938.712 257.811 940.05 259.345C941.44 260.939 943.387 262.893 946.408 265.913C949.427 268.932 951.381 270.879 952.976 272.271C954.511 273.61 955.226 273.989 955.595 274.142C957.778 275.046 960.23 275.046 962.413 274.142C962.784 273.989 963.498 273.609 965.032 272.271C966.626 270.881 968.58 268.934 971.601 265.913C974.619 262.895 976.564 260.941 977.951 259.349C979.285 257.818 979.666 257.101 979.821 256.726C980.725 254.543 980.725 252.09 979.821 249.908C979.666 249.533 979.285 248.816 977.951 247.285C976.564 245.693 974.619 243.739 971.601 240.721C968.58 237.7 966.626 235.753 965.032 234.363C963.498 233.025 962.784 232.645 962.413 232.492ZM948.778 216.034C955.326 213.322 962.683 213.322 969.23 216.034C972.133 217.236 974.523 219.003 976.742 220.938C978.849 222.776 981.233 225.16 983.996 227.923L984.197 228.124L984.34 228.267C987.13 231.057 989.532 233.459 991.383 235.584C993.318 237.805 995.079 240.193 996.279 243.091C998.991 249.638 998.991 256.995 996.279 263.543C995.079 266.441 993.319 268.828 991.383 271.05C989.532 273.175 987.128 275.579 984.336 278.37L983.996 278.711C981.233 281.474 978.849 283.858 976.742 285.696C974.523 287.632 972.133 289.398 969.23 290.6C962.683 293.312 955.326 293.312 948.778 290.6C945.875 289.397 943.484 287.63 941.265 285.695C939.158 283.856 936.774 281.472 934.013 278.711L933.61 278.308C930.847 275.545 928.463 273.162 926.625 271.054C924.689 268.835 922.923 266.446 921.721 263.543C919.009 256.995 919.009 249.638 921.721 243.091C922.923 240.188 924.69 237.798 926.625 235.579C928.464 233.471 930.848 231.088 933.61 228.326L933.811 228.124L934.013 227.923C936.775 225.16 939.159 222.776 941.267 220.938C943.486 219.003 945.875 217.236 948.778 216.034ZM905.726 289.173C903.544 288.269 901.091 288.269 898.909 289.173C898.538 289.327 897.824 289.706 896.29 291.044C894.695 292.435 892.742 294.381 889.721 297.402C886.701 300.422 884.754 302.376 883.363 303.97C882.025 305.505 881.645 306.219 881.492 306.589C880.588 308.772 880.588 311.225 881.492 313.407C881.646 313.778 882.025 314.492 883.363 316.026C884.754 317.62 886.7 319.574 889.721 322.595C892.74 325.614 894.694 327.561 896.289 328.952C897.824 330.291 898.539 330.671 898.909 330.824C901.091 331.728 903.544 331.728 905.726 330.824C906.097 330.67 906.811 330.291 908.345 328.953C909.94 327.562 911.893 325.616 914.914 322.595C917.933 319.576 919.877 317.623 921.264 316.031C922.598 314.499 922.979 313.783 923.134 313.407C924.038 311.225 924.038 308.772 923.134 306.589C922.979 306.214 922.598 305.498 921.264 303.966C919.877 302.374 917.933 300.421 914.914 297.402C911.893 294.381 909.94 292.435 908.345 291.044C906.811 289.706 906.097 289.327 905.726 289.173ZM892.092 272.715C898.639 270.003 905.996 270.003 912.543 272.715C915.446 273.918 917.836 275.684 920.055 277.62C922.163 279.458 924.546 281.842 927.309 284.604L927.653 284.949C930.443 287.738 932.846 290.141 934.696 292.265C936.632 294.487 938.392 296.874 939.593 299.772C942.305 306.32 942.305 313.677 939.593 320.224C938.392 323.122 936.632 325.51 934.697 327.731C932.845 329.857 930.441 332.261 927.649 335.052L927.309 335.393C924.546 338.155 922.163 340.539 920.055 342.377C917.836 344.313 915.446 346.079 912.543 347.281C905.996 349.993 898.639 349.993 892.091 347.282C889.188 346.079 886.797 344.311 884.579 342.376C882.471 340.537 880.087 338.154 877.326 335.392L877.125 335.191L876.923 334.989C874.16 332.227 871.777 329.843 869.938 327.736C868.003 325.517 866.237 323.127 865.034 320.224C862.322 313.677 862.322 306.32 865.034 299.772C866.237 296.869 868.003 294.479 869.939 292.26C871.777 290.153 874.161 287.769 876.923 285.007L877.124 284.806L877.326 284.604C880.089 281.842 882.472 279.458 884.58 277.62C886.799 275.684 889.189 273.918 892.092 272.715ZM1019.1 289.173C1016.92 288.269 1014.46 288.269 1012.28 289.173C1011.91 289.327 1011.2 289.706 1009.66 291.044C1008.07 292.435 1006.12 294.381 1003.09 297.402C1000.07 300.422 998.128 302.376 996.737 303.97C995.398 305.505 995.019 306.219 994.866 306.589C993.962 308.772 993.962 311.225 994.866 313.407C995.019 313.778 995.398 314.492 996.736 316.026C998.127 317.62 1000.07 319.574 1003.09 322.595C1006.11 325.614 1008.07 327.561 1009.66 328.952C1011.2 330.291 1011.91 330.671 1012.28 330.824C1014.46 331.728 1016.92 331.728 1019.1 330.824C1019.47 330.67 1020.18 330.291 1021.72 328.953C1023.31 327.562 1025.27 325.616 1028.29 322.595C1031.31 319.576 1033.25 317.623 1034.64 316.031C1035.97 314.499 1036.35 313.783 1036.51 313.407C1037.41 311.225 1037.41 308.772 1036.51 306.589C1036.35 306.214 1035.97 305.498 1034.64 303.966C1033.25 302.374 1031.31 300.421 1028.29 297.402C1025.27 294.381 1023.31 292.435 1021.72 291.044C1020.18 289.706 1019.47 289.327 1019.1 289.173ZM1005.47 272.715C1012.01 270.003 1019.37 270.003 1025.92 272.715C1028.82 273.918 1031.21 275.684 1033.43 277.62C1035.54 279.458 1037.92 281.842 1040.68 284.604L1041.03 284.949C1043.82 287.738 1046.22 290.141 1048.07 292.265C1050 294.486 1051.77 296.874 1052.97 299.772C1055.68 306.32 1055.68 313.677 1052.97 320.224C1051.77 323.122 1050.01 325.51 1048.07 327.731C1046.22 329.857 1043.81 332.26 1041.02 335.052L1040.68 335.393C1037.92 338.156 1035.54 340.539 1033.43 342.377C1031.21 344.313 1028.82 346.079 1025.92 347.281C1019.37 349.993 1012.01 349.993 1005.46 347.282C1002.56 346.079 1000.17 344.311 997.952 342.376C995.844 340.537 993.46 338.153 990.699 335.392L990.297 334.99C987.534 332.227 985.15 329.843 983.312 327.736C981.376 325.517 979.61 323.127 978.407 320.224C975.695 313.677 975.695 306.32 978.407 299.772C979.61 296.869 981.377 294.479 983.312 292.26C985.15 290.153 987.534 287.769 990.296 285.008L990.699 284.604C993.462 281.842 995.846 279.458 997.953 277.62C1000.17 275.684 1002.56 273.918 1005.47 272.715ZM962.413 345.859C960.23 344.955 957.778 344.955 955.595 345.859C955.225 346.013 954.51 346.392 952.976 347.73C951.382 349.121 949.428 351.067 946.408 354.088C943.388 357.108 941.441 359.061 940.05 360.656C938.711 362.191 938.332 362.905 938.179 363.275C937.275 365.458 937.275 367.91 938.179 370.093C938.332 370.463 938.712 371.178 940.05 372.712C941.44 374.306 943.387 376.26 946.408 379.281C949.427 382.299 951.381 384.247 952.976 385.638C954.511 386.977 955.226 387.357 955.595 387.51C957.778 388.413 960.23 388.413 962.413 387.509C962.784 387.356 963.498 386.977 965.032 385.639C966.626 384.248 968.58 382.301 971.601 379.281C974.619 376.262 976.564 374.309 977.951 372.716C979.285 371.185 979.666 370.468 979.821 370.093C980.725 367.91 980.725 365.458 979.821 363.275C979.666 362.9 979.285 362.184 977.951 360.652C976.564 359.06 974.619 357.107 971.601 354.088C968.58 351.067 966.626 349.121 965.032 347.73C963.498 346.392 962.784 346.013 962.413 345.859ZM948.778 329.401C955.326 326.689 962.683 326.689 969.23 329.401C972.133 330.604 974.523 332.37 976.742 334.305C978.849 336.144 981.233 338.528 983.996 341.291L984.34 341.634C987.13 344.424 989.532 346.827 991.383 348.951C993.318 351.172 995.079 353.56 996.279 356.458C998.991 363.006 998.991 370.363 996.279 376.91C995.079 379.808 993.319 382.196 991.383 384.417C989.532 386.543 987.128 388.946 984.337 391.738L983.996 392.078C981.233 394.841 978.849 397.225 976.742 399.063C974.523 400.999 972.133 402.765 969.23 403.967C962.683 406.679 955.326 406.679 948.778 403.967C945.875 402.765 943.484 400.997 941.265 399.062C939.158 397.223 936.774 394.839 934.013 392.078L933.811 391.877L933.61 391.675C930.847 388.913 928.463 386.529 926.625 384.422C924.689 382.202 922.923 379.813 921.721 376.91C919.009 370.363 919.009 363.006 921.721 356.458C922.923 353.555 924.69 351.165 926.625 348.946C928.464 346.839 930.848 344.455 933.61 341.693L934.012 341.291C936.775 338.528 939.159 336.144 941.267 334.305C943.486 332.37 945.875 330.604 948.778 329.401Z" fill="#111827"/>
</g>
<path d="M527.14 534.536H531.748L526.9 569H522.292L524.5 553.208H506.02L503.812 569H499.204L504.052 534.536H508.66L506.596 549.176H525.076L527.14 534.536ZM554.756 569C551.204 569.624 548.948 568.376 548.564 566.312C547.076 568.136 544.34 569.432 541.172 569.432C536.612 569.432 533.204 566.936 533.204 562.52C533.204 558.248 536.42 555.032 543.428 553.928L550.052 552.872L550.244 551.72C550.628 548.984 548.9 547.208 545.684 547.208C542.708 547.16 540.644 548.504 539.54 551.288L535.7 549.992C537.428 545.864 541.028 543.416 546.116 543.416C551.636 543.416 555.236 546.44 554.516 551.528L552.788 563.816C552.596 565.256 553.316 565.784 555.236 565.544L554.756 569ZM548.948 560.552L549.572 556.28L543.956 557.24C539.348 557.96 537.476 559.688 537.476 562.328C537.476 564.632 539.3 565.928 542.036 565.928C545.828 565.928 548.564 563.576 548.948 560.552ZM568.954 569H564.682L559.306 543.896H563.674L567.514 563.672L577.738 543.896H582.346L568.954 569ZM593.105 569.528C586.481 569.528 582.449 565.016 582.449 558.2C582.449 550.328 587.537 543.416 595.361 543.416C602.273 543.416 605.921 548.744 604.865 555.848L604.673 557.144H586.625V557.912C586.625 562.952 589.313 565.784 593.345 565.784C596.561 565.784 599.105 563.96 600.353 560.984L603.761 562.568C601.793 567.032 598.001 569.528 593.105 569.528ZM595.073 547.112C591.137 547.112 588.305 549.896 587.201 553.832H600.833C601.217 549.8 599.009 547.112 595.073 547.112ZM644.514 545.24C643.602 540.776 640.53 538.088 636.066 538.088C628.674 538.088 623.538 545.624 623.538 553.88C623.538 560.984 627.474 565.448 632.994 565.448C637.074 565.448 640.578 563.048 642.546 558.584L646.626 560.36C643.794 566.312 639.138 569.528 632.946 569.528C624.642 569.528 618.93 563.576 618.93 554.12C618.93 543.608 625.89 534.008 636.21 534.008C642.738 534.008 647.682 537.752 648.786 543.944L644.514 545.24ZM662.908 543.416C669.292 543.416 673.324 547.736 673.324 554.792C673.324 562.76 668.236 569.528 660.412 569.528C654.028 569.528 649.996 565.16 649.996 558.152C649.996 550.184 655.084 543.416 662.908 543.416ZM660.652 565.832C665.596 565.832 669.004 560.888 669.004 554.936C669.004 549.848 666.46 547.064 662.668 547.064C657.772 547.064 654.316 552.056 654.316 558.008C654.316 563.096 656.86 565.832 660.652 565.832ZM676.949 569L680.453 543.896H684.821L684.341 547.112C686.069 544.808 688.805 543.416 691.973 543.416C697.061 543.416 700.181 546.92 699.365 552.872L697.109 569H692.789L694.949 553.544C695.477 549.752 693.797 547.448 690.389 547.448C686.741 547.448 683.957 550.04 683.381 554.072L681.269 569H676.949ZM719.883 534.248L719.307 538.04C715.179 537.32 713.403 538.616 712.923 542.168L712.683 543.896H718.299L717.771 547.592H712.155L709.179 569H704.859L707.835 547.592H704.091L704.619 543.896H708.363L708.699 541.736C709.515 536.024 713.115 533.24 719.883 534.248ZM722.698 539.528L723.418 534.536H728.122L727.402 539.528H722.698ZM726.634 543.896L723.082 569H718.762L722.266 543.896H726.634ZM730.245 558.44C730.245 550.376 735.045 543.368 742.485 543.368C746.085 543.368 748.965 545.048 750.213 547.976L752.085 534.536H756.405L751.557 569H747.237L747.717 565.448C746.181 567.8 743.349 569.48 739.893 569.48C733.989 569.48 730.245 565.112 730.245 558.44ZM748.965 557.384L749.205 555.656C749.877 550.472 746.997 547.16 742.869 547.16C737.973 547.16 734.661 552.056 734.661 558.104C734.661 562.856 737.061 565.688 740.997 565.688C745.125 565.688 748.293 562.472 748.965 557.384ZM769.402 569.528C762.778 569.528 758.746 565.016 758.746 558.2C758.746 550.328 763.834 543.416 771.658 543.416C778.57 543.416 782.218 548.744 781.162 555.848L780.97 557.144H762.922V557.912C762.922 562.952 765.61 565.784 769.642 565.784C772.858 565.784 775.402 563.96 776.65 560.984L780.058 562.568C778.09 567.032 774.298 569.528 769.402 569.528ZM771.37 547.112C767.434 547.112 764.602 549.896 763.498 553.832H777.13C777.514 549.8 775.306 547.112 771.37 547.112ZM784.574 569L788.078 543.896H792.446L791.966 547.112C793.694 544.808 796.43 543.416 799.598 543.416C804.686 543.416 807.806 546.92 806.99 552.872L804.734 569H800.414L802.574 553.544C803.102 549.752 801.422 547.448 798.014 547.448C794.366 547.448 791.582 550.04 791.006 554.072L788.894 569H784.574ZM815.94 557.96C815.94 563 818.628 565.736 822.468 565.736C825.684 565.736 828.036 563.912 829.236 560.552L832.692 562.136C831.108 566.648 827.22 569.528 822.132 569.528C815.94 569.528 811.62 565.208 811.62 558.2C811.62 550.376 816.852 543.416 824.676 543.416C829.956 543.416 833.412 546.632 834.228 550.808L830.34 552.344C829.716 549.128 827.652 547.16 824.436 547.16C819.54 547.16 815.94 552.056 815.94 557.96ZM847.214 569.528C840.59 569.528 836.558 565.016 836.558 558.2C836.558 550.328 841.646 543.416 849.47 543.416C856.382 543.416 860.03 548.744 858.974 555.848L858.782 557.144H840.734V557.912C840.734 562.952 843.422 565.784 847.454 565.784C850.67 565.784 853.214 563.96 854.462 560.984L857.87 562.568C855.902 567.032 852.11 569.528 847.214 569.528ZM849.182 547.112C845.246 547.112 842.414 549.896 841.31 553.832H854.942C855.326 549.8 853.118 547.112 849.182 547.112ZM882.16 534.536L877.312 569H872.704L877.552 534.536H882.16ZM884.699 569L888.203 543.896H892.571L892.091 547.112C893.819 544.808 896.555 543.416 899.723 543.416C904.811 543.416 907.931 546.92 907.115 552.872L904.859 569H900.539L902.699 553.544C903.227 549.752 901.547 547.448 898.139 547.448C894.491 547.448 891.707 550.04 891.131 554.072L889.019 569H884.699ZM935.934 550.424L947.982 534.536H953.118L937.806 554.504L935.79 569H931.182L933.246 554.504L923.502 534.536H928.302L935.934 550.424ZM960.752 543.416C967.136 543.416 971.168 547.736 971.168 554.792C971.168 562.76 966.08 569.528 958.256 569.528C951.872 569.528 947.84 565.16 947.84 558.152C947.84 550.184 952.928 543.416 960.752 543.416ZM958.496 565.832C963.44 565.832 966.848 560.888 966.848 554.936C966.848 549.848 964.304 547.064 960.512 547.064C955.616 547.064 952.16 552.056 952.16 558.008C952.16 563.096 954.704 565.832 958.496 565.832ZM998.123 543.896L994.619 569H990.299L990.731 565.784C989.003 568.088 986.267 569.48 983.147 569.48C978.011 569.48 974.891 565.976 975.707 560.024L977.963 543.896H982.283L980.123 559.352C979.595 563.144 981.275 565.448 984.683 565.448C988.331 565.448 991.115 562.856 991.691 558.824L993.803 543.896H998.123ZM1018.3 543.848L1017.73 548.168C1017.06 548.024 1016.34 547.928 1015.76 547.928C1012.06 547.928 1008.66 550.808 1008.03 555.464L1006.11 569H1001.79L1005.3 543.896H1009.66L1009.04 548.024C1010.48 545.48 1013.12 543.704 1016.43 543.704C1017.01 543.704 1017.78 543.752 1018.3 543.848ZM1047.59 534.008C1055.89 534.008 1061.6 539.912 1061.6 549.368C1061.6 560.024 1054.64 569.528 1044.28 569.528C1035.97 569.528 1030.21 563.624 1030.21 554.168C1030.21 543.512 1037.22 534.008 1047.59 534.008ZM1047.4 538.088C1039.96 538.088 1034.87 545.48 1034.87 553.928C1034.87 561.08 1038.66 565.448 1044.52 565.448C1051.91 565.448 1057 558.056 1057 549.608C1057 542.456 1053.2 538.088 1047.4 538.088ZM1079.73 543.416C1085.63 543.416 1089.38 547.736 1089.38 554.456C1089.38 562.52 1084.53 569.528 1077.09 569.528C1073.54 569.528 1070.66 567.8 1069.36 564.92L1068.83 569H1064.51L1069.36 534.536H1073.68L1071.86 547.448C1073.39 545.048 1076.22 543.416 1079.73 543.416ZM1070.61 555.512L1070.42 557.192C1069.7 562.424 1072.62 565.736 1076.7 565.736C1081.6 565.736 1084.96 560.84 1084.96 554.792C1084.96 549.992 1082.56 547.208 1078.62 547.208C1074.45 547.208 1071.28 550.376 1070.61 555.512ZM1090.85 563.192L1094.07 560.744C1095.56 564.008 1098.63 565.928 1102.08 565.928C1105.59 565.928 1107.6 564.152 1107.6 561.896C1107.6 560.168 1106.55 559.064 1102.23 558.056C1096.37 556.664 1094.31 554.648 1094.31 551.144C1094.31 546.92 1097.76 543.416 1103.67 543.416C1108.52 543.416 1112.07 545.96 1113.27 548.936L1110.1 551.288C1109.04 548.744 1106.5 546.968 1103.33 546.968C1100.26 546.968 1098.44 548.6 1098.44 550.664C1098.44 552.44 1099.83 553.4 1104.15 554.408C1109.76 555.8 1111.78 557.912 1111.78 561.368C1111.78 565.784 1108.13 569.528 1101.89 569.528C1096.61 569.528 1092.34 566.744 1090.85 563.192ZM1126.54 569.528C1119.92 569.528 1115.89 565.016 1115.89 558.2C1115.89 550.328 1120.97 543.416 1128.8 543.416C1135.71 543.416 1139.36 548.744 1138.3 555.848L1138.11 557.144H1120.06V557.912C1120.06 562.952 1122.75 565.784 1126.78 565.784C1130 565.784 1132.54 563.96 1133.79 560.984L1137.2 562.568C1135.23 567.032 1131.44 569.528 1126.54 569.528ZM1128.51 547.112C1124.57 547.112 1121.74 549.896 1120.64 553.832H1134.27C1134.65 549.8 1132.45 547.112 1128.51 547.112ZM1158.23 543.848L1157.65 548.168C1156.98 548.024 1156.26 547.928 1155.68 547.928C1151.99 547.928 1148.58 550.808 1147.95 555.464L1146.03 569H1141.71L1145.22 543.896H1149.59L1148.96 548.024C1150.4 545.48 1153.04 543.704 1156.35 543.704C1156.93 543.704 1157.7 543.752 1158.23 543.848ZM1169.99 569H1165.71L1160.34 543.896H1164.71L1168.55 563.672L1178.77 543.896H1183.38L1169.99 569ZM1203.93 569C1200.38 569.624 1198.12 568.376 1197.74 566.312C1196.25 568.136 1193.51 569.432 1190.34 569.432C1185.78 569.432 1182.38 566.936 1182.38 562.52C1182.38 558.248 1185.59 555.032 1192.6 553.928L1199.22 552.872L1199.42 551.72C1199.8 548.984 1198.07 547.208 1194.86 547.208C1191.88 547.16 1189.82 548.504 1188.71 551.288L1184.87 549.992C1186.6 545.864 1190.2 543.416 1195.29 543.416C1200.81 543.416 1204.41 546.44 1203.69 551.528L1201.96 563.816C1201.77 565.256 1202.49 565.784 1204.41 565.544L1203.93 569ZM1198.12 560.552L1198.74 556.28L1193.13 557.24C1188.52 557.96 1186.65 559.688 1186.65 562.328C1186.65 564.632 1188.47 565.928 1191.21 565.928C1195 565.928 1197.74 563.576 1198.12 560.552ZM1223.96 543.416C1229.87 543.416 1233.61 547.736 1233.61 554.456C1233.61 562.52 1228.76 569.528 1221.32 569.528C1217.77 569.528 1214.89 567.8 1213.59 564.92L1213.07 569H1208.75L1213.59 534.536H1217.91L1216.09 547.448C1217.63 545.048 1220.46 543.416 1223.96 543.416ZM1214.84 555.512L1214.65 557.192C1213.93 562.424 1216.86 565.736 1220.94 565.736C1225.83 565.736 1229.19 560.84 1229.19 554.792C1229.19 549.992 1226.79 547.208 1222.86 547.208C1218.68 547.208 1215.51 550.376 1214.84 555.512ZM1241.14 539.528L1241.86 534.536H1246.56L1245.84 539.528H1241.14ZM1245.07 543.896L1241.52 569H1237.2L1240.7 543.896H1245.07ZM1257.9 534.536L1253.05 569H1248.73L1253.58 534.536H1257.9ZM1264.2 539.528L1264.92 534.536H1269.62L1268.9 539.528H1264.2ZM1268.13 543.896L1264.58 569H1260.26L1263.77 543.896H1268.13ZM1273.38 562.904L1275.49 547.592H1271.6L1272.13 543.896H1276.02L1277.02 536.552H1281.25L1280.24 543.896H1285.95L1285.42 547.592H1279.71L1277.65 562.328C1277.36 564.44 1278.27 565.496 1280.91 565.496C1281.63 565.496 1282.54 565.4 1283.5 565.16L1283.02 568.856C1281.87 569.096 1280.86 569.24 1279.62 569.24C1274.67 569.24 1272.8 567.08 1273.38 562.904ZM1311.53 543.896L1296.7 571.976C1294.54 576.2 1292.48 577.928 1288.73 577.928C1287.73 577.928 1286.77 577.832 1285.85 577.544L1286.38 573.848C1287.2 574.136 1287.92 574.232 1288.64 574.232C1290.32 574.232 1291.42 573.368 1292.67 571.016L1294.25 568.04L1288.49 543.896H1292.86L1297.18 563.096L1306.88 543.896H1311.53ZM1322.56 569L1327.41 534.536H1337.78C1347.28 534.536 1353.14 540.152 1353.14 549.512C1353.14 560.12 1346.37 569 1334.42 569H1322.56ZM1327.65 565.016H1334.56C1343.44 565.016 1348.63 558.104 1348.63 549.752C1348.63 542.648 1344.26 538.52 1337.25 538.52H1331.35L1327.65 565.016ZM1376.48 569C1372.92 569.624 1370.67 568.376 1370.28 566.312C1368.8 568.136 1366.06 569.432 1362.89 569.432C1358.33 569.432 1354.92 566.936 1354.92 562.52C1354.92 558.248 1358.14 555.032 1365.15 553.928L1371.77 552.872L1371.96 551.72C1372.35 548.984 1370.62 547.208 1367.4 547.208C1364.43 547.16 1362.36 548.504 1361.26 551.288L1357.42 549.992C1359.15 545.864 1362.75 543.416 1367.84 543.416C1373.36 543.416 1376.96 546.44 1376.24 551.528L1374.51 563.816C1374.32 565.256 1375.04 565.784 1376.96 565.544L1376.48 569ZM1370.67 560.552L1371.29 556.28L1365.68 557.24C1361.07 557.96 1359.2 559.688 1359.2 562.328C1359.2 564.632 1361.02 565.928 1363.76 565.928C1367.55 565.928 1370.28 563.576 1370.67 560.552ZM1382.64 562.904L1384.75 547.592H1380.87L1381.39 543.896H1385.28L1386.29 536.552H1390.51L1389.51 543.896H1395.22L1394.69 547.592H1388.98L1386.91 562.328C1386.63 564.44 1387.54 565.496 1390.18 565.496C1390.9 565.496 1391.81 565.4 1392.77 565.16L1392.29 568.856C1391.14 569.096 1390.13 569.24 1388.88 569.24C1383.94 569.24 1382.07 567.08 1382.64 562.904ZM1417.82 569C1414.27 569.624 1412.01 568.376 1411.63 566.312C1410.14 568.136 1407.4 569.432 1404.23 569.432C1399.67 569.432 1396.27 566.936 1396.27 562.52C1396.27 558.248 1399.48 555.032 1406.49 553.928L1413.11 552.872L1413.31 551.72C1413.69 548.984 1411.96 547.208 1408.75 547.208C1405.77 547.16 1403.71 548.504 1402.6 551.288L1398.76 549.992C1400.49 545.864 1404.09 543.416 1409.18 543.416C1414.7 543.416 1418.3 546.44 1417.58 551.528L1415.85 563.816C1415.66 565.256 1416.38 565.784 1418.3 565.544L1417.82 569ZM1412.01 560.552L1412.63 556.28L1407.02 557.24C1402.41 557.96 1400.54 559.688 1400.54 562.328C1400.54 564.632 1402.36 565.928 1405.1 565.928C1408.89 565.928 1411.63 563.576 1412.01 560.552Z" fill="#374151"/>
<path d="M469.04 429.488V494H455.984V429.488H431.92V417.968H492.976V429.488H469.04ZM544.442 468.528H505.018V468.784C505.786 478.896 514.49 484.4 523.322 484.4C531.13 484.4 536.762 482.608 542.394 478.896V490.032C537.274 493.616 529.722 495.28 522.426 495.28C504.762 495.28 492.73 484.016 492.73 466.096C492.73 448.048 504.506 436.016 520.122 436.016C536.634 436.016 544.442 446.64 544.442 462.128V468.528ZM519.738 446.64C512.442 446.64 507.066 451.76 505.402 460.336H532.538C532.282 451.504 527.93 446.64 519.738 446.64ZM570.626 450.096V494H557.954V442.032C564.098 438.576 572.034 436.4 580.098 436.4C584.066 436.4 587.138 436.784 590.978 437.808V450.096C587.394 448.688 583.426 448.304 580.098 448.304C576.258 448.304 573.186 449.072 570.626 450.096ZM596.605 465.712C596.605 448.048 608.893 436.016 625.789 436.016C642.813 436.016 655.101 448.048 655.101 465.712C655.101 483.248 642.813 495.28 625.789 495.28C608.893 495.28 596.605 483.248 596.605 465.712ZM642.301 465.712C642.301 454.192 635.517 446.896 625.789 446.896C616.317 446.896 609.405 454.192 609.405 465.712C609.405 477.104 616.317 484.4 625.789 484.4C635.517 484.4 642.301 477.104 642.301 465.712Z" fill="#111827"/>
<path d="M693.472 493.744V418.096C699.104 417.328 706.784 416.688 713.696 416.688C744.032 416.688 758.368 432.432 758.368 454.704C758.368 479.024 743.392 495.152 713.952 495.152C706.272 495.152 699.104 494.64 693.472 493.744ZM706.528 429.104V483.248C709.344 483.632 712.288 483.76 715.104 483.76C732.64 483.76 744.8 474.544 744.8 454.704C744.8 438.32 734.304 428.72 714.208 428.72C711.776 428.72 709.088 428.848 706.528 429.104ZM768.73 465.712C768.73 448.048 781.018 436.016 797.914 436.016C814.938 436.016 827.226 448.048 827.226 465.712C827.226 483.248 814.938 495.28 797.914 495.28C781.018 495.28 768.73 483.248 768.73 465.712ZM814.426 465.712C814.426 454.192 807.642 446.896 797.914 446.896C788.442 446.896 781.53 454.192 781.53 465.712C781.53 477.104 788.442 484.4 797.914 484.4C807.642 484.4 814.426 477.104 814.426 465.712ZM882.807 440.24V452.528C878.071 448.816 873.079 447.28 867.831 447.28C857.591 447.28 849.655 453.808 849.655 465.712C849.655 476.976 857.335 484.144 868.343 484.144C873.975 484.144 878.839 482.352 883.447 479.024V491.056C878.199 494 872.695 495.28 866.679 495.28C849.399 495.28 836.855 483.888 836.855 465.712C836.855 447.408 850.039 436.016 866.679 436.016C872.951 436.016 877.815 437.424 882.807 440.24ZM943.933 437.296V492.72C937.277 494.384 928.573 495.28 921.917 495.28C905.661 495.28 895.677 490.032 895.677 474.16V437.296H908.221V473.264C908.221 481.712 913.341 484.784 921.661 484.784C924.477 484.784 928.061 484.528 931.389 484.016V437.296H943.933ZM1007.15 449.712C1007.92 451.504 1008.43 453.808 1008.43 456.88V494H995.886V457.648C995.886 450.096 991.662 447.152 985.518 447.152C980.91 447.152 977.326 448.048 974.126 449.072V494H961.454V441.008C969.262 438.064 977.966 436.016 986.03 436.016C992.686 436.016 997.934 437.68 1001.39 440.496C1007.15 438.064 1013.55 436.016 1021.23 436.016C1034.8 436.016 1042.86 441.52 1042.86 457.264V494H1030.32V457.648C1030.32 450.096 1025.97 447.152 1019.95 447.152C1014.96 447.152 1009.97 448.432 1007.15 449.712ZM1107.07 468.528H1067.64V468.784C1068.41 478.896 1077.12 484.4 1085.95 484.4C1093.76 484.4 1099.39 482.608 1105.02 478.896V490.032C1099.9 493.616 1092.35 495.28 1085.05 495.28C1067.39 495.28 1055.36 484.016 1055.36 466.096C1055.36 448.048 1067.13 436.016 1082.75 436.016C1099.26 436.016 1107.07 446.64 1107.07 462.128V468.528ZM1082.36 446.64C1075.07 446.64 1069.69 451.76 1068.03 460.336H1095.16C1094.91 451.504 1090.56 446.64 1082.36 446.64ZM1120.58 494V440.88C1128.52 437.808 1138.24 436.016 1146.56 436.016C1161.03 436.016 1170.24 441.52 1170.24 457.52V494H1157.7V458.672C1157.7 450.48 1152.58 447.536 1145.54 447.536C1141.06 447.536 1136.58 448.176 1133.25 449.2V494H1120.58ZM1179.27 447.92V437.296H1187.85V423.472H1200.39V437.296H1216.52V447.92H1200.39V474.928C1200.39 481.712 1203.34 484.016 1208.2 484.016C1211.91 484.016 1215.11 482.864 1218.57 480.816V492.208C1214.86 494.128 1210.25 495.28 1204.87 495.28C1195.66 495.28 1187.85 490.672 1187.85 477.744V447.92H1179.27ZM1259.37 485.04V469.168H1254C1245.17 469.168 1239.41 471.728 1239.41 477.488C1239.41 483.376 1244.78 485.68 1252.46 485.68C1254.38 485.68 1257.07 485.424 1259.37 485.04ZM1259.37 460.72V455.984C1259.37 449.84 1254.77 447.024 1248.49 447.024C1241.97 447.024 1236.85 448.944 1232.11 451.632V440.624C1237.1 437.808 1243.5 436.016 1250.54 436.016C1262.96 436.016 1271.79 441.136 1271.79 455.344V492.848C1266.41 494.256 1258.73 495.152 1252.33 495.152C1237.61 495.152 1226.86 490.672 1226.86 477.872C1226.86 466.352 1236.72 460.72 1253.1 460.72H1259.37ZM1280.65 447.92V437.296H1289.23V423.472H1301.77V437.296H1317.9V447.92H1301.77V474.928C1301.77 481.712 1304.71 484.016 1309.58 484.016C1313.29 484.016 1316.49 482.864 1319.95 480.816V492.208C1316.23 494.128 1311.62 495.28 1306.25 495.28C1297.03 495.28 1289.23 490.672 1289.23 477.744V447.92H1280.65ZM1344.88 437.296V494H1332.2V437.296H1344.88ZM1338.6 427.952C1334.25 427.952 1330.54 424.368 1330.54 420.016C1330.54 415.664 1334.25 412.208 1338.6 412.208C1342.83 412.208 1346.54 415.664 1346.54 420.016C1346.54 424.368 1342.83 427.952 1338.6 427.952ZM1358.11 465.712C1358.11 448.048 1370.39 436.016 1387.29 436.016C1404.31 436.016 1416.6 448.048 1416.6 465.712C1416.6 483.248 1404.31 495.28 1387.29 495.28C1370.39 495.28 1358.11 483.248 1358.11 465.712ZM1403.8 465.712C1403.8 454.192 1397.02 446.896 1387.29 446.896C1377.82 446.896 1370.91 454.192 1370.91 465.712C1370.91 477.104 1377.82 484.4 1387.29 484.4C1397.02 484.4 1403.8 477.104 1403.8 465.712ZM1429.83 494V440.88C1437.77 437.808 1447.49 436.016 1455.81 436.016C1470.28 436.016 1479.49 441.52 1479.49 457.52V494H1466.95V458.672C1466.95 450.48 1461.83 447.536 1454.79 447.536C1450.31 447.536 1445.83 448.176 1442.5 449.2V494H1429.83Z" fill="#14B8A6"/>
</g>
<rect x="0.5" y="0.5" width="1919" height="767" stroke="black" stroke-opacity="0.25"/>
<defs>
<filter id="filter0_f_83_1746" x="851" y="-122" width="2460" height="2195" filterUnits="userSpaceOnUse" color-interpolation-filters="sRGB">
<feFlood flood-opacity="0" result="BackgroundImageFix"/>
<feBlend mode="normal" in="SourceGraphic" in2="BackgroundImageFix" result="shape"/>
<feGaussianBlur stdDeviation="200" result="effect1_foregroundBlur_83_1746"/>
</filter>
<filter id="filter1_f_83_1746" x="-134.29" y="311.228" width="2161.56" height="1695.05" filterUnits="userSpaceOnUse" color-interpolation-filters="sRGB">
<feFlood flood-opacity="0" result="BackgroundImageFix"/>
<feBlend mode="normal" in="SourceGraphic" in2="BackgroundImageFix" result="shape"/>
<feGaussianBlur stdDeviation="200" result="effect1_foregroundBlur_83_1746"/>
</filter>
<filter id="filter2_f_83_1746" x="291" y="278" width="2205" height="2205" filterUnits="userSpaceOnUse" color-interpolation-filters="sRGB">
<feFlood flood-opacity="0" result="BackgroundImageFix"/>
<feBlend mode="normal" in="SourceGraphic" in2="BackgroundImageFix" result="shape"/>
<feGaussianBlur stdDeviation="200" result="effect1_foregroundBlur_83_1746"/>
</filter>
<filter id="filter3_b_83_1746" x="-300" y="-300" width="2520" height="1680" filterUnits="userSpaceOnUse" color-interpolation-filters="sRGB">
<feFlood flood-opacity="0" result="BackgroundImageFix"/>
<feGaussianBlur in="BackgroundImageFix" stdDeviation="150"/>
<feComposite in2="SourceAlpha" operator="in" result="effect1_backgroundBlur_83_1746"/>
<feBlend mode="normal" in="SourceGraphic" in2="effect1_backgroundBlur_83_1746" result="shape"/>
</filter>
<clipPath id="clip0_83_1746">
<rect width="1920" height="768" fill="white"/>
</clipPath>
<clipPath id="clip1_83_1746">
<rect width="192" height="192" fill="white" transform="translate(863 214)"/>
</clipPath>
</defs>
</svg>
