<svg width="951" height="259" viewBox="0 0 951 259" fill="none" xmlns="http://www.w3.org/2000/svg">
<g clip-path="url(#clip0_23_852)">
<rect width="951" height="259" fill="#121416"/>
<rect x="0.5" y="0.5" width="259" height="258" rx="9.5" stroke="#737373" stroke-dasharray="4 4"/>
<rect x="10.5" y="10.5" width="239" height="238" rx="7.5" fill="#0A0A0A"/>
<rect x="10.5" y="10.5" width="239" height="238" rx="7.5" stroke="#525252"/>
<g clip-path="url(#clip1_23_852)">
<g clip-path="url(#clip2_23_852)">
<rect x="109.142" y="40.7459" width="6.64251" height="6.64251" fill="#F5F5F5"/>
<rect x="102.5" y="20.8184" width="6.64251" height="6.64251" fill="#F5F5F5"/>
<rect x="109.142" y="27.4609" width="6.64251" height="6.64251" fill="#F5F5F5"/>
<rect x="102.5" y="34.1034" width="6.64251" height="6.64251" fill="#F5F5F5"/>
</g>
<path d="M150.064 36.4031V32.5323C150.064 30.8389 150.897 29.9922 152.563 29.9922H154.944C156.599 29.9922 157.427 30.8389 157.427 32.5323V36.4031C157.427 38.0965 156.599 38.9432 154.944 38.9432H152.563C150.897 38.9432 150.064 38.0965 150.064 36.4031ZM151.135 36.5759C151.135 37.5205 151.6 37.9928 152.529 37.9928H154.978C155.896 37.9928 156.356 37.5205 156.356 36.5759V32.3595C156.356 31.4264 155.896 30.9599 154.978 30.9599H152.529C151.6 30.9599 151.135 31.4264 151.135 32.3595V36.5759Z" fill="#FAFAFA"/>
<path d="M143.954 38.9432V30.9944C144.351 30.3263 145.071 29.9922 146.114 29.9922H147.78L148.358 30.4415V30.9599H146.165C145.643 30.9599 145.264 31.1039 145.026 31.3919V38.9432H143.954Z" fill="#FAFAFA"/>
<path d="M134.155 36.4031V32.5323C134.155 30.8389 134.988 29.9922 136.655 29.9922H138.865C140.52 29.9922 141.348 30.8389 141.348 32.5323V34.8997H135.226V36.5759C135.226 37.5205 135.691 37.9928 136.621 37.9928H141.008V38.4939L140.43 38.9432H136.655C134.988 38.9432 134.155 38.0965 134.155 36.4031ZM135.226 33.9839H140.277V32.3595C140.277 31.4264 139.818 30.9599 138.899 30.9599H136.621C135.691 30.9599 135.226 31.4264 135.226 32.3595V33.9839Z" fill="#FAFAFA"/>
<path d="M124.022 28.0741V27.02H133.17V28.0741H129.157V38.9432H128.035V28.0741H124.022Z" fill="#FAFAFA"/>
</g>
<circle cx="129.5" cy="69.5" r="12.5" fill="#FAFAFA"/>
<path d="M130.923 63.3636V75H128.815V65.4148H128.747L126.026 67.1534V65.2216L128.918 63.3636H130.923Z" fill="#171717"/>
<circle cx="227.5" cy="130.5" r="12.5" fill="#FAFAFA"/>
<path d="M223.065 136V134.477L227.105 130.517C227.491 130.127 227.813 129.78 228.071 129.477C228.329 129.174 228.522 128.881 228.651 128.597C228.779 128.312 228.844 128.009 228.844 127.688C228.844 127.32 228.76 127.006 228.594 126.744C228.427 126.479 228.198 126.275 227.906 126.131C227.615 125.987 227.283 125.915 226.912 125.915C226.529 125.915 226.194 125.994 225.906 126.153C225.618 126.309 225.395 126.53 225.236 126.818C225.08 127.106 225.003 127.449 225.003 127.847H222.997C222.997 127.108 223.166 126.466 223.503 125.92C223.84 125.375 224.304 124.953 224.895 124.653C225.49 124.354 226.171 124.205 226.94 124.205C227.721 124.205 228.406 124.35 228.997 124.642C229.588 124.934 230.046 125.333 230.372 125.841C230.702 126.348 230.866 126.928 230.866 127.58C230.866 128.015 230.783 128.443 230.616 128.864C230.45 129.284 230.156 129.75 229.736 130.261C229.319 130.773 228.734 131.392 227.98 132.119L225.974 134.159V134.239H231.043V136H223.065Z" fill="#171717"/>
<circle cx="129.5" cy="192.5" r="12.5" fill="#FAFAFA"/>
<path d="M129.499 199.159C128.681 199.159 127.954 199.019 127.317 198.739C126.685 198.458 126.185 198.068 125.817 197.568C125.45 197.068 125.255 196.491 125.232 195.835H127.369C127.388 196.15 127.492 196.424 127.681 196.659C127.871 196.89 128.122 197.07 128.437 197.199C128.751 197.328 129.103 197.392 129.494 197.392C129.91 197.392 130.28 197.32 130.602 197.176C130.924 197.028 131.175 196.824 131.357 196.562C131.539 196.301 131.628 196 131.624 195.659C131.628 195.307 131.537 194.996 131.352 194.727C131.166 194.458 130.897 194.248 130.545 194.097C130.196 193.945 129.776 193.869 129.283 193.869H128.255V192.244H129.283C129.689 192.244 130.043 192.174 130.346 192.034C130.653 191.894 130.893 191.697 131.067 191.443C131.242 191.186 131.327 190.888 131.323 190.551C131.327 190.222 131.253 189.936 131.102 189.693C130.954 189.447 130.744 189.256 130.471 189.119C130.202 188.983 129.886 188.915 129.522 188.915C129.166 188.915 128.836 188.979 128.533 189.108C128.23 189.237 127.986 189.42 127.8 189.659C127.615 189.894 127.516 190.174 127.505 190.5H125.477C125.492 189.848 125.679 189.277 126.039 188.784C126.403 188.288 126.888 187.902 127.494 187.625C128.1 187.345 128.78 187.205 129.533 187.205C130.31 187.205 130.984 187.35 131.556 187.642C132.132 187.93 132.577 188.318 132.891 188.807C133.206 189.295 133.363 189.835 133.363 190.426C133.367 191.081 133.174 191.631 132.783 192.074C132.397 192.517 131.889 192.807 131.261 192.943V193.034C132.079 193.148 132.706 193.451 133.141 193.943C133.581 194.432 133.799 195.04 133.795 195.767C133.795 196.419 133.609 197.002 133.238 197.517C132.871 198.028 132.363 198.43 131.715 198.722C131.071 199.013 130.333 199.159 129.499 199.159Z" fill="#171717"/>
<path d="M217.5 69.5L217.5 71.5L217.5 71.5L217.5 69.5ZM227.5 79.4999L225.5 79.4999L227.5 79.4999ZM227.5 114L239.047 94L215.953 94.0001L227.5 114ZM148.501 69.5L148.501 71.5L217.5 71.5L217.5 69.5L217.5 67.5L148.501 67.5L148.501 69.5ZM227.5 79.4999L225.5 79.4999L225.5 96L227.5 96L229.5 96L229.5 79.4999L227.5 79.4999ZM217.5 69.5L217.5 71.5C221.918 71.5 225.5 75.0817 225.5 79.4999L227.5 79.4999L229.5 79.4999C229.5 72.8725 224.127 67.5 217.5 67.5L217.5 69.5Z" fill="#34D399"/>
<path d="M227.499 182.5L225.499 182.5L227.499 182.5ZM217.499 192.5L217.499 194.5L217.499 192.5ZM145.5 192.5L165.5 204.047L165.5 180.953L145.5 192.5ZM227.499 149.5L225.499 149.5L225.499 182.5L227.499 182.5L229.499 182.5L229.499 149.5L227.499 149.5ZM217.499 192.5L217.499 190.5L163.5 190.5L163.5 192.5L163.5 194.5L217.499 194.5L217.499 192.5ZM227.499 182.5L225.499 182.5C225.499 186.918 221.918 190.5 217.499 190.5L217.499 192.5L217.499 194.5C224.127 194.5 229.499 189.127 229.499 182.5L227.499 182.5Z" fill="#34D399"/>
<g clip-path="url(#clip3_23_852)">
<path opacity="0.4" d="M119.5 121C119.5 123.652 120.554 126.196 122.429 128.071C124.304 129.946 126.848 131 129.5 131C132.152 131 134.696 129.946 136.571 128.071C138.446 126.196 139.5 123.652 139.5 121C139.5 118.348 138.446 115.804 136.571 113.929C134.696 112.054 132.152 111 129.5 111C126.848 111 124.304 112.054 122.429 113.929C120.554 115.804 119.5 118.348 119.5 121Z" fill="#FAFAFA"/>
<path d="M112 148.68C112 140.984 118.234 134.75 125.93 134.75H133.07C140.766 134.75 147 140.984 147 148.68C147 149.961 145.961 151 144.68 151H114.32C113.039 151 112 149.961 112 148.68Z" fill="#FAFAFA"/>
</g>
<line x1="129.5" y1="158" x2="129.5" y2="173" stroke="white"/>
<path d="M65.9844 233H64.6328V227.594H58.4297V233H57.0781V221.445H58.4297V226.406H64.6328V221.445H65.9844V233ZM69.4141 228.734C69.4141 229.75 69.638 230.565 70.0859 231.18C70.5391 231.789 71.1979 232.094 72.0625 232.094C72.9167 232.094 73.5599 231.789 73.9922 231.18C74.4297 230.57 74.6484 229.75 74.6484 228.719C74.6484 227.672 74.4323 226.849 74 226.25C73.5729 225.646 72.9193 225.344 72.0391 225.344C71.1849 225.344 70.5339 225.651 70.0859 226.266C69.638 226.88 69.4141 227.703 69.4141 228.734ZM76 228.711C76 230.039 75.6458 231.117 74.9375 231.945C74.2292 232.768 73.25 233.18 72 233.18C70.7969 233.18 69.8385 232.763 69.125 231.93C68.4167 231.096 68.0625 230.026 68.0625 228.719C68.0625 227.385 68.4193 226.307 69.1328 225.484C69.8464 224.661 70.8255 224.25 72.0703 224.25C73.2943 224.25 74.2552 224.664 74.9531 225.492C75.651 226.315 76 227.388 76 228.711ZM85.1875 233C83.9844 229.156 83.2396 226.763 82.9531 225.82C82.7917 226.393 82.6068 227.013 82.3984 227.68C82.1901 228.346 82.0078 228.919 81.8516 229.398C81.6953 229.878 81.4922 230.497 81.2422 231.258C80.9922 232.018 80.8021 232.599 80.6719 233H79.2656L76.8203 224.43H78.1719L80.0078 231.445C80.263 230.612 81.013 228.273 82.2578 224.43H83.7344C84.974 228.357 85.7031 230.688 85.9219 231.422L87.7344 224.43H89.0703L86.6016 233H85.1875ZM99.6406 232.289L96.0938 224.039L95.7969 223.25L95.8516 226.078V233H94.5859V221.445H96.3359L100.359 230.648L104.344 221.445H106.047V233H104.734V226.047L104.789 223.281L104.5 224.07L100.961 232.289H99.6406ZM108.242 230.141V224.43H109.555V230.156C109.555 230.531 109.607 230.849 109.711 231.109C109.82 231.37 109.974 231.573 110.172 231.719C110.375 231.859 110.602 231.961 110.852 232.023C111.107 232.086 111.398 232.117 111.727 232.117C112.404 232.117 112.93 231.969 113.305 231.672C113.685 231.375 113.875 230.87 113.875 230.156V224.43H115.188V230.141C115.188 230.578 115.125 230.971 115 231.32C114.875 231.669 114.706 231.961 114.492 232.195C114.284 232.424 114.031 232.615 113.734 232.766C113.438 232.917 113.122 233.026 112.789 233.094C112.461 233.161 112.107 233.195 111.727 233.195C111.352 233.195 110.997 233.161 110.664 233.094C110.331 233.026 110.013 232.917 109.711 232.766C109.414 232.609 109.156 232.417 108.938 232.188C108.724 231.953 108.555 231.661 108.43 231.312C108.305 230.964 108.242 230.573 108.242 230.141ZM120.758 233.18C119.497 233.18 118.51 232.771 117.797 231.953C117.089 231.135 116.734 230.065 116.734 228.742C116.74 227.409 117.102 226.328 117.82 225.5C118.544 224.667 119.534 224.25 120.789 224.25C121.232 224.25 121.659 224.305 122.07 224.414C122.487 224.523 122.815 224.667 123.055 224.844L122.695 225.859C122.086 225.531 121.443 225.367 120.766 225.367C119.938 225.367 119.281 225.669 118.797 226.273C118.318 226.878 118.078 227.703 118.078 228.75C118.078 229.771 118.315 230.581 118.789 231.18C119.268 231.773 119.93 232.07 120.773 232.07C121.445 232.07 122.133 231.888 122.836 231.523L123 232.562C122.432 232.974 121.685 233.18 120.758 233.18ZM130.469 233V227.82C130.469 226.961 130.331 226.336 130.055 225.945C129.784 225.555 129.307 225.359 128.625 225.359C127.969 225.359 127.414 225.523 126.961 225.852C126.513 226.18 126.221 226.604 126.086 227.125C126.039 227.516 126.016 227.951 126.016 228.43V233H124.711V221.102L126.016 221.023V224.508C126.016 224.805 126.005 225.172 125.984 225.609C126.719 224.703 127.693 224.25 128.906 224.25C130.818 224.25 131.773 225.372 131.773 227.617V233H130.469ZM139.039 233H137.688V221.445H139.039V233ZM144.156 233.18C143.573 233.18 143.034 233.117 142.539 232.992C142.049 232.867 141.651 232.706 141.344 232.508L141.508 231.406C142.378 231.87 143.232 232.102 144.07 232.102C145.341 232.102 145.995 231.654 146.031 230.758C146.031 230.378 145.896 230.078 145.625 229.859C145.354 229.641 144.823 229.396 144.031 229.125L143.383 228.898C142.633 228.648 142.096 228.339 141.773 227.969C141.456 227.599 141.294 227.138 141.289 226.586C141.289 225.914 141.557 225.357 142.094 224.914C142.635 224.471 143.375 224.25 144.312 224.25C145.281 224.25 146.164 224.438 146.961 224.812L146.578 225.812C145.771 225.479 145.016 225.312 144.312 225.312C143.766 225.312 143.336 225.422 143.023 225.641C142.716 225.854 142.562 226.156 142.562 226.547C142.562 226.88 142.674 227.135 142.898 227.312C143.122 227.49 143.57 227.693 144.242 227.922C144.414 227.984 144.63 228.057 144.891 228.141C145.755 228.422 146.367 228.755 146.727 229.141C147.086 229.521 147.266 230.036 147.266 230.688C147.255 231.479 146.971 232.094 146.414 232.531C145.857 232.964 145.104 233.18 144.156 233.18ZM155.422 233L151.938 221.445H153.352L156.211 231.391L159.07 221.656H160.594L163.367 231.398L166.25 221.445H167.664L164.133 233H162.656L159.844 223.289L156.891 233H155.422ZM170.969 232.125C171.589 232.125 172.133 231.956 172.602 231.617C173.076 231.273 173.38 230.812 173.516 230.234V228.789C173.49 228.789 173.331 228.802 173.039 228.828C172.753 228.854 172.565 228.87 172.477 228.875C171.346 228.974 170.557 229.159 170.109 229.43C169.667 229.701 169.445 230.135 169.445 230.734C169.445 231.193 169.581 231.539 169.852 231.773C170.122 232.008 170.495 232.125 170.969 232.125ZM173.805 233C173.727 232.667 173.651 232.307 173.578 231.922C173.104 232.396 172.659 232.724 172.242 232.906C171.826 233.089 171.336 233.18 170.773 233.18C169.971 233.18 169.326 232.971 168.836 232.555C168.352 232.133 168.109 231.529 168.109 230.742C168.109 229.867 168.44 229.219 169.102 228.797C169.768 228.375 170.727 228.112 171.977 228.008C172.148 227.992 172.406 227.971 172.75 227.945C173.099 227.914 173.359 227.891 173.531 227.875V227.117C173.531 226.513 173.391 226.065 173.109 225.773C172.828 225.482 172.385 225.336 171.781 225.336C170.938 225.336 170.086 225.544 169.227 225.961C169.201 225.898 169.133 225.719 169.023 225.422C168.914 225.12 168.857 224.964 168.852 224.953C169.232 224.74 169.682 224.57 170.203 224.445C170.729 224.315 171.263 224.25 171.805 224.25C172.872 224.25 173.641 224.484 174.109 224.953C174.583 225.417 174.82 226.208 174.82 227.328V233H173.805ZM179.625 233.18C179.042 233.18 178.503 233.117 178.008 232.992C177.518 232.867 177.12 232.706 176.812 232.508L176.977 231.406C177.846 231.87 178.701 232.102 179.539 232.102C180.81 232.102 181.464 231.654 181.5 230.758C181.5 230.378 181.365 230.078 181.094 229.859C180.823 229.641 180.292 229.396 179.5 229.125L178.852 228.898C178.102 228.648 177.565 228.339 177.242 227.969C176.924 227.599 176.763 227.138 176.758 226.586C176.758 225.914 177.026 225.357 177.562 224.914C178.104 224.471 178.844 224.25 179.781 224.25C180.75 224.25 181.633 224.438 182.43 224.812L182.047 225.812C181.24 225.479 180.484 225.312 179.781 225.312C179.234 225.312 178.805 225.422 178.492 225.641C178.185 225.854 178.031 226.156 178.031 226.547C178.031 226.88 178.143 227.135 178.367 227.312C178.591 227.49 179.039 227.693 179.711 227.922C179.883 227.984 180.099 228.057 180.359 228.141C181.224 228.422 181.836 228.755 182.195 229.141C182.555 229.521 182.734 230.036 182.734 230.688C182.724 231.479 182.44 232.094 181.883 232.531C181.326 232.964 180.573 233.18 179.625 233.18ZM187.258 233.156C186.414 233.156 185.815 232.951 185.461 232.539C185.107 232.128 184.919 231.464 184.898 230.547V225.398H183.625L183.68 224.539L184.891 224.43L185.336 222.469L186.195 222.438V224.43H188.578V225.398H186.195V230.312C186.195 230.964 186.294 231.422 186.492 231.688C186.69 231.953 187.029 232.086 187.508 232.086C187.68 232.086 188.052 232.044 188.625 231.961L188.68 232.992C188.06 233.102 187.586 233.156 187.258 233.156ZM194.914 226.016C194.534 225.557 194.01 225.328 193.344 225.328C192.677 225.328 192.133 225.565 191.711 226.039C191.289 226.508 191.042 227.151 190.969 227.969H195.492C195.492 227.12 195.299 226.469 194.914 226.016ZM193.602 233.18C192.357 233.18 191.375 232.784 190.656 231.992C189.943 231.201 189.586 230.117 189.586 228.742C189.586 227.414 189.932 226.339 190.625 225.516C191.318 224.688 192.229 224.266 193.359 224.25C194.422 224.25 195.263 224.615 195.883 225.344C196.508 226.068 196.82 227.036 196.82 228.25C196.82 228.312 196.818 228.427 196.812 228.594C196.812 228.76 196.812 228.88 196.812 228.953H190.93C190.945 229.927 191.195 230.688 191.68 231.234C192.169 231.776 192.826 232.047 193.648 232.047C194.555 232.047 195.464 231.807 196.375 231.328L196.578 232.383C195.708 232.914 194.716 233.18 193.602 233.18ZM200.672 229.602H199.992C199.992 229.268 200.068 228.885 200.219 228.453C200.375 228.021 200.562 227.599 200.781 227.188C201 226.771 201.216 226.359 201.43 225.953C201.648 225.547 201.833 225.146 201.984 224.75C202.141 224.354 202.219 224.016 202.219 223.734C202.214 223.24 202.055 222.872 201.742 222.633C201.43 222.393 201.003 222.273 200.461 222.273C199.789 222.273 199.115 222.484 198.438 222.906L198.086 221.852C198.727 221.346 199.589 221.094 200.672 221.094C201.516 221.094 202.195 221.318 202.711 221.766C203.232 222.208 203.492 222.828 203.492 223.625C203.492 224.026 203.432 224.417 203.312 224.797C203.198 225.177 203.036 225.549 202.828 225.914C202.62 226.273 202.401 226.625 202.172 226.969C201.948 227.307 201.693 227.716 201.406 228.195C201.125 228.674 200.88 229.143 200.672 229.602ZM199.68 232.789C199.497 232.581 199.406 232.339 199.406 232.062C199.406 231.786 199.497 231.547 199.68 231.344C199.867 231.135 200.122 231.031 200.445 231.031C200.773 231.031 201.029 231.133 201.211 231.336C201.393 231.539 201.484 231.781 201.484 232.062C201.484 232.344 201.393 232.586 201.211 232.789C201.029 232.992 200.773 233.094 200.445 233.094C200.122 233.094 199.867 232.992 199.68 232.789Z" fill="white"/>
<path d="M270 129.5L290 141.047V117.953L270 129.5ZM288 129.5V131.5L681.5 131.5V129.5V127.5L288 127.5V129.5Z" fill="#34D399"/>
<mask id="path-25-outside-1_23_852" maskUnits="userSpaceOnUse" x="420" y="113.5" width="111" height="31" fill="black">
<rect fill="white" x="420" y="113.5" width="111" height="31"/>
<path d="M434.205 134.5V124.318H438.023C438.806 124.318 439.462 124.454 439.992 124.726C440.526 124.998 440.928 125.379 441.2 125.869C441.475 126.357 441.613 126.925 441.613 127.575C441.613 128.228 441.474 128.794 441.195 129.275C440.92 129.752 440.514 130.122 439.977 130.384C439.44 130.642 438.781 130.771 437.999 130.771H435.279V129.24H437.75C438.207 129.24 438.582 129.177 438.874 129.051C439.165 128.922 439.381 128.735 439.52 128.489C439.662 128.241 439.734 127.936 439.734 127.575C439.734 127.213 439.662 126.905 439.52 126.65C439.377 126.391 439.16 126.196 438.869 126.063C438.577 125.927 438.201 125.859 437.74 125.859H436.05V134.5H434.205ZM439.465 129.886L441.986 134.5H439.928L437.452 129.886H439.465ZM444.011 134.5V124.318H450.633V125.864H445.855V128.629H450.29V130.175H445.855V132.954H450.673V134.5H444.011ZM454.522 134.5H452.553L456.138 124.318H458.415L462.004 134.5H460.036L457.316 126.406H457.237L454.522 134.5ZM454.587 130.508H459.956V131.989H454.587V130.508ZM467.496 134.5H464.045V124.318H467.565C468.576 124.318 469.445 124.522 470.17 124.93C470.9 125.334 471.46 125.916 471.851 126.675C472.242 127.434 472.438 128.342 472.438 129.399C472.438 130.46 472.24 131.371 471.846 132.134C471.455 132.896 470.89 133.481 470.151 133.888C469.415 134.296 468.53 134.5 467.496 134.5ZM465.89 132.904H467.406C468.116 132.904 468.707 132.775 469.181 132.516C469.655 132.254 470.011 131.865 470.25 131.348C470.489 130.828 470.608 130.178 470.608 129.399C470.608 128.62 470.489 127.974 470.25 127.46C470.011 126.943 469.658 126.557 469.191 126.302C468.727 126.043 468.15 125.914 467.461 125.914H465.89V132.904ZM482.513 134.5H479.063V124.318H482.583C483.593 124.318 484.462 124.522 485.188 124.93C485.917 125.334 486.477 125.916 486.868 126.675C487.259 127.434 487.455 128.342 487.455 129.399C487.455 130.46 487.257 131.371 486.863 132.134C486.472 132.896 485.907 133.481 485.168 133.888C484.432 134.296 483.547 134.5 482.513 134.5ZM480.907 132.904H482.423C483.133 132.904 483.724 132.775 484.198 132.516C484.672 132.254 485.029 131.865 485.267 131.348C485.506 130.828 485.625 130.178 485.625 129.399C485.625 128.62 485.506 127.974 485.267 127.46C485.029 126.943 484.676 126.557 484.208 126.302C483.744 126.043 483.168 125.914 482.478 125.914H480.907V132.904ZM490.668 134.5H488.699L492.284 124.318H494.561L498.15 134.5H496.181L493.462 126.406H493.382L490.668 134.5ZM490.732 130.508H496.102V131.989H490.732V130.508ZM498.513 125.864V124.318H506.637V125.864H503.49V134.5H501.66V125.864H498.513ZM508.98 134.5H507.011L510.596 124.318H512.873L516.462 134.5H514.493L511.774 126.406H511.694L508.98 134.5ZM509.045 130.508H514.414V131.989H509.045V130.508Z"/>
</mask>
<path d="M434.205 134.5V124.318H438.023C438.806 124.318 439.462 124.454 439.992 124.726C440.526 124.998 440.928 125.379 441.2 125.869C441.475 126.357 441.613 126.925 441.613 127.575C441.613 128.228 441.474 128.794 441.195 129.275C440.92 129.752 440.514 130.122 439.977 130.384C439.44 130.642 438.781 130.771 437.999 130.771H435.279V129.24H437.75C438.207 129.24 438.582 129.177 438.874 129.051C439.165 128.922 439.381 128.735 439.52 128.489C439.662 128.241 439.734 127.936 439.734 127.575C439.734 127.213 439.662 126.905 439.52 126.65C439.377 126.391 439.16 126.196 438.869 126.063C438.577 125.927 438.201 125.859 437.74 125.859H436.05V134.5H434.205ZM439.465 129.886L441.986 134.5H439.928L437.452 129.886H439.465ZM444.011 134.5V124.318H450.633V125.864H445.855V128.629H450.29V130.175H445.855V132.954H450.673V134.5H444.011ZM454.522 134.5H452.553L456.138 124.318H458.415L462.004 134.5H460.036L457.316 126.406H457.237L454.522 134.5ZM454.587 130.508H459.956V131.989H454.587V130.508ZM467.496 134.5H464.045V124.318H467.565C468.576 124.318 469.445 124.522 470.17 124.93C470.9 125.334 471.46 125.916 471.851 126.675C472.242 127.434 472.438 128.342 472.438 129.399C472.438 130.46 472.24 131.371 471.846 132.134C471.455 132.896 470.89 133.481 470.151 133.888C469.415 134.296 468.53 134.5 467.496 134.5ZM465.89 132.904H467.406C468.116 132.904 468.707 132.775 469.181 132.516C469.655 132.254 470.011 131.865 470.25 131.348C470.489 130.828 470.608 130.178 470.608 129.399C470.608 128.62 470.489 127.974 470.25 127.46C470.011 126.943 469.658 126.557 469.191 126.302C468.727 126.043 468.15 125.914 467.461 125.914H465.89V132.904ZM482.513 134.5H479.063V124.318H482.583C483.593 124.318 484.462 124.522 485.188 124.93C485.917 125.334 486.477 125.916 486.868 126.675C487.259 127.434 487.455 128.342 487.455 129.399C487.455 130.46 487.257 131.371 486.863 132.134C486.472 132.896 485.907 133.481 485.168 133.888C484.432 134.296 483.547 134.5 482.513 134.5ZM480.907 132.904H482.423C483.133 132.904 483.724 132.775 484.198 132.516C484.672 132.254 485.029 131.865 485.267 131.348C485.506 130.828 485.625 130.178 485.625 129.399C485.625 128.62 485.506 127.974 485.267 127.46C485.029 126.943 484.676 126.557 484.208 126.302C483.744 126.043 483.168 125.914 482.478 125.914H480.907V132.904ZM490.668 134.5H488.699L492.284 124.318H494.561L498.15 134.5H496.181L493.462 126.406H493.382L490.668 134.5ZM490.732 130.508H496.102V131.989H490.732V130.508ZM498.513 125.864V124.318H506.637V125.864H503.49V134.5H501.66V125.864H498.513ZM508.98 134.5H507.011L510.596 124.318H512.873L516.462 134.5H514.493L511.774 126.406H511.694L508.98 134.5ZM509.045 130.508H514.414V131.989H509.045V130.508Z" fill="white"/>
<path d="M434.205 134.5H424.205V144.5H434.205V134.5ZM434.205 124.318V114.318H424.205V124.318H434.205ZM439.992 124.726L435.431 133.625L435.442 133.631L435.454 133.637L439.992 124.726ZM441.2 125.869L432.453 130.716L432.473 130.751L432.492 130.786L441.2 125.869ZM441.195 129.275L432.542 124.262L432.537 124.272L432.531 124.281L441.195 129.275ZM439.977 130.384L444.315 139.394L444.338 139.383L444.36 139.372L439.977 130.384ZM435.279 130.771H425.279V140.771H435.279V130.771ZM435.279 129.24V119.24H425.279V129.24H435.279ZM438.874 129.051L442.838 138.232L442.882 138.213L442.925 138.194L438.874 129.051ZM439.52 128.489L430.845 123.516L430.834 123.534L430.823 123.553L439.52 128.489ZM439.52 126.65L430.762 131.478L430.776 131.502L430.789 131.526L439.52 126.65ZM438.869 126.063L434.645 135.128L434.688 135.147L434.731 135.167L438.869 126.063ZM436.05 125.859V115.859H426.05V125.859H436.05ZM436.05 134.5V144.5H446.05V134.5H436.05ZM439.465 129.886L448.241 125.092L445.397 119.886H439.465V129.886ZM441.986 134.5V144.5H458.844L450.761 129.706L441.986 134.5ZM439.928 134.5L431.116 139.229L433.945 144.5H439.928V134.5ZM437.452 129.886V119.886H420.736L428.64 134.615L437.452 129.886ZM434.205 134.5H444.205V124.318H434.205H424.205V134.5H434.205ZM434.205 124.318V134.318H438.023V124.318V114.318H434.205V124.318ZM438.023 124.318V134.318C437.697 134.318 436.684 134.267 435.431 133.625L439.992 124.726L444.553 115.827C442.24 114.641 439.914 114.318 438.023 114.318V124.318ZM439.992 124.726L435.454 133.637C434.337 133.068 433.214 132.09 432.453 130.716L441.2 125.869L449.947 121.023C448.643 118.668 446.714 116.927 444.531 115.815L439.992 124.726ZM441.2 125.869L432.492 130.786C431.793 129.547 431.613 128.368 431.613 127.575H441.613H451.613C451.613 125.482 451.158 123.166 449.908 120.953L441.2 125.869ZM441.613 127.575H431.613C431.613 126.779 431.794 125.553 432.542 124.262L441.195 129.275L449.848 134.288C451.153 132.035 451.613 129.676 451.613 127.575H441.613ZM441.195 129.275L432.531 124.281C433.337 122.883 434.496 121.931 435.594 121.395L439.977 130.384L444.36 139.372C446.532 138.313 448.503 136.621 449.859 134.269L441.195 129.275ZM439.977 130.384L435.639 121.374C436.81 120.81 437.729 120.771 437.999 120.771V130.771V140.771C439.833 140.771 442.071 140.474 444.315 139.394L439.977 130.384ZM437.999 130.771V120.771H435.279V130.771V140.771H437.999V130.771ZM435.279 130.771H445.279V129.24H435.279H425.279V130.771H435.279ZM435.279 129.24V139.24H437.75V129.24V119.24H435.279V129.24ZM437.75 129.24V139.24C439.018 139.24 440.871 139.081 442.838 138.232L438.874 129.051L434.909 119.871C436.293 119.273 437.396 119.24 437.75 119.24V129.24ZM438.874 129.051L442.925 138.194C444.907 137.315 446.883 135.775 448.217 133.425L439.52 128.489L430.823 123.553C431.878 121.695 433.423 120.529 434.822 119.909L438.874 129.051ZM439.52 128.489L448.195 133.463C449.404 131.354 449.734 129.233 449.734 127.575H439.734H429.734C429.734 126.639 429.92 125.127 430.845 123.516L439.52 128.489ZM439.734 127.575H449.734C449.734 125.905 449.4 123.833 448.251 121.774L439.52 126.65L430.789 131.526C429.925 129.978 429.734 128.522 429.734 127.575H439.734ZM439.52 126.65L448.277 121.822C447.005 119.515 445.081 117.903 443.007 116.96L438.869 126.063L434.731 135.167C433.239 134.489 431.749 133.268 430.762 131.478L439.52 126.65ZM438.869 126.063L443.092 116.999C441.034 116.04 439.076 115.859 437.74 115.859V125.859V135.859C437.326 135.859 436.12 135.815 434.645 135.128L438.869 126.063ZM437.74 125.859V115.859H436.05V125.859V135.859H437.74V125.859ZM436.05 125.859H426.05V134.5H436.05H446.05V125.859H436.05ZM436.05 134.5V124.5H434.205V134.5V144.5H436.05V134.5ZM439.465 129.886L430.689 134.681L433.21 139.294L441.986 134.5L450.761 129.706L448.241 125.092L439.465 129.886ZM441.986 134.5V124.5H439.928V134.5V144.5H441.986V134.5ZM439.928 134.5L448.739 129.771L446.263 125.158L437.452 129.886L428.64 134.615L431.116 139.229L439.928 134.5ZM437.452 129.886V139.886H439.465V129.886V119.886H437.452V129.886ZM444.011 134.5H434.011V144.5H444.011V134.5ZM444.011 124.318V114.318H434.011V124.318H444.011ZM450.633 124.318H460.633V114.318H450.633V124.318ZM450.633 125.864V135.864H460.633V125.864H450.633ZM445.855 125.864V115.864H435.855V125.864H445.855ZM445.855 128.629H435.855V138.629H445.855V128.629ZM450.29 128.629H460.29V118.629H450.29V128.629ZM450.29 130.175V140.175H460.29V130.175H450.29ZM445.855 130.175V120.175H435.855V130.175H445.855ZM445.855 132.954H435.855V142.954H445.855V132.954ZM450.673 132.954H460.673V122.954H450.673V132.954ZM450.673 134.5V144.5H460.673V134.5H450.673ZM444.011 134.5H454.011V124.318H444.011H434.011V134.5H444.011ZM444.011 124.318V134.318H450.633V124.318V114.318H444.011V124.318ZM450.633 124.318H440.633V125.864H450.633H460.633V124.318H450.633ZM450.633 125.864V115.864H445.855V125.864V135.864H450.633V125.864ZM445.855 125.864H435.855V128.629H445.855H455.855V125.864H445.855ZM445.855 128.629V138.629H450.29V128.629V118.629H445.855V128.629ZM450.29 128.629H440.29V130.175H450.29H460.29V128.629H450.29ZM450.29 130.175V120.175H445.855V130.175V140.175H450.29V130.175ZM445.855 130.175H435.855V132.954H445.855H455.855V130.175H445.855ZM445.855 132.954V142.954H450.673V132.954V122.954H445.855V132.954ZM450.673 132.954H440.673V134.5H450.673H460.673V132.954H450.673ZM450.673 134.5V124.5H444.011V134.5V144.5H450.673V134.5ZM454.522 134.5V144.5H461.716L464.003 137.68L454.522 134.5ZM452.553 134.5L443.121 131.179L438.431 144.5H452.553V134.5ZM456.138 124.318V114.318H449.057L446.705 120.997L456.138 124.318ZM458.415 124.318L467.846 120.993L465.493 114.318H458.415V124.318ZM462.004 134.5V144.5H476.133L471.435 131.175L462.004 134.5ZM460.036 134.5L450.556 137.685L452.846 144.5H460.036V134.5ZM457.316 126.406L466.795 123.221L464.506 116.406H457.316V126.406ZM457.237 126.406V116.406H450.043L447.756 123.227L457.237 126.406ZM454.587 130.508V120.508H444.587V130.508H454.587ZM459.956 130.508H469.956V120.508H459.956V130.508ZM459.956 131.989V141.989H469.956V131.989H459.956ZM454.587 131.989H444.587V141.989H454.587V131.989ZM454.522 134.5V124.5H452.553V134.5V144.5H454.522V134.5ZM452.553 134.5L461.986 137.821L465.57 127.639L456.138 124.318L446.705 120.997L443.121 131.179L452.553 134.5ZM456.138 124.318V134.318H458.415V124.318V114.318H456.138V124.318ZM458.415 124.318L448.984 127.643L452.573 137.825L462.004 134.5L471.435 131.175L467.846 120.993L458.415 124.318ZM462.004 134.5V124.5H460.036V134.5V144.5H462.004V134.5ZM460.036 134.5L469.515 131.315L466.795 123.221L457.316 126.406L447.837 129.591L450.556 137.685L460.036 134.5ZM457.316 126.406V116.406H457.237V126.406V136.406H457.316V126.406ZM457.237 126.406L447.756 123.227L445.041 131.32L454.522 134.5L464.003 137.68L466.718 129.586L457.237 126.406ZM454.587 130.508V140.508H459.956V130.508V120.508H454.587V130.508ZM459.956 130.508H449.956V131.989H459.956H469.956V130.508H459.956ZM459.956 131.989V121.989H454.587V131.989V141.989H459.956V131.989ZM454.587 131.989H464.587V130.508H454.587H444.587V131.989H454.587ZM464.045 134.5H454.045V144.5H464.045V134.5ZM464.045 124.318V114.318H454.045V124.318H464.045ZM470.17 124.93L465.274 133.649L465.297 133.662L465.321 133.675L470.17 124.93ZM471.851 126.675L462.962 131.255L462.962 131.255L471.851 126.675ZM471.846 132.134L462.964 127.538L462.956 127.554L462.949 127.569L471.846 132.134ZM470.151 133.888L465.321 125.132L465.313 125.137L465.304 125.141L470.151 133.888ZM465.89 132.904H455.89V142.904H465.89V132.904ZM469.181 132.516L473.97 141.295L473.993 141.282L474.017 141.269L469.181 132.516ZM470.25 131.348L479.33 135.539L479.335 135.528L479.34 135.517L470.25 131.348ZM470.25 127.46L461.17 131.651L461.176 131.662L461.181 131.673L470.25 127.46ZM469.191 126.302L464.324 135.038L464.361 135.058L464.398 135.078L469.191 126.302ZM465.89 125.914V115.914H455.89V125.914H465.89ZM467.496 134.5V124.5H464.045V134.5V144.5H467.496V134.5ZM464.045 134.5H474.045V124.318H464.045H454.045V134.5H464.045ZM464.045 124.318V134.318H467.565V124.318V114.318H464.045V124.318ZM467.565 124.318V134.318C467.227 134.318 466.333 134.243 465.274 133.649L470.17 124.93L475.067 116.211C472.557 114.801 469.926 114.318 467.565 114.318V124.318ZM470.17 124.93L465.321 133.675C464.278 133.097 463.453 132.208 462.962 131.255L471.851 126.675L480.74 122.094C479.467 119.623 477.521 117.571 475.02 116.184L470.17 124.93ZM471.851 126.675L462.962 131.255C462.469 130.3 462.438 129.562 462.438 129.399H472.438H482.438C482.438 127.121 482.015 124.568 480.74 122.094L471.851 126.675ZM472.438 129.399H462.438C462.438 129.231 462.471 128.492 462.964 127.538L471.846 132.134L480.728 136.729C482.01 134.25 482.438 131.688 482.438 129.399H472.438ZM471.846 132.134L462.949 127.569C463.451 126.589 464.289 125.701 465.321 125.132L470.151 133.888L474.98 142.645C477.49 141.261 479.458 139.203 480.743 136.698L471.846 132.134ZM470.151 133.888L465.304 125.141C466.355 124.559 467.219 124.5 467.496 124.5V134.5V144.5C469.84 144.5 472.474 144.033 474.997 142.636L470.151 133.888ZM465.89 132.904V142.904H467.406V132.904V122.904H465.89V132.904ZM467.406 132.904V142.904C469.281 142.904 471.638 142.567 473.97 141.295L469.181 132.516L464.393 123.737C465.777 122.982 466.95 122.904 467.406 122.904V132.904ZM469.181 132.516L474.017 141.269C476.455 139.922 478.248 137.883 479.33 135.539L470.25 131.348L461.17 127.157C461.775 125.847 462.855 124.587 464.345 123.763L469.181 132.516ZM470.25 131.348L479.34 135.517C480.353 133.306 480.608 131.127 480.608 129.399H470.608H460.608C460.608 129.229 460.624 128.349 461.16 127.179L470.25 131.348ZM470.608 129.399H480.608C480.608 127.679 480.356 125.479 479.319 123.247L470.25 127.46L461.181 131.673C460.622 130.469 460.608 129.562 460.608 129.399H470.608ZM470.25 127.46L479.33 123.27C478.258 120.947 476.47 118.883 473.984 117.525L469.191 126.302L464.398 135.078C462.847 134.231 461.765 132.939 461.17 131.651L470.25 127.46ZM469.191 126.302L474.058 117.566C471.727 116.267 469.36 115.914 467.461 115.914V125.914V135.914C466.94 135.914 465.727 135.819 464.324 135.038L469.191 126.302ZM467.461 125.914V115.914H465.89V125.914V135.914H467.461V125.914ZM465.89 125.914H455.89V132.904H465.89H475.89V125.914H465.89ZM479.063 134.5H469.063V144.5H479.063V134.5ZM479.063 124.318V114.318H469.063V124.318H479.063ZM485.188 124.93L480.291 133.649L480.314 133.662L480.338 133.675L485.188 124.93ZM486.868 126.675L477.979 131.255L477.979 131.255L486.868 126.675ZM486.863 132.134L477.981 127.538L477.974 127.554L477.966 127.569L486.863 132.134ZM485.168 133.888L480.338 125.132L480.33 125.137L480.321 125.141L485.168 133.888ZM480.907 132.904H470.907V142.904H480.907V132.904ZM484.198 132.516L488.987 141.295L489.01 141.282L489.034 141.269L484.198 132.516ZM485.267 131.348L494.347 135.539L494.352 135.528L494.357 135.517L485.267 131.348ZM485.267 127.46L476.188 131.651L476.193 131.662L476.198 131.673L485.267 127.46ZM484.208 126.302L479.341 135.038L479.378 135.058L479.415 135.078L484.208 126.302ZM480.907 125.914V115.914H470.907V125.914H480.907ZM482.513 134.5V124.5H479.063V134.5V144.5H482.513V134.5ZM479.063 134.5H489.063V124.318H479.063H469.063V134.5H479.063ZM479.063 124.318V134.318H482.583V124.318V114.318H479.063V124.318ZM482.583 124.318V134.318C482.244 134.318 481.35 134.243 480.291 133.649L485.188 124.93L490.085 116.211C487.574 114.801 484.943 114.318 482.583 114.318V124.318ZM485.188 124.93L480.338 133.675C479.295 133.097 478.47 132.208 477.979 131.255L486.868 126.675L495.757 122.094C494.484 119.623 492.539 117.571 490.037 116.184L485.188 124.93ZM486.868 126.675L477.979 131.255C477.486 130.3 477.455 129.562 477.455 129.399H487.455H497.455C497.455 127.121 497.032 124.568 495.757 122.094L486.868 126.675ZM487.455 129.399H477.455C477.455 129.231 477.488 128.492 477.981 127.538L486.863 132.134L495.745 136.729C497.027 134.25 497.455 131.688 497.455 129.399H487.455ZM486.863 132.134L477.966 127.569C478.469 126.589 479.307 125.701 480.338 125.132L485.168 133.888L489.998 142.645C492.507 141.261 494.475 139.203 495.76 136.698L486.863 132.134ZM485.168 133.888L480.321 125.141C481.372 124.559 482.236 124.5 482.513 124.5V134.5V144.5C484.858 144.5 487.491 144.033 490.014 142.636L485.168 133.888ZM480.907 132.904V142.904H482.423V132.904V122.904H480.907V132.904ZM482.423 132.904V142.904C484.298 142.904 486.655 142.567 488.987 141.295L484.198 132.516L479.41 123.737C480.794 122.982 481.967 122.904 482.423 122.904V132.904ZM484.198 132.516L489.034 141.269C491.473 139.922 493.265 137.883 494.347 135.539L485.267 131.348L476.188 127.157C476.792 125.847 477.872 124.587 479.363 123.763L484.198 132.516ZM485.267 131.348L494.357 135.517C495.371 133.306 495.625 131.127 495.625 129.399H485.625H475.625C475.625 129.229 475.641 128.349 476.177 127.179L485.267 131.348ZM485.625 129.399H495.625C495.625 127.679 495.373 125.479 494.336 123.247L485.267 127.46L476.198 131.673C475.639 130.469 475.625 129.562 475.625 129.399H485.625ZM485.267 127.46L494.347 123.27C493.275 120.947 491.487 118.883 489.001 117.525L484.208 126.302L479.415 135.078C477.864 134.231 476.782 132.939 476.188 131.651L485.267 127.46ZM484.208 126.302L489.075 117.566C486.744 116.267 484.377 115.914 482.478 115.914V125.914V135.914C481.958 135.914 480.744 135.819 479.341 135.038L484.208 126.302ZM482.478 125.914V115.914H480.907V125.914V135.914H482.478V125.914ZM480.907 125.914H470.907V132.904H480.907H490.907V125.914H480.907ZM490.668 134.5V144.5H497.861L500.149 137.68L490.668 134.5ZM488.699 134.5L479.267 131.179L474.577 144.5H488.699V134.5ZM492.284 124.318V114.318H485.203L482.851 120.997L492.284 124.318ZM494.561 124.318L503.992 120.993L501.638 114.318H494.561V124.318ZM498.15 134.5V144.5H512.279L507.581 131.175L498.15 134.5ZM496.181 134.5L486.702 137.685L488.992 144.5H496.181V134.5ZM493.462 126.406L502.941 123.221L500.651 116.406H493.462V126.406ZM493.382 126.406V116.406H486.189L483.901 123.227L493.382 126.406ZM490.732 130.508V120.508H480.732V130.508H490.732ZM496.102 130.508H506.102V120.508H496.102V130.508ZM496.102 131.989V141.989H506.102V131.989H496.102ZM490.732 131.989H480.732V141.989H490.732V131.989ZM490.668 134.5V124.5H488.699V134.5V144.5H490.668V134.5ZM488.699 134.5L498.132 137.821L501.716 127.639L492.284 124.318L482.851 120.997L479.267 131.179L488.699 134.5ZM492.284 124.318V134.318H494.561V124.318V114.318H492.284V124.318ZM494.561 124.318L485.13 127.643L488.719 137.825L498.15 134.5L507.581 131.175L503.992 120.993L494.561 124.318ZM498.15 134.5V124.5H496.181V134.5V144.5H498.15V134.5ZM496.181 134.5L505.661 131.315L502.941 123.221L493.462 126.406L483.983 129.591L486.702 137.685L496.181 134.5ZM493.462 126.406V116.406H493.382V126.406V136.406H493.462V126.406ZM493.382 126.406L483.901 123.227L481.187 131.32L490.668 134.5L500.149 137.68L502.863 129.586L493.382 126.406ZM490.732 130.508V140.508H496.102V130.508V120.508H490.732V130.508ZM496.102 130.508H486.102V131.989H496.102H506.102V130.508H496.102ZM496.102 131.989V121.989H490.732V131.989V141.989H496.102V131.989ZM490.732 131.989H500.732V130.508H490.732H480.732V131.989H490.732ZM498.513 125.864H488.513V135.864H498.513V125.864ZM498.513 124.318V114.318H488.513V124.318H498.513ZM506.637 124.318H516.637V114.318H506.637V124.318ZM506.637 125.864V135.864H516.637V125.864H506.637ZM503.49 125.864V115.864H493.49V125.864H503.49ZM503.49 134.5V144.5H513.49V134.5H503.49ZM501.66 134.5H491.66V144.5H501.66V134.5ZM501.66 125.864H511.66V115.864H501.66V125.864ZM498.513 125.864H508.513V124.318H498.513H488.513V125.864H498.513ZM498.513 124.318V134.318H506.637V124.318V114.318H498.513V124.318ZM506.637 124.318H496.637V125.864H506.637H516.637V124.318H506.637ZM506.637 125.864V115.864H503.49V125.864V135.864H506.637V125.864ZM503.49 125.864H493.49V134.5H503.49H513.49V125.864H503.49ZM503.49 134.5V124.5H501.66V134.5V144.5H503.49V134.5ZM501.66 134.5H511.66V125.864H501.66H491.66V134.5H501.66ZM501.66 125.864V115.864H498.513V125.864V135.864H501.66V125.864ZM508.98 134.5V144.5H516.174L518.461 137.68L508.98 134.5ZM507.011 134.5L497.579 131.179L492.889 144.5H507.011V134.5ZM510.596 124.318V114.318H503.515L501.163 120.997L510.596 124.318ZM512.873 124.318L522.304 120.993L519.951 114.318H512.873V124.318ZM516.462 134.5V144.5H530.591L525.893 131.175L516.462 134.5ZM514.493 134.5L505.014 137.685L507.304 144.5H514.493V134.5ZM511.774 126.406L521.253 123.221L518.963 116.406H511.774V126.406ZM511.694 126.406V116.406H504.501L502.213 123.227L511.694 126.406ZM509.045 130.508V120.508H499.045V130.508H509.045ZM514.414 130.508H524.414V120.508H514.414V130.508ZM514.414 131.989V141.989H524.414V131.989H514.414ZM509.045 131.989H499.045V141.989H509.045V131.989ZM508.98 134.5V124.5H507.011V134.5V144.5H508.98V134.5ZM507.011 134.5L516.444 137.821L520.028 127.639L510.596 124.318L501.163 120.997L497.579 131.179L507.011 134.5ZM510.596 124.318V134.318H512.873V124.318V114.318H510.596V124.318ZM512.873 124.318L503.442 127.643L507.031 137.825L516.462 134.5L525.893 131.175L522.304 120.993L512.873 124.318ZM516.462 134.5V124.5H514.493V134.5V144.5H516.462V134.5ZM514.493 134.5L523.973 131.315L521.253 123.221L511.774 126.406L502.295 129.591L505.014 137.685L514.493 134.5ZM511.774 126.406V116.406H511.694V126.406V136.406H511.774V126.406ZM511.694 126.406L502.213 123.227L499.499 131.32L508.98 134.5L518.461 137.68L521.175 129.586L511.694 126.406ZM509.045 130.508V140.508H514.414V130.508V120.508H509.045V130.508ZM514.414 130.508H504.414V131.989H514.414H524.414V130.508H514.414ZM514.414 131.989V121.989H509.045V131.989V141.989H514.414V131.989ZM509.045 131.989H519.045V130.508H509.045H499.045V131.989H509.045Z" fill="#121416" mask="url(#path-25-outside-1_23_852)"/>
<rect x="691.5" y="0.5" width="259" height="258" rx="9.5" stroke="#C4B5FD" stroke-dasharray="4 4"/>
<rect x="701.5" y="10.5" width="239" height="238" rx="7.5" fill="#2E1065"/>
<rect x="701.5" y="10.5" width="239" height="238" rx="7.5" stroke="#C4B5FD"/>
<g clip-path="url(#clip4_23_852)">
<path d="M816.764 97.5876C818.135 96.6532 819.901 97.0205 819.606 97.3021C819.042 97.839 819.792 97.6803 819.873 98.671C819.932 99.4008 819.694 99.8026 819.489 100.031C819.061 100.087 818.541 100.192 817.914 100.395C817.543 100.516 817.221 100.65 816.939 100.785C816.864 100.736 816.783 100.677 816.688 100.594C815.721 99.7554 815.753 98.2767 816.764 97.5876ZM824.954 103.364C825.203 103.171 826.333 102.808 827.38 102.684C827.93 102.619 828.713 102.582 828.88 102.675C829.212 102.858 829.212 103.425 828.985 103.949C828.654 104.71 828.186 105.551 827.656 105.62C826.792 105.734 825.974 105.266 825.041 104.569C824.708 104.319 824.504 103.712 824.954 103.364ZM826.531 95.955C827.807 96.5487 827.64 97.6785 827.676 98.3422C827.685 98.5329 827.682 98.6614 827.666 98.7497C827.489 98.654 827.21 98.5836 826.767 98.6033C826.638 98.6085 826.512 98.6238 826.39 98.6431C825.919 98.3908 825.637 97.8971 825.38 97.3725C825.356 97.3239 825.338 97.2807 825.32 97.2387C825.313 97.2194 825.305 97.1989 825.298 97.1814C825.294 97.1718 825.292 97.1644 825.289 97.1556C825.148 96.7074 825.242 96.6178 825.302 96.4797C825.364 96.3384 825.594 96.2221 825.253 96.1045C825.224 96.0936 825.188 96.0875 825.147 96.0796C825.372 95.7998 826.048 95.732 826.531 95.955ZM819.573 109.463C818.198 108.58 816.776 107.314 816.153 106.613C816.049 106.535 816.066 106.185 816.066 106.185C816.627 106.622 818.956 108.286 821.419 109.046C822.288 109.314 823.621 109.415 824.778 108.76C825.661 108.259 826.725 107.386 827.36 106.486L827.476 106.688C827.472 106.821 827.18 107.473 827.031 107.735C827.3 107.89 827.5 107.931 827.798 108.013L829.838 107.695C830.57 106.513 831.094 104.606 830.535 102.791C830.216 101.75 828.552 99.6775 828.432 99.5634C828.014 99.1616 828.502 97.6094 827.674 95.9161C826.798 94.1248 824.516 92.2569 823.525 91.4441C823.817 91.6575 825.616 92.3828 826.454 93.395C826.533 93.2905 826.566 92.747 826.638 92.6093C825.918 91.6662 825.862 89.9881 825.862 89.5396C825.862 88.7171 825.444 87.785 825.444 87.785C825.444 87.785 826.164 88.3551 826.35 89.3371C826.57 90.5001 827.039 91.4161 827.659 92.1913C828.832 93.653 829.892 94.4028 830.428 93.8629C831.069 93.214 829.777 90.3117 828.128 88.6918C826.203 86.8012 825.7 87.0447 824.57 87.4479C823.669 87.7692 823.182 90.3279 820.833 90.2772C820.436 90.2308 819.411 90.2059 818.904 90.2103C819.168 89.8417 819.395 89.557 819.395 89.557C819.395 89.557 818.607 89.874 817.935 90.2758L817.884 90.1985C818.11 89.721 818.354 89.4193 818.354 89.4193C818.354 89.4193 817.724 89.7975 817.149 90.2505C817.254 89.6812 817.65 89.3205 817.65 89.3205C817.65 89.3205 816.854 89.4639 815.841 90.5784C814.69 90.8932 814.413 91.1 813.496 91.5062C812.004 91.1809 811.301 90.6558 810.63 89.6891C810.119 88.9506 809.21 88.8387 808.282 89.2204C806.927 89.78 805.215 90.5465 805.215 90.5465C805.215 90.5465 805.773 90.5238 806.355 90.5487C805.559 90.8504 804.793 91.2653 804.793 91.2653C804.793 91.2653 805.166 91.2522 805.627 91.26C805.309 91.5241 805.133 91.65 804.83 91.8507C804.102 92.3798 803.511 92.991 803.511 92.991C803.511 92.991 804.005 92.7658 804.45 92.6395C804.139 93.3509 803.524 93.8747 803.637 94.7456C803.746 95.5409 804.722 97.1792 805.982 98.1848C806.091 98.2723 807.812 99.8651 809.111 99.211C810.409 98.5578 810.921 97.9758 811.134 97.0835C811.385 96.0586 811.242 95.2834 810.706 93.0588C810.529 92.3247 810.069 90.8128 809.847 90.0896L809.896 90.0542C810.321 90.95 811.407 93.3115 811.845 94.8978C812.528 97.3712 812.315 98.626 812.002 99.086C811.059 100.473 808.643 100.656 807.544 99.8878C807.375 102.551 807.97 103.724 808.172 104.314C808.072 104.993 808.512 106.254 808.512 106.254C808.512 106.254 808.561 105.681 808.763 105.379C808.816 106.053 809.156 106.853 809.156 106.853C809.156 106.853 809.135 106.359 809.29 105.932C809.508 106.3 809.667 106.388 809.873 106.664C810.079 107.385 810.492 107.911 810.492 107.911C810.492 107.911 810.425 107.524 810.462 107.123C811.469 108.091 811.643 109.503 811.743 110.589C812.026 113.573 807.037 115.947 806.071 117.814C805.338 118.919 804.899 120.669 806.14 121.7C809.139 124.191 807.987 124.877 809.488 125.971C811.548 127.473 814.125 126.8 815.002 125.579C816.223 123.878 815.91 122.273 815.456 120.771C815.101 119.597 814.138 117.647 812.946 116.892C811.728 116.12 810.543 115.976 809.54 116.079L809.633 115.973C811.076 115.686 812.585 115.843 813.677 116.547C814.916 117.344 816.05 118.71 816.643 120.804C817.315 120.709 817.41 120.665 818.026 120.578L816.64 109.789L819.573 109.463ZM820.374 122.987L820.215 121.49L823.332 116.736L826.87 117.77L829.913 112.688L833.56 115.094L836.331 109.282L837.316 119.866L820.374 122.987ZM837.353 107.115L826.216 109.133C825.94 109.489 825.258 110.113 824.93 110.276C823.524 110.984 822.573 110.779 821.752 110.566C821.223 110.432 820.917 110.357 820.479 110.16L817.761 110.533L819.411 124.3L838.489 120.86L837.353 107.115Z" fill="white"/>
</g>
<path d="M761.875 136.663H763.958L766.449 141.168H766.549L769.039 136.663H771.122L767.419 143.047V146.845H765.579V143.047L761.875 136.663ZM781.652 141.754C781.652 142.851 781.447 143.791 781.036 144.573C780.628 145.352 780.072 145.949 779.366 146.363C778.663 146.777 777.866 146.984 776.974 146.984C776.083 146.984 775.284 146.777 774.578 146.363C773.875 145.945 773.318 145.347 772.907 144.568C772.5 143.786 772.296 142.848 772.296 141.754C772.296 140.657 772.5 139.719 772.907 138.94C773.318 138.158 773.875 137.56 774.578 137.145C775.284 136.731 776.083 136.524 776.974 136.524C777.866 136.524 778.663 136.731 779.366 137.145C780.072 137.56 780.628 138.158 781.036 138.94C781.447 139.719 781.652 140.657 781.652 141.754ZM779.798 141.754C779.798 140.982 779.677 140.331 779.435 139.8C779.197 139.267 778.865 138.864 778.441 138.592C778.017 138.317 777.528 138.18 776.974 138.18C776.421 138.18 775.932 138.317 775.508 138.592C775.083 138.864 774.75 139.267 774.508 139.8C774.27 140.331 774.15 140.982 774.15 141.754C774.15 142.526 774.27 143.179 774.508 143.713C774.75 144.243 775.083 144.646 775.508 144.921C775.932 145.193 776.421 145.329 776.974 145.329C777.528 145.329 778.017 145.193 778.441 144.921C778.865 144.646 779.197 144.243 779.435 143.713C779.677 143.179 779.798 142.526 779.798 141.754ZM790.515 136.663H792.359V143.315C792.359 144.044 792.187 144.686 791.842 145.239C791.501 145.793 791.02 146.225 790.4 146.537C789.78 146.845 789.056 146.999 788.228 146.999C787.396 146.999 786.67 146.845 786.05 146.537C785.43 146.225 784.95 145.793 784.608 145.239C784.267 144.686 784.096 144.044 784.096 143.315V136.663H785.941V143.161C785.941 143.585 786.034 143.963 786.219 144.295C786.408 144.626 786.673 144.886 787.015 145.075C787.356 145.261 787.76 145.354 788.228 145.354C788.695 145.354 789.099 145.261 789.441 145.075C789.785 144.886 790.051 144.626 790.236 144.295C790.422 143.963 790.515 143.585 790.515 143.161V136.663ZM795.064 146.845V136.663H798.882C799.664 136.663 800.32 136.799 800.851 137.071C801.384 137.343 801.787 137.724 802.059 138.214C802.334 138.702 802.472 139.27 802.472 139.92C802.472 140.573 802.332 141.139 802.054 141.62C801.779 142.097 801.373 142.467 800.836 142.729C800.299 142.987 799.639 143.116 798.857 143.116H796.138V141.585H798.609C799.066 141.585 799.44 141.522 799.732 141.396C800.024 141.267 800.239 141.08 800.378 140.834C800.521 140.586 800.592 140.281 800.592 139.92C800.592 139.558 800.521 139.25 800.378 138.995C800.236 138.736 800.019 138.541 799.727 138.408C799.436 138.272 799.059 138.204 798.599 138.204H796.908V146.845H795.064ZM800.324 142.231L802.844 146.845H800.786L798.31 142.231H800.324ZM812.492 146.845H809.042V136.663H812.562C813.573 136.663 814.441 136.867 815.167 137.275C815.896 137.679 816.456 138.261 816.847 139.02C817.238 139.779 817.434 140.687 817.434 141.744C817.434 142.805 817.237 143.716 816.842 144.479C816.451 145.241 815.886 145.826 815.147 146.234C814.411 146.641 813.526 146.845 812.492 146.845ZM810.886 145.249H812.403C813.112 145.249 813.704 145.12 814.178 144.861C814.652 144.6 815.008 144.21 815.247 143.693C815.485 143.173 815.604 142.523 815.604 141.744C815.604 140.965 815.485 140.319 815.247 139.805C815.008 139.288 814.655 138.902 814.188 138.647C813.724 138.388 813.147 138.259 812.457 138.259H810.886V145.249ZM820.647 146.845H818.678L822.263 136.663H824.54L828.129 146.845H826.161L823.441 138.751H823.362L820.647 146.845ZM820.712 142.853H826.081V144.334H820.712V142.853ZM828.493 138.209V136.663H836.616V138.209H833.469V146.845H831.64V138.209H828.493ZM838.959 146.845H836.991L840.575 136.663H842.852L846.441 146.845H844.473L841.753 138.751H841.674L838.959 146.845ZM839.024 142.853H844.393V144.334H839.024V142.853ZM851.933 146.845H848.483V136.663H852.002C853.013 136.663 853.882 136.867 854.608 137.275C855.337 137.679 855.897 138.261 856.288 139.02C856.679 139.779 856.875 140.687 856.875 141.744C856.875 142.805 856.677 143.716 856.283 144.479C855.892 145.241 855.327 145.826 854.588 146.234C853.852 146.641 852.967 146.845 851.933 146.845ZM850.327 145.249H851.843C852.553 145.249 853.144 145.12 853.618 144.861C854.092 144.6 854.449 144.21 854.687 143.693C854.926 143.173 855.045 142.523 855.045 141.744C855.045 140.965 854.926 140.319 854.687 139.805C854.449 139.288 854.096 138.902 853.628 138.647C853.164 138.388 852.587 138.259 851.898 138.259H850.327V145.249ZM868.425 141.754C868.425 142.851 868.22 143.791 867.809 144.573C867.401 145.352 866.844 145.949 866.138 146.363C865.436 146.777 864.638 146.984 863.747 146.984C862.855 146.984 862.057 146.777 861.351 146.363C860.648 145.945 860.091 145.347 859.68 144.568C859.272 143.786 859.069 142.848 859.069 141.754C859.069 140.657 859.272 139.719 859.68 138.94C860.091 138.158 860.648 137.56 861.351 137.145C862.057 136.731 862.855 136.524 863.747 136.524C864.638 136.524 865.436 136.731 866.138 137.145C866.844 137.56 867.401 138.158 867.809 138.94C868.22 139.719 868.425 140.657 868.425 141.754ZM866.571 141.754C866.571 140.982 866.45 140.331 866.208 139.8C865.969 139.267 865.638 138.864 865.213 138.592C864.789 138.317 864.3 138.18 863.747 138.18C863.193 138.18 862.704 138.317 862.28 138.592C861.856 138.864 861.523 139.267 861.281 139.8C861.042 140.331 860.923 140.982 860.923 141.754C860.923 142.526 861.042 143.179 861.281 143.713C861.523 144.243 861.856 144.646 862.28 144.921C862.704 145.193 863.193 145.329 863.747 145.329C864.3 145.329 864.789 145.193 865.213 144.921C865.638 144.646 865.969 144.243 866.208 143.713C866.45 143.179 866.571 142.526 866.571 141.754ZM877.69 139.915C877.607 139.646 877.493 139.406 877.347 139.194C877.204 138.978 877.032 138.794 876.83 138.642C876.631 138.489 876.402 138.375 876.144 138.299C875.885 138.219 875.604 138.18 875.299 138.18C874.752 138.18 874.265 138.317 873.837 138.592C873.409 138.867 873.073 139.272 872.828 139.805C872.586 140.336 872.465 140.982 872.465 141.744C872.465 142.513 872.586 143.164 872.828 143.698C873.07 144.232 873.406 144.638 873.837 144.916C874.268 145.191 874.768 145.329 875.338 145.329C875.855 145.329 876.303 145.229 876.681 145.03C877.062 144.832 877.355 144.55 877.561 144.185C877.766 143.817 877.869 143.386 877.869 142.893L878.287 142.957H875.522V141.516H879.654V142.739C879.654 143.61 879.468 144.364 879.097 145.001C878.726 145.637 878.215 146.127 877.566 146.472C876.916 146.814 876.17 146.984 875.328 146.984C874.39 146.984 873.567 146.774 872.858 146.353C872.152 145.929 871.6 145.327 871.202 144.548C870.808 143.766 870.61 142.838 870.61 141.764C870.61 140.942 870.726 140.208 870.958 139.562C871.194 138.915 871.522 138.367 871.943 137.916C872.364 137.462 872.858 137.117 873.424 136.882C873.991 136.643 874.608 136.524 875.274 136.524C875.837 136.524 876.363 136.607 876.85 136.773C877.337 136.935 877.769 137.167 878.147 137.469C878.528 137.77 878.842 138.128 879.087 138.543C879.332 138.957 879.493 139.414 879.569 139.915H877.69ZM774.511 166.845H772.543L776.127 156.663H778.404L781.994 166.845H780.025L777.305 158.751H777.226L774.511 166.845ZM774.576 162.853H779.945V164.334H774.576V162.853ZM792.271 160.099H790.412C790.359 159.794 790.261 159.524 790.119 159.288C789.976 159.05 789.799 158.847 789.587 158.682C789.375 158.516 789.133 158.392 788.861 158.309C788.592 158.223 788.302 158.18 787.991 158.18C787.437 158.18 786.947 158.319 786.519 158.597C786.092 158.872 785.757 159.277 785.515 159.81C785.273 160.341 785.152 160.989 785.152 161.754C785.152 162.533 785.273 163.189 785.515 163.723C785.76 164.253 786.095 164.654 786.519 164.926C786.947 165.194 787.436 165.329 787.986 165.329C788.291 165.329 788.576 165.289 788.841 165.209C789.109 165.127 789.35 165.006 789.562 164.846C789.777 164.687 789.958 164.492 790.104 164.26C790.253 164.028 790.356 163.763 790.412 163.464L792.271 163.474C792.202 163.958 792.051 164.412 791.819 164.837C791.59 165.261 791.29 165.635 790.919 165.96C790.548 166.282 790.114 166.534 789.617 166.716C789.119 166.895 788.568 166.984 787.961 166.984C787.066 166.984 786.267 166.777 785.565 166.363C784.862 165.949 784.309 165.35 783.904 164.568C783.5 163.786 783.298 162.848 783.298 161.754C783.298 160.657 783.502 159.719 783.909 158.94C784.317 158.158 784.872 157.56 785.575 157.145C786.277 156.731 787.073 156.524 787.961 156.524C788.528 156.524 789.055 156.604 789.542 156.763C790.029 156.922 790.463 157.155 790.845 157.464C791.226 157.769 791.539 158.143 791.784 158.587C792.033 159.028 792.195 159.532 792.271 160.099ZM803.376 160.099H801.516C801.463 159.794 801.366 159.524 801.223 159.288C801.08 159.05 800.903 158.847 800.691 158.682C800.479 158.516 800.237 158.392 799.965 158.309C799.697 158.223 799.407 158.18 799.095 158.18C798.542 158.18 798.051 158.319 797.624 158.597C797.196 158.872 796.861 159.277 796.619 159.81C796.377 160.341 796.256 160.989 796.256 161.754C796.256 162.533 796.377 163.189 796.619 163.723C796.865 164.253 797.199 164.654 797.624 164.926C798.051 165.194 798.54 165.329 799.09 165.329C799.395 165.329 799.68 165.289 799.945 165.209C800.214 165.127 800.454 165.006 800.666 164.846C800.882 164.687 801.062 164.492 801.208 164.26C801.357 164.028 801.46 163.763 801.516 163.464L803.376 163.474C803.306 163.958 803.155 164.412 802.923 164.837C802.695 165.261 802.395 165.635 802.023 165.96C801.652 166.282 801.218 166.534 800.721 166.716C800.224 166.895 799.672 166.984 799.065 166.984C798.17 166.984 797.372 166.777 796.669 166.363C795.966 165.949 795.413 165.35 795.009 164.568C794.604 163.786 794.402 162.848 794.402 161.754C794.402 160.657 794.606 159.719 795.013 158.94C795.421 158.158 795.976 157.56 796.679 157.145C797.382 156.731 798.177 156.524 799.065 156.524C799.632 156.524 800.159 156.604 800.646 156.763C801.134 156.922 801.568 157.155 801.949 157.464C802.33 157.769 802.643 158.143 802.888 158.587C803.137 159.028 803.299 159.532 803.376 160.099ZM814.863 161.754C814.863 162.851 814.657 163.791 814.246 164.573C813.839 165.352 813.282 165.949 812.576 166.363C811.873 166.777 811.076 166.984 810.185 166.984C809.293 166.984 808.494 166.777 807.788 166.363C807.086 165.945 806.529 165.347 806.118 164.568C805.71 163.786 805.506 162.848 805.506 161.754C805.506 160.657 805.71 159.719 806.118 158.94C806.529 158.158 807.086 157.56 807.788 157.145C808.494 156.731 809.293 156.524 810.185 156.524C811.076 156.524 811.873 156.731 812.576 157.145C813.282 157.56 813.839 158.158 814.246 158.94C814.657 159.719 814.863 160.657 814.863 161.754ZM813.008 161.754C813.008 160.982 812.887 160.331 812.645 159.8C812.407 159.267 812.075 158.864 811.651 158.592C811.227 158.317 810.738 158.18 810.185 158.18C809.631 158.18 809.142 158.317 808.718 158.592C808.294 158.864 807.961 159.267 807.719 159.8C807.48 160.331 807.361 160.982 807.361 161.754C807.361 162.526 807.48 163.179 807.719 163.713C807.961 164.243 808.294 164.646 808.718 164.921C809.142 165.193 809.631 165.329 810.185 165.329C810.738 165.329 811.227 165.193 811.651 164.921C812.075 164.646 812.407 164.243 812.645 163.713C812.887 163.179 813.008 162.526 813.008 161.754ZM823.725 156.663H825.569V163.315C825.569 164.044 825.397 164.686 825.052 165.239C824.711 165.793 824.23 166.225 823.611 166.537C822.991 166.845 822.267 166.999 821.438 166.999C820.606 166.999 819.88 166.845 819.26 166.537C818.641 166.225 818.16 165.793 817.819 165.239C817.477 164.686 817.307 164.044 817.307 163.315V156.663H819.151V163.161C819.151 163.585 819.244 163.963 819.429 164.295C819.618 164.626 819.884 164.886 820.225 165.075C820.566 165.261 820.971 165.354 821.438 165.354C821.905 165.354 822.31 165.261 822.651 165.075C822.996 164.886 823.261 164.626 823.447 164.295C823.632 163.963 823.725 163.585 823.725 163.161V156.663ZM836.641 156.663V166.845H835.001L830.203 159.91H830.119V166.845H828.274V156.663H829.925L834.717 163.604H834.807V156.663H836.641ZM838.904 158.209V156.663H847.027V158.209H843.88V166.845H842.051V158.209H838.904ZM849.661 161.754C849.661 160.511 849.825 159.369 850.153 158.329C850.485 157.285 850.977 156.32 851.63 155.435H853.325C853.073 155.763 852.838 156.166 852.619 156.643C852.401 157.117 852.21 157.638 852.048 158.204C851.888 158.768 851.763 159.353 851.67 159.959C851.58 160.566 851.536 161.164 851.536 161.754C851.536 162.54 851.613 163.335 851.769 164.141C851.928 164.946 852.142 165.693 852.411 166.383C852.682 167.069 852.987 167.631 853.325 168.068H851.63C850.977 167.183 850.485 166.22 850.153 165.18C849.825 164.136 849.661 162.994 849.661 161.754ZM861.036 159.462C860.99 159.028 860.795 158.69 860.45 158.448C860.108 158.206 859.664 158.085 859.117 158.085C858.733 158.085 858.403 158.143 858.128 158.259C857.853 158.375 857.643 158.533 857.497 158.731C857.351 158.93 857.276 159.157 857.273 159.413C857.273 159.625 857.321 159.809 857.417 159.964C857.517 160.12 857.651 160.253 857.82 160.362C857.989 160.468 858.176 160.558 858.382 160.631C858.587 160.703 858.794 160.765 859.003 160.815L859.958 161.053C860.342 161.143 860.712 161.264 861.066 161.416C861.424 161.569 861.744 161.761 862.026 161.993C862.311 162.225 862.536 162.505 862.702 162.833C862.868 163.161 862.951 163.546 862.951 163.986C862.951 164.583 862.798 165.108 862.493 165.562C862.188 166.013 861.747 166.366 861.171 166.621C860.597 166.873 859.903 166.999 859.088 166.999C858.295 166.999 857.608 166.877 857.024 166.631C856.444 166.386 855.99 166.028 855.662 165.557C855.337 165.087 855.162 164.513 855.135 163.837H856.95C856.976 164.192 857.086 164.487 857.278 164.722C857.47 164.958 857.72 165.133 858.029 165.249C858.34 165.365 858.688 165.423 859.073 165.423C859.474 165.423 859.825 165.364 860.127 165.244C860.432 165.122 860.67 164.953 860.843 164.737C861.015 164.518 861.103 164.263 861.106 163.971C861.103 163.706 861.025 163.488 860.872 163.315C860.72 163.14 860.506 162.994 860.231 162.878C859.959 162.758 859.641 162.652 859.277 162.56L858.118 162.261C857.28 162.046 856.617 161.719 856.13 161.282C855.646 160.841 855.404 160.256 855.404 159.527C855.404 158.927 855.566 158.402 855.891 157.951C856.219 157.5 856.665 157.15 857.228 156.902C857.792 156.65 858.43 156.524 859.142 156.524C859.865 156.524 860.498 156.65 861.041 156.902C861.588 157.15 862.018 157.497 862.329 157.941C862.641 158.382 862.801 158.889 862.811 159.462H861.036ZM868.427 161.754C868.427 162.994 868.261 164.136 867.93 165.18C867.602 166.22 867.111 167.183 866.458 168.068H864.763C865.018 167.74 865.253 167.339 865.469 166.865C865.688 166.391 865.877 165.871 866.036 165.304C866.198 164.737 866.324 164.15 866.413 163.544C866.506 162.937 866.553 162.341 866.553 161.754C866.553 160.969 866.473 160.173 866.314 159.368C866.158 158.562 865.945 157.815 865.673 157.126C865.404 156.436 865.101 155.873 864.763 155.435H866.458C867.111 156.32 867.602 157.285 867.93 158.329C868.261 159.369 868.427 160.511 868.427 161.754Z" fill="white"/>
</g>
<defs>
<clipPath id="clip0_23_852">
<rect width="951" height="259" fill="white"/>
</clipPath>
<clipPath id="clip1_23_852">
<rect width="55" height="27" fill="white" transform="translate(102.5 20)"/>
</clipPath>
<clipPath id="clip2_23_852">
<rect width="13.285" height="26.7776" fill="white" transform="translate(102.5 20.6112)"/>
</clipPath>
<clipPath id="clip3_23_852">
<rect width="35" height="40" fill="white" transform="translate(112 111)"/>
</clipPath>
<clipPath id="clip4_23_852">
<rect width="35" height="39.6901" fill="white" transform="translate(803.5 87.1549)"/>
</clipPath>
</defs>
</svg>
