<svg width="971" height="279" viewBox="0 0 971 279" fill="none" xmlns="http://www.w3.org/2000/svg">
<rect width="971" height="279" fill="#121416"/>
<rect x="10.5" y="10.5" width="259" height="258" rx="9.5" stroke="#6EE7B7" stroke-dasharray="4 4"/>
<rect x="20.5" y="20.5" width="239" height="238" rx="7.5" fill="#022C22"/>
<rect x="20.5" y="20.5" width="239" height="238" rx="7.5" stroke="#6EE7B7"/>
<g clip-path="url(#clip0_115_4434)">
<g clip-path="url(#clip1_115_4434)">
<rect x="119.143" y="50.7459" width="6.64251" height="6.64251" fill="#F5F5F5"/>
<rect x="112.5" y="30.8184" width="6.64251" height="6.64251" fill="#F5F5F5"/>
<rect x="119.143" y="37.4609" width="6.64251" height="6.64251" fill="#F5F5F5"/>
<rect x="112.5" y="44.1034" width="6.64251" height="6.64251" fill="#F5F5F5"/>
</g>
<path d="M160.064 46.4031V42.5323C160.064 40.8389 160.897 39.9922 162.564 39.9922H164.944C166.599 39.9922 167.427 40.8389 167.427 42.5323V46.4031C167.427 48.0965 166.599 48.9432 164.944 48.9432H162.564C160.897 48.9432 160.064 48.0965 160.064 46.4031ZM161.135 46.5759C161.135 47.5205 161.6 47.9928 162.53 47.9928H164.978C165.897 47.9928 166.356 47.5205 166.356 46.5759V42.3595C166.356 41.4264 165.897 40.9599 164.978 40.9599H162.53C161.6 40.9599 161.135 41.4264 161.135 42.3595V46.5759Z" fill="#FAFAFA"/>
<path d="M153.955 48.9432V40.9944C154.351 40.3263 155.071 39.9922 156.114 39.9922H157.781L158.359 40.4415V40.9599H156.165C155.644 40.9599 155.264 41.1039 155.026 41.3919V48.9432H153.955Z" fill="#FAFAFA"/>
<path d="M144.155 46.4031V42.5323C144.155 40.8389 144.989 39.9922 146.655 39.9922H148.866C150.521 39.9922 151.348 40.8389 151.348 42.5323V44.8997H145.227V46.5759C145.227 47.5205 145.691 47.9928 146.621 47.9928H151.008V48.4939L150.43 48.9432H146.655C144.989 48.9432 144.155 48.0965 144.155 46.4031ZM145.227 43.9839H150.277V42.3595C150.277 41.4264 149.818 40.9599 148.9 40.9599H146.621C145.691 40.9599 145.227 41.4264 145.227 42.3595V43.9839Z" fill="#FAFAFA"/>
<path d="M134.022 38.0741V37.02H143.171V38.0741H139.157V48.9432H138.035V38.0741H134.022Z" fill="#FAFAFA"/>
</g>
<circle cx="139.5" cy="79.5" r="12.5" fill="#FAFAFA"/>
<path d="M140.923 73.3636V85H138.815V75.4148H138.747L136.026 77.1534V75.2216L138.918 73.3636H140.923Z" fill="#064E3B"/>
<circle cx="237.5" cy="140.5" r="12.5" fill="#FAFAFA"/>
<path d="M233.065 146V144.477L237.105 140.517C237.491 140.127 237.813 139.78 238.071 139.477C238.329 139.174 238.522 138.881 238.651 138.597C238.779 138.312 238.844 138.009 238.844 137.688C238.844 137.32 238.76 137.006 238.594 136.744C238.427 136.479 238.198 136.275 237.906 136.131C237.615 135.987 237.283 135.915 236.912 135.915C236.529 135.915 236.194 135.994 235.906 136.153C235.618 136.309 235.395 136.53 235.236 136.818C235.08 137.106 235.003 137.449 235.003 137.847H232.997C232.997 137.108 233.166 136.466 233.503 135.92C233.84 135.375 234.304 134.953 234.895 134.653C235.49 134.354 236.171 134.205 236.94 134.205C237.721 134.205 238.406 134.35 238.997 134.642C239.588 134.934 240.046 135.333 240.372 135.841C240.702 136.348 240.866 136.928 240.866 137.58C240.866 138.015 240.783 138.443 240.616 138.864C240.45 139.284 240.156 139.75 239.736 140.261C239.319 140.773 238.734 141.392 237.98 142.119L235.974 144.159V144.239H241.043V146H233.065Z" fill="#064E3B"/>
<path d="M227.5 79.4999L227.5 81.4999L227.5 81.4999L227.5 79.4999ZM237.5 89.4999L235.5 89.4999L237.5 89.4999ZM237.5 124L249.047 104L225.953 104L237.5 124ZM158.501 79.5L158.501 81.4999L227.5 81.4999L227.5 79.4999L227.5 77.4999L158.501 77.5L158.501 79.5ZM237.5 89.4999L235.5 89.4999L235.5 106L237.5 106L239.5 106L239.5 89.4999L237.5 89.4999ZM227.5 79.4999L227.5 81.4999C231.918 81.4999 235.5 85.0816 235.5 89.4999L237.5 89.4999L239.5 89.4999C239.5 82.8725 234.127 77.4999 227.5 77.4999L227.5 79.4999Z" fill="#34D399"/>
<g clip-path="url(#clip2_115_4434)">
<path opacity="0.4" d="M129.5 131C129.5 133.652 130.554 136.196 132.429 138.071C134.304 139.946 136.848 141 139.5 141C142.152 141 144.696 139.946 146.571 138.071C148.446 136.196 149.5 133.652 149.5 131C149.5 128.348 148.446 125.804 146.571 123.929C144.696 122.054 142.152 121 139.5 121C136.848 121 134.304 122.054 132.429 123.929C130.554 125.804 129.5 128.348 129.5 131Z" fill="#FAFAFA"/>
<path d="M122 158.68C122 150.984 128.234 144.75 135.93 144.75H143.07C150.766 144.75 157 150.984 157 158.68C157 159.961 155.961 161 154.68 161H124.32C123.039 161 122 159.961 122 158.68Z" fill="#FAFAFA"/>
</g>
<line x1="166" y1="142.5" x2="217" y2="142.5" stroke="white"/>
<line x1="139.5" y1="100" x2="139.5" y2="115" stroke="white"/>
<path d="M94.1094 237.5V241.891H96.5234C97.5026 241.891 98.237 241.711 98.7266 241.352C99.2161 240.987 99.4609 240.422 99.4609 239.656C99.4609 238.859 99.1953 238.302 98.6641 237.984C98.138 237.661 97.3151 237.5 96.1953 237.5H94.1094ZM94.1094 236.414H96.5859C97.3932 236.414 98.0026 236.273 98.4141 235.992C98.8255 235.711 99.0312 235.211 99.0312 234.492C99.0312 233.768 98.7839 233.271 98.2891 233C97.7995 232.724 97.0365 232.586 96 232.586H94.1094V236.414ZM92.7578 231.445H96.0703C97.5547 231.445 98.6536 231.672 99.3672 232.125C100.086 232.578 100.445 233.299 100.445 234.289C100.445 234.435 100.435 234.581 100.414 234.727C100.398 234.867 100.352 235.049 100.273 235.273C100.201 235.497 100.099 235.703 99.9688 235.891C99.8385 236.073 99.6458 236.258 99.3906 236.445C99.1406 236.628 98.8464 236.773 98.5078 236.883C99.2839 237.029 99.8724 237.357 100.273 237.867C100.674 238.378 100.875 238.992 100.875 239.711C100.875 240.758 100.531 241.568 99.8438 242.141C99.1615 242.714 98.1432 243 96.7891 243H92.7578V231.445ZM102.266 240.141V234.43H103.578V240.156C103.578 240.531 103.63 240.849 103.734 241.109C103.844 241.37 103.997 241.573 104.195 241.719C104.398 241.859 104.625 241.961 104.875 242.023C105.13 242.086 105.422 242.117 105.75 242.117C106.427 242.117 106.953 241.969 107.328 241.672C107.708 241.375 107.898 240.87 107.898 240.156V234.43H109.211V240.141C109.211 240.578 109.148 240.971 109.023 241.32C108.898 241.669 108.729 241.961 108.516 242.195C108.307 242.424 108.055 242.615 107.758 242.766C107.461 242.917 107.146 243.026 106.812 243.094C106.484 243.161 106.13 243.195 105.75 243.195C105.375 243.195 105.021 243.161 104.688 243.094C104.354 243.026 104.036 242.917 103.734 242.766C103.438 242.609 103.18 242.417 102.961 242.188C102.747 241.953 102.578 241.661 102.453 241.312C102.328 240.964 102.266 240.573 102.266 240.141ZM112.695 234.43V243H111.383V234.43H112.695ZM112.695 231.312V232.859H111.383V231.312H112.695ZM117.461 243.156C116.628 243.156 116.036 242.932 115.688 242.484C115.344 242.036 115.172 241.258 115.172 240.148V231.102L116.469 231.023V239.633C116.469 239.987 116.471 240.271 116.477 240.484C116.487 240.698 116.508 240.909 116.539 241.117C116.57 241.32 116.612 241.474 116.664 241.578C116.716 241.682 116.792 241.779 116.891 241.867C116.99 241.951 117.107 242.008 117.242 242.039C117.383 242.065 117.555 242.078 117.758 242.078C117.924 242.078 118.253 242.047 118.742 241.984L118.812 243.023C118.276 243.112 117.826 243.156 117.461 243.156ZM122.953 242.055C123.812 242.055 124.451 241.779 124.867 241.227C125.289 240.674 125.5 239.885 125.5 238.859C125.5 237.703 125.297 236.833 124.891 236.25C124.49 235.661 123.839 235.367 122.938 235.367C122.536 235.367 122.182 235.453 121.875 235.625C121.568 235.797 121.32 236.036 121.133 236.344C120.945 236.651 120.802 237.005 120.703 237.406C120.609 237.802 120.562 238.237 120.562 238.711C120.562 239.378 120.643 239.956 120.805 240.445C120.971 240.935 121.237 241.326 121.602 241.617C121.966 241.909 122.417 242.055 122.953 242.055ZM125.523 241.758C125.242 242.19 124.867 242.534 124.398 242.789C123.93 243.044 123.406 243.172 122.828 243.172C121.698 243.172 120.812 242.771 120.172 241.969C119.531 241.161 119.211 240.065 119.211 238.68C119.211 237.357 119.536 236.289 120.188 235.477C120.839 234.659 121.711 234.25 122.805 234.25C123.372 234.25 123.906 234.375 124.406 234.625C124.911 234.87 125.289 235.201 125.539 235.617L125.516 234.875V231.102L126.805 231.023V243H125.695L125.523 241.758ZM138.391 232.438C137.521 232.438 136.771 232.648 136.141 233.07C135.516 233.492 135.049 234.06 134.742 234.773C134.435 235.487 134.281 236.307 134.281 237.234C134.281 237.927 134.365 238.56 134.531 239.133C134.698 239.701 134.948 240.201 135.281 240.633C135.615 241.06 136.047 241.393 136.578 241.633C137.115 241.867 137.729 241.984 138.422 241.984C139.312 241.984 140.234 241.753 141.188 241.289L141.414 242.438C140.638 242.927 139.589 243.172 138.266 243.172C137.396 243.172 136.615 243.029 135.922 242.742C135.234 242.451 134.664 242.042 134.211 241.516C133.763 240.984 133.422 240.354 133.188 239.625C132.953 238.891 132.836 238.076 132.836 237.18C132.836 236.315 132.964 235.518 133.219 234.789C133.474 234.06 133.833 233.435 134.297 232.914C134.766 232.388 135.349 231.979 136.047 231.688C136.745 231.396 137.521 231.25 138.375 231.25C139.672 231.25 140.766 231.536 141.656 232.109L141.125 233.211C140.271 232.695 139.359 232.438 138.391 232.438ZM144.109 238.734C144.109 239.75 144.333 240.565 144.781 241.18C145.234 241.789 145.893 242.094 146.758 242.094C147.612 242.094 148.255 241.789 148.688 241.18C149.125 240.57 149.344 239.75 149.344 238.719C149.344 237.672 149.128 236.849 148.695 236.25C148.268 235.646 147.615 235.344 146.734 235.344C145.88 235.344 145.229 235.651 144.781 236.266C144.333 236.88 144.109 237.703 144.109 238.734ZM150.695 238.711C150.695 240.039 150.341 241.117 149.633 241.945C148.924 242.768 147.945 243.18 146.695 243.18C145.492 243.18 144.534 242.763 143.82 241.93C143.112 241.096 142.758 240.026 142.758 238.719C142.758 237.385 143.115 236.307 143.828 235.484C144.542 234.661 145.521 234.25 146.766 234.25C147.99 234.25 148.951 234.664 149.648 235.492C150.346 236.315 150.695 237.388 150.695 238.711ZM152.547 243V234.43H153.641L153.805 235.656C154.143 235.234 154.565 234.896 155.07 234.641C155.581 234.38 156.13 234.25 156.719 234.25C157.708 234.25 158.44 234.529 158.914 235.086C159.388 235.638 159.625 236.49 159.625 237.641V243H158.32C158.32 239.562 158.318 237.721 158.312 237.477C158.292 236.747 158.143 236.214 157.867 235.875C157.596 235.536 157.141 235.367 156.5 235.367C155.828 235.367 155.268 235.529 154.82 235.852C154.372 236.174 154.081 236.594 153.945 237.109C153.893 237.458 153.867 237.859 153.867 238.312V243H152.547ZM164.531 243.156C163.688 243.156 163.089 242.951 162.734 242.539C162.38 242.128 162.193 241.464 162.172 240.547V235.398H160.898L160.953 234.539L162.164 234.43L162.609 232.469L163.469 232.438V234.43H165.852V235.398H163.469V240.312C163.469 240.964 163.568 241.422 163.766 241.688C163.964 241.953 164.302 242.086 164.781 242.086C164.953 242.086 165.326 242.044 165.898 241.961L165.953 242.992C165.333 243.102 164.859 243.156 164.531 243.156ZM172.188 236.016C171.807 235.557 171.284 235.328 170.617 235.328C169.951 235.328 169.406 235.565 168.984 236.039C168.562 236.508 168.315 237.151 168.242 237.969H172.766C172.766 237.12 172.573 236.469 172.188 236.016ZM170.875 243.18C169.63 243.18 168.648 242.784 167.93 241.992C167.216 241.201 166.859 240.117 166.859 238.742C166.859 237.414 167.206 236.339 167.898 235.516C168.591 234.688 169.503 234.266 170.633 234.25C171.695 234.25 172.536 234.615 173.156 235.344C173.781 236.068 174.094 237.036 174.094 238.25C174.094 238.312 174.091 238.427 174.086 238.594C174.086 238.76 174.086 238.88 174.086 238.953H168.203C168.219 239.927 168.469 240.688 168.953 241.234C169.443 241.776 170.099 242.047 170.922 242.047C171.828 242.047 172.737 241.807 173.648 241.328L173.852 242.383C172.982 242.914 171.99 243.18 170.875 243.18ZM178.172 238.641L175.148 234.43H176.641L178.93 237.695L181.227 234.43H182.719L179.688 238.656L182.797 243H181.352L178.938 239.555L176.523 243H175.031L178.172 238.641ZM186.906 243.156C186.062 243.156 185.464 242.951 185.109 242.539C184.755 242.128 184.568 241.464 184.547 240.547V235.398H183.273L183.328 234.539L184.539 234.43L184.984 232.469L185.844 232.438V234.43H188.227V235.398H185.844V240.312C185.844 240.964 185.943 241.422 186.141 241.688C186.339 241.953 186.677 242.086 187.156 242.086C187.328 242.086 187.701 242.044 188.273 241.961L188.328 242.992C187.708 243.102 187.234 243.156 186.906 243.156Z" fill="white"/>
<path d="M280 139.5L300 151.047V127.953L280 139.5ZM298 139.5V141.5L691.5 141.5V139.5V137.5L298 137.5V139.5Z" fill="#34D399"/>
<mask id="path-23-outside-1_115_4434" maskUnits="userSpaceOnUse" x="430" y="123.5" width="111" height="31" fill="black">
<rect fill="white" x="430" y="123.5" width="111" height="31"/>
<path d="M444.205 144.5V134.318H448.023C448.806 134.318 449.462 134.454 449.992 134.726C450.526 134.998 450.928 135.379 451.2 135.869C451.475 136.357 451.613 136.925 451.613 137.575C451.613 138.228 451.474 138.794 451.195 139.275C450.92 139.752 450.514 140.122 449.977 140.384C449.44 140.642 448.781 140.771 447.999 140.771H445.279V139.24H447.75C448.207 139.24 448.582 139.177 448.874 139.051C449.165 138.922 449.381 138.735 449.52 138.489C449.662 138.241 449.734 137.936 449.734 137.575C449.734 137.213 449.662 136.905 449.52 136.65C449.377 136.391 449.16 136.196 448.869 136.063C448.577 135.927 448.201 135.859 447.74 135.859H446.05V144.5H444.205ZM449.465 139.886L451.986 144.5H449.928L447.452 139.886H449.465ZM454.011 144.5V134.318H460.633V135.864H455.855V138.629H460.29V140.175H455.855V142.954H460.673V144.5H454.011ZM464.522 144.5H462.553L466.138 134.318H468.415L472.004 144.5H470.036L467.316 136.406H467.237L464.522 144.5ZM464.587 140.508H469.956V141.989H464.587V140.508ZM477.496 144.5H474.045V134.318H477.565C478.576 134.318 479.445 134.522 480.17 134.93C480.9 135.334 481.46 135.916 481.851 136.675C482.242 137.434 482.438 138.342 482.438 139.399C482.438 140.46 482.24 141.371 481.846 142.134C481.455 142.896 480.89 143.481 480.151 143.888C479.415 144.296 478.53 144.5 477.496 144.5ZM475.89 142.904H477.406C478.116 142.904 478.707 142.775 479.181 142.516C479.655 142.254 480.011 141.865 480.25 141.348C480.489 140.828 480.608 140.178 480.608 139.399C480.608 138.62 480.489 137.974 480.25 137.46C480.011 136.943 479.658 136.557 479.191 136.302C478.727 136.043 478.15 135.914 477.461 135.914H475.89V142.904ZM492.513 144.5H489.063V134.318H492.583C493.593 134.318 494.462 134.522 495.188 134.93C495.917 135.334 496.477 135.916 496.868 136.675C497.259 137.434 497.455 138.342 497.455 139.399C497.455 140.46 497.257 141.371 496.863 142.134C496.472 142.896 495.907 143.481 495.168 143.888C494.432 144.296 493.547 144.5 492.513 144.5ZM490.907 142.904H492.423C493.133 142.904 493.724 142.775 494.198 142.516C494.672 142.254 495.029 141.865 495.267 141.348C495.506 140.828 495.625 140.178 495.625 139.399C495.625 138.62 495.506 137.974 495.267 137.46C495.029 136.943 494.676 136.557 494.208 136.302C493.744 136.043 493.168 135.914 492.478 135.914H490.907V142.904ZM500.668 144.5H498.699L502.284 134.318H504.561L508.15 144.5H506.181L503.462 136.406H503.382L500.668 144.5ZM500.732 140.508H506.102V141.989H500.732V140.508ZM508.513 135.864V134.318H516.637V135.864H513.49V144.5H511.66V135.864H508.513ZM518.98 144.5H517.011L520.596 134.318H522.873L526.462 144.5H524.493L521.774 136.406H521.694L518.98 144.5ZM519.045 140.508H524.414V141.989H519.045V140.508Z"/>
</mask>
<path d="M444.205 144.5V134.318H448.023C448.806 134.318 449.462 134.454 449.992 134.726C450.526 134.998 450.928 135.379 451.2 135.869C451.475 136.357 451.613 136.925 451.613 137.575C451.613 138.228 451.474 138.794 451.195 139.275C450.92 139.752 450.514 140.122 449.977 140.384C449.44 140.642 448.781 140.771 447.999 140.771H445.279V139.24H447.75C448.207 139.24 448.582 139.177 448.874 139.051C449.165 138.922 449.381 138.735 449.52 138.489C449.662 138.241 449.734 137.936 449.734 137.575C449.734 137.213 449.662 136.905 449.52 136.65C449.377 136.391 449.16 136.196 448.869 136.063C448.577 135.927 448.201 135.859 447.74 135.859H446.05V144.5H444.205ZM449.465 139.886L451.986 144.5H449.928L447.452 139.886H449.465ZM454.011 144.5V134.318H460.633V135.864H455.855V138.629H460.29V140.175H455.855V142.954H460.673V144.5H454.011ZM464.522 144.5H462.553L466.138 134.318H468.415L472.004 144.5H470.036L467.316 136.406H467.237L464.522 144.5ZM464.587 140.508H469.956V141.989H464.587V140.508ZM477.496 144.5H474.045V134.318H477.565C478.576 134.318 479.445 134.522 480.17 134.93C480.9 135.334 481.46 135.916 481.851 136.675C482.242 137.434 482.438 138.342 482.438 139.399C482.438 140.46 482.24 141.371 481.846 142.134C481.455 142.896 480.89 143.481 480.151 143.888C479.415 144.296 478.53 144.5 477.496 144.5ZM475.89 142.904H477.406C478.116 142.904 478.707 142.775 479.181 142.516C479.655 142.254 480.011 141.865 480.25 141.348C480.489 140.828 480.608 140.178 480.608 139.399C480.608 138.62 480.489 137.974 480.25 137.46C480.011 136.943 479.658 136.557 479.191 136.302C478.727 136.043 478.15 135.914 477.461 135.914H475.89V142.904ZM492.513 144.5H489.063V134.318H492.583C493.593 134.318 494.462 134.522 495.188 134.93C495.917 135.334 496.477 135.916 496.868 136.675C497.259 137.434 497.455 138.342 497.455 139.399C497.455 140.46 497.257 141.371 496.863 142.134C496.472 142.896 495.907 143.481 495.168 143.888C494.432 144.296 493.547 144.5 492.513 144.5ZM490.907 142.904H492.423C493.133 142.904 493.724 142.775 494.198 142.516C494.672 142.254 495.029 141.865 495.267 141.348C495.506 140.828 495.625 140.178 495.625 139.399C495.625 138.62 495.506 137.974 495.267 137.46C495.029 136.943 494.676 136.557 494.208 136.302C493.744 136.043 493.168 135.914 492.478 135.914H490.907V142.904ZM500.668 144.5H498.699L502.284 134.318H504.561L508.15 144.5H506.181L503.462 136.406H503.382L500.668 144.5ZM500.732 140.508H506.102V141.989H500.732V140.508ZM508.513 135.864V134.318H516.637V135.864H513.49V144.5H511.66V135.864H508.513ZM518.98 144.5H517.011L520.596 134.318H522.873L526.462 144.5H524.493L521.774 136.406H521.694L518.98 144.5ZM519.045 140.508H524.414V141.989H519.045V140.508Z" fill="white"/>
<path d="M444.205 144.5H434.205V154.5H444.205V144.5ZM444.205 134.318V124.318H434.205V134.318H444.205ZM449.992 134.726L445.431 143.625L445.442 143.631L445.454 143.637L449.992 134.726ZM451.2 135.869L442.453 140.716L442.473 140.751L442.492 140.786L451.2 135.869ZM451.195 139.275L442.542 134.262L442.537 134.272L442.531 134.281L451.195 139.275ZM449.977 140.384L454.315 149.394L454.338 149.383L454.36 149.372L449.977 140.384ZM445.279 140.771H435.279V150.771H445.279V140.771ZM445.279 139.24V129.24H435.279V139.24H445.279ZM448.874 139.051L452.838 148.232L452.882 148.213L452.925 148.194L448.874 139.051ZM449.52 138.489L440.845 133.516L440.834 133.534L440.823 133.553L449.52 138.489ZM449.52 136.65L440.762 141.478L440.776 141.502L440.789 141.526L449.52 136.65ZM448.869 136.063L444.645 145.128L444.688 145.147L444.731 145.167L448.869 136.063ZM446.05 135.859V125.859H436.05V135.859H446.05ZM446.05 144.5V154.5H456.05V144.5H446.05ZM449.465 139.886L458.241 135.092L455.397 129.886H449.465V139.886ZM451.986 144.5V154.5H468.844L460.761 139.706L451.986 144.5ZM449.928 144.5L441.116 149.229L443.945 154.5H449.928V144.5ZM447.452 139.886V129.886H430.736L438.64 144.615L447.452 139.886ZM444.205 144.5H454.205V134.318H444.205H434.205V144.5H444.205ZM444.205 134.318V144.318H448.023V134.318V124.318H444.205V134.318ZM448.023 134.318V144.318C447.697 144.318 446.684 144.267 445.431 143.625L449.992 134.726L454.553 125.827C452.24 124.641 449.914 124.318 448.023 124.318V134.318ZM449.992 134.726L445.454 143.637C444.337 143.068 443.214 142.09 442.453 140.716L451.2 135.869L459.947 131.023C458.643 128.668 456.714 126.927 454.531 125.815L449.992 134.726ZM451.2 135.869L442.492 140.786C441.793 139.547 441.613 138.368 441.613 137.575H451.613H461.613C461.613 135.482 461.158 133.166 459.908 130.953L451.2 135.869ZM451.613 137.575H441.613C441.613 136.779 441.794 135.553 442.542 134.262L451.195 139.275L459.848 144.288C461.153 142.035 461.613 139.676 461.613 137.575H451.613ZM451.195 139.275L442.531 134.281C443.337 132.883 444.496 131.931 445.594 131.395L449.977 140.384L454.36 149.372C456.532 148.313 458.503 146.621 459.859 144.269L451.195 139.275ZM449.977 140.384L445.639 131.374C446.81 130.81 447.729 130.771 447.999 130.771V140.771V150.771C449.833 150.771 452.071 150.474 454.315 149.394L449.977 140.384ZM447.999 140.771V130.771H445.279V140.771V150.771H447.999V140.771ZM445.279 140.771H455.279V139.24H445.279H435.279V140.771H445.279ZM445.279 139.24V149.24H447.75V139.24V129.24H445.279V139.24ZM447.75 139.24V149.24C449.018 149.24 450.871 149.081 452.838 148.232L448.874 139.051L444.909 129.871C446.293 129.273 447.396 129.24 447.75 129.24V139.24ZM448.874 139.051L452.925 148.194C454.907 147.315 456.883 145.775 458.217 143.425L449.52 138.489L440.823 133.553C441.878 131.695 443.423 130.529 444.822 129.909L448.874 139.051ZM449.52 138.489L458.195 143.463C459.404 141.354 459.734 139.233 459.734 137.575H449.734H439.734C439.734 136.639 439.92 135.127 440.845 133.516L449.52 138.489ZM449.734 137.575H459.734C459.734 135.905 459.4 133.833 458.251 131.774L449.52 136.65L440.789 141.526C439.925 139.978 439.734 138.522 439.734 137.575H449.734ZM449.52 136.65L458.277 131.822C457.005 129.515 455.081 127.903 453.007 126.96L448.869 136.063L444.731 145.167C443.239 144.489 441.749 143.268 440.762 141.478L449.52 136.65ZM448.869 136.063L453.092 126.999C451.034 126.04 449.076 125.859 447.74 125.859V135.859V145.859C447.326 145.859 446.12 145.815 444.645 145.128L448.869 136.063ZM447.74 135.859V125.859H446.05V135.859V145.859H447.74V135.859ZM446.05 135.859H436.05V144.5H446.05H456.05V135.859H446.05ZM446.05 144.5V134.5H444.205V144.5V154.5H446.05V144.5ZM449.465 139.886L440.689 144.681L443.21 149.294L451.986 144.5L460.761 139.706L458.241 135.092L449.465 139.886ZM451.986 144.5V134.5H449.928V144.5V154.5H451.986V144.5ZM449.928 144.5L458.739 139.771L456.263 135.158L447.452 139.886L438.64 144.615L441.116 149.229L449.928 144.5ZM447.452 139.886V149.886H449.465V139.886V129.886H447.452V139.886ZM454.011 144.5H444.011V154.5H454.011V144.5ZM454.011 134.318V124.318H444.011V134.318H454.011ZM460.633 134.318H470.633V124.318H460.633V134.318ZM460.633 135.864V145.864H470.633V135.864H460.633ZM455.855 135.864V125.864H445.855V135.864H455.855ZM455.855 138.629H445.855V148.629H455.855V138.629ZM460.29 138.629H470.29V128.629H460.29V138.629ZM460.29 140.175V150.175H470.29V140.175H460.29ZM455.855 140.175V130.175H445.855V140.175H455.855ZM455.855 142.954H445.855V152.954H455.855V142.954ZM460.673 142.954H470.673V132.954H460.673V142.954ZM460.673 144.5V154.5H470.673V144.5H460.673ZM454.011 144.5H464.011V134.318H454.011H444.011V144.5H454.011ZM454.011 134.318V144.318H460.633V134.318V124.318H454.011V134.318ZM460.633 134.318H450.633V135.864H460.633H470.633V134.318H460.633ZM460.633 135.864V125.864H455.855V135.864V145.864H460.633V135.864ZM455.855 135.864H445.855V138.629H455.855H465.855V135.864H455.855ZM455.855 138.629V148.629H460.29V138.629V128.629H455.855V138.629ZM460.29 138.629H450.29V140.175H460.29H470.29V138.629H460.29ZM460.29 140.175V130.175H455.855V140.175V150.175H460.29V140.175ZM455.855 140.175H445.855V142.954H455.855H465.855V140.175H455.855ZM455.855 142.954V152.954H460.673V142.954V132.954H455.855V142.954ZM460.673 142.954H450.673V144.5H460.673H470.673V142.954H460.673ZM460.673 144.5V134.5H454.011V144.5V154.5H460.673V144.5ZM464.522 144.5V154.5H471.716L474.003 147.68L464.522 144.5ZM462.553 144.5L453.121 141.179L448.431 154.5H462.553V144.5ZM466.138 134.318V124.318H459.057L456.705 130.997L466.138 134.318ZM468.415 134.318L477.846 130.993L475.493 124.318H468.415V134.318ZM472.004 144.5V154.5H486.133L481.435 141.175L472.004 144.5ZM470.036 144.5L460.556 147.685L462.846 154.5H470.036V144.5ZM467.316 136.406L476.795 133.221L474.506 126.406H467.316V136.406ZM467.237 136.406V126.406H460.043L457.756 133.227L467.237 136.406ZM464.587 140.508V130.508H454.587V140.508H464.587ZM469.956 140.508H479.956V130.508H469.956V140.508ZM469.956 141.989V151.989H479.956V141.989H469.956ZM464.587 141.989H454.587V151.989H464.587V141.989ZM464.522 144.5V134.5H462.553V144.5V154.5H464.522V144.5ZM462.553 144.5L471.986 147.821L475.57 137.639L466.138 134.318L456.705 130.997L453.121 141.179L462.553 144.5ZM466.138 134.318V144.318H468.415V134.318V124.318H466.138V134.318ZM468.415 134.318L458.984 137.643L462.573 147.825L472.004 144.5L481.435 141.175L477.846 130.993L468.415 134.318ZM472.004 144.5V134.5H470.036V144.5V154.5H472.004V144.5ZM470.036 144.5L479.515 141.315L476.795 133.221L467.316 136.406L457.837 139.591L460.556 147.685L470.036 144.5ZM467.316 136.406V126.406H467.237V136.406V146.406H467.316V136.406ZM467.237 136.406L457.756 133.227L455.041 141.32L464.522 144.5L474.003 147.68L476.718 139.586L467.237 136.406ZM464.587 140.508V150.508H469.956V140.508V130.508H464.587V140.508ZM469.956 140.508H459.956V141.989H469.956H479.956V140.508H469.956ZM469.956 141.989V131.989H464.587V141.989V151.989H469.956V141.989ZM464.587 141.989H474.587V140.508H464.587H454.587V141.989H464.587ZM474.045 144.5H464.045V154.5H474.045V144.5ZM474.045 134.318V124.318H464.045V134.318H474.045ZM480.17 134.93L475.274 143.649L475.297 143.662L475.321 143.675L480.17 134.93ZM481.851 136.675L472.962 141.255L472.962 141.255L481.851 136.675ZM481.846 142.134L472.964 137.538L472.956 137.554L472.949 137.569L481.846 142.134ZM480.151 143.888L475.321 135.132L475.313 135.137L475.304 135.141L480.151 143.888ZM475.89 142.904H465.89V152.904H475.89V142.904ZM479.181 142.516L483.97 151.295L483.993 151.282L484.017 151.269L479.181 142.516ZM480.25 141.348L489.33 145.539L489.335 145.528L489.34 145.517L480.25 141.348ZM480.25 137.46L471.17 141.651L471.176 141.662L471.181 141.673L480.25 137.46ZM479.191 136.302L474.324 145.038L474.361 145.058L474.398 145.078L479.191 136.302ZM475.89 135.914V125.914H465.89V135.914H475.89ZM477.496 144.5V134.5H474.045V144.5V154.5H477.496V144.5ZM474.045 144.5H484.045V134.318H474.045H464.045V144.5H474.045ZM474.045 134.318V144.318H477.565V134.318V124.318H474.045V134.318ZM477.565 134.318V144.318C477.227 144.318 476.333 144.243 475.274 143.649L480.17 134.93L485.067 126.211C482.557 124.801 479.926 124.318 477.565 124.318V134.318ZM480.17 134.93L475.321 143.675C474.278 143.097 473.453 142.208 472.962 141.255L481.851 136.675L490.74 132.094C489.467 129.623 487.521 127.571 485.02 126.184L480.17 134.93ZM481.851 136.675L472.962 141.255C472.469 140.3 472.438 139.562 472.438 139.399H482.438H492.438C492.438 137.121 492.015 134.568 490.74 132.094L481.851 136.675ZM482.438 139.399H472.438C472.438 139.231 472.471 138.492 472.964 137.538L481.846 142.134L490.728 146.729C492.01 144.25 492.438 141.688 492.438 139.399H482.438ZM481.846 142.134L472.949 137.569C473.451 136.589 474.289 135.701 475.321 135.132L480.151 143.888L484.98 152.645C487.49 151.261 489.458 149.203 490.743 146.698L481.846 142.134ZM480.151 143.888L475.304 135.141C476.355 134.559 477.219 134.5 477.496 134.5V144.5V154.5C479.84 154.5 482.474 154.033 484.997 152.636L480.151 143.888ZM475.89 142.904V152.904H477.406V142.904V132.904H475.89V142.904ZM477.406 142.904V152.904C479.281 152.904 481.638 152.567 483.97 151.295L479.181 142.516L474.393 133.737C475.777 132.982 476.95 132.904 477.406 132.904V142.904ZM479.181 142.516L484.017 151.269C486.455 149.922 488.248 147.883 489.33 145.539L480.25 141.348L471.17 137.157C471.775 135.847 472.855 134.587 474.345 133.763L479.181 142.516ZM480.25 141.348L489.34 145.517C490.353 143.306 490.608 141.127 490.608 139.399H480.608H470.608C470.608 139.229 470.624 138.349 471.16 137.179L480.25 141.348ZM480.608 139.399H490.608C490.608 137.679 490.356 135.479 489.319 133.247L480.25 137.46L471.181 141.673C470.622 140.469 470.608 139.562 470.608 139.399H480.608ZM480.25 137.46L489.33 133.27C488.258 130.947 486.47 128.883 483.984 127.525L479.191 136.302L474.398 145.078C472.847 144.231 471.765 142.939 471.17 141.651L480.25 137.46ZM479.191 136.302L484.058 127.566C481.727 126.267 479.36 125.914 477.461 125.914V135.914V145.914C476.94 145.914 475.727 145.819 474.324 145.038L479.191 136.302ZM477.461 135.914V125.914H475.89V135.914V145.914H477.461V135.914ZM475.89 135.914H465.89V142.904H475.89H485.89V135.914H475.89ZM489.063 144.5H479.063V154.5H489.063V144.5ZM489.063 134.318V124.318H479.063V134.318H489.063ZM495.188 134.93L490.291 143.649L490.314 143.662L490.338 143.675L495.188 134.93ZM496.868 136.675L487.979 141.255L487.979 141.255L496.868 136.675ZM496.863 142.134L487.981 137.538L487.974 137.554L487.966 137.569L496.863 142.134ZM495.168 143.888L490.338 135.132L490.33 135.137L490.321 135.141L495.168 143.888ZM490.907 142.904H480.907V152.904H490.907V142.904ZM494.198 142.516L498.987 151.295L499.01 151.282L499.034 151.269L494.198 142.516ZM495.267 141.348L504.347 145.539L504.352 145.528L504.357 145.517L495.267 141.348ZM495.267 137.46L486.188 141.651L486.193 141.662L486.198 141.673L495.267 137.46ZM494.208 136.302L489.341 145.038L489.378 145.058L489.415 145.078L494.208 136.302ZM490.907 135.914V125.914H480.907V135.914H490.907ZM492.513 144.5V134.5H489.063V144.5V154.5H492.513V144.5ZM489.063 144.5H499.063V134.318H489.063H479.063V144.5H489.063ZM489.063 134.318V144.318H492.583V134.318V124.318H489.063V134.318ZM492.583 134.318V144.318C492.244 144.318 491.35 144.243 490.291 143.649L495.188 134.93L500.085 126.211C497.574 124.801 494.943 124.318 492.583 124.318V134.318ZM495.188 134.93L490.338 143.675C489.295 143.097 488.47 142.208 487.979 141.255L496.868 136.675L505.757 132.094C504.484 129.623 502.539 127.571 500.037 126.184L495.188 134.93ZM496.868 136.675L487.979 141.255C487.486 140.3 487.455 139.562 487.455 139.399H497.455H507.455C507.455 137.121 507.032 134.568 505.757 132.094L496.868 136.675ZM497.455 139.399H487.455C487.455 139.231 487.488 138.492 487.981 137.538L496.863 142.134L505.745 146.729C507.027 144.25 507.455 141.688 507.455 139.399H497.455ZM496.863 142.134L487.966 137.569C488.469 136.589 489.307 135.701 490.338 135.132L495.168 143.888L499.998 152.645C502.507 151.261 504.475 149.203 505.76 146.698L496.863 142.134ZM495.168 143.888L490.321 135.141C491.372 134.559 492.236 134.5 492.513 134.5V144.5V154.5C494.858 154.5 497.491 154.033 500.014 152.636L495.168 143.888ZM490.907 142.904V152.904H492.423V142.904V132.904H490.907V142.904ZM492.423 142.904V152.904C494.298 152.904 496.655 152.567 498.987 151.295L494.198 142.516L489.41 133.737C490.794 132.982 491.967 132.904 492.423 132.904V142.904ZM494.198 142.516L499.034 151.269C501.473 149.922 503.265 147.883 504.347 145.539L495.267 141.348L486.188 137.157C486.792 135.847 487.872 134.587 489.363 133.763L494.198 142.516ZM495.267 141.348L504.357 145.517C505.371 143.306 505.625 141.127 505.625 139.399H495.625H485.625C485.625 139.229 485.641 138.349 486.177 137.179L495.267 141.348ZM495.625 139.399H505.625C505.625 137.679 505.373 135.479 504.336 133.247L495.267 137.46L486.198 141.673C485.639 140.469 485.625 139.562 485.625 139.399H495.625ZM495.267 137.46L504.347 133.27C503.275 130.947 501.487 128.883 499.001 127.525L494.208 136.302L489.415 145.078C487.864 144.231 486.782 142.939 486.188 141.651L495.267 137.46ZM494.208 136.302L499.075 127.566C496.744 126.267 494.377 125.914 492.478 125.914V135.914V145.914C491.958 145.914 490.744 145.819 489.341 145.038L494.208 136.302ZM492.478 135.914V125.914H490.907V135.914V145.914H492.478V135.914ZM490.907 135.914H480.907V142.904H490.907H500.907V135.914H490.907ZM500.668 144.5V154.5H507.861L510.149 147.68L500.668 144.5ZM498.699 144.5L489.267 141.179L484.577 154.5H498.699V144.5ZM502.284 134.318V124.318H495.203L492.851 130.997L502.284 134.318ZM504.561 134.318L513.992 130.993L511.638 124.318H504.561V134.318ZM508.15 144.5V154.5H522.279L517.581 141.175L508.15 144.5ZM506.181 144.5L496.702 147.685L498.992 154.5H506.181V144.5ZM503.462 136.406L512.941 133.221L510.651 126.406H503.462V136.406ZM503.382 136.406V126.406H496.189L493.901 133.227L503.382 136.406ZM500.732 140.508V130.508H490.732V140.508H500.732ZM506.102 140.508H516.102V130.508H506.102V140.508ZM506.102 141.989V151.989H516.102V141.989H506.102ZM500.732 141.989H490.732V151.989H500.732V141.989ZM500.668 144.5V134.5H498.699V144.5V154.5H500.668V144.5ZM498.699 144.5L508.132 147.821L511.716 137.639L502.284 134.318L492.851 130.997L489.267 141.179L498.699 144.5ZM502.284 134.318V144.318H504.561V134.318V124.318H502.284V134.318ZM504.561 134.318L495.13 137.643L498.719 147.825L508.15 144.5L517.581 141.175L513.992 130.993L504.561 134.318ZM508.15 144.5V134.5H506.181V144.5V154.5H508.15V144.5ZM506.181 144.5L515.661 141.315L512.941 133.221L503.462 136.406L493.983 139.591L496.702 147.685L506.181 144.5ZM503.462 136.406V126.406H503.382V136.406V146.406H503.462V136.406ZM503.382 136.406L493.901 133.227L491.187 141.32L500.668 144.5L510.149 147.68L512.863 139.586L503.382 136.406ZM500.732 140.508V150.508H506.102V140.508V130.508H500.732V140.508ZM506.102 140.508H496.102V141.989H506.102H516.102V140.508H506.102ZM506.102 141.989V131.989H500.732V141.989V151.989H506.102V141.989ZM500.732 141.989H510.732V140.508H500.732H490.732V141.989H500.732ZM508.513 135.864H498.513V145.864H508.513V135.864ZM508.513 134.318V124.318H498.513V134.318H508.513ZM516.637 134.318H526.637V124.318H516.637V134.318ZM516.637 135.864V145.864H526.637V135.864H516.637ZM513.49 135.864V125.864H503.49V135.864H513.49ZM513.49 144.5V154.5H523.49V144.5H513.49ZM511.66 144.5H501.66V154.5H511.66V144.5ZM511.66 135.864H521.66V125.864H511.66V135.864ZM508.513 135.864H518.513V134.318H508.513H498.513V135.864H508.513ZM508.513 134.318V144.318H516.637V134.318V124.318H508.513V134.318ZM516.637 134.318H506.637V135.864H516.637H526.637V134.318H516.637ZM516.637 135.864V125.864H513.49V135.864V145.864H516.637V135.864ZM513.49 135.864H503.49V144.5H513.49H523.49V135.864H513.49ZM513.49 144.5V134.5H511.66V144.5V154.5H513.49V144.5ZM511.66 144.5H521.66V135.864H511.66H501.66V144.5H511.66ZM511.66 135.864V125.864H508.513V135.864V145.864H511.66V135.864ZM518.98 144.5V154.5H526.174L528.461 147.68L518.98 144.5ZM517.011 144.5L507.579 141.179L502.889 154.5H517.011V144.5ZM520.596 134.318V124.318H513.515L511.163 130.997L520.596 134.318ZM522.873 134.318L532.304 130.993L529.951 124.318H522.873V134.318ZM526.462 144.5V154.5H540.591L535.893 141.175L526.462 144.5ZM524.493 144.5L515.014 147.685L517.304 154.5H524.493V144.5ZM521.774 136.406L531.253 133.221L528.963 126.406H521.774V136.406ZM521.694 136.406V126.406H514.501L512.213 133.227L521.694 136.406ZM519.045 140.508V130.508H509.045V140.508H519.045ZM524.414 140.508H534.414V130.508H524.414V140.508ZM524.414 141.989V151.989H534.414V141.989H524.414ZM519.045 141.989H509.045V151.989H519.045V141.989ZM518.98 144.5V134.5H517.011V144.5V154.5H518.98V144.5ZM517.011 144.5L526.444 147.821L530.028 137.639L520.596 134.318L511.163 130.997L507.579 141.179L517.011 144.5ZM520.596 134.318V144.318H522.873V134.318V124.318H520.596V134.318ZM522.873 134.318L513.442 137.643L517.031 147.825L526.462 144.5L535.893 141.175L532.304 130.993L522.873 134.318ZM526.462 144.5V134.5H524.493V144.5V154.5H526.462V144.5ZM524.493 144.5L533.973 141.315L531.253 133.221L521.774 136.406L512.295 139.591L515.014 147.685L524.493 144.5ZM521.774 136.406V126.406H521.694V136.406V146.406H521.774V136.406ZM521.694 136.406L512.213 133.227L509.499 141.32L518.98 144.5L528.461 147.68L531.175 139.586L521.694 136.406ZM519.045 140.508V150.508H524.414V140.508V130.508H519.045V140.508ZM524.414 140.508H514.414V141.989H524.414H534.414V140.508H524.414ZM524.414 141.989V131.989H519.045V141.989V151.989H524.414V141.989ZM519.045 141.989H529.045V140.508H519.045H509.045V141.989H519.045Z" fill="#121416" mask="url(#path-23-outside-1_115_4434)"/>
<rect x="701.5" y="10.5" width="259" height="258" rx="9.5" stroke="#C4B5FD" stroke-dasharray="4 4"/>
<rect x="711.5" y="20.5" width="239" height="238" rx="7.5" fill="#2E1065"/>
<rect x="711.5" y="20.5" width="239" height="238" rx="7.5" stroke="#C4B5FD"/>
<g clip-path="url(#clip3_115_4434)">
<path d="M826.764 107.588C828.135 106.653 829.901 107.021 829.605 107.302C829.042 107.839 829.792 107.68 829.873 108.671C829.932 109.401 829.694 109.803 829.489 110.031C829.061 110.087 828.54 110.192 827.914 110.395C827.543 110.516 827.221 110.65 826.938 110.785C826.864 110.736 826.783 110.677 826.687 110.594C825.72 109.755 825.753 108.277 826.764 107.588ZM834.954 113.364C835.202 113.171 836.333 112.808 837.38 112.684C837.929 112.619 838.713 112.582 838.88 112.675C839.212 112.858 839.212 113.425 838.984 113.949C838.653 114.71 838.186 115.551 837.656 115.62C836.791 115.734 835.974 115.266 835.041 114.569C834.708 114.319 834.503 113.712 834.954 113.364ZM836.531 105.955C837.807 106.549 837.64 107.679 837.675 108.342C837.685 108.533 837.682 108.661 837.666 108.75C837.489 108.654 837.21 108.584 836.767 108.603C836.637 108.609 836.511 108.624 836.39 108.643C835.919 108.391 835.637 107.897 835.38 107.372C835.356 107.324 835.338 107.281 835.32 107.239C835.313 107.219 835.305 107.199 835.297 107.181C835.294 107.172 835.292 107.164 835.289 107.156C835.147 106.707 835.242 106.618 835.302 106.48C835.363 106.338 835.594 106.222 835.253 106.105C835.224 106.094 835.188 106.087 835.146 106.08C835.372 105.8 836.048 105.732 836.531 105.955ZM829.573 119.463C828.198 118.58 826.775 117.314 826.153 116.613C826.049 116.535 826.066 116.185 826.066 116.185C826.627 116.622 828.956 118.286 831.419 119.046C832.288 119.314 833.621 119.415 834.777 118.76C835.661 118.259 836.725 117.386 837.36 116.486L837.476 116.688C837.472 116.821 837.18 117.473 837.031 117.735C837.299 117.89 837.5 117.931 837.798 118.013L839.837 117.695C840.569 116.513 841.094 114.606 840.535 112.791C840.216 111.75 838.552 109.678 838.432 109.563C838.014 109.162 838.502 107.609 837.674 105.916C836.798 104.125 834.516 102.257 833.525 101.444C833.817 101.657 835.616 102.383 836.454 103.395C836.533 103.291 836.565 102.747 836.637 102.609C835.917 101.666 835.861 99.9881 835.861 99.5396C835.861 98.7171 835.443 97.785 835.443 97.785C835.443 97.785 836.163 98.3551 836.35 99.3371C836.57 100.5 837.038 101.416 837.658 102.191C838.832 103.653 839.892 104.403 840.427 103.863C841.068 103.214 839.777 100.312 838.128 98.6918C836.203 96.8012 835.7 97.0447 834.57 97.4479C833.669 97.7692 833.182 100.328 830.833 100.277C830.435 100.231 829.41 100.206 828.904 100.21C829.168 99.8417 829.394 99.557 829.394 99.557C829.394 99.557 828.606 99.874 827.935 100.276L827.883 100.198C828.11 99.721 828.353 99.4193 828.353 99.4193C828.353 99.4193 827.724 99.7975 827.149 100.25C827.254 99.6812 827.649 99.3205 827.649 99.3205C827.649 99.3205 826.854 99.4639 825.841 100.578C824.69 100.893 824.413 101.1 823.496 101.506C822.004 101.181 821.3 100.656 820.63 99.6891C820.119 98.9506 819.21 98.8387 818.281 99.2204C816.927 99.78 815.215 100.546 815.215 100.546C815.215 100.546 815.773 100.524 816.355 100.549C815.558 100.85 814.793 101.265 814.793 101.265C814.793 101.265 815.166 101.252 815.626 101.26C815.309 101.524 815.133 101.65 814.83 101.851C814.101 102.38 813.511 102.991 813.511 102.991C813.511 102.991 814.005 102.766 814.449 102.639C814.139 103.351 813.523 103.875 813.637 104.746C813.746 105.541 814.722 107.179 815.982 108.185C816.091 108.272 817.812 109.865 819.111 109.211C820.408 108.558 820.92 107.976 821.134 107.083C821.385 106.059 821.242 105.283 820.706 103.059C820.529 102.325 820.069 100.813 819.847 100.09L819.896 100.054C820.321 100.95 821.407 103.312 821.845 104.898C822.528 107.371 822.315 108.626 822.002 109.086C821.059 110.473 818.642 110.656 817.543 109.888C817.375 112.551 817.97 113.724 818.172 114.314C818.071 114.993 818.511 116.254 818.511 116.254C818.511 116.254 818.561 115.681 818.762 115.379C818.816 116.053 819.156 116.853 819.156 116.853C819.156 116.853 819.135 116.359 819.29 115.932C819.507 116.3 819.667 116.388 819.873 116.664C820.079 117.385 820.492 117.911 820.492 117.911C820.492 117.911 820.425 117.524 820.461 117.123C821.469 118.091 821.643 119.503 821.743 120.589C822.025 123.573 817.037 125.947 816.07 127.814C815.337 128.919 814.898 130.669 816.139 131.7C819.139 134.191 817.987 134.877 819.488 135.971C821.548 137.473 824.125 136.8 825.002 135.579C826.223 133.878 825.91 132.273 825.456 130.771C825.101 129.597 824.138 127.647 822.946 126.892C821.728 126.12 820.543 125.976 819.54 126.079L819.632 125.973C821.076 125.686 822.585 125.843 823.676 126.547C824.916 127.344 826.05 128.71 826.642 130.804C827.315 130.709 827.41 130.665 828.025 130.578L826.639 119.789L829.573 119.463ZM830.374 132.987L830.215 131.49L833.332 126.736L836.87 127.77L839.913 122.688L843.56 125.094L846.331 119.282L847.316 129.866L830.374 132.987ZM847.353 117.115L836.216 119.133C835.94 119.489 835.258 120.113 834.93 120.276C833.523 120.984 832.573 120.779 831.751 120.566C831.223 120.432 830.917 120.357 830.479 120.16L827.76 120.533L829.41 134.3L848.489 130.86L847.353 117.115Z" fill="white"/>
</g>
<path d="M771.875 146.663H773.958L776.449 151.168H776.549L779.039 146.663H781.122L777.419 153.047V156.845H775.579V153.047L771.875 146.663ZM791.652 151.754C791.652 152.851 791.447 153.791 791.036 154.573C790.628 155.352 790.072 155.949 789.366 156.363C788.663 156.777 787.866 156.984 786.974 156.984C786.083 156.984 785.284 156.777 784.578 156.363C783.875 155.945 783.318 155.347 782.907 154.568C782.5 153.786 782.296 152.848 782.296 151.754C782.296 150.657 782.5 149.719 782.907 148.94C783.318 148.158 783.875 147.56 784.578 147.146C785.284 146.731 786.083 146.524 786.974 146.524C787.866 146.524 788.663 146.731 789.366 147.146C790.072 147.56 790.628 148.158 791.036 148.94C791.447 149.719 791.652 150.657 791.652 151.754ZM789.798 151.754C789.798 150.982 789.677 150.331 789.435 149.8C789.197 149.267 788.865 148.864 788.441 148.592C788.017 148.317 787.528 148.18 786.974 148.18C786.421 148.18 785.932 148.317 785.508 148.592C785.083 148.864 784.75 149.267 784.508 149.8C784.27 150.331 784.15 150.982 784.15 151.754C784.15 152.526 784.27 153.179 784.508 153.713C784.75 154.243 785.083 154.646 785.508 154.921C785.932 155.193 786.421 155.329 786.974 155.329C787.528 155.329 788.017 155.193 788.441 154.921C788.865 154.646 789.197 154.243 789.435 153.713C789.677 153.179 789.798 152.526 789.798 151.754ZM800.515 146.663H802.359V153.315C802.359 154.044 802.187 154.686 801.842 155.239C801.501 155.793 801.02 156.225 800.4 156.537C799.78 156.845 799.056 156.999 798.228 156.999C797.396 156.999 796.67 156.845 796.05 156.537C795.43 156.225 794.95 155.793 794.608 155.239C794.267 154.686 794.096 154.044 794.096 153.315V146.663H795.941V153.161C795.941 153.585 796.034 153.963 796.219 154.295C796.408 154.626 796.673 154.886 797.015 155.075C797.356 155.261 797.76 155.354 798.228 155.354C798.695 155.354 799.099 155.261 799.441 155.075C799.785 154.886 800.051 154.626 800.236 154.295C800.422 153.963 800.515 153.585 800.515 153.161V146.663ZM805.064 156.845V146.663H808.882C809.664 146.663 810.32 146.799 810.851 147.071C811.384 147.343 811.787 147.724 812.059 148.214C812.334 148.702 812.472 149.27 812.472 149.92C812.472 150.573 812.332 151.139 812.054 151.62C811.779 152.097 811.373 152.467 810.836 152.729C810.299 152.987 809.639 153.116 808.857 153.116H806.138V151.585H808.609C809.066 151.585 809.44 151.522 809.732 151.396C810.024 151.267 810.239 151.08 810.378 150.834C810.521 150.586 810.592 150.281 810.592 149.92C810.592 149.558 810.521 149.25 810.378 148.995C810.236 148.736 810.019 148.541 809.727 148.408C809.436 148.272 809.059 148.204 808.599 148.204H806.908V156.845H805.064ZM810.324 152.231L812.844 156.845H810.786L808.31 152.231H810.324ZM822.492 156.845H819.042V146.663H822.562C823.573 146.663 824.441 146.867 825.167 147.275C825.896 147.679 826.456 148.261 826.847 149.02C827.238 149.779 827.434 150.687 827.434 151.744C827.434 152.805 827.237 153.716 826.842 154.479C826.451 155.241 825.886 155.826 825.147 156.234C824.411 156.641 823.526 156.845 822.492 156.845ZM820.886 155.249H822.403C823.112 155.249 823.704 155.12 824.178 154.861C824.652 154.6 825.008 154.21 825.247 153.693C825.485 153.173 825.604 152.523 825.604 151.744C825.604 150.965 825.485 150.319 825.247 149.805C825.008 149.288 824.655 148.902 824.188 148.647C823.724 148.388 823.147 148.259 822.457 148.259H820.886V155.249ZM830.647 156.845H828.678L832.263 146.663H834.54L838.129 156.845H836.161L833.441 148.751H833.362L830.647 156.845ZM830.712 152.853H836.081V154.334H830.712V152.853ZM838.493 148.209V146.663H846.616V148.209H843.469V156.845H841.64V148.209H838.493ZM848.959 156.845H846.991L850.575 146.663H852.852L856.441 156.845H854.473L851.753 148.751H851.674L848.959 156.845ZM849.024 152.853H854.393V154.334H849.024V152.853ZM861.933 156.845H858.483V146.663H862.002C863.013 146.663 863.882 146.867 864.608 147.275C865.337 147.679 865.897 148.261 866.288 149.02C866.679 149.779 866.875 150.687 866.875 151.744C866.875 152.805 866.677 153.716 866.283 154.479C865.892 155.241 865.327 155.826 864.588 156.234C863.852 156.641 862.967 156.845 861.933 156.845ZM860.327 155.249H861.843C862.553 155.249 863.144 155.12 863.618 154.861C864.092 154.6 864.449 154.21 864.687 153.693C864.926 153.173 865.045 152.523 865.045 151.744C865.045 150.965 864.926 150.319 864.687 149.805C864.449 149.288 864.096 148.902 863.628 148.647C863.164 148.388 862.587 148.259 861.898 148.259H860.327V155.249ZM878.425 151.754C878.425 152.851 878.22 153.791 877.809 154.573C877.401 155.352 876.844 155.949 876.138 156.363C875.436 156.777 874.638 156.984 873.747 156.984C872.855 156.984 872.057 156.777 871.351 156.363C870.648 155.945 870.091 155.347 869.68 154.568C869.272 153.786 869.069 152.848 869.069 151.754C869.069 150.657 869.272 149.719 869.68 148.94C870.091 148.158 870.648 147.56 871.351 147.146C872.057 146.731 872.855 146.524 873.747 146.524C874.638 146.524 875.436 146.731 876.138 147.146C876.844 147.56 877.401 148.158 877.809 148.94C878.22 149.719 878.425 150.657 878.425 151.754ZM876.571 151.754C876.571 150.982 876.45 150.331 876.208 149.8C875.969 149.267 875.638 148.864 875.213 148.592C874.789 148.317 874.3 148.18 873.747 148.18C873.193 148.18 872.704 148.317 872.28 148.592C871.856 148.864 871.523 149.267 871.281 149.8C871.042 150.331 870.923 150.982 870.923 151.754C870.923 152.526 871.042 153.179 871.281 153.713C871.523 154.243 871.856 154.646 872.28 154.921C872.704 155.193 873.193 155.329 873.747 155.329C874.3 155.329 874.789 155.193 875.213 154.921C875.638 154.646 875.969 154.243 876.208 153.713C876.45 153.179 876.571 152.526 876.571 151.754ZM887.69 149.915C887.607 149.646 887.493 149.406 887.347 149.194C887.204 148.978 887.032 148.794 886.83 148.642C886.631 148.49 886.402 148.375 886.144 148.299C885.885 148.219 885.604 148.18 885.299 148.18C884.752 148.18 884.265 148.317 883.837 148.592C883.409 148.867 883.073 149.272 882.828 149.805C882.586 150.336 882.465 150.982 882.465 151.744C882.465 152.513 882.586 153.164 882.828 153.698C883.07 154.232 883.406 154.638 883.837 154.916C884.268 155.191 884.768 155.329 885.338 155.329C885.855 155.329 886.303 155.229 886.681 155.03C887.062 154.832 887.355 154.55 887.561 154.185C887.766 153.817 887.869 153.387 887.869 152.893L888.287 152.957H885.522V151.516H889.654V152.739C889.654 153.61 889.468 154.364 889.097 155.001C888.726 155.637 888.215 156.128 887.566 156.472C886.916 156.814 886.17 156.984 885.328 156.984C884.39 156.984 883.567 156.774 882.858 156.353C882.152 155.929 881.6 155.327 881.202 154.548C880.808 153.766 880.61 152.838 880.61 151.764C880.61 150.942 880.726 150.208 880.958 149.562C881.194 148.915 881.522 148.367 881.943 147.916C882.364 147.462 882.858 147.117 883.424 146.882C883.991 146.643 884.608 146.524 885.274 146.524C885.837 146.524 886.363 146.607 886.85 146.773C887.337 146.935 887.769 147.167 888.147 147.469C888.528 147.77 888.842 148.128 889.087 148.543C889.332 148.957 889.493 149.414 889.569 149.915H887.69ZM784.511 176.845H782.543L786.127 166.663H788.404L791.994 176.845H790.025L787.305 168.751H787.226L784.511 176.845ZM784.576 172.853H789.945V174.334H784.576V172.853ZM802.271 170.099H800.412C800.359 169.794 800.261 169.524 800.119 169.288C799.976 169.05 799.799 168.847 799.587 168.682C799.375 168.516 799.133 168.392 798.861 168.309C798.592 168.223 798.302 168.18 797.991 168.18C797.437 168.18 796.947 168.319 796.519 168.597C796.092 168.872 795.757 169.277 795.515 169.81C795.273 170.341 795.152 170.989 795.152 171.754C795.152 172.533 795.273 173.189 795.515 173.723C795.76 174.253 796.095 174.654 796.519 174.926C796.947 175.195 797.436 175.329 797.986 175.329C798.291 175.329 798.576 175.289 798.841 175.209C799.109 175.127 799.35 175.006 799.562 174.847C799.777 174.687 799.958 174.492 800.104 174.26C800.253 174.028 800.356 173.763 800.412 173.464L802.271 173.474C802.202 173.958 802.051 174.412 801.819 174.837C801.59 175.261 801.29 175.635 800.919 175.96C800.548 176.282 800.114 176.534 799.617 176.716C799.119 176.895 798.568 176.984 797.961 176.984C797.066 176.984 796.267 176.777 795.565 176.363C794.862 175.949 794.309 175.35 793.904 174.568C793.5 173.786 793.298 172.848 793.298 171.754C793.298 170.657 793.502 169.719 793.909 168.94C794.317 168.158 794.872 167.56 795.575 167.146C796.277 166.731 797.073 166.524 797.961 166.524C798.528 166.524 799.055 166.604 799.542 166.763C800.029 166.922 800.463 167.155 800.845 167.464C801.226 167.769 801.539 168.143 801.784 168.587C802.033 169.028 802.195 169.532 802.271 170.099ZM813.376 170.099H811.516C811.463 169.794 811.366 169.524 811.223 169.288C811.08 169.05 810.903 168.847 810.691 168.682C810.479 168.516 810.237 168.392 809.965 168.309C809.697 168.223 809.407 168.18 809.095 168.18C808.542 168.18 808.051 168.319 807.624 168.597C807.196 168.872 806.861 169.277 806.619 169.81C806.377 170.341 806.256 170.989 806.256 171.754C806.256 172.533 806.377 173.189 806.619 173.723C806.865 174.253 807.199 174.654 807.624 174.926C808.051 175.195 808.54 175.329 809.09 175.329C809.395 175.329 809.68 175.289 809.945 175.209C810.214 175.127 810.454 175.006 810.666 174.847C810.882 174.687 811.062 174.492 811.208 174.26C811.357 174.028 811.46 173.763 811.516 173.464L813.376 173.474C813.306 173.958 813.155 174.412 812.923 174.837C812.695 175.261 812.395 175.635 812.023 175.96C811.652 176.282 811.218 176.534 810.721 176.716C810.224 176.895 809.672 176.984 809.065 176.984C808.17 176.984 807.372 176.777 806.669 176.363C805.966 175.949 805.413 175.35 805.009 174.568C804.604 173.786 804.402 172.848 804.402 171.754C804.402 170.657 804.606 169.719 805.013 168.94C805.421 168.158 805.976 167.56 806.679 167.146C807.382 166.731 808.177 166.524 809.065 166.524C809.632 166.524 810.159 166.604 810.646 166.763C811.134 166.922 811.568 167.155 811.949 167.464C812.33 167.769 812.643 168.143 812.888 168.587C813.137 169.028 813.299 169.532 813.376 170.099ZM824.863 171.754C824.863 172.851 824.657 173.791 824.246 174.573C823.839 175.352 823.282 175.949 822.576 176.363C821.873 176.777 821.076 176.984 820.185 176.984C819.293 176.984 818.494 176.777 817.788 176.363C817.086 175.945 816.529 175.347 816.118 174.568C815.71 173.786 815.506 172.848 815.506 171.754C815.506 170.657 815.71 169.719 816.118 168.94C816.529 168.158 817.086 167.56 817.788 167.146C818.494 166.731 819.293 166.524 820.185 166.524C821.076 166.524 821.873 166.731 822.576 167.146C823.282 167.56 823.839 168.158 824.246 168.94C824.657 169.719 824.863 170.657 824.863 171.754ZM823.008 171.754C823.008 170.982 822.887 170.331 822.645 169.8C822.407 169.267 822.075 168.864 821.651 168.592C821.227 168.317 820.738 168.18 820.185 168.18C819.631 168.18 819.142 168.317 818.718 168.592C818.294 168.864 817.961 169.267 817.719 169.8C817.48 170.331 817.361 170.982 817.361 171.754C817.361 172.526 817.48 173.179 817.719 173.713C817.961 174.243 818.294 174.646 818.718 174.921C819.142 175.193 819.631 175.329 820.185 175.329C820.738 175.329 821.227 175.193 821.651 174.921C822.075 174.646 822.407 174.243 822.645 173.713C822.887 173.179 823.008 172.526 823.008 171.754ZM833.725 166.663H835.569V173.315C835.569 174.044 835.397 174.686 835.052 175.239C834.711 175.793 834.23 176.225 833.611 176.537C832.991 176.845 832.267 176.999 831.438 176.999C830.606 176.999 829.88 176.845 829.26 176.537C828.641 176.225 828.16 175.793 827.819 175.239C827.477 174.686 827.307 174.044 827.307 173.315V166.663H829.151V173.161C829.151 173.585 829.244 173.963 829.429 174.295C829.618 174.626 829.884 174.886 830.225 175.075C830.566 175.261 830.971 175.354 831.438 175.354C831.905 175.354 832.31 175.261 832.651 175.075C832.996 174.886 833.261 174.626 833.447 174.295C833.632 173.963 833.725 173.585 833.725 173.161V166.663ZM846.641 166.663V176.845H845.001L840.203 169.91H840.119V176.845H838.274V166.663H839.925L844.717 173.604H844.807V166.663H846.641ZM848.904 168.209V166.663H857.027V168.209H853.88V176.845H852.051V168.209H848.904ZM859.661 171.754C859.661 170.511 859.825 169.369 860.153 168.329C860.485 167.285 860.977 166.32 861.63 165.435H863.325C863.073 165.763 862.838 166.166 862.619 166.643C862.401 167.117 862.21 167.638 862.048 168.204C861.888 168.768 861.763 169.353 861.67 169.959C861.58 170.566 861.536 171.164 861.536 171.754C861.536 172.54 861.613 173.335 861.769 174.141C861.928 174.946 862.142 175.693 862.411 176.383C862.682 177.069 862.987 177.631 863.325 178.068H861.63C860.977 177.183 860.485 176.22 860.153 175.18C859.825 174.136 859.661 172.994 859.661 171.754ZM871.036 169.462C870.99 169.028 870.795 168.69 870.45 168.448C870.108 168.206 869.664 168.085 869.117 168.085C868.733 168.085 868.403 168.143 868.128 168.259C867.853 168.375 867.643 168.533 867.497 168.731C867.351 168.93 867.276 169.157 867.273 169.413C867.273 169.625 867.321 169.809 867.417 169.964C867.517 170.12 867.651 170.253 867.82 170.362C867.989 170.468 868.176 170.558 868.382 170.631C868.587 170.704 868.794 170.765 869.003 170.815L869.958 171.053C870.342 171.143 870.712 171.264 871.066 171.416C871.424 171.569 871.744 171.761 872.026 171.993C872.311 172.225 872.536 172.505 872.702 172.833C872.868 173.161 872.951 173.546 872.951 173.986C872.951 174.583 872.798 175.108 872.493 175.562C872.188 176.013 871.747 176.366 871.171 176.621C870.597 176.873 869.903 176.999 869.088 176.999C868.295 176.999 867.608 176.877 867.024 176.631C866.444 176.386 865.99 176.028 865.662 175.557C865.337 175.087 865.162 174.513 865.135 173.837H866.95C866.976 174.192 867.086 174.487 867.278 174.722C867.47 174.958 867.72 175.133 868.029 175.249C868.34 175.365 868.688 175.423 869.073 175.423C869.474 175.423 869.825 175.364 870.127 175.244C870.432 175.122 870.67 174.953 870.843 174.737C871.015 174.518 871.103 174.263 871.106 173.972C871.103 173.706 871.025 173.488 870.872 173.315C870.72 173.14 870.506 172.994 870.231 172.878C869.959 172.758 869.641 172.652 869.277 172.56L868.118 172.261C867.28 172.046 866.617 171.719 866.13 171.282C865.646 170.841 865.404 170.256 865.404 169.527C865.404 168.927 865.566 168.402 865.891 167.951C866.219 167.5 866.665 167.15 867.228 166.902C867.792 166.65 868.43 166.524 869.142 166.524C869.865 166.524 870.498 166.65 871.041 166.902C871.588 167.15 872.018 167.497 872.329 167.941C872.641 168.382 872.801 168.889 872.811 169.462H871.036ZM878.427 171.754C878.427 172.994 878.261 174.136 877.93 175.18C877.602 176.22 877.111 177.183 876.458 178.068H874.763C875.018 177.74 875.253 177.339 875.469 176.865C875.688 176.391 875.877 175.871 876.036 175.304C876.198 174.737 876.324 174.15 876.413 173.544C876.506 172.937 876.553 172.341 876.553 171.754C876.553 170.969 876.473 170.173 876.314 169.368C876.158 168.562 875.945 167.815 875.673 167.126C875.404 166.436 875.101 165.873 874.763 165.435H876.458C877.111 166.32 877.602 167.285 877.93 168.329C878.261 169.369 878.427 170.511 878.427 171.754Z" fill="white"/>
<defs>
<clipPath id="clip0_115_4434">
<rect width="55" height="27" fill="white" transform="translate(112.5 30)"/>
</clipPath>
<clipPath id="clip1_115_4434">
<rect width="13.285" height="26.7776" fill="white" transform="translate(112.5 30.6112)"/>
</clipPath>
<clipPath id="clip2_115_4434">
<rect width="35" height="40" fill="white" transform="translate(122 121)"/>
</clipPath>
<clipPath id="clip3_115_4434">
<rect width="35" height="39.6901" fill="white" transform="translate(813.5 97.1549)"/>
</clipPath>
</defs>
</svg>
