<svg width="971" height="279" viewBox="0 0 971 279" fill="none" xmlns="http://www.w3.org/2000/svg">
<rect width="971" height="279" fill="#121416"/>
<rect x="10.5" y="10.5" width="259" height="258" rx="9.5" stroke="#6EE7B7" stroke-dasharray="4 4"/>
<rect x="20.5" y="20.5" width="239" height="238" rx="7.5" fill="#022C22"/>
<rect x="20.5" y="20.5" width="239" height="238" rx="7.5" stroke="#6EE7B7"/>
<g clip-path="url(#clip0_23_635)">
<g clip-path="url(#clip1_23_635)">
<rect x="119.143" y="50.7459" width="6.64251" height="6.64251" fill="#F5F5F5"/>
<rect x="112.5" y="30.8184" width="6.64251" height="6.64251" fill="#F5F5F5"/>
<rect x="119.143" y="37.4609" width="6.64251" height="6.64251" fill="#F5F5F5"/>
<rect x="112.5" y="44.1034" width="6.64251" height="6.64251" fill="#F5F5F5"/>
</g>
<path d="M160.064 46.4031V42.5323C160.064 40.8389 160.897 39.9922 162.563 39.9922H164.944C166.599 39.9922 167.427 40.8389 167.427 42.5323V46.4031C167.427 48.0965 166.599 48.9432 164.944 48.9432H162.563C160.897 48.9432 160.064 48.0965 160.064 46.4031ZM161.135 46.5759C161.135 47.5205 161.6 47.9928 162.529 47.9928H164.978C165.896 47.9928 166.355 47.5205 166.355 46.5759V42.3595C166.355 41.4264 165.896 40.9599 164.978 40.9599H162.529C161.6 40.9599 161.135 41.4264 161.135 42.3595V46.5759Z" fill="#FAFAFA"/>
<path d="M153.954 48.9432V40.9944C154.351 40.3263 155.071 39.9922 156.114 39.9922H157.78L158.358 40.4415V40.9599H156.165C155.643 40.9599 155.264 41.1039 155.025 41.3919V48.9432H153.954Z" fill="#FAFAFA"/>
<path d="M144.155 46.4031V42.5323C144.155 40.8389 144.988 39.9922 146.655 39.9922H148.865C150.52 39.9922 151.348 40.8389 151.348 42.5323V44.8997H145.226V46.5759C145.226 47.5205 145.691 47.9928 146.621 47.9928H151.008V48.4939L150.43 48.9432H146.655C144.988 48.9432 144.155 48.0965 144.155 46.4031ZM145.226 43.9839H150.277V42.3595C150.277 41.4264 149.817 40.9599 148.899 40.9599H146.621C145.691 40.9599 145.226 41.4264 145.226 42.3595V43.9839Z" fill="#FAFAFA"/>
<path d="M134.022 38.0741V37.02H143.17V38.0741H139.157V48.9432H138.035V38.0741H134.022Z" fill="#FAFAFA"/>
</g>
<circle cx="139.5" cy="79.5" r="12.5" fill="#FAFAFA"/>
<path d="M140.923 73.3636V85H138.815V75.4148H138.747L136.026 77.1534V75.2216L138.918 73.3636H140.923Z" fill="#064E3B"/>
<g clip-path="url(#clip2_23_635)">
<path opacity="0.4" d="M129.5 131C129.5 133.652 130.554 136.196 132.429 138.071C134.304 139.946 136.848 141 139.5 141C142.152 141 144.696 139.946 146.571 138.071C148.446 136.196 149.5 133.652 149.5 131C149.5 128.348 148.446 125.804 146.571 123.929C144.696 122.054 142.152 121 139.5 121C136.848 121 134.304 122.054 132.429 123.929C130.554 125.804 129.5 128.348 129.5 131Z" fill="#FAFAFA"/>
<path d="M122 158.68C122 150.984 128.234 144.75 135.93 144.75H143.07C150.766 144.75 157 150.984 157 158.68C157 159.961 155.961 161 154.68 161H124.32C123.039 161 122 159.961 122 158.68Z" fill="#FAFAFA"/>
</g>
<line x1="139.5" y1="100" x2="139.5" y2="115" stroke="white"/>
<path d="M50.0234 232.438C49.1536 232.438 48.4036 232.648 47.7734 233.07C47.1484 233.492 46.6823 234.06 46.375 234.773C46.0677 235.487 45.9141 236.307 45.9141 237.234C45.9141 237.927 45.9974 238.56 46.1641 239.133C46.3307 239.701 46.5807 240.201 46.9141 240.633C47.2474 241.06 47.6797 241.393 48.2109 241.633C48.7474 241.867 49.362 241.984 50.0547 241.984C50.9453 241.984 51.8672 241.753 52.8203 241.289L53.0469 242.438C52.2708 242.927 51.2214 243.172 49.8984 243.172C49.0286 243.172 48.2474 243.029 47.5547 242.742C46.8672 242.451 46.2969 242.042 45.8438 241.516C45.3958 240.984 45.0547 240.354 44.8203 239.625C44.5859 238.891 44.4688 238.076 44.4688 237.18C44.4688 236.315 44.5964 235.518 44.8516 234.789C45.1068 234.06 45.4661 233.435 45.9297 232.914C46.3984 232.388 46.9818 231.979 47.6797 231.688C48.3776 231.396 49.1536 231.25 50.0078 231.25C51.3047 231.25 52.3984 231.536 53.2891 232.109L52.7578 233.211C51.9036 232.695 50.9922 232.438 50.0234 232.438ZM58.6328 234.352C58.8672 234.352 59.0807 234.367 59.2734 234.398L59.2266 235.602C58.987 235.56 58.7786 235.539 58.6016 235.539C57.8724 235.539 57.2786 235.794 56.8203 236.305C56.3672 236.81 56.1406 237.438 56.1406 238.188V243H54.8359C54.8307 237.74 54.8281 234.883 54.8281 234.43H55.9141L56.0391 235.969C56.3359 235.484 56.7135 235.094 57.1719 234.797C57.6302 234.5 58.1172 234.352 58.6328 234.352ZM65.3984 236.016C65.0182 235.557 64.4948 235.328 63.8281 235.328C63.1615 235.328 62.6172 235.565 62.1953 236.039C61.7734 236.508 61.526 237.151 61.4531 237.969H65.9766C65.9766 237.12 65.7839 236.469 65.3984 236.016ZM64.0859 243.18C62.8411 243.18 61.8594 242.784 61.1406 241.992C60.4271 241.201 60.0703 240.117 60.0703 238.742C60.0703 237.414 60.4167 236.339 61.1094 235.516C61.8021 234.688 62.7135 234.266 63.8438 234.25C64.9062 234.25 65.7474 234.615 66.3672 235.344C66.9922 236.068 67.3047 237.036 67.3047 238.25C67.3047 238.312 67.3021 238.427 67.2969 238.594C67.2969 238.76 67.2969 238.88 67.2969 238.953H61.4141C61.4297 239.927 61.6797 240.688 62.1641 241.234C62.6536 241.776 63.3099 242.047 64.1328 242.047C65.0391 242.047 65.9479 241.807 66.8594 241.328L67.0625 242.383C66.1927 242.914 65.2005 243.18 64.0859 243.18ZM71.5 242.125C72.1198 242.125 72.6641 241.956 73.1328 241.617C73.6068 241.273 73.9115 240.812 74.0469 240.234V238.789C74.0208 238.789 73.862 238.802 73.5703 238.828C73.2839 238.854 73.0964 238.87 73.0078 238.875C71.8776 238.974 71.0885 239.159 70.6406 239.43C70.1979 239.701 69.9766 240.135 69.9766 240.734C69.9766 241.193 70.112 241.539 70.3828 241.773C70.6536 242.008 71.026 242.125 71.5 242.125ZM74.3359 243C74.2578 242.667 74.1823 242.307 74.1094 241.922C73.6354 242.396 73.1901 242.724 72.7734 242.906C72.3568 243.089 71.8672 243.18 71.3047 243.18C70.5026 243.18 69.8568 242.971 69.3672 242.555C68.8828 242.133 68.6406 241.529 68.6406 240.742C68.6406 239.867 68.9714 239.219 69.6328 238.797C70.2995 238.375 71.2578 238.112 72.5078 238.008C72.6797 237.992 72.9375 237.971 73.2812 237.945C73.6302 237.914 73.8906 237.891 74.0625 237.875V237.117C74.0625 236.513 73.9219 236.065 73.6406 235.773C73.3594 235.482 72.9167 235.336 72.3125 235.336C71.4688 235.336 70.6172 235.544 69.7578 235.961C69.7318 235.898 69.6641 235.719 69.5547 235.422C69.4453 235.12 69.388 234.964 69.3828 234.953C69.763 234.74 70.2135 234.57 70.7344 234.445C71.2604 234.315 71.7943 234.25 72.3359 234.25C73.4036 234.25 74.1719 234.484 74.6406 234.953C75.1146 235.417 75.3516 236.208 75.3516 237.328V243H74.3359ZM80.3359 243.156C79.4922 243.156 78.8932 242.951 78.5391 242.539C78.1849 242.128 77.9974 241.464 77.9766 240.547V235.398H76.7031L76.7578 234.539L77.9688 234.43L78.4141 232.469L79.2734 232.438V234.43H81.6562V235.398H79.2734V240.312C79.2734 240.964 79.3724 241.422 79.5703 241.688C79.7682 241.953 80.1068 242.086 80.5859 242.086C80.7578 242.086 81.1302 242.044 81.7031 241.961L81.7578 242.992C81.138 243.102 80.6641 243.156 80.3359 243.156ZM87.9922 236.016C87.612 235.557 87.0885 235.328 86.4219 235.328C85.7552 235.328 85.2109 235.565 84.7891 236.039C84.3672 236.508 84.1198 237.151 84.0469 237.969H88.5703C88.5703 237.12 88.3776 236.469 87.9922 236.016ZM86.6797 243.18C85.4349 243.18 84.4531 242.784 83.7344 241.992C83.0208 241.201 82.6641 240.117 82.6641 238.742C82.6641 237.414 83.0104 236.339 83.7031 235.516C84.3958 234.688 85.3073 234.266 86.4375 234.25C87.5 234.25 88.3411 234.615 88.9609 235.344C89.5859 236.068 89.8984 237.036 89.8984 238.25C89.8984 238.312 89.8958 238.427 89.8906 238.594C89.8906 238.76 89.8906 238.88 89.8906 238.953H84.0078C84.0234 239.927 84.2734 240.688 84.7578 241.234C85.2474 241.776 85.9036 242.047 86.7266 242.047C87.6328 242.047 88.5417 241.807 89.4531 241.328L89.6562 242.383C88.7865 242.914 87.7943 243.18 86.6797 243.18ZM104.008 237.25C104.008 235.635 103.591 234.461 102.758 233.727C101.924 232.992 100.711 232.625 99.1172 232.625H97.3047V241.82H99.3438C100.865 241.82 102.021 241.438 102.812 240.672C103.609 239.901 104.008 238.76 104.008 237.25ZM105.453 237.211C105.453 239.091 104.919 240.526 103.852 241.516C102.784 242.505 101.294 243 99.3828 243H95.9531V231.445H99.1562C100.12 231.445 100.982 231.56 101.742 231.789C102.503 232.013 103.161 232.357 103.719 232.82C104.281 233.279 104.711 233.88 105.008 234.625C105.305 235.365 105.453 236.227 105.453 237.211ZM115.742 237.25C115.742 235.635 115.326 234.461 114.492 233.727C113.659 232.992 112.445 232.625 110.852 232.625H109.039V241.82H111.078C112.599 241.82 113.755 241.438 114.547 240.672C115.344 239.901 115.742 238.76 115.742 237.25ZM117.188 237.211C117.188 239.091 116.654 240.526 115.586 241.516C114.518 242.505 113.029 243 111.117 243H107.688V231.445H110.891C111.854 231.445 112.716 231.56 113.477 231.789C114.237 232.013 114.896 232.357 115.453 232.82C116.016 233.279 116.445 233.88 116.742 234.625C117.039 235.365 117.188 236.227 117.188 237.211ZM123.203 241.094C124.406 241.688 125.695 241.984 127.07 241.984C128.763 241.984 129.609 241.214 129.609 239.672C129.609 239.172 129.474 238.768 129.203 238.461C128.938 238.148 128.451 237.904 127.742 237.727L125.445 237.148C123.69 236.706 122.812 235.768 122.812 234.336C122.812 233.237 123.19 232.422 123.945 231.891C124.701 231.354 125.745 231.086 127.078 231.086C127.776 231.086 128.43 231.161 129.039 231.312C129.648 231.464 130.159 231.667 130.57 231.922L130.18 233.023C129.831 232.831 129.367 232.659 128.789 232.508C128.216 232.357 127.635 232.281 127.047 232.281C125.161 232.281 124.219 232.935 124.219 234.242C124.219 234.685 124.362 235.042 124.648 235.312C124.94 235.578 125.375 235.781 125.953 235.922L128.148 236.453C129.086 236.677 129.797 237.036 130.281 237.531C130.766 238.021 131.008 238.719 131.008 239.625C131.008 240.802 130.646 241.69 129.922 242.289C129.203 242.883 128.224 243.18 126.984 243.18C126.057 243.18 125.232 243.086 124.508 242.898C123.789 242.706 123.219 242.479 122.797 242.219L123.203 241.094ZM137.711 236.016C137.331 235.557 136.807 235.328 136.141 235.328C135.474 235.328 134.93 235.565 134.508 236.039C134.086 236.508 133.839 237.151 133.766 237.969H138.289C138.289 237.12 138.096 236.469 137.711 236.016ZM136.398 243.18C135.154 243.18 134.172 242.784 133.453 241.992C132.74 241.201 132.383 240.117 132.383 238.742C132.383 237.414 132.729 236.339 133.422 235.516C134.115 234.688 135.026 234.266 136.156 234.25C137.219 234.25 138.06 234.615 138.68 235.344C139.305 236.068 139.617 237.036 139.617 238.25C139.617 238.312 139.615 238.427 139.609 238.594C139.609 238.76 139.609 238.88 139.609 238.953H133.727C133.742 239.927 133.992 240.688 134.477 241.234C134.966 241.776 135.622 242.047 136.445 242.047C137.352 242.047 138.26 241.807 139.172 241.328L139.375 242.383C138.505 242.914 137.513 243.18 136.398 243.18ZM145.273 234.352C145.508 234.352 145.721 234.367 145.914 234.398L145.867 235.602C145.628 235.56 145.419 235.539 145.242 235.539C144.513 235.539 143.919 235.794 143.461 236.305C143.008 236.81 142.781 237.438 142.781 238.188V243H141.477C141.471 237.74 141.469 234.883 141.469 234.43H142.555L142.68 235.969C142.977 235.484 143.354 235.094 143.812 234.797C144.271 234.5 144.758 234.352 145.273 234.352ZM149.453 243L146.133 234.43H147.531L149.422 239.523C149.422 239.523 149.682 240.247 150.203 241.695C150.38 241.138 150.625 240.419 150.938 239.539C151.333 238.43 151.948 236.727 152.781 234.43H154.172L150.875 243H149.453ZM156.859 234.43V243H155.547V234.43H156.859ZM156.859 231.312V232.859H155.547V231.312H156.859ZM162.945 243.18C161.685 243.18 160.698 242.771 159.984 241.953C159.276 241.135 158.922 240.065 158.922 238.742C158.927 237.409 159.289 236.328 160.008 235.5C160.732 234.667 161.721 234.25 162.977 234.25C163.419 234.25 163.846 234.305 164.258 234.414C164.674 234.523 165.003 234.667 165.242 234.844L164.883 235.859C164.273 235.531 163.63 235.367 162.953 235.367C162.125 235.367 161.469 235.669 160.984 236.273C160.505 236.878 160.266 237.703 160.266 238.75C160.266 239.771 160.503 240.581 160.977 241.18C161.456 241.773 162.117 242.07 162.961 242.07C163.633 242.07 164.32 241.888 165.023 241.523L165.188 242.562C164.62 242.974 163.872 243.18 162.945 243.18ZM171.82 236.016C171.44 235.557 170.917 235.328 170.25 235.328C169.583 235.328 169.039 235.565 168.617 236.039C168.195 236.508 167.948 237.151 167.875 237.969H172.398C172.398 237.12 172.206 236.469 171.82 236.016ZM170.508 243.18C169.263 243.18 168.281 242.784 167.562 241.992C166.849 241.201 166.492 240.117 166.492 238.742C166.492 237.414 166.839 236.339 167.531 235.516C168.224 234.688 169.135 234.266 170.266 234.25C171.328 234.25 172.169 234.615 172.789 235.344C173.414 236.068 173.727 237.036 173.727 238.25C173.727 238.312 173.724 238.427 173.719 238.594C173.719 238.76 173.719 238.88 173.719 238.953H167.836C167.852 239.927 168.102 240.688 168.586 241.234C169.076 241.776 169.732 242.047 170.555 242.047C171.461 242.047 172.37 241.807 173.281 241.328L173.484 242.383C172.615 242.914 171.622 243.18 170.508 243.18ZM185.391 238.203C184.292 235.01 183.685 233.216 183.57 232.82C183.57 232.82 182.938 234.615 181.672 238.203H185.391ZM187.18 243L185.828 239.336H181.219L179.82 243H178.445L182.883 231.422H184.266L188.57 243H187.18ZM193.336 243.18C192.076 243.18 191.089 242.771 190.375 241.953C189.667 241.135 189.312 240.065 189.312 238.742C189.318 237.409 189.68 236.328 190.398 235.5C191.122 234.667 192.112 234.25 193.367 234.25C193.81 234.25 194.237 234.305 194.648 234.414C195.065 234.523 195.393 234.667 195.633 234.844L195.273 235.859C194.664 235.531 194.021 235.367 193.344 235.367C192.516 235.367 191.859 235.669 191.375 236.273C190.896 236.878 190.656 237.703 190.656 238.75C190.656 239.771 190.893 240.581 191.367 241.18C191.846 241.773 192.508 242.07 193.352 242.07C194.023 242.07 194.711 241.888 195.414 241.523L195.578 242.562C195.01 242.974 194.263 243.18 193.336 243.18ZM200.805 243.18C199.544 243.18 198.557 242.771 197.844 241.953C197.135 241.135 196.781 240.065 196.781 238.742C196.786 237.409 197.148 236.328 197.867 235.5C198.591 234.667 199.581 234.25 200.836 234.25C201.279 234.25 201.706 234.305 202.117 234.414C202.534 234.523 202.862 234.667 203.102 234.844L202.742 235.859C202.133 235.531 201.49 235.367 200.812 235.367C199.984 235.367 199.328 235.669 198.844 236.273C198.365 236.878 198.125 237.703 198.125 238.75C198.125 239.771 198.362 240.581 198.836 241.18C199.315 241.773 199.977 242.07 200.82 242.07C201.492 242.07 202.18 241.888 202.883 241.523L203.047 242.562C202.479 242.974 201.732 243.18 200.805 243.18ZM205.695 238.734C205.695 239.75 205.919 240.565 206.367 241.18C206.82 241.789 207.479 242.094 208.344 242.094C209.198 242.094 209.841 241.789 210.273 241.18C210.711 240.57 210.93 239.75 210.93 238.719C210.93 237.672 210.714 236.849 210.281 236.25C209.854 235.646 209.201 235.344 208.32 235.344C207.466 235.344 206.815 235.651 206.367 236.266C205.919 236.88 205.695 237.703 205.695 238.734ZM212.281 238.711C212.281 240.039 211.927 241.117 211.219 241.945C210.51 242.768 209.531 243.18 208.281 243.18C207.078 243.18 206.12 242.763 205.406 241.93C204.698 241.096 204.344 240.026 204.344 238.719C204.344 237.385 204.701 236.307 205.414 235.484C206.128 234.661 207.107 234.25 208.352 234.25C209.576 234.25 210.536 234.664 211.234 235.492C211.932 236.315 212.281 237.388 212.281 238.711ZM213.836 240.141V234.43H215.148V240.156C215.148 240.531 215.201 240.849 215.305 241.109C215.414 241.37 215.568 241.573 215.766 241.719C215.969 241.859 216.195 241.961 216.445 242.023C216.701 242.086 216.992 242.117 217.32 242.117C217.997 242.117 218.523 241.969 218.898 241.672C219.279 241.375 219.469 240.87 219.469 240.156V234.43H220.781V240.141C220.781 240.578 220.719 240.971 220.594 241.32C220.469 241.669 220.299 241.961 220.086 242.195C219.878 242.424 219.625 242.615 219.328 242.766C219.031 242.917 218.716 243.026 218.383 243.094C218.055 243.161 217.701 243.195 217.32 243.195C216.945 243.195 216.591 243.161 216.258 243.094C215.924 243.026 215.607 242.917 215.305 242.766C215.008 242.609 214.75 242.417 214.531 242.188C214.318 241.953 214.148 241.661 214.023 241.312C213.898 240.964 213.836 240.573 213.836 240.141ZM222.727 243V234.43H223.82L223.984 235.656C224.323 235.234 224.745 234.896 225.25 234.641C225.76 234.38 226.31 234.25 226.898 234.25C227.888 234.25 228.62 234.529 229.094 235.086C229.568 235.638 229.805 236.49 229.805 237.641V243H228.5C228.5 239.562 228.497 237.721 228.492 237.477C228.471 236.747 228.323 236.214 228.047 235.875C227.776 235.536 227.32 235.367 226.68 235.367C226.008 235.367 225.448 235.529 225 235.852C224.552 236.174 224.26 236.594 224.125 237.109C224.073 237.458 224.047 237.859 224.047 238.312V243H222.727ZM234.711 243.156C233.867 243.156 233.268 242.951 232.914 242.539C232.56 242.128 232.372 241.464 232.352 240.547V235.398H231.078L231.133 234.539L232.344 234.43L232.789 232.469L233.648 232.438V234.43H236.031V235.398H233.648V240.312C233.648 240.964 233.747 241.422 233.945 241.688C234.143 241.953 234.482 242.086 234.961 242.086C235.133 242.086 235.505 242.044 236.078 241.961L236.133 242.992C235.513 243.102 235.039 243.156 234.711 243.156Z" fill="white"/>
<path d="M691.5 139.5L671.5 127.953V151.047L691.5 139.5ZM280 139.5V141.5L673.5 141.5V139.5V137.5L280 137.5V139.5Z" fill="#34D399"/>
<mask id="path-19-outside-1_23_635" maskUnits="userSpaceOnUse" x="439" y="123.5" width="94" height="32" fill="black">
<rect fill="white" x="439" y="123.5" width="94" height="32"/>
<path d="M458.044 137.754H456.185C456.132 137.449 456.034 137.179 455.892 136.943C455.749 136.705 455.572 136.502 455.36 136.337C455.147 136.171 454.906 136.047 454.634 135.964C454.365 135.878 454.075 135.835 453.764 135.835C453.21 135.835 452.72 135.974 452.292 136.252C451.865 136.527 451.53 136.932 451.288 137.465C451.046 137.996 450.925 138.643 450.925 139.409C450.925 140.188 451.046 140.844 451.288 141.378C451.533 141.908 451.868 142.309 452.292 142.581C452.72 142.849 453.209 142.984 453.759 142.984C454.064 142.984 454.349 142.944 454.614 142.864C454.882 142.781 455.123 142.661 455.335 142.501C455.55 142.342 455.731 142.147 455.877 141.915C456.026 141.683 456.129 141.418 456.185 141.119L458.044 141.129C457.975 141.613 457.824 142.067 457.592 142.491C457.363 142.916 457.063 143.29 456.692 143.615C456.321 143.937 455.887 144.188 455.389 144.371C454.892 144.55 454.34 144.639 453.734 144.639C452.839 144.639 452.04 144.432 451.338 144.018C450.635 143.603 450.081 143.005 449.677 142.223C449.273 141.441 449.071 140.503 449.071 139.409C449.071 138.312 449.274 137.374 449.682 136.595C450.09 135.813 450.645 135.215 451.348 134.8C452.05 134.386 452.846 134.179 453.734 134.179C454.301 134.179 454.828 134.259 455.315 134.418C455.802 134.577 456.236 134.81 456.617 135.119C456.999 135.424 457.312 135.798 457.557 136.242C457.806 136.683 457.968 137.187 458.044 137.754ZM469.531 139.409C469.531 140.506 469.326 141.446 468.915 142.228C468.507 143.007 467.95 143.603 467.244 144.018C466.542 144.432 465.745 144.639 464.853 144.639C463.962 144.639 463.163 144.432 462.457 144.018C461.754 143.6 461.197 143.002 460.786 142.223C460.379 141.441 460.175 140.503 460.175 139.409C460.175 138.312 460.379 137.374 460.786 136.595C461.197 135.813 461.754 135.215 462.457 134.8C463.163 134.386 463.962 134.179 464.853 134.179C465.745 134.179 466.542 134.386 467.244 134.8C467.95 135.215 468.507 135.813 468.915 136.595C469.326 137.374 469.531 138.312 469.531 139.409ZM467.677 139.409C467.677 138.637 467.556 137.986 467.314 137.455C467.075 136.922 466.744 136.519 466.32 136.247C465.895 135.972 465.407 135.835 464.853 135.835C464.3 135.835 463.811 135.972 463.386 136.247C462.962 136.519 462.629 136.922 462.387 137.455C462.149 137.986 462.029 138.637 462.029 139.409C462.029 140.181 462.149 140.834 462.387 141.368C462.629 141.898 462.962 142.301 463.386 142.576C463.811 142.848 464.3 142.984 464.853 142.984C465.407 142.984 465.895 142.848 466.32 142.576C466.744 142.301 467.075 141.898 467.314 141.368C467.556 140.834 467.677 140.181 467.677 139.409ZM480.342 134.318V144.5H478.702L473.904 137.565H473.82V144.5H471.975V134.318H473.626L478.418 141.259H478.508V134.318H480.342ZM491.419 134.318V144.5H489.779L484.981 137.565H484.897V144.5H483.052V134.318H484.703L489.495 141.259H489.585V134.318H491.419ZM494.129 144.5V134.318H500.751V135.864H495.974V138.629H500.408V140.175H495.974V142.954H500.791V144.5H494.129ZM512.048 137.754H510.189C510.136 137.449 510.038 137.179 509.895 136.943C509.753 136.705 509.576 136.502 509.364 136.337C509.151 136.171 508.909 136.047 508.638 135.964C508.369 135.878 508.079 135.835 507.768 135.835C507.214 135.835 506.724 135.974 506.296 136.252C505.868 136.527 505.534 136.932 505.292 137.465C505.05 137.996 504.929 138.643 504.929 139.409C504.929 140.188 505.05 140.844 505.292 141.378C505.537 141.908 505.872 142.309 506.296 142.581C506.724 142.849 507.212 142.984 507.763 142.984C508.068 142.984 508.353 142.944 508.618 142.864C508.886 142.781 509.127 142.661 509.339 142.501C509.554 142.342 509.735 142.147 509.881 141.915C510.03 141.683 510.132 141.418 510.189 141.119L512.048 141.129C511.979 141.613 511.828 142.067 511.596 142.491C511.367 142.916 511.067 143.29 510.696 143.615C510.325 143.937 509.891 144.188 509.393 144.371C508.896 144.55 508.344 144.639 507.738 144.639C506.843 144.639 506.044 144.432 505.341 144.018C504.639 143.603 504.085 143.005 503.681 142.223C503.277 141.441 503.074 140.503 503.074 139.409C503.074 138.312 503.278 137.374 503.686 136.595C504.094 135.813 504.649 135.215 505.351 134.8C506.054 134.386 506.85 134.179 507.738 134.179C508.305 134.179 508.832 134.259 509.319 134.418C509.806 134.577 510.24 134.81 510.621 135.119C511.002 135.424 511.316 135.798 511.561 136.242C511.81 136.683 511.972 137.187 512.048 137.754ZM513.99 135.864V134.318H522.113V135.864H518.966V144.5H517.137V135.864H513.99Z"/>
</mask>
<path d="M458.044 137.754H456.185C456.132 137.449 456.034 137.179 455.892 136.943C455.749 136.705 455.572 136.502 455.36 136.337C455.147 136.171 454.906 136.047 454.634 135.964C454.365 135.878 454.075 135.835 453.764 135.835C453.21 135.835 452.72 135.974 452.292 136.252C451.865 136.527 451.53 136.932 451.288 137.465C451.046 137.996 450.925 138.643 450.925 139.409C450.925 140.188 451.046 140.844 451.288 141.378C451.533 141.908 451.868 142.309 452.292 142.581C452.72 142.849 453.209 142.984 453.759 142.984C454.064 142.984 454.349 142.944 454.614 142.864C454.882 142.781 455.123 142.661 455.335 142.501C455.55 142.342 455.731 142.147 455.877 141.915C456.026 141.683 456.129 141.418 456.185 141.119L458.044 141.129C457.975 141.613 457.824 142.067 457.592 142.491C457.363 142.916 457.063 143.29 456.692 143.615C456.321 143.937 455.887 144.188 455.389 144.371C454.892 144.55 454.34 144.639 453.734 144.639C452.839 144.639 452.04 144.432 451.338 144.018C450.635 143.603 450.081 143.005 449.677 142.223C449.273 141.441 449.071 140.503 449.071 139.409C449.071 138.312 449.274 137.374 449.682 136.595C450.09 135.813 450.645 135.215 451.348 134.8C452.05 134.386 452.846 134.179 453.734 134.179C454.301 134.179 454.828 134.259 455.315 134.418C455.802 134.577 456.236 134.81 456.617 135.119C456.999 135.424 457.312 135.798 457.557 136.242C457.806 136.683 457.968 137.187 458.044 137.754ZM469.531 139.409C469.531 140.506 469.326 141.446 468.915 142.228C468.507 143.007 467.95 143.603 467.244 144.018C466.542 144.432 465.745 144.639 464.853 144.639C463.962 144.639 463.163 144.432 462.457 144.018C461.754 143.6 461.197 143.002 460.786 142.223C460.379 141.441 460.175 140.503 460.175 139.409C460.175 138.312 460.379 137.374 460.786 136.595C461.197 135.813 461.754 135.215 462.457 134.8C463.163 134.386 463.962 134.179 464.853 134.179C465.745 134.179 466.542 134.386 467.244 134.8C467.95 135.215 468.507 135.813 468.915 136.595C469.326 137.374 469.531 138.312 469.531 139.409ZM467.677 139.409C467.677 138.637 467.556 137.986 467.314 137.455C467.075 136.922 466.744 136.519 466.32 136.247C465.895 135.972 465.407 135.835 464.853 135.835C464.3 135.835 463.811 135.972 463.386 136.247C462.962 136.519 462.629 136.922 462.387 137.455C462.149 137.986 462.029 138.637 462.029 139.409C462.029 140.181 462.149 140.834 462.387 141.368C462.629 141.898 462.962 142.301 463.386 142.576C463.811 142.848 464.3 142.984 464.853 142.984C465.407 142.984 465.895 142.848 466.32 142.576C466.744 142.301 467.075 141.898 467.314 141.368C467.556 140.834 467.677 140.181 467.677 139.409ZM480.342 134.318V144.5H478.702L473.904 137.565H473.82V144.5H471.975V134.318H473.626L478.418 141.259H478.508V134.318H480.342ZM491.419 134.318V144.5H489.779L484.981 137.565H484.897V144.5H483.052V134.318H484.703L489.495 141.259H489.585V134.318H491.419ZM494.129 144.5V134.318H500.751V135.864H495.974V138.629H500.408V140.175H495.974V142.954H500.791V144.5H494.129ZM512.048 137.754H510.189C510.136 137.449 510.038 137.179 509.895 136.943C509.753 136.705 509.576 136.502 509.364 136.337C509.151 136.171 508.909 136.047 508.638 135.964C508.369 135.878 508.079 135.835 507.768 135.835C507.214 135.835 506.724 135.974 506.296 136.252C505.868 136.527 505.534 136.932 505.292 137.465C505.05 137.996 504.929 138.643 504.929 139.409C504.929 140.188 505.05 140.844 505.292 141.378C505.537 141.908 505.872 142.309 506.296 142.581C506.724 142.849 507.212 142.984 507.763 142.984C508.068 142.984 508.353 142.944 508.618 142.864C508.886 142.781 509.127 142.661 509.339 142.501C509.554 142.342 509.735 142.147 509.881 141.915C510.03 141.683 510.132 141.418 510.189 141.119L512.048 141.129C511.979 141.613 511.828 142.067 511.596 142.491C511.367 142.916 511.067 143.29 510.696 143.615C510.325 143.937 509.891 144.188 509.393 144.371C508.896 144.55 508.344 144.639 507.738 144.639C506.843 144.639 506.044 144.432 505.341 144.018C504.639 143.603 504.085 143.005 503.681 142.223C503.277 141.441 503.074 140.503 503.074 139.409C503.074 138.312 503.278 137.374 503.686 136.595C504.094 135.813 504.649 135.215 505.351 134.8C506.054 134.386 506.85 134.179 507.738 134.179C508.305 134.179 508.832 134.259 509.319 134.418C509.806 134.577 510.24 134.81 510.621 135.119C511.002 135.424 511.316 135.798 511.561 136.242C511.81 136.683 511.972 137.187 512.048 137.754ZM513.99 135.864V134.318H522.113V135.864H518.966V144.5H517.137V135.864H513.99Z" fill="white"/>
<path d="M458.044 137.754V147.754H469.479L467.955 136.421L458.044 137.754ZM456.185 137.754L446.333 139.467L447.774 147.754H456.185V137.754ZM455.892 136.943L447.306 142.071L447.322 142.097L447.338 142.124L455.892 136.943ZM455.36 136.337L461.516 128.456L461.516 128.456L455.36 136.337ZM454.634 135.964L451.577 145.485L451.647 145.508L451.718 145.529L454.634 135.964ZM452.292 136.252L457.703 144.662L457.726 144.647L457.749 144.632L452.292 136.252ZM451.288 137.465L460.386 141.616L460.391 141.605L460.395 141.595L451.288 137.465ZM451.288 141.378L442.18 145.507L442.196 145.542L442.212 145.576L451.288 141.378ZM452.292 142.581L446.898 151.001L446.936 151.026L446.974 151.05L452.292 142.581ZM454.614 142.864L457.487 152.443L457.525 152.431L457.563 152.42L454.614 142.864ZM455.335 142.501L449.394 134.457L449.364 134.479L449.335 134.501L455.335 142.501ZM455.877 141.915L447.465 136.507L447.437 136.55L447.41 136.593L455.877 141.915ZM456.185 141.119L456.238 131.119L447.905 131.075L446.359 139.263L456.185 141.119ZM458.044 141.129L467.942 142.553L469.577 131.191L458.098 131.129L458.044 141.129ZM457.592 142.491L448.818 137.693L448.804 137.72L448.789 137.746L457.592 142.491ZM456.692 143.615L463.239 151.174L463.258 151.158L463.277 151.141L456.692 143.615ZM455.389 144.371L458.777 153.78L458.804 153.77L458.832 153.76L455.389 144.371ZM451.338 144.018L456.417 135.404L451.338 144.018ZM449.677 142.223L440.794 146.815H440.794L449.677 142.223ZM449.682 136.595L458.542 141.232L458.546 141.225L458.55 141.217L449.682 136.595ZM451.348 134.8L446.268 126.186L446.268 126.186L451.348 134.8ZM455.315 134.418L458.419 124.912L458.419 124.912L455.315 134.418ZM456.617 135.119L450.329 142.894L450.35 142.911L450.37 142.927L456.617 135.119ZM457.557 136.242L448.803 141.076L448.825 141.115L448.847 141.154L457.557 136.242ZM458.044 137.754V127.754H456.185V137.754V147.754H458.044V137.754ZM456.185 137.754L466.037 136.04C465.797 134.661 465.308 133.188 464.445 131.763L455.892 136.943L447.338 142.124C446.76 141.169 446.467 140.236 446.333 139.467L456.185 137.754ZM455.892 136.943L464.477 131.816C463.723 130.553 462.733 129.407 461.516 128.456L455.36 136.337L449.203 144.217C448.411 143.598 447.775 142.856 447.306 142.071L455.892 136.943ZM455.36 136.337L461.516 128.456C460.284 127.494 458.93 126.819 457.55 126.398L454.634 135.964L451.718 145.529C450.881 145.274 450.011 144.848 449.203 144.217L455.36 136.337ZM454.634 135.964L457.69 126.442C456.336 126.008 455.005 125.835 453.764 125.835V135.835V145.835C453.146 145.835 452.395 145.748 451.577 145.485L454.634 135.964ZM453.764 135.835V125.835C451.444 125.835 449.024 126.447 446.835 127.872L452.292 136.252L457.749 144.632C456.415 145.501 454.976 145.835 453.764 145.835V135.835ZM452.292 136.252L446.881 127.842C444.6 129.31 443.093 131.323 442.18 133.336L451.288 137.465L460.395 141.595C459.967 142.54 459.129 143.744 457.703 144.662L452.292 136.252ZM451.288 137.465L442.19 133.314C441.198 135.488 440.925 137.64 440.925 139.409H450.925H460.925C460.925 139.647 460.894 140.503 460.386 141.616L451.288 137.465ZM450.925 139.409H440.925C440.925 141.166 441.19 143.324 442.18 145.507L451.288 141.378L460.395 137.248C460.902 138.365 460.925 139.21 460.925 139.409H450.925ZM451.288 141.378L442.212 145.576C443.126 147.554 444.626 149.546 446.898 151.001L452.292 142.581L457.686 134.161C459.11 135.072 459.94 136.263 460.364 137.18L451.288 141.378ZM452.292 142.581L446.974 151.05C449.138 152.408 451.503 152.984 453.759 152.984V142.984V132.984C454.915 132.984 456.302 133.291 457.61 134.112L452.292 142.581ZM453.759 142.984V152.984C454.939 152.984 456.201 152.829 457.487 152.443L454.614 142.864L451.74 133.286C452.497 133.059 453.188 132.984 453.759 132.984V142.984ZM454.614 142.864L457.563 152.42C458.864 152.018 460.149 151.391 461.335 150.501L455.335 142.501L449.335 134.501C450.096 133.93 450.9 133.545 451.665 133.309L454.614 142.864ZM455.335 142.501L461.275 150.546C462.519 149.627 463.548 148.501 464.343 147.236L455.877 141.915L447.41 136.593C447.913 135.793 448.582 135.057 449.394 134.457L455.335 142.501ZM455.877 141.915L464.288 147.322C465.2 145.904 465.74 144.41 466.011 142.975L456.185 141.119L446.359 139.263C446.517 138.425 446.852 137.461 447.465 136.507L455.877 141.915ZM456.185 141.119L456.131 151.119L457.991 151.129L458.044 141.129L458.098 131.129L456.238 131.119L456.185 141.119ZM458.044 141.129L448.146 139.706C448.245 139.02 448.47 138.329 448.818 137.693L457.592 142.491L466.366 147.29C467.177 145.805 467.705 144.206 467.942 142.553L458.044 141.129ZM457.592 142.491L448.789 137.746C449.141 137.094 449.6 136.533 450.107 136.089L456.692 143.615L463.277 151.141C464.526 150.048 465.585 148.738 466.394 147.237L457.592 142.491ZM456.692 143.615L450.145 136.056C450.759 135.525 451.397 135.184 451.947 134.982L455.389 144.371L458.832 153.76C460.377 153.193 461.883 152.349 463.239 151.174L456.692 143.615ZM455.389 144.371L452.002 134.962C452.739 134.697 453.354 134.639 453.734 134.639V144.639V154.639C455.327 154.639 457.045 154.403 458.777 153.78L455.389 144.371ZM453.734 144.639V134.639C454.447 134.639 455.434 134.824 456.417 135.404L451.338 144.018L446.259 152.632C448.647 154.04 451.231 154.639 453.734 154.639V144.639ZM451.338 144.018L456.417 135.404C457.464 136.021 458.172 136.879 458.56 137.631L449.677 142.223L440.794 146.815C441.991 149.131 443.806 151.186 446.259 152.632L451.338 144.018ZM449.677 142.223L458.56 137.631C459.046 138.571 459.071 139.285 459.071 139.409H449.071H439.071C439.071 141.721 439.499 144.311 440.794 146.815L449.677 142.223ZM449.071 139.409H459.071C459.071 139.534 459.046 140.269 458.542 141.232L449.682 136.595L440.822 131.958C439.503 134.479 439.071 137.09 439.071 139.409H449.071ZM449.682 136.595L458.55 141.217C458.166 141.953 457.467 142.801 456.427 143.415L451.348 134.8L446.268 126.186C443.823 127.628 442.013 129.672 440.814 131.973L449.682 136.595ZM451.348 134.8L456.427 143.415C455.455 143.987 454.468 144.179 453.734 144.179V134.179V124.179C451.223 124.179 448.645 124.785 446.268 126.186L451.348 134.8ZM453.734 134.179V144.179C453.357 144.179 452.826 144.124 452.211 143.924L455.315 134.418L458.419 124.912C456.829 124.393 455.244 124.179 453.734 124.179V134.179ZM455.315 134.418L452.211 143.924C451.594 143.722 450.938 143.386 450.329 142.894L456.617 135.119L462.906 127.343C461.534 126.234 460.011 125.431 458.419 124.912L455.315 134.418ZM456.617 135.119L450.37 142.927C449.689 142.382 449.165 141.732 448.803 141.076L457.557 136.242L466.311 131.408C465.458 129.864 464.308 128.465 462.864 127.31L456.617 135.119ZM457.557 136.242L448.847 141.154C448.396 140.354 448.205 139.616 448.134 139.087L458.044 137.754L467.955 136.421C467.731 134.758 467.216 133.012 466.268 131.33L457.557 136.242ZM468.915 142.228L460.062 137.577L460.059 137.584L460.055 137.591L468.915 142.228ZM467.244 144.018L462.183 135.393L462.174 135.398L462.165 135.404L467.244 144.018ZM462.457 144.018L457.348 152.614L457.372 152.628L457.395 152.642L462.457 144.018ZM460.786 142.223L451.918 146.845L451.93 146.867L451.942 146.89L460.786 142.223ZM460.786 136.595L451.934 131.944L451.93 131.951L451.927 131.958L460.786 136.595ZM462.457 134.8L457.395 126.176L457.387 126.181L457.378 126.186L462.457 134.8ZM467.244 134.8L462.165 143.415L462.174 143.42L462.183 143.425L467.244 134.8ZM468.915 136.595L460.047 141.217L460.059 141.239L460.071 141.262L468.915 136.595ZM467.314 137.455L458.185 141.538L458.201 141.572L458.216 141.606L467.314 137.455ZM466.32 136.247L460.879 144.638L460.902 144.653L460.925 144.667L466.32 136.247ZM463.386 136.247L468.781 144.667L468.804 144.653L468.827 144.638L463.386 136.247ZM462.387 137.455L453.28 133.326L453.274 133.339L453.268 133.352L462.387 137.455ZM462.387 141.368L453.258 145.45L453.274 145.485L453.289 145.519L462.387 141.368ZM463.386 142.576L457.946 150.966L457.969 150.981L457.992 150.996L463.386 142.576ZM466.32 142.576L471.714 150.996L471.737 150.981L471.76 150.966L466.32 142.576ZM467.314 141.368L458.207 137.238L458.201 137.251L458.195 137.264L467.314 141.368ZM469.531 139.409H459.531C459.531 139.27 459.559 138.535 460.062 137.577L468.915 142.228L477.767 146.879C479.093 144.357 479.531 141.742 479.531 139.409H469.531ZM468.915 142.228L460.055 137.591C460.449 136.839 461.155 135.997 462.183 135.393L467.244 144.018L472.306 152.642C474.746 151.21 476.566 149.175 477.775 146.865L468.915 142.228ZM467.244 144.018L462.165 135.404C463.143 134.827 464.13 134.639 464.853 134.639V144.639V154.639C467.36 154.639 469.941 154.037 472.324 152.632L467.244 144.018ZM464.853 144.639V134.639C465.577 134.639 466.554 134.827 467.518 135.393L462.457 144.018L457.395 152.642C459.771 154.037 462.346 154.639 464.853 154.639V144.639ZM462.457 144.018L467.566 135.421C468.569 136.018 469.251 136.837 469.631 137.556L460.786 142.223L451.942 146.89C453.143 149.167 454.939 151.183 457.348 152.614L462.457 144.018ZM460.786 142.223L469.654 137.601C470.148 138.548 470.175 139.273 470.175 139.409H460.175H450.175C450.175 141.733 450.61 144.333 451.918 146.845L460.786 142.223ZM460.175 139.409H470.175C470.175 139.534 470.151 140.269 469.646 141.232L460.786 136.595L451.927 131.958C450.607 134.479 450.175 137.09 450.175 139.409H460.175ZM460.786 136.595L469.639 141.246C469.26 141.968 468.568 142.806 467.536 143.415L462.457 134.8L457.378 126.186C454.94 127.623 453.135 129.658 451.934 131.944L460.786 136.595ZM462.457 134.8L467.518 143.425C466.554 143.991 465.577 144.179 464.853 144.179V134.179V124.179C462.346 124.179 459.771 124.782 457.395 126.176L462.457 134.8ZM464.853 134.179V144.179C464.13 144.179 463.143 143.991 462.165 143.415L467.244 134.8L472.324 126.186C469.941 124.781 467.36 124.179 464.853 124.179V134.179ZM467.244 134.8L462.183 143.425C461.144 142.815 460.437 141.965 460.047 141.217L468.915 136.595L477.783 131.973C476.577 129.66 474.757 127.615 472.306 126.176L467.244 134.8ZM468.915 136.595L460.071 141.262C459.558 140.291 459.531 139.546 459.531 139.409H469.531H479.531C479.531 137.078 479.093 134.457 477.759 131.928L468.915 136.595ZM467.677 139.409H477.677C477.677 137.648 477.408 135.488 476.412 133.304L467.314 137.455L458.216 141.606C457.704 140.483 457.677 139.626 457.677 139.409H467.677ZM467.314 137.455L476.443 133.373C475.539 131.352 474.029 129.31 471.714 127.827L466.32 136.247L460.925 144.667C459.459 143.728 458.612 142.491 458.185 141.538L467.314 137.455ZM466.32 136.247L471.76 127.857C469.564 126.432 467.147 125.835 464.853 125.835V135.835V145.835C463.666 145.835 462.227 145.512 460.879 144.638L466.32 136.247ZM464.853 135.835V125.835C462.559 125.835 460.143 126.432 457.946 127.857L463.386 136.247L468.827 144.638C467.479 145.512 466.04 145.835 464.853 145.835V135.835ZM463.386 136.247L457.992 127.827C455.691 129.301 454.186 131.326 453.28 133.326L462.387 137.455L471.495 141.585C471.072 142.517 470.234 143.737 468.781 144.667L463.386 136.247ZM462.387 137.455L453.268 133.352C452.292 135.521 452.029 137.663 452.029 139.409H462.029H472.029C472.029 139.61 472.006 140.45 471.506 141.559L462.387 137.455ZM462.029 139.409H452.029C452.029 141.158 452.293 143.29 453.258 145.45L462.387 141.368L471.516 137.285C472.005 138.378 472.029 139.205 472.029 139.409H462.029ZM462.387 141.368L453.289 145.519C454.198 147.511 455.691 149.504 457.946 150.966L463.386 142.576L468.827 134.186C470.233 135.097 471.06 136.285 471.485 137.217L462.387 141.368ZM463.386 142.576L457.992 150.996C460.184 152.4 462.583 152.984 464.853 152.984V142.984V132.984C466.016 132.984 467.438 133.295 468.781 134.156L463.386 142.576ZM464.853 142.984V152.984C467.123 152.984 469.523 152.4 471.714 150.996L466.32 142.576L460.925 134.156C462.268 133.295 463.69 132.984 464.853 132.984V142.984ZM466.32 142.576L471.76 150.966C474.029 149.496 475.527 147.485 476.433 145.472L467.314 141.368L458.195 137.264C458.624 136.311 459.459 135.106 460.879 134.186L466.32 142.576ZM467.314 141.368L476.422 145.497C477.407 143.324 477.677 141.174 477.677 139.409H467.677H457.677C457.677 139.189 457.705 138.345 458.207 137.238L467.314 141.368ZM480.342 134.318H490.342V124.318H480.342V134.318ZM480.342 144.5V154.5H490.342V144.5H480.342ZM478.702 144.5L470.478 150.189L473.46 154.5H478.702V144.5ZM473.904 137.565L482.128 131.876L479.146 127.565H473.904V137.565ZM473.82 137.565V127.565H463.82V137.565H473.82ZM473.82 144.5V154.5H483.82V144.5H473.82ZM471.975 144.5H461.975V154.5H471.975V144.5ZM471.975 134.318V124.318H461.975V134.318H471.975ZM473.626 134.318L481.854 128.636L478.873 124.318H473.626V134.318ZM478.418 141.259L470.19 146.941L473.171 151.259H478.418V141.259ZM478.508 141.259V151.259H488.508V141.259H478.508ZM478.508 134.318V124.318H468.508V134.318H478.508ZM480.342 134.318H470.342V144.5H480.342H490.342V134.318H480.342ZM480.342 144.5V134.5H478.702V144.5V154.5H480.342V144.5ZM478.702 144.5L486.926 138.811L482.128 131.876L473.904 137.565L465.68 143.254L470.478 150.189L478.702 144.5ZM473.904 137.565V127.565H473.82V137.565V147.565H473.904V137.565ZM473.82 137.565H463.82V144.5H473.82H483.82V137.565H473.82ZM473.82 144.5V134.5H471.975V144.5V154.5H473.82V144.5ZM471.975 144.5H481.975V134.318H471.975H461.975V144.5H471.975ZM471.975 134.318V144.318H473.626V134.318V124.318H471.975V134.318ZM473.626 134.318L465.397 140L470.19 146.941L478.418 141.259L486.647 135.576L481.854 128.636L473.626 134.318ZM478.418 141.259V151.259H478.508V141.259V131.259H478.418V141.259ZM478.508 141.259H488.508V134.318H478.508H468.508V141.259H478.508ZM478.508 134.318V144.318H480.342V134.318V124.318H478.508V134.318ZM491.419 134.318H501.419V124.318H491.419V134.318ZM491.419 144.5V154.5H501.419V144.5H491.419ZM489.779 144.5L481.555 150.189L484.537 154.5H489.779V144.5ZM484.981 137.565L493.205 131.876L490.223 127.565H484.981V137.565ZM484.897 137.565V127.565H474.897V137.565H484.897ZM484.897 144.5V154.5H494.897V144.5H484.897ZM483.052 144.5H473.052V154.5H483.052V144.5ZM483.052 134.318V124.318H473.052V134.318H483.052ZM484.703 134.318L492.931 128.636L489.95 124.318H484.703V134.318ZM489.495 141.259L481.267 146.941L484.248 151.259H489.495V141.259ZM489.585 141.259V151.259H499.585V141.259H489.585ZM489.585 134.318V124.318H479.585V134.318H489.585ZM491.419 134.318H481.419V144.5H491.419H501.419V134.318H491.419ZM491.419 144.5V134.5H489.779V144.5V154.5H491.419V144.5ZM489.779 144.5L498.003 138.811L493.205 131.876L484.981 137.565L476.757 143.254L481.555 150.189L489.779 144.5ZM484.981 137.565V127.565H484.897V137.565V147.565H484.981V137.565ZM484.897 137.565H474.897V144.5H484.897H494.897V137.565H484.897ZM484.897 144.5V134.5H483.052V144.5V154.5H484.897V144.5ZM483.052 144.5H493.052V134.318H483.052H473.052V144.5H483.052ZM483.052 134.318V144.318H484.703V134.318V124.318H483.052V134.318ZM484.703 134.318L476.474 140L481.267 146.941L489.495 141.259L497.724 135.576L492.931 128.636L484.703 134.318ZM489.495 141.259V151.259H489.585V141.259V131.259H489.495V141.259ZM489.585 141.259H499.585V134.318H489.585H479.585V141.259H489.585ZM489.585 134.318V144.318H491.419V134.318V124.318H489.585V134.318ZM494.129 144.5H484.129V154.5H494.129V144.5ZM494.129 134.318V124.318H484.129V134.318H494.129ZM500.751 134.318H510.751V124.318H500.751V134.318ZM500.751 135.864V145.864H510.751V135.864H500.751ZM495.974 135.864V125.864H485.974V135.864H495.974ZM495.974 138.629H485.974V148.629H495.974V138.629ZM500.408 138.629H510.408V128.629H500.408V138.629ZM500.408 140.175V150.175H510.408V140.175H500.408ZM495.974 140.175V130.175H485.974V140.175H495.974ZM495.974 142.954H485.974V152.954H495.974V142.954ZM500.791 142.954H510.791V132.954H500.791V142.954ZM500.791 144.5V154.5H510.791V144.5H500.791ZM494.129 144.5H504.129V134.318H494.129H484.129V144.5H494.129ZM494.129 134.318V144.318H500.751V134.318V124.318H494.129V134.318ZM500.751 134.318H490.751V135.864H500.751H510.751V134.318H500.751ZM500.751 135.864V125.864H495.974V135.864V145.864H500.751V135.864ZM495.974 135.864H485.974V138.629H495.974H505.974V135.864H495.974ZM495.974 138.629V148.629H500.408V138.629V128.629H495.974V138.629ZM500.408 138.629H490.408V140.175H500.408H510.408V138.629H500.408ZM500.408 140.175V130.175H495.974V140.175V150.175H500.408V140.175ZM495.974 140.175H485.974V142.954H495.974H505.974V140.175H495.974ZM495.974 142.954V152.954H500.791V142.954V132.954H495.974V142.954ZM500.791 142.954H490.791V144.5H500.791H510.791V142.954H500.791ZM500.791 144.5V134.5H494.129V144.5V154.5H500.791V144.5ZM512.048 137.754V147.754H523.483L521.959 136.421L512.048 137.754ZM510.189 137.754L500.337 139.467L501.778 147.754H510.189V137.754ZM509.895 136.943L501.31 142.071L501.326 142.097L501.342 142.124L509.895 136.943ZM509.364 136.337L515.52 128.456L515.52 128.456L509.364 136.337ZM508.638 135.964L505.581 145.485L505.651 145.508L505.721 145.529L508.638 135.964ZM506.296 136.252L511.707 144.662L511.73 144.647L511.753 144.632L506.296 136.252ZM505.292 137.465L514.39 141.616L514.394 141.605L514.399 141.595L505.292 137.465ZM505.292 141.378L496.184 145.507L496.2 145.542L496.216 145.576L505.292 141.378ZM506.296 142.581L500.902 151.001L500.94 151.026L500.978 151.05L506.296 142.581ZM508.618 142.864L511.491 152.443L511.529 152.431L511.567 152.42L508.618 142.864ZM509.339 142.501L503.398 134.457L503.368 134.479L503.339 134.501L509.339 142.501ZM509.881 141.915L501.469 136.507L501.441 136.55L501.414 136.593L509.881 141.915ZM510.189 141.119L510.242 131.119L501.909 131.075L500.363 139.263L510.189 141.119ZM512.048 141.129L521.946 142.553L523.581 131.191L512.102 131.129L512.048 141.129ZM511.596 142.491L502.822 137.693L502.808 137.72L502.793 137.746L511.596 142.491ZM510.696 143.615L517.243 151.174L517.262 151.158L517.281 151.141L510.696 143.615ZM509.393 144.371L512.781 153.78L512.808 153.77L512.836 153.76L509.393 144.371ZM505.341 144.018L510.421 135.404L505.341 144.018ZM503.681 142.223L494.798 146.815L503.681 142.223ZM503.686 136.595L512.546 141.232L512.55 141.225L512.554 141.217L503.686 136.595ZM505.351 134.8L500.272 126.186L500.272 126.186L505.351 134.8ZM509.319 134.418L512.423 124.912L512.423 124.912L509.319 134.418ZM510.621 135.119L504.333 142.894L504.354 142.911L504.374 142.927L510.621 135.119ZM511.561 136.242L502.807 141.076L502.829 141.115L502.85 141.154L511.561 136.242ZM512.048 137.754V127.754H510.189V137.754V147.754H512.048V137.754ZM510.189 137.754L520.041 136.04C519.801 134.661 519.312 133.188 518.449 131.763L509.895 136.943L501.342 142.124C500.764 141.169 500.47 140.236 500.337 139.467L510.189 137.754ZM509.895 136.943L518.481 131.816C517.727 130.553 516.736 129.407 515.52 128.456L509.364 136.337L503.207 144.217C502.415 143.598 501.779 142.856 501.31 142.071L509.895 136.943ZM509.364 136.337L515.52 128.456C514.287 127.494 512.934 126.819 511.554 126.398L508.638 135.964L505.721 145.529C504.885 145.274 504.015 144.848 503.207 144.217L509.364 136.337ZM508.638 135.964L511.694 126.442C510.34 126.008 509.009 125.835 507.768 125.835V135.835V145.835C507.15 145.835 506.399 145.748 505.581 145.485L508.638 135.964ZM507.768 135.835V125.835C505.448 125.835 503.028 126.447 500.839 127.872L506.296 136.252L511.753 144.632C510.419 145.501 508.98 145.835 507.768 145.835V135.835ZM506.296 136.252L500.885 127.842C498.604 129.31 497.097 131.323 496.184 133.336L505.292 137.465L514.399 141.595C513.971 142.54 513.133 143.744 511.707 144.662L506.296 136.252ZM505.292 137.465L496.194 133.314C495.202 135.488 494.929 137.64 494.929 139.409H504.929H514.929C514.929 139.647 514.898 140.503 514.39 141.616L505.292 137.465ZM504.929 139.409H494.929C494.929 141.166 495.194 143.324 496.184 145.507L505.292 141.378L514.399 137.248C514.905 138.365 514.929 139.21 514.929 139.409H504.929ZM505.292 141.378L496.216 145.576C497.13 147.554 498.63 149.546 500.902 151.001L506.296 142.581L511.69 134.161C513.114 135.072 513.944 136.263 514.368 137.18L505.292 141.378ZM506.296 142.581L500.978 151.05C503.141 152.408 505.507 152.984 507.763 152.984V142.984V132.984C508.918 132.984 510.306 133.291 511.614 134.112L506.296 142.581ZM507.763 142.984V152.984C508.943 152.984 510.205 152.829 511.491 152.443L508.618 142.864L505.744 133.286C506.501 133.059 507.192 132.984 507.763 132.984V142.984ZM508.618 142.864L511.567 152.42C512.868 152.018 514.153 151.391 515.339 150.501L509.339 142.501L503.339 134.501C504.1 133.93 504.904 133.545 505.669 133.309L508.618 142.864ZM509.339 142.501L515.279 150.546C516.523 149.627 517.552 148.501 518.347 147.236L509.881 141.915L501.414 136.593C501.917 135.793 502.586 135.057 503.398 134.457L509.339 142.501ZM509.881 141.915L518.292 147.322C519.204 145.904 519.744 144.41 520.015 142.975L510.189 141.119L500.363 139.263C500.521 138.425 500.856 137.461 501.469 136.507L509.881 141.915ZM510.189 141.119L510.135 151.119L511.995 151.129L512.048 141.129L512.102 131.129L510.242 131.119L510.189 141.119ZM512.048 141.129L502.15 139.706C502.249 139.02 502.474 138.329 502.822 137.693L511.596 142.491L520.369 147.29C521.181 145.805 521.708 144.206 521.946 142.553L512.048 141.129ZM511.596 142.491L502.793 137.746C503.145 137.094 503.604 136.533 504.111 136.089L510.696 143.615L517.281 151.141C518.53 150.048 519.589 148.738 520.398 147.237L511.596 142.491ZM510.696 143.615L504.149 136.056C504.763 135.525 505.4 135.184 505.951 134.982L509.393 144.371L512.836 153.76C514.381 153.193 515.887 152.349 517.243 151.174L510.696 143.615ZM509.393 144.371L506.006 134.962C506.743 134.697 507.358 134.639 507.738 134.639V144.639V154.639C509.331 154.639 511.049 154.403 512.781 153.78L509.393 144.371ZM507.738 144.639V134.639C508.451 134.639 509.437 134.824 510.421 135.404L505.341 144.018L500.262 152.632C502.651 154.04 505.235 154.639 507.738 154.639V144.639ZM505.341 144.018L510.421 135.404C511.468 136.021 512.176 136.879 512.564 137.631L503.681 142.223L494.798 146.815C495.995 149.131 497.809 151.186 500.262 152.632L505.341 144.018ZM503.681 142.223L512.564 137.631C513.05 138.571 513.074 139.285 513.074 139.409H503.074H493.074C493.074 141.721 493.503 144.311 494.798 146.815L503.681 142.223ZM503.074 139.409H513.074C513.074 139.534 513.05 140.269 512.546 141.232L503.686 136.595L494.826 131.958C493.506 134.479 493.074 137.09 493.074 139.409H503.074ZM503.686 136.595L512.554 141.217C512.17 141.953 511.47 142.801 510.431 143.415L505.351 134.8L500.272 126.186C497.827 127.628 496.017 129.672 494.818 131.973L503.686 136.595ZM505.351 134.8L510.431 143.415C509.459 143.987 508.472 144.179 507.738 144.179V134.179V124.179C505.227 124.179 502.649 124.785 500.272 126.186L505.351 134.8ZM507.738 134.179V144.179C507.361 144.179 506.83 144.124 506.215 143.924L509.319 134.418L512.423 124.912C510.833 124.393 509.248 124.179 507.738 124.179V134.179ZM509.319 134.418L506.215 143.924C505.598 143.722 504.942 143.386 504.333 142.894L510.621 135.119L516.909 127.343C515.538 126.234 514.014 125.431 512.423 124.912L509.319 134.418ZM510.621 135.119L504.374 142.927C503.693 142.382 503.169 141.732 502.807 141.076L511.561 136.242L520.315 131.408C519.462 129.864 518.312 128.465 516.868 127.31L510.621 135.119ZM511.561 136.242L502.85 141.154C502.4 140.354 502.209 139.616 502.137 139.087L512.048 137.754L521.959 136.421C521.735 134.758 521.22 133.012 520.271 131.33L511.561 136.242ZM513.99 135.864H503.99V145.864H513.99V135.864ZM513.99 134.318V124.318H503.99V134.318H513.99ZM522.113 134.318H532.113V124.318H522.113V134.318ZM522.113 135.864V145.864H532.113V135.864H522.113ZM518.966 135.864V125.864H508.966V135.864H518.966ZM518.966 144.5V154.5H528.966V144.5H518.966ZM517.137 144.5H507.137V154.5H517.137V144.5ZM517.137 135.864H527.137V125.864H517.137V135.864ZM513.99 135.864H523.99V134.318H513.99H503.99V135.864H513.99ZM513.99 134.318V144.318H522.113V134.318V124.318H513.99V134.318ZM522.113 134.318H512.113V135.864H522.113H532.113V134.318H522.113ZM522.113 135.864V125.864H518.966V135.864V145.864H522.113V135.864ZM518.966 135.864H508.966V144.5H518.966H528.966V135.864H518.966ZM518.966 144.5V134.5H517.137V144.5V154.5H518.966V144.5ZM517.137 144.5H527.137V135.864H517.137H507.137V144.5H517.137ZM517.137 135.864V125.864H513.99V135.864V145.864H517.137V135.864Z" fill="#121416" mask="url(#path-19-outside-1_23_635)"/>
<rect x="701.5" y="10.5" width="259" height="258" rx="9.5" stroke="#C4B5FD" stroke-dasharray="4 4"/>
<rect x="711.5" y="20.5" width="239" height="238" rx="7.5" fill="#2E1065"/>
<rect x="711.5" y="20.5" width="239" height="238" rx="7.5" stroke="#C4B5FD"/>
<g clip-path="url(#clip3_23_635)">
<path d="M826.764 107.588C828.135 106.653 829.901 107.021 829.606 107.302C829.042 107.839 829.792 107.68 829.873 108.671C829.932 109.401 829.694 109.803 829.489 110.031C829.061 110.087 828.541 110.192 827.914 110.395C827.543 110.516 827.221 110.65 826.939 110.785C826.864 110.736 826.783 110.677 826.688 110.594C825.72 109.755 825.753 108.277 826.764 107.588ZM834.954 113.364C835.203 113.171 836.333 112.808 837.38 112.684C837.93 112.619 838.713 112.582 838.88 112.675C839.212 112.858 839.212 113.425 838.985 113.949C838.654 114.71 838.186 115.551 837.656 115.62C836.792 115.734 835.974 115.266 835.041 114.569C834.708 114.319 834.503 113.712 834.954 113.364ZM836.531 105.955C837.807 106.549 837.64 107.679 837.676 108.342C837.685 108.533 837.682 108.661 837.666 108.75C837.489 108.654 837.21 108.584 836.767 108.603C836.638 108.609 836.512 108.624 836.39 108.643C835.919 108.391 835.637 107.897 835.38 107.373C835.356 107.324 835.338 107.281 835.32 107.239C835.313 107.219 835.305 107.199 835.297 107.181C835.294 107.172 835.292 107.164 835.289 107.156C835.148 106.707 835.242 106.618 835.302 106.48C835.364 106.338 835.594 106.222 835.253 106.105C835.224 106.094 835.188 106.087 835.147 106.08C835.372 105.8 836.048 105.732 836.531 105.955ZM829.573 119.463C828.198 118.58 826.776 117.314 826.153 116.613C826.049 116.535 826.066 116.185 826.066 116.185C826.627 116.622 828.956 118.286 831.419 119.046C832.288 119.314 833.621 119.415 834.778 118.76C835.661 118.259 836.725 117.386 837.36 116.486L837.476 116.688C837.472 116.821 837.18 117.473 837.031 117.735C837.3 117.89 837.5 117.932 837.798 118.013L839.838 117.695C840.57 116.513 841.094 114.606 840.535 112.791C840.216 111.75 838.552 109.678 838.432 109.563C838.014 109.162 838.502 107.609 837.674 105.916C836.798 104.125 834.516 102.257 833.525 101.444C833.817 101.658 835.616 102.383 836.454 103.395C836.533 103.291 836.565 102.747 836.638 102.609C835.917 101.666 835.862 99.9882 835.862 99.5396C835.862 98.7172 835.444 97.785 835.444 97.785C835.444 97.785 836.164 98.3551 836.35 99.3371C836.57 100.5 837.039 101.416 837.659 102.191C838.832 103.653 839.892 104.403 840.427 103.863C841.068 103.214 839.777 100.312 838.128 98.6918C836.203 96.8012 835.7 97.0448 834.57 97.4479C833.669 97.7693 833.182 100.328 830.833 100.277C830.436 100.231 829.411 100.206 828.904 100.21C829.168 99.8417 829.394 99.5571 829.394 99.5571C829.394 99.5571 828.607 99.8741 827.935 100.276L827.883 100.198C828.11 99.721 828.353 99.4193 828.353 99.4193C828.353 99.4193 827.724 99.7975 827.149 100.251C827.254 99.6812 827.65 99.3205 827.65 99.3205C827.65 99.3205 826.854 99.4639 825.841 100.578C824.69 100.893 824.413 101.1 823.496 101.506C822.004 101.181 821.301 100.656 820.63 99.6891C820.119 98.9506 819.21 98.8387 818.282 99.2204C816.927 99.7801 815.215 100.547 815.215 100.547C815.215 100.547 815.773 100.524 816.355 100.549C815.558 100.85 814.793 101.265 814.793 101.265C814.793 101.265 815.166 101.252 815.627 101.26C815.309 101.524 815.133 101.65 814.83 101.851C814.102 102.38 813.511 102.991 813.511 102.991C813.511 102.991 814.005 102.766 814.45 102.64C814.139 103.351 813.524 103.875 813.637 104.746C813.746 105.541 814.722 107.179 815.982 108.185C816.091 108.272 817.812 109.865 819.111 109.211C820.409 108.558 820.921 107.976 821.134 107.083C821.385 106.059 821.242 105.283 820.706 103.059C820.529 102.325 820.069 100.813 819.847 100.09L819.896 100.054C820.321 100.95 821.407 103.312 821.845 104.898C822.528 107.371 822.315 108.626 822.002 109.086C821.059 110.473 818.643 110.657 817.543 109.888C817.375 112.551 817.97 113.724 818.172 114.314C818.072 114.993 818.511 116.254 818.511 116.254C818.511 116.254 818.561 115.681 818.762 115.379C818.816 116.053 819.156 116.853 819.156 116.853C819.156 116.853 819.135 116.359 819.29 115.932C819.507 116.3 819.667 116.388 819.873 116.664C820.079 117.385 820.492 117.911 820.492 117.911C820.492 117.911 820.425 117.524 820.462 117.123C821.469 118.091 821.643 119.503 821.743 120.589C822.025 123.573 817.037 125.947 816.07 127.814C815.338 128.919 814.899 130.669 816.14 131.7C819.139 134.191 817.987 134.877 819.488 135.972C821.548 137.473 824.125 136.8 825.002 135.579C826.223 133.878 825.91 132.273 825.456 130.771C825.101 129.597 824.138 127.647 822.946 126.892C821.728 126.12 820.543 125.976 819.54 126.079L819.633 125.973C821.076 125.686 822.585 125.843 823.676 126.547C824.916 127.344 826.05 128.71 826.643 130.804C827.315 130.709 827.41 130.665 828.026 130.578L826.64 119.789L829.573 119.463ZM830.374 132.987L830.215 131.49L833.332 126.736L836.87 127.77L839.913 122.688L843.56 125.094L846.331 119.282L847.316 129.866L830.374 132.987ZM847.353 117.115L836.216 119.133C835.94 119.489 835.258 120.113 834.93 120.276C833.524 120.984 832.573 120.779 831.752 120.566C831.223 120.432 830.917 120.357 830.479 120.16L827.761 120.533L829.411 134.3L848.489 130.86L847.353 117.115Z" fill="white"/>
</g>
<path d="M771.875 146.663H773.958L776.449 151.168H776.549L779.039 146.663H781.122L777.419 153.047V156.845H775.579V153.047L771.875 146.663ZM791.652 151.754C791.652 152.851 791.447 153.791 791.036 154.573C790.628 155.352 790.072 155.949 789.366 156.363C788.663 156.777 787.866 156.984 786.974 156.984C786.083 156.984 785.284 156.777 784.578 156.363C783.875 155.945 783.318 155.347 782.907 154.568C782.5 153.786 782.296 152.848 782.296 151.754C782.296 150.657 782.5 149.719 782.907 148.94C783.318 148.158 783.875 147.56 784.578 147.145C785.284 146.731 786.083 146.524 786.974 146.524C787.866 146.524 788.663 146.731 789.366 147.145C790.072 147.56 790.628 148.158 791.036 148.94C791.447 149.719 791.652 150.657 791.652 151.754ZM789.798 151.754C789.798 150.982 789.677 150.331 789.435 149.8C789.197 149.267 788.865 148.864 788.441 148.592C788.017 148.317 787.528 148.18 786.974 148.18C786.421 148.18 785.932 148.317 785.508 148.592C785.083 148.864 784.75 149.267 784.508 149.8C784.27 150.331 784.15 150.982 784.15 151.754C784.15 152.526 784.27 153.179 784.508 153.713C784.75 154.243 785.083 154.646 785.508 154.921C785.932 155.193 786.421 155.329 786.974 155.329C787.528 155.329 788.017 155.193 788.441 154.921C788.865 154.646 789.197 154.243 789.435 153.713C789.677 153.179 789.798 152.526 789.798 151.754ZM800.515 146.663H802.359V153.315C802.359 154.044 802.187 154.686 801.842 155.239C801.501 155.793 801.02 156.225 800.4 156.537C799.78 156.845 799.056 156.999 798.228 156.999C797.396 156.999 796.67 156.845 796.05 156.537C795.43 156.225 794.95 155.793 794.608 155.239C794.267 154.686 794.096 154.044 794.096 153.315V146.663H795.941V153.161C795.941 153.585 796.034 153.963 796.219 154.295C796.408 154.626 796.673 154.886 797.015 155.075C797.356 155.261 797.76 155.354 798.228 155.354C798.695 155.354 799.099 155.261 799.441 155.075C799.785 154.886 800.051 154.626 800.236 154.295C800.422 153.963 800.515 153.585 800.515 153.161V146.663ZM805.064 156.845V146.663H808.882C809.664 146.663 810.32 146.799 810.851 147.071C811.384 147.343 811.787 147.724 812.059 148.214C812.334 148.702 812.472 149.27 812.472 149.92C812.472 150.573 812.332 151.139 812.054 151.62C811.779 152.097 811.373 152.467 810.836 152.729C810.299 152.987 809.639 153.116 808.857 153.116H806.138V151.585H808.609C809.066 151.585 809.44 151.522 809.732 151.396C810.024 151.267 810.239 151.08 810.378 150.834C810.521 150.586 810.592 150.281 810.592 149.92C810.592 149.558 810.521 149.25 810.378 148.995C810.236 148.736 810.019 148.541 809.727 148.408C809.436 148.272 809.059 148.204 808.599 148.204H806.908V156.845H805.064ZM810.324 152.231L812.844 156.845H810.786L808.31 152.231H810.324ZM822.492 156.845H819.042V146.663H822.562C823.573 146.663 824.441 146.867 825.167 147.275C825.896 147.679 826.456 148.261 826.847 149.02C827.238 149.779 827.434 150.687 827.434 151.744C827.434 152.805 827.237 153.716 826.842 154.479C826.451 155.241 825.886 155.826 825.147 156.234C824.411 156.641 823.526 156.845 822.492 156.845ZM820.886 155.249H822.403C823.112 155.249 823.704 155.12 824.178 154.861C824.652 154.6 825.008 154.21 825.247 153.693C825.485 153.173 825.604 152.523 825.604 151.744C825.604 150.965 825.485 150.319 825.247 149.805C825.008 149.288 824.655 148.902 824.188 148.647C823.724 148.388 823.147 148.259 822.457 148.259H820.886V155.249ZM830.647 156.845H828.678L832.263 146.663H834.54L838.129 156.845H836.161L833.441 148.751H833.362L830.647 156.845ZM830.712 152.853H836.081V154.334H830.712V152.853ZM838.493 148.209V146.663H846.616V148.209H843.469V156.845H841.64V148.209H838.493ZM848.959 156.845H846.991L850.575 146.663H852.852L856.441 156.845H854.473L851.753 148.751H851.674L848.959 156.845ZM849.024 152.853H854.393V154.334H849.024V152.853ZM861.933 156.845H858.483V146.663H862.002C863.013 146.663 863.882 146.867 864.608 147.275C865.337 147.679 865.897 148.261 866.288 149.02C866.679 149.779 866.875 150.687 866.875 151.744C866.875 152.805 866.677 153.716 866.283 154.479C865.892 155.241 865.327 155.826 864.588 156.234C863.852 156.641 862.967 156.845 861.933 156.845ZM860.327 155.249H861.843C862.553 155.249 863.144 155.12 863.618 154.861C864.092 154.6 864.449 154.21 864.687 153.693C864.926 153.173 865.045 152.523 865.045 151.744C865.045 150.965 864.926 150.319 864.687 149.805C864.449 149.288 864.096 148.902 863.628 148.647C863.164 148.388 862.587 148.259 861.898 148.259H860.327V155.249ZM878.425 151.754C878.425 152.851 878.22 153.791 877.809 154.573C877.401 155.352 876.844 155.949 876.138 156.363C875.436 156.777 874.638 156.984 873.747 156.984C872.855 156.984 872.057 156.777 871.351 156.363C870.648 155.945 870.091 155.347 869.68 154.568C869.272 153.786 869.069 152.848 869.069 151.754C869.069 150.657 869.272 149.719 869.68 148.94C870.091 148.158 870.648 147.56 871.351 147.145C872.057 146.731 872.855 146.524 873.747 146.524C874.638 146.524 875.436 146.731 876.138 147.145C876.844 147.56 877.401 148.158 877.809 148.94C878.22 149.719 878.425 150.657 878.425 151.754ZM876.571 151.754C876.571 150.982 876.45 150.331 876.208 149.8C875.969 149.267 875.638 148.864 875.213 148.592C874.789 148.317 874.3 148.18 873.747 148.18C873.193 148.18 872.704 148.317 872.28 148.592C871.856 148.864 871.523 149.267 871.281 149.8C871.042 150.331 870.923 150.982 870.923 151.754C870.923 152.526 871.042 153.179 871.281 153.713C871.523 154.243 871.856 154.646 872.28 154.921C872.704 155.193 873.193 155.329 873.747 155.329C874.3 155.329 874.789 155.193 875.213 154.921C875.638 154.646 875.969 154.243 876.208 153.713C876.45 153.179 876.571 152.526 876.571 151.754ZM887.69 149.915C887.607 149.646 887.493 149.406 887.347 149.194C887.204 148.978 887.032 148.794 886.83 148.642C886.631 148.489 886.402 148.375 886.144 148.299C885.885 148.219 885.604 148.18 885.299 148.18C884.752 148.18 884.265 148.317 883.837 148.592C883.409 148.867 883.073 149.272 882.828 149.805C882.586 150.336 882.465 150.982 882.465 151.744C882.465 152.513 882.586 153.164 882.828 153.698C883.07 154.232 883.406 154.638 883.837 154.916C884.268 155.191 884.768 155.329 885.338 155.329C885.855 155.329 886.303 155.229 886.681 155.03C887.062 154.832 887.355 154.55 887.561 154.185C887.766 153.817 887.869 153.386 887.869 152.893L888.287 152.957H885.522V151.516H889.654V152.739C889.654 153.61 889.468 154.364 889.097 155.001C888.726 155.637 888.215 156.127 887.566 156.472C886.916 156.814 886.17 156.984 885.328 156.984C884.39 156.984 883.567 156.774 882.858 156.353C882.152 155.929 881.6 155.327 881.202 154.548C880.808 153.766 880.61 152.838 880.61 151.764C880.61 150.942 880.726 150.208 880.958 149.562C881.194 148.915 881.522 148.367 881.943 147.916C882.364 147.462 882.858 147.117 883.424 146.882C883.991 146.643 884.608 146.524 885.274 146.524C885.837 146.524 886.363 146.607 886.85 146.773C887.337 146.935 887.769 147.167 888.147 147.469C888.528 147.77 888.842 148.128 889.087 148.543C889.332 148.957 889.493 149.414 889.569 149.915H887.69ZM784.511 176.845H782.543L786.127 166.663H788.404L791.994 176.845H790.025L787.305 168.751H787.226L784.511 176.845ZM784.576 172.853H789.945V174.334H784.576V172.853ZM802.271 170.099H800.412C800.359 169.794 800.261 169.524 800.119 169.288C799.976 169.05 799.799 168.847 799.587 168.682C799.375 168.516 799.133 168.392 798.861 168.309C798.592 168.223 798.302 168.18 797.991 168.18C797.437 168.18 796.947 168.319 796.519 168.597C796.092 168.872 795.757 169.277 795.515 169.81C795.273 170.341 795.152 170.989 795.152 171.754C795.152 172.533 795.273 173.189 795.515 173.723C795.76 174.253 796.095 174.654 796.519 174.926C796.947 175.194 797.436 175.329 797.986 175.329C798.291 175.329 798.576 175.289 798.841 175.209C799.109 175.127 799.35 175.006 799.562 174.846C799.777 174.687 799.958 174.492 800.104 174.26C800.253 174.028 800.356 173.763 800.412 173.464L802.271 173.474C802.202 173.958 802.051 174.412 801.819 174.837C801.59 175.261 801.29 175.635 800.919 175.96C800.548 176.282 800.114 176.534 799.617 176.716C799.119 176.895 798.568 176.984 797.961 176.984C797.066 176.984 796.267 176.777 795.565 176.363C794.862 175.949 794.309 175.35 793.904 174.568C793.5 173.786 793.298 172.848 793.298 171.754C793.298 170.657 793.502 169.719 793.909 168.94C794.317 168.158 794.872 167.56 795.575 167.145C796.277 166.731 797.073 166.524 797.961 166.524C798.528 166.524 799.055 166.604 799.542 166.763C800.029 166.922 800.463 167.155 800.845 167.464C801.226 167.769 801.539 168.143 801.784 168.587C802.033 169.028 802.195 169.532 802.271 170.099ZM813.376 170.099H811.516C811.463 169.794 811.366 169.524 811.223 169.288C811.08 169.05 810.903 168.847 810.691 168.682C810.479 168.516 810.237 168.392 809.965 168.309C809.697 168.223 809.407 168.18 809.095 168.18C808.542 168.18 808.051 168.319 807.624 168.597C807.196 168.872 806.861 169.277 806.619 169.81C806.377 170.341 806.256 170.989 806.256 171.754C806.256 172.533 806.377 173.189 806.619 173.723C806.865 174.253 807.199 174.654 807.624 174.926C808.051 175.194 808.54 175.329 809.09 175.329C809.395 175.329 809.68 175.289 809.945 175.209C810.214 175.127 810.454 175.006 810.666 174.846C810.882 174.687 811.062 174.492 811.208 174.26C811.357 174.028 811.46 173.763 811.516 173.464L813.376 173.474C813.306 173.958 813.155 174.412 812.923 174.837C812.695 175.261 812.395 175.635 812.023 175.96C811.652 176.282 811.218 176.534 810.721 176.716C810.224 176.895 809.672 176.984 809.065 176.984C808.17 176.984 807.372 176.777 806.669 176.363C805.966 175.949 805.413 175.35 805.009 174.568C804.604 173.786 804.402 172.848 804.402 171.754C804.402 170.657 804.606 169.719 805.013 168.94C805.421 168.158 805.976 167.56 806.679 167.145C807.382 166.731 808.177 166.524 809.065 166.524C809.632 166.524 810.159 166.604 810.646 166.763C811.134 166.922 811.568 167.155 811.949 167.464C812.33 167.769 812.643 168.143 812.888 168.587C813.137 169.028 813.299 169.532 813.376 170.099ZM824.863 171.754C824.863 172.851 824.657 173.791 824.246 174.573C823.839 175.352 823.282 175.949 822.576 176.363C821.873 176.777 821.076 176.984 820.185 176.984C819.293 176.984 818.494 176.777 817.788 176.363C817.086 175.945 816.529 175.347 816.118 174.568C815.71 173.786 815.506 172.848 815.506 171.754C815.506 170.657 815.71 169.719 816.118 168.94C816.529 168.158 817.086 167.56 817.788 167.145C818.494 166.731 819.293 166.524 820.185 166.524C821.076 166.524 821.873 166.731 822.576 167.145C823.282 167.56 823.839 168.158 824.246 168.94C824.657 169.719 824.863 170.657 824.863 171.754ZM823.008 171.754C823.008 170.982 822.887 170.331 822.645 169.8C822.407 169.267 822.075 168.864 821.651 168.592C821.227 168.317 820.738 168.18 820.185 168.18C819.631 168.18 819.142 168.317 818.718 168.592C818.294 168.864 817.961 169.267 817.719 169.8C817.48 170.331 817.361 170.982 817.361 171.754C817.361 172.526 817.48 173.179 817.719 173.713C817.961 174.243 818.294 174.646 818.718 174.921C819.142 175.193 819.631 175.329 820.185 175.329C820.738 175.329 821.227 175.193 821.651 174.921C822.075 174.646 822.407 174.243 822.645 173.713C822.887 173.179 823.008 172.526 823.008 171.754ZM833.725 166.663H835.569V173.315C835.569 174.044 835.397 174.686 835.052 175.239C834.711 175.793 834.23 176.225 833.611 176.537C832.991 176.845 832.267 176.999 831.438 176.999C830.606 176.999 829.88 176.845 829.26 176.537C828.641 176.225 828.16 175.793 827.819 175.239C827.477 174.686 827.307 174.044 827.307 173.315V166.663H829.151V173.161C829.151 173.585 829.244 173.963 829.429 174.295C829.618 174.626 829.884 174.886 830.225 175.075C830.566 175.261 830.971 175.354 831.438 175.354C831.905 175.354 832.31 175.261 832.651 175.075C832.996 174.886 833.261 174.626 833.447 174.295C833.632 173.963 833.725 173.585 833.725 173.161V166.663ZM846.641 166.663V176.845H845.001L840.203 169.91H840.119V176.845H838.274V166.663H839.925L844.717 173.604H844.807V166.663H846.641ZM848.904 168.209V166.663H857.027V168.209H853.88V176.845H852.051V168.209H848.904ZM859.661 171.754C859.661 170.511 859.825 169.369 860.153 168.329C860.485 167.285 860.977 166.32 861.63 165.435H863.325C863.073 165.763 862.838 166.166 862.619 166.643C862.401 167.117 862.21 167.638 862.048 168.204C861.888 168.768 861.763 169.353 861.67 169.959C861.58 170.566 861.536 171.164 861.536 171.754C861.536 172.54 861.613 173.335 861.769 174.141C861.928 174.946 862.142 175.693 862.411 176.383C862.682 177.069 862.987 177.631 863.325 178.068H861.63C860.977 177.183 860.485 176.22 860.153 175.18C859.825 174.136 859.661 172.994 859.661 171.754ZM871.036 169.462C870.99 169.028 870.795 168.69 870.45 168.448C870.108 168.206 869.664 168.085 869.117 168.085C868.733 168.085 868.403 168.143 868.128 168.259C867.853 168.375 867.643 168.533 867.497 168.731C867.351 168.93 867.276 169.157 867.273 169.413C867.273 169.625 867.321 169.809 867.417 169.964C867.517 170.12 867.651 170.253 867.82 170.362C867.989 170.468 868.176 170.558 868.382 170.631C868.587 170.703 868.794 170.765 869.003 170.815L869.958 171.053C870.342 171.143 870.712 171.264 871.066 171.416C871.424 171.569 871.744 171.761 872.026 171.993C872.311 172.225 872.536 172.505 872.702 172.833C872.868 173.161 872.951 173.546 872.951 173.986C872.951 174.583 872.798 175.108 872.493 175.562C872.188 176.013 871.747 176.366 871.171 176.621C870.597 176.873 869.903 176.999 869.088 176.999C868.295 176.999 867.608 176.877 867.024 176.631C866.444 176.386 865.99 176.028 865.662 175.557C865.337 175.087 865.162 174.513 865.135 173.837H866.95C866.976 174.192 867.086 174.487 867.278 174.722C867.47 174.958 867.72 175.133 868.029 175.249C868.34 175.365 868.688 175.423 869.073 175.423C869.474 175.423 869.825 175.364 870.127 175.244C870.432 175.122 870.67 174.953 870.843 174.737C871.015 174.518 871.103 174.263 871.106 173.971C871.103 173.706 871.025 173.488 870.872 173.315C870.72 173.14 870.506 172.994 870.231 172.878C869.959 172.758 869.641 172.652 869.277 172.56L868.118 172.261C867.28 172.046 866.617 171.719 866.13 171.282C865.646 170.841 865.404 170.256 865.404 169.527C865.404 168.927 865.566 168.402 865.891 167.951C866.219 167.5 866.665 167.15 867.228 166.902C867.792 166.65 868.43 166.524 869.142 166.524C869.865 166.524 870.498 166.65 871.041 166.902C871.588 167.15 872.018 167.497 872.329 167.941C872.641 168.382 872.801 168.889 872.811 169.462H871.036ZM878.427 171.754C878.427 172.994 878.261 174.136 877.93 175.18C877.602 176.22 877.111 177.183 876.458 178.068H874.763C875.018 177.74 875.253 177.339 875.469 176.865C875.688 176.391 875.877 175.871 876.036 175.304C876.198 174.737 876.324 174.15 876.413 173.544C876.506 172.937 876.553 172.341 876.553 171.754C876.553 170.969 876.473 170.173 876.314 169.368C876.158 168.562 875.945 167.815 875.673 167.126C875.404 166.436 875.101 165.873 874.763 165.435H876.458C877.111 166.32 877.602 167.285 877.93 168.329C878.261 169.369 878.427 170.511 878.427 171.754Z" fill="white"/>
<defs>
<clipPath id="clip0_23_635">
<rect width="55" height="27" fill="white" transform="translate(112.5 30)"/>
</clipPath>
<clipPath id="clip1_23_635">
<rect width="13.285" height="26.7776" fill="white" transform="translate(112.5 30.6112)"/>
</clipPath>
<clipPath id="clip2_23_635">
<rect width="35" height="40" fill="white" transform="translate(122 121)"/>
</clipPath>
<clipPath id="clip3_23_635">
<rect width="35" height="39.6901" fill="white" transform="translate(813.5 97.1549)"/>
</clipPath>
</defs>
</svg>
