<svg width="971" height="279" viewBox="0 0 971 279" fill="none" xmlns="http://www.w3.org/2000/svg">
<rect width="971" height="279" fill="#121416"/>
<rect x="10.5" y="10.5" width="259" height="258" rx="9.5" stroke="#6EE7B7" stroke-dasharray="4 4"/>
<rect x="20.5" y="20.5" width="239" height="238" rx="7.5" fill="#022C22"/>
<rect x="20.5" y="20.5" width="239" height="238" rx="7.5" stroke="#6EE7B7"/>
<g clip-path="url(#clip0_114_1289)">
<g clip-path="url(#clip1_114_1289)">
<rect x="119.143" y="50.7458" width="6.64251" height="6.64251" fill="#F5F5F5"/>
<rect x="112.5" y="30.8184" width="6.64251" height="6.64251" fill="#F5F5F5"/>
<rect x="119.143" y="37.4608" width="6.64251" height="6.64251" fill="#F5F5F5"/>
<rect x="112.5" y="44.1034" width="6.64251" height="6.64251" fill="#F5F5F5"/>
</g>
<path d="M160.064 46.4031V42.5323C160.064 40.8389 160.897 39.9922 162.564 39.9922H164.944C166.599 39.9922 167.427 40.8389 167.427 42.5323V46.4031C167.427 48.0965 166.599 48.9432 164.944 48.9432H162.564C160.897 48.9432 160.064 48.0965 160.064 46.4031ZM161.135 46.5759C161.135 47.5205 161.6 47.9928 162.53 47.9928H164.978C165.897 47.9928 166.356 47.5205 166.356 46.5759V42.3595C166.356 41.4264 165.897 40.9599 164.978 40.9599H162.53C161.6 40.9599 161.135 41.4264 161.135 42.3595V46.5759Z" fill="#FAFAFA"/>
<path d="M153.955 48.9432V40.9944C154.351 40.3263 155.071 39.9922 156.114 39.9922H157.781L158.359 40.4415V40.9599H156.165C155.644 40.9599 155.264 41.1039 155.026 41.3919V48.9432H153.955Z" fill="#FAFAFA"/>
<path d="M144.155 46.4031V42.5323C144.155 40.8389 144.989 39.9922 146.655 39.9922H148.866C150.521 39.9922 151.348 40.8389 151.348 42.5323V44.8997H145.227V46.5759C145.227 47.5205 145.691 47.9928 146.621 47.9928H151.008V48.4939L150.43 48.9432H146.655C144.989 48.9432 144.155 48.0965 144.155 46.4031ZM145.227 43.9839H150.277V42.3595C150.277 41.4264 149.818 40.9599 148.9 40.9599H146.621C145.691 40.9599 145.227 41.4264 145.227 42.3595V43.9839Z" fill="#FAFAFA"/>
<path d="M134.022 38.0741V37.02H143.171V38.0741H139.157V48.9432H138.035V38.0741H134.022Z" fill="#FAFAFA"/>
</g>
<circle cx="139.5" cy="79.5" r="12.5" fill="#FAFAFA"/>
<path d="M140.923 73.3636V85H138.815V75.4148H138.747L136.026 77.1534V75.2216L138.918 73.3636H140.923Z" fill="#064E3B"/>
<g clip-path="url(#clip2_114_1289)">
<path opacity="0.4" d="M129.5 131C129.5 133.652 130.554 136.196 132.429 138.071C134.304 139.946 136.848 141 139.5 141C142.152 141 144.696 139.946 146.571 138.071C148.446 136.196 149.5 133.652 149.5 131C149.5 128.348 148.446 125.804 146.571 123.929C144.696 122.054 142.152 121 139.5 121C136.848 121 134.304 122.054 132.429 123.929C130.554 125.804 129.5 128.348 129.5 131Z" fill="#FAFAFA"/>
<path d="M122 158.68C122 150.984 128.234 144.75 135.93 144.75H143.07C150.766 144.75 157 150.984 157 158.68C157 159.961 155.961 161 154.68 161H124.32C123.039 161 122 159.961 122 158.68Z" fill="#FAFAFA"/>
</g>
<line x1="139.5" y1="100" x2="139.5" y2="115" stroke="white"/>
<path d="M63.7578 232.438C62.888 232.438 62.138 232.648 61.5078 233.07C60.8828 233.492 60.4167 234.06 60.1094 234.773C59.8021 235.487 59.6484 236.307 59.6484 237.234C59.6484 237.927 59.7318 238.56 59.8984 239.133C60.0651 239.701 60.3151 240.201 60.6484 240.633C60.9818 241.06 61.4141 241.393 61.9453 241.633C62.4818 241.867 63.0964 241.984 63.7891 241.984C64.6797 241.984 65.6016 241.753 66.5547 241.289L66.7812 242.438C66.0052 242.927 64.9557 243.172 63.6328 243.172C62.763 243.172 61.9818 243.029 61.2891 242.742C60.6016 242.451 60.0312 242.042 59.5781 241.516C59.1302 240.984 58.7891 240.354 58.5547 239.625C58.3203 238.891 58.2031 238.076 58.2031 237.18C58.2031 236.315 58.3307 235.518 58.5859 234.789C58.8411 234.06 59.2005 233.435 59.6641 232.914C60.1328 232.388 60.7161 231.979 61.4141 231.688C62.112 231.396 62.888 231.25 63.7422 231.25C65.0391 231.25 66.1328 231.536 67.0234 232.109L66.4922 233.211C65.638 232.695 64.7266 232.438 63.7578 232.438ZM72.3672 234.352C72.6016 234.352 72.8151 234.367 73.0078 234.398L72.9609 235.602C72.7214 235.56 72.513 235.539 72.3359 235.539C71.6068 235.539 71.013 235.794 70.5547 236.305C70.1016 236.81 69.875 237.438 69.875 238.188V243H68.5703C68.5651 237.74 68.5625 234.883 68.5625 234.43H69.6484L69.7734 235.969C70.0703 235.484 70.4479 235.094 70.9062 234.797C71.3646 234.5 71.8516 234.352 72.3672 234.352ZM79.1328 236.016C78.7526 235.557 78.2292 235.328 77.5625 235.328C76.8958 235.328 76.3516 235.565 75.9297 236.039C75.5078 236.508 75.2604 237.151 75.1875 237.969H79.7109C79.7109 237.12 79.5182 236.469 79.1328 236.016ZM77.8203 243.18C76.5755 243.18 75.5938 242.784 74.875 241.992C74.1615 241.201 73.8047 240.117 73.8047 238.742C73.8047 237.414 74.151 236.339 74.8438 235.516C75.5365 234.688 76.4479 234.266 77.5781 234.25C78.6406 234.25 79.4818 234.615 80.1016 235.344C80.7266 236.068 81.0391 237.036 81.0391 238.25C81.0391 238.312 81.0365 238.427 81.0312 238.594C81.0312 238.76 81.0312 238.88 81.0312 238.953H75.1484C75.1641 239.927 75.4141 240.688 75.8984 241.234C76.388 241.776 77.0443 242.047 77.8672 242.047C78.7734 242.047 79.6823 241.807 80.5938 241.328L80.7969 242.383C79.9271 242.914 78.9349 243.18 77.8203 243.18ZM85.2344 242.125C85.8542 242.125 86.3984 241.956 86.8672 241.617C87.3411 241.273 87.6458 240.812 87.7812 240.234V238.789C87.7552 238.789 87.5964 238.802 87.3047 238.828C87.0182 238.854 86.8307 238.87 86.7422 238.875C85.612 238.974 84.8229 239.159 84.375 239.43C83.9323 239.701 83.7109 240.135 83.7109 240.734C83.7109 241.193 83.8464 241.539 84.1172 241.773C84.388 242.008 84.7604 242.125 85.2344 242.125ZM88.0703 243C87.9922 242.667 87.9167 242.307 87.8438 241.922C87.3698 242.396 86.9245 242.724 86.5078 242.906C86.0911 243.089 85.6016 243.18 85.0391 243.18C84.237 243.18 83.5911 242.971 83.1016 242.555C82.6172 242.133 82.375 241.529 82.375 240.742C82.375 239.867 82.7057 239.219 83.3672 238.797C84.0339 238.375 84.9922 238.112 86.2422 238.008C86.4141 237.992 86.6719 237.971 87.0156 237.945C87.3646 237.914 87.625 237.891 87.7969 237.875V237.117C87.7969 236.513 87.6562 236.065 87.375 235.773C87.0938 235.482 86.651 235.336 86.0469 235.336C85.2031 235.336 84.3516 235.544 83.4922 235.961C83.4661 235.898 83.3984 235.719 83.2891 235.422C83.1797 235.12 83.1224 234.964 83.1172 234.953C83.4974 234.74 83.9479 234.57 84.4688 234.445C84.9948 234.315 85.5286 234.25 86.0703 234.25C87.138 234.25 87.9062 234.484 88.375 234.953C88.849 235.417 89.0859 236.208 89.0859 237.328V243H88.0703ZM94.0703 243.156C93.2266 243.156 92.6276 242.951 92.2734 242.539C91.9193 242.128 91.7318 241.464 91.7109 240.547V235.398H90.4375L90.4922 234.539L91.7031 234.43L92.1484 232.469L93.0078 232.438V234.43H95.3906V235.398H93.0078V240.312C93.0078 240.964 93.1068 241.422 93.3047 241.688C93.5026 241.953 93.8411 242.086 94.3203 242.086C94.4922 242.086 94.8646 242.044 95.4375 241.961L95.4922 242.992C94.8724 243.102 94.3984 243.156 94.0703 243.156ZM101.727 236.016C101.346 235.557 100.823 235.328 100.156 235.328C99.4896 235.328 98.9453 235.565 98.5234 236.039C98.1016 236.508 97.8542 237.151 97.7812 237.969H102.305C102.305 237.12 102.112 236.469 101.727 236.016ZM100.414 243.18C99.1693 243.18 98.1875 242.784 97.4688 241.992C96.7552 241.201 96.3984 240.117 96.3984 238.742C96.3984 237.414 96.7448 236.339 97.4375 235.516C98.1302 234.688 99.0417 234.266 100.172 234.25C101.234 234.25 102.076 234.615 102.695 235.344C103.32 236.068 103.633 237.036 103.633 238.25C103.633 238.312 103.63 238.427 103.625 238.594C103.625 238.76 103.625 238.88 103.625 238.953H97.7422C97.7578 239.927 98.0078 240.688 98.4922 241.234C98.9818 241.776 99.638 242.047 100.461 242.047C101.367 242.047 102.276 241.807 103.188 241.328L103.391 242.383C102.521 242.914 101.529 243.18 100.414 243.18ZM109.469 241.094C110.672 241.688 111.961 241.984 113.336 241.984C115.029 241.984 115.875 241.214 115.875 239.672C115.875 239.172 115.74 238.768 115.469 238.461C115.203 238.148 114.716 237.904 114.008 237.727L111.711 237.148C109.956 236.706 109.078 235.768 109.078 234.336C109.078 233.237 109.456 232.422 110.211 231.891C110.966 231.354 112.01 231.086 113.344 231.086C114.042 231.086 114.695 231.161 115.305 231.312C115.914 231.464 116.424 231.667 116.836 231.922L116.445 233.023C116.096 232.831 115.633 232.659 115.055 232.508C114.482 232.357 113.901 232.281 113.312 232.281C111.427 232.281 110.484 232.935 110.484 234.242C110.484 234.685 110.628 235.042 110.914 235.312C111.206 235.578 111.641 235.781 112.219 235.922L114.414 236.453C115.352 236.677 116.062 237.036 116.547 237.531C117.031 238.021 117.273 238.719 117.273 239.625C117.273 240.802 116.911 241.69 116.188 242.289C115.469 242.883 114.49 243.18 113.25 243.18C112.323 243.18 111.497 243.086 110.773 242.898C110.055 242.706 109.484 242.479 109.062 242.219L109.469 241.094ZM123.977 236.016C123.596 235.557 123.073 235.328 122.406 235.328C121.74 235.328 121.195 235.565 120.773 236.039C120.352 236.508 120.104 237.151 120.031 237.969H124.555C124.555 237.12 124.362 236.469 123.977 236.016ZM122.664 243.18C121.419 243.18 120.438 242.784 119.719 241.992C119.005 241.201 118.648 240.117 118.648 238.742C118.648 237.414 118.995 236.339 119.688 235.516C120.38 234.688 121.292 234.266 122.422 234.25C123.484 234.25 124.326 234.615 124.945 235.344C125.57 236.068 125.883 237.036 125.883 238.25C125.883 238.312 125.88 238.427 125.875 238.594C125.875 238.76 125.875 238.88 125.875 238.953H119.992C120.008 239.927 120.258 240.688 120.742 241.234C121.232 241.776 121.888 242.047 122.711 242.047C123.617 242.047 124.526 241.807 125.438 241.328L125.641 242.383C124.771 242.914 123.779 243.18 122.664 243.18ZM131.539 234.352C131.773 234.352 131.987 234.367 132.18 234.398L132.133 235.602C131.893 235.56 131.685 235.539 131.508 235.539C130.779 235.539 130.185 235.794 129.727 236.305C129.273 236.81 129.047 237.438 129.047 238.188V243H127.742C127.737 237.74 127.734 234.883 127.734 234.43H128.82L128.945 235.969C129.242 235.484 129.62 235.094 130.078 234.797C130.536 234.5 131.023 234.352 131.539 234.352ZM135.719 243L132.398 234.43H133.797L135.688 239.523C135.688 239.523 135.948 240.247 136.469 241.695C136.646 241.138 136.891 240.419 137.203 239.539C137.599 238.43 138.214 236.727 139.047 234.43H140.438L137.141 243H135.719ZM143.125 234.43V243H141.812V234.43H143.125ZM143.125 231.312V232.859H141.812V231.312H143.125ZM149.211 243.18C147.951 243.18 146.964 242.771 146.25 241.953C145.542 241.135 145.188 240.065 145.188 238.742C145.193 237.409 145.555 236.328 146.273 235.5C146.997 234.667 147.987 234.25 149.242 234.25C149.685 234.25 150.112 234.305 150.523 234.414C150.94 234.523 151.268 234.667 151.508 234.844L151.148 235.859C150.539 235.531 149.896 235.367 149.219 235.367C148.391 235.367 147.734 235.669 147.25 236.273C146.771 236.878 146.531 237.703 146.531 238.75C146.531 239.771 146.768 240.581 147.242 241.18C147.721 241.773 148.383 242.07 149.227 242.07C149.898 242.07 150.586 241.888 151.289 241.523L151.453 242.562C150.885 242.974 150.138 243.18 149.211 243.18ZM158.086 236.016C157.706 235.557 157.182 235.328 156.516 235.328C155.849 235.328 155.305 235.565 154.883 236.039C154.461 236.508 154.214 237.151 154.141 237.969H158.664C158.664 237.12 158.471 236.469 158.086 236.016ZM156.773 243.18C155.529 243.18 154.547 242.784 153.828 241.992C153.115 241.201 152.758 240.117 152.758 238.742C152.758 237.414 153.104 236.339 153.797 235.516C154.49 234.688 155.401 234.266 156.531 234.25C157.594 234.25 158.435 234.615 159.055 235.344C159.68 236.068 159.992 237.036 159.992 238.25C159.992 238.312 159.99 238.427 159.984 238.594C159.984 238.76 159.984 238.88 159.984 238.953H154.102C154.117 239.927 154.367 240.688 154.852 241.234C155.341 241.776 155.997 242.047 156.82 242.047C157.727 242.047 158.635 241.807 159.547 241.328L159.75 242.383C158.88 242.914 157.888 243.18 156.773 243.18ZM171.656 238.203C170.557 235.01 169.951 233.216 169.836 232.82C169.836 232.82 169.203 234.615 167.938 238.203H171.656ZM173.445 243L172.094 239.336H167.484L166.086 243H164.711L169.148 231.422H170.531L174.836 243H173.445ZM179.602 243.18C178.341 243.18 177.354 242.771 176.641 241.953C175.932 241.135 175.578 240.065 175.578 238.742C175.583 237.409 175.945 236.328 176.664 235.5C177.388 234.667 178.378 234.25 179.633 234.25C180.076 234.25 180.503 234.305 180.914 234.414C181.331 234.523 181.659 234.667 181.898 234.844L181.539 235.859C180.93 235.531 180.286 235.367 179.609 235.367C178.781 235.367 178.125 235.669 177.641 236.273C177.161 236.878 176.922 237.703 176.922 238.75C176.922 239.771 177.159 240.581 177.633 241.18C178.112 241.773 178.773 242.07 179.617 242.07C180.289 242.07 180.977 241.888 181.68 241.523L181.844 242.562C181.276 242.974 180.529 243.18 179.602 243.18ZM187.07 243.18C185.81 243.18 184.823 242.771 184.109 241.953C183.401 241.135 183.047 240.065 183.047 238.742C183.052 237.409 183.414 236.328 184.133 235.5C184.857 234.667 185.846 234.25 187.102 234.25C187.544 234.25 187.971 234.305 188.383 234.414C188.799 234.523 189.128 234.667 189.367 234.844L189.008 235.859C188.398 235.531 187.755 235.367 187.078 235.367C186.25 235.367 185.594 235.669 185.109 236.273C184.63 236.878 184.391 237.703 184.391 238.75C184.391 239.771 184.628 240.581 185.102 241.18C185.581 241.773 186.242 242.07 187.086 242.07C187.758 242.07 188.445 241.888 189.148 241.523L189.312 242.562C188.745 242.974 187.997 243.18 187.07 243.18ZM191.961 238.734C191.961 239.75 192.185 240.565 192.633 241.18C193.086 241.789 193.745 242.094 194.609 242.094C195.464 242.094 196.107 241.789 196.539 241.18C196.977 240.57 197.195 239.75 197.195 238.719C197.195 237.672 196.979 236.849 196.547 236.25C196.12 235.646 195.466 235.344 194.586 235.344C193.732 235.344 193.081 235.651 192.633 236.266C192.185 236.88 191.961 237.703 191.961 238.734ZM198.547 238.711C198.547 240.039 198.193 241.117 197.484 241.945C196.776 242.768 195.797 243.18 194.547 243.18C193.344 243.18 192.385 242.763 191.672 241.93C190.964 241.096 190.609 240.026 190.609 238.719C190.609 237.385 190.966 236.307 191.68 235.484C192.393 234.661 193.372 234.25 194.617 234.25C195.841 234.25 196.802 234.664 197.5 235.492C198.198 236.315 198.547 237.388 198.547 238.711ZM200.102 240.141V234.43H201.414V240.156C201.414 240.531 201.466 240.849 201.57 241.109C201.68 241.37 201.833 241.573 202.031 241.719C202.234 241.859 202.461 241.961 202.711 242.023C202.966 242.086 203.258 242.117 203.586 242.117C204.263 242.117 204.789 241.969 205.164 241.672C205.544 241.375 205.734 240.87 205.734 240.156V234.43H207.047V240.141C207.047 240.578 206.984 240.971 206.859 241.32C206.734 241.669 206.565 241.961 206.352 242.195C206.143 242.424 205.891 242.615 205.594 242.766C205.297 242.917 204.982 243.026 204.648 243.094C204.32 243.161 203.966 243.195 203.586 243.195C203.211 243.195 202.857 243.161 202.523 243.094C202.19 243.026 201.872 242.917 201.57 242.766C201.273 242.609 201.016 242.417 200.797 242.188C200.583 241.953 200.414 241.661 200.289 241.312C200.164 240.964 200.102 240.573 200.102 240.141ZM208.992 243V234.43H210.086L210.25 235.656C210.589 235.234 211.01 234.896 211.516 234.641C212.026 234.38 212.576 234.25 213.164 234.25C214.154 234.25 214.885 234.529 215.359 235.086C215.833 235.638 216.07 236.49 216.07 237.641V243H214.766C214.766 239.562 214.763 237.721 214.758 237.477C214.737 236.747 214.589 236.214 214.312 235.875C214.042 235.536 213.586 235.367 212.945 235.367C212.273 235.367 211.714 235.529 211.266 235.852C210.818 236.174 210.526 236.594 210.391 237.109C210.339 237.458 210.312 237.859 210.312 238.312V243H208.992ZM220.977 243.156C220.133 243.156 219.534 242.951 219.18 242.539C218.826 242.128 218.638 241.464 218.617 240.547V235.398H217.344L217.398 234.539L218.609 234.43L219.055 232.469L219.914 232.438V234.43H222.297V235.398H219.914V240.312C219.914 240.964 220.013 241.422 220.211 241.688C220.409 241.953 220.747 242.086 221.227 242.086C221.398 242.086 221.771 242.044 222.344 241.961L222.398 242.992C221.779 243.102 221.305 243.156 220.977 243.156Z" fill="white"/>
<path d="M691.5 139.5L671.5 127.953V151.047L691.5 139.5ZM280 139.5V141.5L673.5 141.5V139.5V137.5L280 137.5V139.5Z" fill="#34D399"/>
<mask id="path-19-outside-1_114_1289" maskUnits="userSpaceOnUse" x="439" y="123.5" width="94" height="32" fill="black">
<rect fill="white" x="439" y="123.5" width="94" height="32"/>
<path d="M458.044 137.754H456.185C456.132 137.449 456.034 137.179 455.892 136.943C455.749 136.705 455.572 136.502 455.36 136.337C455.147 136.171 454.906 136.047 454.634 135.964C454.365 135.878 454.075 135.835 453.764 135.835C453.21 135.835 452.72 135.974 452.292 136.252C451.865 136.527 451.53 136.932 451.288 137.465C451.046 137.996 450.925 138.643 450.925 139.409C450.925 140.188 451.046 140.844 451.288 141.378C451.533 141.908 451.868 142.309 452.292 142.581C452.72 142.849 453.209 142.984 453.759 142.984C454.064 142.984 454.349 142.944 454.614 142.864C454.882 142.781 455.123 142.661 455.335 142.501C455.55 142.342 455.731 142.147 455.877 141.915C456.026 141.683 456.129 141.418 456.185 141.119L458.044 141.129C457.975 141.613 457.824 142.067 457.592 142.491C457.363 142.916 457.063 143.29 456.692 143.615C456.321 143.937 455.887 144.188 455.389 144.371C454.892 144.55 454.34 144.639 453.734 144.639C452.839 144.639 452.04 144.432 451.338 144.018C450.635 143.603 450.081 143.005 449.677 142.223C449.273 141.441 449.071 140.503 449.071 139.409C449.071 138.312 449.274 137.374 449.682 136.595C450.09 135.813 450.645 135.215 451.348 134.8C452.05 134.386 452.846 134.179 453.734 134.179C454.301 134.179 454.828 134.259 455.315 134.418C455.802 134.577 456.236 134.81 456.617 135.119C456.999 135.424 457.312 135.798 457.557 136.242C457.806 136.683 457.968 137.187 458.044 137.754ZM469.531 139.409C469.531 140.506 469.326 141.446 468.915 142.228C468.507 143.007 467.95 143.603 467.244 144.018C466.542 144.432 465.745 144.639 464.853 144.639C463.962 144.639 463.163 144.432 462.457 144.018C461.754 143.6 461.197 143.002 460.786 142.223C460.379 141.441 460.175 140.503 460.175 139.409C460.175 138.312 460.379 137.374 460.786 136.595C461.197 135.813 461.754 135.215 462.457 134.8C463.163 134.386 463.962 134.179 464.853 134.179C465.745 134.179 466.542 134.386 467.244 134.8C467.95 135.215 468.507 135.813 468.915 136.595C469.326 137.374 469.531 138.312 469.531 139.409ZM467.677 139.409C467.677 138.637 467.556 137.986 467.314 137.455C467.075 136.922 466.744 136.519 466.32 136.247C465.895 135.972 465.407 135.835 464.853 135.835C464.3 135.835 463.811 135.972 463.386 136.247C462.962 136.519 462.629 136.922 462.387 137.455C462.149 137.986 462.029 138.637 462.029 139.409C462.029 140.181 462.149 140.834 462.387 141.368C462.629 141.898 462.962 142.301 463.386 142.576C463.811 142.848 464.3 142.984 464.853 142.984C465.407 142.984 465.895 142.848 466.32 142.576C466.744 142.301 467.075 141.898 467.314 141.368C467.556 140.834 467.677 140.181 467.677 139.409ZM480.342 134.318V144.5H478.702L473.904 137.565H473.82V144.5H471.975V134.318H473.626L478.418 141.259H478.508V134.318H480.342ZM491.419 134.318V144.5H489.779L484.981 137.565H484.897V144.5H483.052V134.318H484.703L489.495 141.259H489.585V134.318H491.419ZM494.129 144.5V134.318H500.751V135.864H495.974V138.629H500.408V140.175H495.974V142.954H500.791V144.5H494.129ZM512.048 137.754H510.189C510.136 137.449 510.038 137.179 509.895 136.943C509.753 136.705 509.576 136.502 509.364 136.337C509.151 136.171 508.909 136.047 508.638 135.964C508.369 135.878 508.079 135.835 507.768 135.835C507.214 135.835 506.724 135.974 506.296 136.252C505.868 136.527 505.534 136.932 505.292 137.465C505.05 137.996 504.929 138.643 504.929 139.409C504.929 140.188 505.05 140.844 505.292 141.378C505.537 141.908 505.872 142.309 506.296 142.581C506.724 142.849 507.212 142.984 507.763 142.984C508.068 142.984 508.353 142.944 508.618 142.864C508.886 142.781 509.127 142.661 509.339 142.501C509.554 142.342 509.735 142.147 509.881 141.915C510.03 141.683 510.132 141.418 510.189 141.119L512.048 141.129C511.979 141.613 511.828 142.067 511.596 142.491C511.367 142.916 511.067 143.29 510.696 143.615C510.325 143.937 509.891 144.188 509.393 144.371C508.896 144.55 508.344 144.639 507.738 144.639C506.843 144.639 506.044 144.432 505.341 144.018C504.639 143.603 504.085 143.005 503.681 142.223C503.277 141.441 503.074 140.503 503.074 139.409C503.074 138.312 503.278 137.374 503.686 136.595C504.094 135.813 504.649 135.215 505.351 134.8C506.054 134.386 506.85 134.179 507.738 134.179C508.305 134.179 508.832 134.259 509.319 134.418C509.806 134.577 510.24 134.81 510.621 135.119C511.002 135.424 511.316 135.798 511.561 136.242C511.81 136.683 511.972 137.187 512.048 137.754ZM513.99 135.864V134.318H522.113V135.864H518.966V144.5H517.137V135.864H513.99Z"/>
</mask>
<path d="M458.044 137.754H456.185C456.132 137.449 456.034 137.179 455.892 136.943C455.749 136.705 455.572 136.502 455.36 136.337C455.147 136.171 454.906 136.047 454.634 135.964C454.365 135.878 454.075 135.835 453.764 135.835C453.21 135.835 452.72 135.974 452.292 136.252C451.865 136.527 451.53 136.932 451.288 137.465C451.046 137.996 450.925 138.643 450.925 139.409C450.925 140.188 451.046 140.844 451.288 141.378C451.533 141.908 451.868 142.309 452.292 142.581C452.72 142.849 453.209 142.984 453.759 142.984C454.064 142.984 454.349 142.944 454.614 142.864C454.882 142.781 455.123 142.661 455.335 142.501C455.55 142.342 455.731 142.147 455.877 141.915C456.026 141.683 456.129 141.418 456.185 141.119L458.044 141.129C457.975 141.613 457.824 142.067 457.592 142.491C457.363 142.916 457.063 143.29 456.692 143.615C456.321 143.937 455.887 144.188 455.389 144.371C454.892 144.55 454.34 144.639 453.734 144.639C452.839 144.639 452.04 144.432 451.338 144.018C450.635 143.603 450.081 143.005 449.677 142.223C449.273 141.441 449.071 140.503 449.071 139.409C449.071 138.312 449.274 137.374 449.682 136.595C450.09 135.813 450.645 135.215 451.348 134.8C452.05 134.386 452.846 134.179 453.734 134.179C454.301 134.179 454.828 134.259 455.315 134.418C455.802 134.577 456.236 134.81 456.617 135.119C456.999 135.424 457.312 135.798 457.557 136.242C457.806 136.683 457.968 137.187 458.044 137.754ZM469.531 139.409C469.531 140.506 469.326 141.446 468.915 142.228C468.507 143.007 467.95 143.603 467.244 144.018C466.542 144.432 465.745 144.639 464.853 144.639C463.962 144.639 463.163 144.432 462.457 144.018C461.754 143.6 461.197 143.002 460.786 142.223C460.379 141.441 460.175 140.503 460.175 139.409C460.175 138.312 460.379 137.374 460.786 136.595C461.197 135.813 461.754 135.215 462.457 134.8C463.163 134.386 463.962 134.179 464.853 134.179C465.745 134.179 466.542 134.386 467.244 134.8C467.95 135.215 468.507 135.813 468.915 136.595C469.326 137.374 469.531 138.312 469.531 139.409ZM467.677 139.409C467.677 138.637 467.556 137.986 467.314 137.455C467.075 136.922 466.744 136.519 466.32 136.247C465.895 135.972 465.407 135.835 464.853 135.835C464.3 135.835 463.811 135.972 463.386 136.247C462.962 136.519 462.629 136.922 462.387 137.455C462.149 137.986 462.029 138.637 462.029 139.409C462.029 140.181 462.149 140.834 462.387 141.368C462.629 141.898 462.962 142.301 463.386 142.576C463.811 142.848 464.3 142.984 464.853 142.984C465.407 142.984 465.895 142.848 466.32 142.576C466.744 142.301 467.075 141.898 467.314 141.368C467.556 140.834 467.677 140.181 467.677 139.409ZM480.342 134.318V144.5H478.702L473.904 137.565H473.82V144.5H471.975V134.318H473.626L478.418 141.259H478.508V134.318H480.342ZM491.419 134.318V144.5H489.779L484.981 137.565H484.897V144.5H483.052V134.318H484.703L489.495 141.259H489.585V134.318H491.419ZM494.129 144.5V134.318H500.751V135.864H495.974V138.629H500.408V140.175H495.974V142.954H500.791V144.5H494.129ZM512.048 137.754H510.189C510.136 137.449 510.038 137.179 509.895 136.943C509.753 136.705 509.576 136.502 509.364 136.337C509.151 136.171 508.909 136.047 508.638 135.964C508.369 135.878 508.079 135.835 507.768 135.835C507.214 135.835 506.724 135.974 506.296 136.252C505.868 136.527 505.534 136.932 505.292 137.465C505.05 137.996 504.929 138.643 504.929 139.409C504.929 140.188 505.05 140.844 505.292 141.378C505.537 141.908 505.872 142.309 506.296 142.581C506.724 142.849 507.212 142.984 507.763 142.984C508.068 142.984 508.353 142.944 508.618 142.864C508.886 142.781 509.127 142.661 509.339 142.501C509.554 142.342 509.735 142.147 509.881 141.915C510.03 141.683 510.132 141.418 510.189 141.119L512.048 141.129C511.979 141.613 511.828 142.067 511.596 142.491C511.367 142.916 511.067 143.29 510.696 143.615C510.325 143.937 509.891 144.188 509.393 144.371C508.896 144.55 508.344 144.639 507.738 144.639C506.843 144.639 506.044 144.432 505.341 144.018C504.639 143.603 504.085 143.005 503.681 142.223C503.277 141.441 503.074 140.503 503.074 139.409C503.074 138.312 503.278 137.374 503.686 136.595C504.094 135.813 504.649 135.215 505.351 134.8C506.054 134.386 506.85 134.179 507.738 134.179C508.305 134.179 508.832 134.259 509.319 134.418C509.806 134.577 510.24 134.81 510.621 135.119C511.002 135.424 511.316 135.798 511.561 136.242C511.81 136.683 511.972 137.187 512.048 137.754ZM513.99 135.864V134.318H522.113V135.864H518.966V144.5H517.137V135.864H513.99Z" fill="white"/>
<path d="M458.044 137.754V147.754H469.479L467.955 136.421L458.044 137.754ZM456.185 137.754L446.333 139.467L447.774 147.754H456.185V137.754ZM455.892 136.943L447.306 142.071L447.322 142.097L447.338 142.124L455.892 136.943ZM455.36 136.337L461.516 128.456L461.516 128.456L455.36 136.337ZM454.634 135.964L451.577 145.485L451.647 145.508L451.718 145.529L454.634 135.964ZM452.292 136.252L457.703 144.662L457.726 144.647L457.749 144.632L452.292 136.252ZM451.288 137.465L460.386 141.616L460.391 141.605L460.395 141.595L451.288 137.465ZM451.288 141.378L442.18 145.507L442.196 145.542L442.212 145.576L451.288 141.378ZM452.292 142.581L446.898 151.001L446.936 151.026L446.974 151.05L452.292 142.581ZM454.614 142.864L457.487 152.443L457.525 152.431L457.563 152.42L454.614 142.864ZM455.335 142.501L449.394 134.457L449.364 134.479L449.335 134.501L455.335 142.501ZM455.877 141.915L447.465 136.507L447.437 136.55L447.41 136.593L455.877 141.915ZM456.185 141.119L456.238 131.119L447.905 131.075L446.359 139.263L456.185 141.119ZM458.044 141.129L467.942 142.553L469.577 131.191L458.098 131.129L458.044 141.129ZM457.592 142.491L448.818 137.693L448.804 137.72L448.789 137.746L457.592 142.491ZM456.692 143.615L463.239 151.174L463.258 151.158L463.277 151.141L456.692 143.615ZM455.389 144.371L458.777 153.78L458.804 153.77L458.832 153.76L455.389 144.371ZM451.338 144.018L456.417 135.404L451.338 144.018ZM449.677 142.223L440.794 146.815H440.794L449.677 142.223ZM449.682 136.595L458.542 141.232L458.546 141.225L458.55 141.217L449.682 136.595ZM451.348 134.8L446.268 126.186L446.268 126.186L451.348 134.8ZM455.315 134.418L458.419 124.912L458.419 124.912L455.315 134.418ZM456.617 135.119L450.329 142.894L450.35 142.911L450.37 142.927L456.617 135.119ZM457.557 136.242L448.803 141.076L448.825 141.115L448.847 141.154L457.557 136.242ZM458.044 137.754V127.754H456.185V137.754V147.754H458.044V137.754ZM456.185 137.754L466.037 136.04C465.797 134.661 465.308 133.188 464.445 131.763L455.892 136.943L447.338 142.124C446.76 141.169 446.467 140.236 446.333 139.467L456.185 137.754ZM455.892 136.943L464.477 131.816C463.723 130.553 462.733 129.407 461.516 128.456L455.36 136.337L449.203 144.217C448.411 143.598 447.775 142.856 447.306 142.071L455.892 136.943ZM455.36 136.337L461.516 128.456C460.284 127.494 458.93 126.819 457.55 126.398L454.634 135.964L451.718 145.529C450.881 145.274 450.011 144.848 449.203 144.217L455.36 136.337ZM454.634 135.964L457.69 126.442C456.336 126.008 455.005 125.835 453.764 125.835V135.835V145.835C453.146 145.835 452.395 145.748 451.577 145.485L454.634 135.964ZM453.764 135.835V125.835C451.444 125.835 449.024 126.447 446.835 127.872L452.292 136.252L457.749 144.632C456.415 145.501 454.976 145.835 453.764 145.835V135.835ZM452.292 136.252L446.881 127.842C444.6 129.31 443.093 131.323 442.18 133.336L451.288 137.465L460.395 141.595C459.967 142.54 459.129 143.744 457.703 144.662L452.292 136.252ZM451.288 137.465L442.19 133.314C441.198 135.488 440.925 137.64 440.925 139.409H450.925H460.925C460.925 139.647 460.894 140.503 460.386 141.616L451.288 137.465ZM450.925 139.409H440.925C440.925 141.166 441.19 143.324 442.18 145.507L451.288 141.378L460.395 137.248C460.902 138.365 460.925 139.21 460.925 139.409H450.925ZM451.288 141.378L442.212 145.576C443.126 147.554 444.626 149.546 446.898 151.001L452.292 142.581L457.686 134.161C459.11 135.072 459.94 136.263 460.364 137.18L451.288 141.378ZM452.292 142.581L446.974 151.05C449.138 152.408 451.503 152.984 453.759 152.984V142.984V132.984C454.915 132.984 456.302 133.291 457.61 134.112L452.292 142.581ZM453.759 142.984V152.984C454.939 152.984 456.201 152.829 457.487 152.443L454.614 142.864L451.74 133.286C452.497 133.059 453.188 132.984 453.759 132.984V142.984ZM454.614 142.864L457.563 152.42C458.864 152.018 460.149 151.391 461.335 150.501L455.335 142.501L449.335 134.501C450.096 133.93 450.9 133.545 451.665 133.309L454.614 142.864ZM455.335 142.501L461.275 150.546C462.519 149.627 463.548 148.501 464.343 147.236L455.877 141.915L447.41 136.593C447.913 135.793 448.582 135.057 449.394 134.457L455.335 142.501ZM455.877 141.915L464.288 147.322C465.2 145.904 465.74 144.41 466.011 142.975L456.185 141.119L446.359 139.263C446.517 138.425 446.852 137.461 447.465 136.507L455.877 141.915ZM456.185 141.119L456.131 151.119L457.991 151.129L458.044 141.129L458.098 131.129L456.238 131.119L456.185 141.119ZM458.044 141.129L448.146 139.706C448.245 139.02 448.47 138.329 448.818 137.693L457.592 142.491L466.366 147.29C467.177 145.805 467.705 144.206 467.942 142.553L458.044 141.129ZM457.592 142.491L448.789 137.746C449.141 137.094 449.6 136.533 450.107 136.089L456.692 143.615L463.277 151.141C464.526 150.048 465.585 148.738 466.394 147.237L457.592 142.491ZM456.692 143.615L450.145 136.056C450.759 135.525 451.397 135.184 451.947 134.982L455.389 144.371L458.832 153.76C460.377 153.193 461.883 152.349 463.239 151.174L456.692 143.615ZM455.389 144.371L452.002 134.962C452.739 134.697 453.354 134.639 453.734 134.639V144.639V154.639C455.327 154.639 457.045 154.403 458.777 153.78L455.389 144.371ZM453.734 144.639V134.639C454.447 134.639 455.434 134.824 456.417 135.404L451.338 144.018L446.259 152.632C448.647 154.04 451.231 154.639 453.734 154.639V144.639ZM451.338 144.018L456.417 135.404C457.464 136.021 458.172 136.879 458.56 137.631L449.677 142.223L440.794 146.815C441.991 149.131 443.806 151.186 446.259 152.632L451.338 144.018ZM449.677 142.223L458.56 137.631C459.046 138.571 459.071 139.285 459.071 139.409H449.071H439.071C439.071 141.721 439.499 144.311 440.794 146.815L449.677 142.223ZM449.071 139.409H459.071C459.071 139.534 459.046 140.269 458.542 141.232L449.682 136.595L440.822 131.958C439.503 134.479 439.071 137.09 439.071 139.409H449.071ZM449.682 136.595L458.55 141.217C458.166 141.953 457.467 142.801 456.427 143.415L451.348 134.8L446.268 126.186C443.823 127.628 442.013 129.672 440.814 131.973L449.682 136.595ZM451.348 134.8L456.427 143.415C455.455 143.987 454.468 144.179 453.734 144.179V134.179V124.179C451.223 124.179 448.645 124.785 446.268 126.186L451.348 134.8ZM453.734 134.179V144.179C453.357 144.179 452.826 144.124 452.211 143.924L455.315 134.418L458.419 124.912C456.829 124.393 455.244 124.179 453.734 124.179V134.179ZM455.315 134.418L452.211 143.924C451.594 143.722 450.938 143.386 450.329 142.894L456.617 135.119L462.906 127.343C461.534 126.234 460.011 125.431 458.419 124.912L455.315 134.418ZM456.617 135.119L450.37 142.927C449.689 142.382 449.165 141.732 448.803 141.076L457.557 136.242L466.311 131.408C465.458 129.864 464.308 128.465 462.864 127.31L456.617 135.119ZM457.557 136.242L448.847 141.154C448.396 140.354 448.205 139.616 448.134 139.087L458.044 137.754L467.955 136.421C467.731 134.758 467.216 133.012 466.268 131.33L457.557 136.242ZM468.915 142.228L460.062 137.577L460.059 137.584L460.055 137.591L468.915 142.228ZM467.244 144.018L462.183 135.393L462.174 135.398L462.165 135.404L467.244 144.018ZM462.457 144.018L457.348 152.614L457.372 152.628L457.395 152.642L462.457 144.018ZM460.786 142.223L451.918 146.845L451.93 146.867L451.942 146.89L460.786 142.223ZM460.786 136.595L451.934 131.944L451.93 131.951L451.927 131.958L460.786 136.595ZM462.457 134.8L457.395 126.176L457.387 126.181L457.378 126.186L462.457 134.8ZM467.244 134.8L462.165 143.415L462.174 143.42L462.183 143.425L467.244 134.8ZM468.915 136.595L460.047 141.217L460.059 141.239L460.071 141.262L468.915 136.595ZM467.314 137.455L458.185 141.538L458.201 141.572L458.216 141.606L467.314 137.455ZM466.32 136.247L460.879 144.638L460.902 144.653L460.925 144.667L466.32 136.247ZM463.386 136.247L468.781 144.667L468.804 144.653L468.827 144.638L463.386 136.247ZM462.387 137.455L453.28 133.326L453.274 133.339L453.268 133.352L462.387 137.455ZM462.387 141.368L453.258 145.45L453.274 145.485L453.289 145.519L462.387 141.368ZM463.386 142.576L457.946 150.966L457.969 150.981L457.992 150.996L463.386 142.576ZM466.32 142.576L471.714 150.996L471.737 150.981L471.76 150.966L466.32 142.576ZM467.314 141.368L458.207 137.238L458.201 137.251L458.195 137.264L467.314 141.368ZM469.531 139.409H459.531C459.531 139.27 459.559 138.535 460.062 137.577L468.915 142.228L477.767 146.879C479.093 144.357 479.531 141.742 479.531 139.409H469.531ZM468.915 142.228L460.055 137.591C460.449 136.839 461.155 135.997 462.183 135.393L467.244 144.018L472.306 152.642C474.746 151.21 476.566 149.175 477.775 146.865L468.915 142.228ZM467.244 144.018L462.165 135.404C463.143 134.827 464.13 134.639 464.853 134.639V144.639V154.639C467.36 154.639 469.941 154.037 472.324 152.632L467.244 144.018ZM464.853 144.639V134.639C465.577 134.639 466.554 134.827 467.518 135.393L462.457 144.018L457.395 152.642C459.771 154.037 462.346 154.639 464.853 154.639V144.639ZM462.457 144.018L467.566 135.421C468.569 136.018 469.251 136.837 469.631 137.556L460.786 142.223L451.942 146.89C453.143 149.167 454.939 151.183 457.348 152.614L462.457 144.018ZM460.786 142.223L469.654 137.601C470.148 138.548 470.175 139.273 470.175 139.409H460.175H450.175C450.175 141.733 450.61 144.333 451.918 146.845L460.786 142.223ZM460.175 139.409H470.175C470.175 139.534 470.151 140.269 469.646 141.232L460.786 136.595L451.927 131.958C450.607 134.479 450.175 137.09 450.175 139.409H460.175ZM460.786 136.595L469.639 141.246C469.26 141.968 468.568 142.806 467.536 143.415L462.457 134.8L457.378 126.186C454.94 127.623 453.135 129.658 451.934 131.944L460.786 136.595ZM462.457 134.8L467.518 143.425C466.554 143.991 465.577 144.179 464.853 144.179V134.179V124.179C462.346 124.179 459.771 124.782 457.395 126.176L462.457 134.8ZM464.853 134.179V144.179C464.13 144.179 463.143 143.991 462.165 143.415L467.244 134.8L472.324 126.186C469.941 124.781 467.36 124.179 464.853 124.179V134.179ZM467.244 134.8L462.183 143.425C461.144 142.815 460.437 141.965 460.047 141.217L468.915 136.595L477.783 131.973C476.577 129.66 474.757 127.615 472.306 126.176L467.244 134.8ZM468.915 136.595L460.071 141.262C459.558 140.291 459.531 139.546 459.531 139.409H469.531H479.531C479.531 137.078 479.093 134.457 477.759 131.928L468.915 136.595ZM467.677 139.409H477.677C477.677 137.648 477.408 135.488 476.412 133.304L467.314 137.455L458.216 141.606C457.704 140.483 457.677 139.626 457.677 139.409H467.677ZM467.314 137.455L476.443 133.373C475.539 131.352 474.029 129.31 471.714 127.827L466.32 136.247L460.925 144.667C459.459 143.728 458.612 142.491 458.185 141.538L467.314 137.455ZM466.32 136.247L471.76 127.857C469.564 126.432 467.147 125.835 464.853 125.835V135.835V145.835C463.666 145.835 462.227 145.512 460.879 144.638L466.32 136.247ZM464.853 135.835V125.835C462.559 125.835 460.143 126.432 457.946 127.857L463.386 136.247L468.827 144.638C467.479 145.512 466.04 145.835 464.853 145.835V135.835ZM463.386 136.247L457.992 127.827C455.691 129.301 454.186 131.326 453.28 133.326L462.387 137.455L471.495 141.585C471.072 142.517 470.234 143.737 468.781 144.667L463.386 136.247ZM462.387 137.455L453.268 133.352C452.292 135.521 452.029 137.663 452.029 139.409H462.029H472.029C472.029 139.61 472.006 140.45 471.506 141.559L462.387 137.455ZM462.029 139.409H452.029C452.029 141.158 452.293 143.29 453.258 145.45L462.387 141.368L471.516 137.285C472.005 138.378 472.029 139.205 472.029 139.409H462.029ZM462.387 141.368L453.289 145.519C454.198 147.511 455.691 149.504 457.946 150.966L463.386 142.576L468.827 134.186C470.233 135.097 471.06 136.285 471.485 137.217L462.387 141.368ZM463.386 142.576L457.992 150.996C460.184 152.4 462.583 152.984 464.853 152.984V142.984V132.984C466.016 132.984 467.438 133.295 468.781 134.156L463.386 142.576ZM464.853 142.984V152.984C467.123 152.984 469.523 152.4 471.714 150.996L466.32 142.576L460.925 134.156C462.268 133.295 463.69 132.984 464.853 132.984V142.984ZM466.32 142.576L471.76 150.966C474.029 149.496 475.527 147.485 476.433 145.472L467.314 141.368L458.195 137.264C458.624 136.311 459.459 135.106 460.879 134.186L466.32 142.576ZM467.314 141.368L476.422 145.497C477.407 143.324 477.677 141.174 477.677 139.409H467.677H457.677C457.677 139.189 457.705 138.345 458.207 137.238L467.314 141.368ZM480.342 134.318H490.342V124.318H480.342V134.318ZM480.342 144.5V154.5H490.342V144.5H480.342ZM478.702 144.5L470.478 150.189L473.46 154.5H478.702V144.5ZM473.904 137.565L482.128 131.876L479.146 127.565H473.904V137.565ZM473.82 137.565V127.565H463.82V137.565H473.82ZM473.82 144.5V154.5H483.82V144.5H473.82ZM471.975 144.5H461.975V154.5H471.975V144.5ZM471.975 134.318V124.318H461.975V134.318H471.975ZM473.626 134.318L481.854 128.636L478.873 124.318H473.626V134.318ZM478.418 141.259L470.19 146.941L473.171 151.259H478.418V141.259ZM478.508 141.259V151.259H488.508V141.259H478.508ZM478.508 134.318V124.318H468.508V134.318H478.508ZM480.342 134.318H470.342V144.5H480.342H490.342V134.318H480.342ZM480.342 144.5V134.5H478.702V144.5V154.5H480.342V144.5ZM478.702 144.5L486.926 138.811L482.128 131.876L473.904 137.565L465.68 143.254L470.478 150.189L478.702 144.5ZM473.904 137.565V127.565H473.82V137.565V147.565H473.904V137.565ZM473.82 137.565H463.82V144.5H473.82H483.82V137.565H473.82ZM473.82 144.5V134.5H471.975V144.5V154.5H473.82V144.5ZM471.975 144.5H481.975V134.318H471.975H461.975V144.5H471.975ZM471.975 134.318V144.318H473.626V134.318V124.318H471.975V134.318ZM473.626 134.318L465.397 140L470.19 146.941L478.418 141.259L486.647 135.576L481.854 128.636L473.626 134.318ZM478.418 141.259V151.259H478.508V141.259V131.259H478.418V141.259ZM478.508 141.259H488.508V134.318H478.508H468.508V141.259H478.508ZM478.508 134.318V144.318H480.342V134.318V124.318H478.508V134.318ZM491.419 134.318H501.419V124.318H491.419V134.318ZM491.419 144.5V154.5H501.419V144.5H491.419ZM489.779 144.5L481.555 150.189L484.537 154.5H489.779V144.5ZM484.981 137.565L493.205 131.876L490.223 127.565H484.981V137.565ZM484.897 137.565V127.565H474.897V137.565H484.897ZM484.897 144.5V154.5H494.897V144.5H484.897ZM483.052 144.5H473.052V154.5H483.052V144.5ZM483.052 134.318V124.318H473.052V134.318H483.052ZM484.703 134.318L492.931 128.636L489.95 124.318H484.703V134.318ZM489.495 141.259L481.267 146.941L484.248 151.259H489.495V141.259ZM489.585 141.259V151.259H499.585V141.259H489.585ZM489.585 134.318V124.318H479.585V134.318H489.585ZM491.419 134.318H481.419V144.5H491.419H501.419V134.318H491.419ZM491.419 144.5V134.5H489.779V144.5V154.5H491.419V144.5ZM489.779 144.5L498.003 138.811L493.205 131.876L484.981 137.565L476.757 143.254L481.555 150.189L489.779 144.5ZM484.981 137.565V127.565H484.897V137.565V147.565H484.981V137.565ZM484.897 137.565H474.897V144.5H484.897H494.897V137.565H484.897ZM484.897 144.5V134.5H483.052V144.5V154.5H484.897V144.5ZM483.052 144.5H493.052V134.318H483.052H473.052V144.5H483.052ZM483.052 134.318V144.318H484.703V134.318V124.318H483.052V134.318ZM484.703 134.318L476.474 140L481.267 146.941L489.495 141.259L497.724 135.576L492.931 128.636L484.703 134.318ZM489.495 141.259V151.259H489.585V141.259V131.259H489.495V141.259ZM489.585 141.259H499.585V134.318H489.585H479.585V141.259H489.585ZM489.585 134.318V144.318H491.419V134.318V124.318H489.585V134.318ZM494.129 144.5H484.129V154.5H494.129V144.5ZM494.129 134.318V124.318H484.129V134.318H494.129ZM500.751 134.318H510.751V124.318H500.751V134.318ZM500.751 135.864V145.864H510.751V135.864H500.751ZM495.974 135.864V125.864H485.974V135.864H495.974ZM495.974 138.629H485.974V148.629H495.974V138.629ZM500.408 138.629H510.408V128.629H500.408V138.629ZM500.408 140.175V150.175H510.408V140.175H500.408ZM495.974 140.175V130.175H485.974V140.175H495.974ZM495.974 142.954H485.974V152.954H495.974V142.954ZM500.791 142.954H510.791V132.954H500.791V142.954ZM500.791 144.5V154.5H510.791V144.5H500.791ZM494.129 144.5H504.129V134.318H494.129H484.129V144.5H494.129ZM494.129 134.318V144.318H500.751V134.318V124.318H494.129V134.318ZM500.751 134.318H490.751V135.864H500.751H510.751V134.318H500.751ZM500.751 135.864V125.864H495.974V135.864V145.864H500.751V135.864ZM495.974 135.864H485.974V138.629H495.974H505.974V135.864H495.974ZM495.974 138.629V148.629H500.408V138.629V128.629H495.974V138.629ZM500.408 138.629H490.408V140.175H500.408H510.408V138.629H500.408ZM500.408 140.175V130.175H495.974V140.175V150.175H500.408V140.175ZM495.974 140.175H485.974V142.954H495.974H505.974V140.175H495.974ZM495.974 142.954V152.954H500.791V142.954V132.954H495.974V142.954ZM500.791 142.954H490.791V144.5H500.791H510.791V142.954H500.791ZM500.791 144.5V134.5H494.129V144.5V154.5H500.791V144.5ZM512.048 137.754V147.754H523.483L521.959 136.421L512.048 137.754ZM510.189 137.754L500.337 139.467L501.778 147.754H510.189V137.754ZM509.895 136.943L501.31 142.071L501.326 142.097L501.342 142.124L509.895 136.943ZM509.364 136.337L515.52 128.456L515.52 128.456L509.364 136.337ZM508.638 135.964L505.581 145.485L505.651 145.508L505.721 145.529L508.638 135.964ZM506.296 136.252L511.707 144.662L511.73 144.647L511.753 144.632L506.296 136.252ZM505.292 137.465L514.39 141.616L514.394 141.605L514.399 141.595L505.292 137.465ZM505.292 141.378L496.184 145.507L496.2 145.542L496.216 145.576L505.292 141.378ZM506.296 142.581L500.902 151.001L500.94 151.026L500.978 151.05L506.296 142.581ZM508.618 142.864L511.491 152.443L511.529 152.431L511.567 152.42L508.618 142.864ZM509.339 142.501L503.398 134.457L503.368 134.479L503.339 134.501L509.339 142.501ZM509.881 141.915L501.469 136.507L501.441 136.55L501.414 136.593L509.881 141.915ZM510.189 141.119L510.242 131.119L501.909 131.075L500.363 139.263L510.189 141.119ZM512.048 141.129L521.946 142.553L523.581 131.191L512.102 131.129L512.048 141.129ZM511.596 142.491L502.822 137.693L502.808 137.72L502.793 137.746L511.596 142.491ZM510.696 143.615L517.243 151.174L517.262 151.158L517.281 151.141L510.696 143.615ZM509.393 144.371L512.781 153.78L512.808 153.77L512.836 153.76L509.393 144.371ZM505.341 144.018L510.421 135.404L505.341 144.018ZM503.681 142.223L494.798 146.815L503.681 142.223ZM503.686 136.595L512.546 141.232L512.55 141.225L512.554 141.217L503.686 136.595ZM505.351 134.8L500.272 126.186L500.272 126.186L505.351 134.8ZM509.319 134.418L512.423 124.912L512.423 124.912L509.319 134.418ZM510.621 135.119L504.333 142.894L504.354 142.911L504.374 142.927L510.621 135.119ZM511.561 136.242L502.807 141.076L502.829 141.115L502.85 141.154L511.561 136.242ZM512.048 137.754V127.754H510.189V137.754V147.754H512.048V137.754ZM510.189 137.754L520.041 136.04C519.801 134.661 519.312 133.188 518.449 131.763L509.895 136.943L501.342 142.124C500.764 141.169 500.47 140.236 500.337 139.467L510.189 137.754ZM509.895 136.943L518.481 131.816C517.727 130.553 516.736 129.407 515.52 128.456L509.364 136.337L503.207 144.217C502.415 143.598 501.779 142.856 501.31 142.071L509.895 136.943ZM509.364 136.337L515.52 128.456C514.287 127.494 512.934 126.819 511.554 126.398L508.638 135.964L505.721 145.529C504.885 145.274 504.015 144.848 503.207 144.217L509.364 136.337ZM508.638 135.964L511.694 126.442C510.34 126.008 509.009 125.835 507.768 125.835V135.835V145.835C507.15 145.835 506.399 145.748 505.581 145.485L508.638 135.964ZM507.768 135.835V125.835C505.448 125.835 503.028 126.447 500.839 127.872L506.296 136.252L511.753 144.632C510.419 145.501 508.98 145.835 507.768 145.835V135.835ZM506.296 136.252L500.885 127.842C498.604 129.31 497.097 131.323 496.184 133.336L505.292 137.465L514.399 141.595C513.971 142.54 513.133 143.744 511.707 144.662L506.296 136.252ZM505.292 137.465L496.194 133.314C495.202 135.488 494.929 137.64 494.929 139.409H504.929H514.929C514.929 139.647 514.898 140.503 514.39 141.616L505.292 137.465ZM504.929 139.409H494.929C494.929 141.166 495.194 143.324 496.184 145.507L505.292 141.378L514.399 137.248C514.905 138.365 514.929 139.21 514.929 139.409H504.929ZM505.292 141.378L496.216 145.576C497.13 147.554 498.63 149.546 500.902 151.001L506.296 142.581L511.69 134.161C513.114 135.072 513.944 136.263 514.368 137.18L505.292 141.378ZM506.296 142.581L500.978 151.05C503.141 152.408 505.507 152.984 507.763 152.984V142.984V132.984C508.918 132.984 510.306 133.291 511.614 134.112L506.296 142.581ZM507.763 142.984V152.984C508.943 152.984 510.205 152.829 511.491 152.443L508.618 142.864L505.744 133.286C506.501 133.059 507.192 132.984 507.763 132.984V142.984ZM508.618 142.864L511.567 152.42C512.868 152.018 514.153 151.391 515.339 150.501L509.339 142.501L503.339 134.501C504.1 133.93 504.904 133.545 505.669 133.309L508.618 142.864ZM509.339 142.501L515.279 150.546C516.523 149.627 517.552 148.501 518.347 147.236L509.881 141.915L501.414 136.593C501.917 135.793 502.586 135.057 503.398 134.457L509.339 142.501ZM509.881 141.915L518.292 147.322C519.204 145.904 519.744 144.41 520.015 142.975L510.189 141.119L500.363 139.263C500.521 138.425 500.856 137.461 501.469 136.507L509.881 141.915ZM510.189 141.119L510.135 151.119L511.995 151.129L512.048 141.129L512.102 131.129L510.242 131.119L510.189 141.119ZM512.048 141.129L502.15 139.706C502.249 139.02 502.474 138.329 502.822 137.693L511.596 142.491L520.369 147.29C521.181 145.805 521.708 144.206 521.946 142.553L512.048 141.129ZM511.596 142.491L502.793 137.746C503.145 137.094 503.604 136.533 504.111 136.089L510.696 143.615L517.281 151.141C518.53 150.048 519.589 148.738 520.398 147.237L511.596 142.491ZM510.696 143.615L504.149 136.056C504.763 135.525 505.4 135.184 505.951 134.982L509.393 144.371L512.836 153.76C514.381 153.193 515.887 152.349 517.243 151.174L510.696 143.615ZM509.393 144.371L506.006 134.962C506.743 134.697 507.358 134.639 507.738 134.639V144.639V154.639C509.331 154.639 511.049 154.403 512.781 153.78L509.393 144.371ZM507.738 144.639V134.639C508.451 134.639 509.437 134.824 510.421 135.404L505.341 144.018L500.262 152.632C502.651 154.04 505.235 154.639 507.738 154.639V144.639ZM505.341 144.018L510.421 135.404C511.468 136.021 512.176 136.879 512.564 137.631L503.681 142.223L494.798 146.815C495.995 149.131 497.809 151.186 500.262 152.632L505.341 144.018ZM503.681 142.223L512.564 137.631C513.05 138.571 513.074 139.285 513.074 139.409H503.074H493.074C493.074 141.721 493.503 144.311 494.798 146.815L503.681 142.223ZM503.074 139.409H513.074C513.074 139.534 513.05 140.269 512.546 141.232L503.686 136.595L494.826 131.958C493.506 134.479 493.074 137.09 493.074 139.409H503.074ZM503.686 136.595L512.554 141.217C512.17 141.953 511.47 142.801 510.431 143.415L505.351 134.8L500.272 126.186C497.827 127.628 496.017 129.672 494.818 131.973L503.686 136.595ZM505.351 134.8L510.431 143.415C509.459 143.987 508.472 144.179 507.738 144.179V134.179V124.179C505.227 124.179 502.649 124.785 500.272 126.186L505.351 134.8ZM507.738 134.179V144.179C507.361 144.179 506.83 144.124 506.215 143.924L509.319 134.418L512.423 124.912C510.833 124.393 509.248 124.179 507.738 124.179V134.179ZM509.319 134.418L506.215 143.924C505.598 143.722 504.942 143.386 504.333 142.894L510.621 135.119L516.909 127.343C515.538 126.234 514.014 125.431 512.423 124.912L509.319 134.418ZM510.621 135.119L504.374 142.927C503.693 142.382 503.169 141.732 502.807 141.076L511.561 136.242L520.315 131.408C519.462 129.864 518.312 128.465 516.868 127.31L510.621 135.119ZM511.561 136.242L502.85 141.154C502.4 140.354 502.209 139.616 502.137 139.087L512.048 137.754L521.959 136.421C521.735 134.758 521.22 133.012 520.271 131.33L511.561 136.242ZM513.99 135.864H503.99V145.864H513.99V135.864ZM513.99 134.318V124.318H503.99V134.318H513.99ZM522.113 134.318H532.113V124.318H522.113V134.318ZM522.113 135.864V145.864H532.113V135.864H522.113ZM518.966 135.864V125.864H508.966V135.864H518.966ZM518.966 144.5V154.5H528.966V144.5H518.966ZM517.137 144.5H507.137V154.5H517.137V144.5ZM517.137 135.864H527.137V125.864H517.137V135.864ZM513.99 135.864H523.99V134.318H513.99H503.99V135.864H513.99ZM513.99 134.318V144.318H522.113V134.318V124.318H513.99V134.318ZM522.113 134.318H512.113V135.864H522.113H532.113V134.318H522.113ZM522.113 135.864V125.864H518.966V135.864V145.864H522.113V135.864ZM518.966 135.864H508.966V144.5H518.966H528.966V135.864H518.966ZM518.966 144.5V134.5H517.137V144.5V154.5H518.966V144.5ZM517.137 144.5H527.137V135.864H517.137H507.137V144.5H517.137ZM517.137 135.864V125.864H513.99V135.864V145.864H517.137V135.864Z" fill="#121416" mask="url(#path-19-outside-1_114_1289)"/>
<rect x="701.5" y="10.5" width="259" height="258" rx="9.5" stroke="#D4D4D8" stroke-dasharray="4 4"/>
<rect x="711.5" y="20.5" width="239" height="238" rx="7.5" fill="#7C2D12"/>
<rect x="711.5" y="20.5" width="239" height="238" rx="7.5" stroke="#FDBA74"/>
<g clip-path="url(#clip3_114_1289)">
<path d="M797.618 117.139C797.618 117.696 797.5 118.213 797.265 118.692C797.029 119.164 796.695 119.57 796.276 119.897C795.851 120.231 795.347 120.487 794.765 120.67C794.182 120.854 793.541 120.945 792.847 120.945C792.016 120.945 791.27 120.834 790.616 120.605C789.962 120.382 789.301 120.002 788.64 119.478L789.733 117.702C790.256 118.141 790.727 118.462 791.153 118.665C791.572 118.868 792.004 118.967 792.449 118.967C792.992 118.967 793.424 118.829 793.758 118.547C794.091 118.266 794.248 117.892 794.248 117.414C794.248 117.211 794.216 117.021 794.157 116.844C794.098 116.667 793.987 116.484 793.83 116.294C793.673 116.11 793.45 115.901 793.169 115.684C792.894 115.468 792.534 115.193 792.089 114.872C791.755 114.636 791.422 114.387 791.101 114.138C790.78 113.882 790.492 113.614 790.224 113.325C789.962 113.037 789.753 112.716 789.589 112.356C789.432 112.002 789.347 111.589 789.347 111.137C789.347 110.613 789.458 110.128 789.674 109.696C789.89 109.263 790.191 108.896 790.571 108.589C790.95 108.281 791.402 108.045 791.938 107.875C792.468 107.704 793.043 107.619 793.672 107.619C794.333 107.619 794.968 107.704 795.582 107.881C796.197 108.058 796.767 108.314 797.297 108.654L796.309 110.253C795.635 109.781 794.921 109.539 794.175 109.539C793.724 109.539 793.344 109.657 793.05 109.893C792.755 110.129 792.605 110.423 792.605 110.784C792.605 111.124 792.736 111.432 792.997 111.701C793.259 111.976 793.711 112.35 794.352 112.848C795 113.319 795.537 113.739 795.956 114.092C796.381 114.446 796.715 114.786 796.963 115.101C797.212 115.416 797.376 115.73 797.474 116.057C797.572 116.391 797.618 116.746 797.618 117.139ZM808.84 114.145C808.84 114.637 808.788 115.167 808.683 115.737C808.585 116.307 808.408 116.831 808.16 117.316C807.911 117.801 807.59 118.201 807.191 118.508C806.792 118.823 806.281 118.98 805.673 118.98C804.652 118.98 803.847 118.574 803.258 117.755C802.669 116.943 802.375 115.822 802.375 114.401C802.375 112.94 802.669 111.787 803.272 110.929C803.867 110.07 804.678 109.645 805.699 109.645C806.668 109.645 807.433 110.051 807.996 110.85C808.559 111.656 808.84 112.756 808.84 114.145ZM812.387 114.021C812.387 113.071 812.249 112.206 811.981 111.433C811.706 110.653 811.327 109.985 810.823 109.422C810.319 108.859 809.73 108.426 809.043 108.112C808.356 107.797 807.597 107.64 806.766 107.64C805.85 107.64 805.045 107.817 804.351 108.158C803.658 108.505 803.01 109.049 802.421 109.795L802.401 107.941H799.136V126.997H802.395V118.948C802.715 119.321 803.023 119.636 803.324 119.891C803.618 120.146 803.919 120.356 804.227 120.513C804.534 120.671 804.855 120.788 805.195 120.854C805.535 120.92 805.902 120.952 806.288 120.952C807.152 120.952 807.963 120.775 808.709 120.435C809.455 120.087 810.102 119.603 810.645 118.974C811.189 118.344 811.614 117.611 811.922 116.779C812.236 115.94 812.387 115.017 812.387 114.021ZM813.84 120.644H817.19V101.999H813.84V120.644ZM831.478 120.651V107.929H828.128V114.775C828.128 115.384 828.102 115.856 828.05 116.19C827.997 116.524 827.912 116.819 827.795 117.094C827.324 118.142 826.453 118.673 825.19 118.673C824.202 118.673 823.515 118.319 823.122 117.605C822.965 117.336 822.861 117.029 822.802 116.688C822.743 116.347 822.71 115.856 822.71 115.207V107.929H819.36V115.159C819.36 115.65 819.367 116.069 819.373 116.403C819.38 116.737 819.406 117.045 819.439 117.307C819.471 117.569 819.511 117.805 819.557 118.009C819.596 118.212 819.661 118.408 819.746 118.592C820.054 119.371 820.545 119.961 821.232 120.36C821.919 120.76 822.763 120.957 823.757 120.957C824.654 120.957 825.446 120.799 826.126 120.485C826.807 120.17 827.468 119.659 828.109 118.945L828.115 120.649L831.479 120.655L831.478 120.651ZM845.916 120.644V113.429C845.916 112.938 845.909 112.519 845.903 112.171C845.896 111.824 845.877 111.523 845.837 111.267C845.805 111.012 845.759 110.789 845.713 110.599C845.661 110.402 845.602 110.212 845.536 110.029C845.229 109.269 844.738 108.68 844.051 108.267C843.364 107.853 842.52 107.644 841.518 107.644C840.622 107.644 839.83 107.801 839.15 108.116C838.469 108.43 837.808 108.948 837.167 109.655L837.16 107.952H833.79V120.646H837.167V113.794C837.167 113.204 837.186 112.739 837.232 112.411C837.271 112.083 837.356 111.775 837.474 111.48C837.69 110.969 838.03 110.589 838.482 110.328C838.933 110.066 839.47 109.935 840.098 109.935C841.086 109.935 841.773 110.288 842.166 111.003C842.316 111.271 842.421 111.579 842.48 111.913C842.539 112.247 842.572 112.745 842.572 113.387V120.63L845.915 120.637L845.916 120.644ZM859.777 119.805L854.674 113.457L858.985 108.832L856.446 107.738L851.958 112.946H851.604V102.002H848.228V120.648H851.604V113.894L856.656 120.901L859.776 119.806L859.777 119.805ZM872.826 115.246V113.169L862.673 108.071V110.358L870.541 114.19L862.673 118.075V120.309L872.826 115.246ZM863.659 104.774C863.037 104.774 862.533 105.285 862.533 105.914C862.533 106.556 863.037 107.06 863.659 107.06C864.287 107.06 864.785 106.556 864.785 105.914C864.785 105.278 864.287 104.774 863.659 104.774ZM863.666 104.95C864.169 104.95 864.575 105.383 864.575 105.92C864.575 106.457 864.169 106.889 863.666 106.883C863.155 106.883 862.749 106.457 862.749 105.914C862.749 105.383 863.155 104.95 863.666 104.95ZM863.45 106.032H863.587C863.751 106.032 863.829 106.091 863.862 106.254C863.888 106.425 863.921 106.536 863.947 106.575H864.163C864.143 106.536 864.11 106.458 864.085 106.261C864.058 106.071 863.986 105.973 863.869 105.953V105.94C864.006 105.901 864.117 105.796 864.117 105.632C864.117 105.514 864.078 105.422 863.999 105.37C863.921 105.311 863.796 105.272 863.607 105.272C863.456 105.272 863.351 105.285 863.247 105.305V106.575H863.45V106.032ZM863.45 105.442C863.483 105.435 863.528 105.429 863.594 105.429C863.823 105.429 863.901 105.54 863.901 105.652C863.901 105.809 863.757 105.868 863.594 105.868H863.45V105.442Z" fill="#FAFAFA"/>
</g>
<path d="M778.248 141.818H780.331L782.822 146.322H782.921L785.412 141.818H787.495L783.791 148.202V152H781.952V148.202L778.248 141.818ZM798.025 146.909C798.025 148.006 797.819 148.946 797.408 149.728C797.001 150.507 796.444 151.103 795.738 151.518C795.035 151.932 794.238 152.139 793.347 152.139C792.455 152.139 791.656 151.932 790.95 151.518C790.248 151.1 789.691 150.502 789.28 149.723C788.872 148.941 788.668 148.003 788.668 146.909C788.668 145.812 788.872 144.874 789.28 144.095C789.691 143.313 790.248 142.715 790.95 142.3C791.656 141.886 792.455 141.679 793.347 141.679C794.238 141.679 795.035 141.886 795.738 142.3C796.444 142.715 797.001 143.313 797.408 144.095C797.819 144.874 798.025 145.812 798.025 146.909ZM796.171 146.909C796.171 146.137 796.05 145.486 795.808 144.955C795.569 144.422 795.238 144.019 794.813 143.747C794.389 143.472 793.9 143.335 793.347 143.335C792.793 143.335 792.304 143.472 791.88 143.747C791.456 144.019 791.123 144.422 790.881 144.955C790.642 145.486 790.523 146.137 790.523 146.909C790.523 147.681 790.642 148.334 790.881 148.868C791.123 149.398 791.456 149.801 791.88 150.076C792.304 150.348 792.793 150.484 793.347 150.484C793.9 150.484 794.389 150.348 794.813 150.076C795.238 149.801 795.569 149.398 795.808 148.868C796.05 148.334 796.171 147.681 796.171 146.909ZM806.887 141.818H808.732V148.47C808.732 149.199 808.559 149.841 808.214 150.394C807.873 150.948 807.392 151.38 806.773 151.692C806.153 152 805.429 152.154 804.6 152.154C803.768 152.154 803.042 152 802.423 151.692C801.803 151.38 801.322 150.948 800.981 150.394C800.639 149.841 800.469 149.199 800.469 148.47V141.818H802.313V148.316C802.313 148.74 802.406 149.118 802.592 149.45C802.781 149.781 803.046 150.041 803.387 150.23C803.728 150.416 804.133 150.509 804.6 150.509C805.067 150.509 805.472 150.416 805.813 150.23C806.158 150.041 806.423 149.781 806.609 149.45C806.794 149.118 806.887 148.74 806.887 148.316V141.818ZM811.436 152V141.818H815.254C816.037 141.818 816.693 141.954 817.223 142.226C817.757 142.498 818.16 142.879 818.431 143.369C818.706 143.857 818.844 144.425 818.844 145.075C818.844 145.728 818.705 146.294 818.426 146.775C818.151 147.252 817.745 147.622 817.208 147.884C816.671 148.142 816.012 148.271 815.23 148.271H812.51V146.74H814.981C815.438 146.74 815.813 146.677 816.105 146.551C816.396 146.422 816.612 146.235 816.751 145.989C816.893 145.741 816.965 145.436 816.965 145.075C816.965 144.713 816.893 144.405 816.751 144.15C816.608 143.891 816.391 143.696 816.1 143.563C815.808 143.427 815.432 143.359 814.971 143.359H813.281V152H811.436ZM816.696 147.386L819.217 152H817.159L814.683 147.386H816.696ZM830.948 144.617C830.901 144.183 830.706 143.845 830.361 143.603C830.02 143.361 829.576 143.24 829.029 143.24C828.644 143.24 828.315 143.298 828.039 143.414C827.764 143.53 827.554 143.687 827.408 143.886C827.262 144.085 827.188 144.312 827.184 144.567C827.184 144.78 827.232 144.964 827.328 145.119C827.428 145.275 827.562 145.408 827.731 145.517C827.9 145.623 828.087 145.713 828.293 145.786C828.498 145.858 828.706 145.92 828.914 145.969L829.869 146.208C830.253 146.298 830.623 146.419 830.978 146.571C831.336 146.723 831.655 146.916 831.937 147.148C832.222 147.38 832.448 147.66 832.613 147.988C832.779 148.316 832.862 148.701 832.862 149.141C832.862 149.738 832.709 150.263 832.404 150.717C832.1 151.168 831.659 151.521 831.082 151.776C830.509 152.028 829.814 152.154 828.999 152.154C828.207 152.154 827.519 152.031 826.936 151.786C826.356 151.541 825.902 151.183 825.574 150.712C825.249 150.242 825.073 149.668 825.047 148.992H826.861C826.888 149.347 826.997 149.642 827.189 149.877C827.382 150.112 827.632 150.288 827.94 150.404C828.252 150.52 828.6 150.578 828.984 150.578C829.385 150.578 829.736 150.518 830.038 150.399C830.343 150.277 830.582 150.107 830.754 149.892C830.926 149.673 831.014 149.418 831.017 149.126C831.014 148.861 830.936 148.643 830.784 148.47C830.631 148.295 830.417 148.149 830.142 148.033C829.871 147.913 829.552 147.807 829.188 147.714L828.029 147.416C827.191 147.201 826.528 146.874 826.041 146.437C825.557 145.996 825.315 145.411 825.315 144.682C825.315 144.082 825.477 143.557 825.802 143.106C826.13 142.655 826.576 142.305 827.14 142.057C827.703 141.805 828.341 141.679 829.054 141.679C829.776 141.679 830.409 141.805 830.953 142.057C831.5 142.305 831.929 142.652 832.24 143.096C832.552 143.537 832.713 144.044 832.723 144.617H830.948ZM835.206 152V141.818H839.024C839.807 141.818 840.463 141.964 840.993 142.256C841.527 142.547 841.929 142.948 842.201 143.459C842.476 143.966 842.614 144.543 842.614 145.189C842.614 145.842 842.476 146.422 842.201 146.929C841.926 147.436 841.52 147.835 840.983 148.127C840.446 148.415 839.785 148.56 839 148.56H836.469V147.043H838.751C839.208 147.043 839.583 146.964 839.875 146.805C840.166 146.646 840.382 146.427 840.521 146.148C840.663 145.87 840.735 145.55 840.735 145.189C840.735 144.828 840.663 144.509 840.521 144.234C840.382 143.959 840.165 143.746 839.87 143.593C839.578 143.437 839.202 143.359 838.741 143.359H837.051V152H835.206ZM844.916 152V141.818H846.76V150.454H851.245V152H844.916ZM859.964 141.818H861.808V148.47C861.808 149.199 861.636 149.841 861.291 150.394C860.95 150.948 860.469 151.38 859.85 151.692C859.23 152 858.506 152.154 857.677 152.154C856.845 152.154 856.119 152 855.5 151.692C854.88 151.38 854.399 150.948 854.058 150.394C853.716 149.841 853.546 149.199 853.546 148.47V141.818H855.39V148.316C855.39 148.74 855.483 149.118 855.669 149.45C855.857 149.781 856.123 150.041 856.464 150.23C856.805 150.416 857.21 150.509 857.677 150.509C858.144 150.509 858.549 150.416 858.89 150.23C859.235 150.041 859.5 149.781 859.686 149.45C859.871 149.118 859.964 148.74 859.964 148.316V141.818ZM872.88 141.818V152H871.24L866.442 145.065H866.358V152H864.513V141.818H866.164L870.956 148.759H871.046V141.818H872.88ZM875.59 152V141.818H877.435V146.496H877.559L881.531 141.818H883.783L879.846 146.387L883.818 152H881.601L878.563 147.635L877.435 148.967V152H875.59ZM784.511 172H782.543L786.127 161.818H788.404L791.994 172H790.025L787.305 163.906H787.226L784.511 172ZM784.576 168.008H789.945V169.489H784.576V168.008ZM802.271 165.254H800.412C800.359 164.949 800.261 164.679 800.119 164.443C799.976 164.205 799.799 164.002 799.587 163.837C799.375 163.671 799.133 163.547 798.861 163.464C798.592 163.378 798.302 163.335 797.991 163.335C797.437 163.335 796.947 163.474 796.519 163.752C796.092 164.027 795.757 164.432 795.515 164.965C795.273 165.496 795.152 166.143 795.152 166.909C795.152 167.688 795.273 168.344 795.515 168.878C795.76 169.408 796.095 169.809 796.519 170.081C796.947 170.349 797.436 170.484 797.986 170.484C798.291 170.484 798.576 170.444 798.841 170.364C799.109 170.281 799.35 170.161 799.562 170.001C799.777 169.842 799.958 169.647 800.104 169.415C800.253 169.183 800.356 168.918 800.412 168.619L802.271 168.629C802.202 169.113 802.051 169.567 801.819 169.991C801.59 170.416 801.29 170.79 800.919 171.115C800.548 171.437 800.114 171.688 799.617 171.871C799.119 172.05 798.568 172.139 797.961 172.139C797.066 172.139 796.267 171.932 795.565 171.518C794.862 171.103 794.309 170.505 793.904 169.723C793.5 168.941 793.298 168.003 793.298 166.909C793.298 165.812 793.502 164.874 793.909 164.095C794.317 163.313 794.872 162.715 795.575 162.3C796.277 161.886 797.073 161.679 797.961 161.679C798.528 161.679 799.055 161.759 799.542 161.918C800.029 162.077 800.463 162.31 800.845 162.619C801.226 162.924 801.539 163.298 801.784 163.742C802.033 164.183 802.195 164.687 802.271 165.254ZM813.376 165.254H811.516C811.463 164.949 811.366 164.679 811.223 164.443C811.08 164.205 810.903 164.002 810.691 163.837C810.479 163.671 810.237 163.547 809.965 163.464C809.697 163.378 809.407 163.335 809.095 163.335C808.542 163.335 808.051 163.474 807.624 163.752C807.196 164.027 806.861 164.432 806.619 164.965C806.377 165.496 806.256 166.143 806.256 166.909C806.256 167.688 806.377 168.344 806.619 168.878C806.865 169.408 807.199 169.809 807.624 170.081C808.051 170.349 808.54 170.484 809.09 170.484C809.395 170.484 809.68 170.444 809.945 170.364C810.214 170.281 810.454 170.161 810.666 170.001C810.882 169.842 811.062 169.647 811.208 169.415C811.357 169.183 811.46 168.918 811.516 168.619L813.376 168.629C813.306 169.113 813.155 169.567 812.923 169.991C812.695 170.416 812.395 170.79 812.023 171.115C811.652 171.437 811.218 171.688 810.721 171.871C810.224 172.05 809.672 172.139 809.065 172.139C808.17 172.139 807.372 171.932 806.669 171.518C805.966 171.103 805.413 170.505 805.009 169.723C804.604 168.941 804.402 168.003 804.402 166.909C804.402 165.812 804.606 164.874 805.013 164.095C805.421 163.313 805.976 162.715 806.679 162.3C807.382 161.886 808.177 161.679 809.065 161.679C809.632 161.679 810.159 161.759 810.646 161.918C811.134 162.077 811.568 162.31 811.949 162.619C812.33 162.924 812.643 163.298 812.888 163.742C813.137 164.183 813.299 164.687 813.376 165.254ZM824.863 166.909C824.863 168.006 824.657 168.946 824.246 169.728C823.839 170.507 823.282 171.103 822.576 171.518C821.873 171.932 821.076 172.139 820.185 172.139C819.293 172.139 818.494 171.932 817.788 171.518C817.086 171.1 816.529 170.502 816.118 169.723C815.71 168.941 815.506 168.003 815.506 166.909C815.506 165.812 815.71 164.874 816.118 164.095C816.529 163.313 817.086 162.715 817.788 162.3C818.494 161.886 819.293 161.679 820.185 161.679C821.076 161.679 821.873 161.886 822.576 162.3C823.282 162.715 823.839 163.313 824.246 164.095C824.657 164.874 824.863 165.812 824.863 166.909ZM823.008 166.909C823.008 166.137 822.887 165.486 822.645 164.955C822.407 164.422 822.075 164.019 821.651 163.747C821.227 163.472 820.738 163.335 820.185 163.335C819.631 163.335 819.142 163.472 818.718 163.747C818.294 164.019 817.961 164.422 817.719 164.955C817.48 165.486 817.361 166.137 817.361 166.909C817.361 167.681 817.48 168.334 817.719 168.868C817.961 169.398 818.294 169.801 818.718 170.076C819.142 170.348 819.631 170.484 820.185 170.484C820.738 170.484 821.227 170.348 821.651 170.076C822.075 169.801 822.407 169.398 822.645 168.868C822.887 168.334 823.008 167.681 823.008 166.909ZM833.725 161.818H835.569V168.47C835.569 169.199 835.397 169.841 835.052 170.394C834.711 170.948 834.23 171.38 833.611 171.692C832.991 172 832.267 172.154 831.438 172.154C830.606 172.154 829.88 172 829.26 171.692C828.641 171.38 828.16 170.948 827.819 170.394C827.477 169.841 827.307 169.199 827.307 168.47V161.818H829.151V168.316C829.151 168.74 829.244 169.118 829.429 169.45C829.618 169.781 829.884 170.041 830.225 170.23C830.566 170.416 830.971 170.509 831.438 170.509C831.905 170.509 832.31 170.416 832.651 170.23C832.996 170.041 833.261 169.781 833.447 169.45C833.632 169.118 833.725 168.74 833.725 168.316V161.818ZM846.641 161.818V172H845.001L840.203 165.065H840.119V172H838.274V161.818H839.925L844.717 168.759H844.807V161.818H846.641ZM848.904 163.364V161.818H857.027V163.364H853.88V172H852.051V163.364H848.904ZM859.661 166.909C859.661 165.666 859.825 164.524 860.153 163.484C860.485 162.44 860.977 161.475 861.63 160.59H863.325C863.073 160.918 862.838 161.321 862.619 161.798C862.401 162.272 862.21 162.793 862.048 163.359C861.888 163.923 861.763 164.508 861.67 165.114C861.58 165.721 861.536 166.319 861.536 166.909C861.536 167.695 861.613 168.49 861.769 169.295C861.928 170.101 862.142 170.848 862.411 171.538C862.682 172.224 862.987 172.786 863.325 173.223H861.63C860.977 172.338 860.485 171.375 860.153 170.335C859.825 169.29 859.661 168.149 859.661 166.909ZM871.036 164.617C870.99 164.183 870.795 163.845 870.45 163.603C870.108 163.361 869.664 163.24 869.117 163.24C868.733 163.24 868.403 163.298 868.128 163.414C867.853 163.53 867.643 163.687 867.497 163.886C867.351 164.085 867.276 164.312 867.273 164.567C867.273 164.78 867.321 164.964 867.417 165.119C867.517 165.275 867.651 165.408 867.82 165.517C867.989 165.623 868.176 165.713 868.382 165.786C868.587 165.858 868.794 165.92 869.003 165.969L869.958 166.208C870.342 166.298 870.712 166.419 871.066 166.571C871.424 166.723 871.744 166.916 872.026 167.148C872.311 167.38 872.536 167.66 872.702 167.988C872.868 168.316 872.951 168.701 872.951 169.141C872.951 169.738 872.798 170.263 872.493 170.717C872.188 171.168 871.747 171.521 871.171 171.776C870.597 172.028 869.903 172.154 869.088 172.154C868.295 172.154 867.608 172.031 867.024 171.786C866.444 171.541 865.99 171.183 865.662 170.712C865.337 170.242 865.162 169.668 865.135 168.992H866.95C866.976 169.347 867.086 169.642 867.278 169.877C867.47 170.112 867.72 170.288 868.029 170.404C868.34 170.52 868.688 170.578 869.073 170.578C869.474 170.578 869.825 170.518 870.127 170.399C870.432 170.277 870.67 170.107 870.843 169.892C871.015 169.673 871.103 169.418 871.106 169.126C871.103 168.861 871.025 168.643 870.872 168.47C870.72 168.295 870.506 168.149 870.231 168.033C869.959 167.913 869.641 167.807 869.277 167.714L868.118 167.416C867.28 167.201 866.617 166.874 866.13 166.437C865.646 165.996 865.404 165.411 865.404 164.682C865.404 164.082 865.566 163.557 865.891 163.106C866.219 162.655 866.665 162.305 867.228 162.057C867.792 161.805 868.43 161.679 869.142 161.679C869.865 161.679 870.498 161.805 871.041 162.057C871.588 162.305 872.018 162.652 872.329 163.096C872.641 163.537 872.801 164.044 872.811 164.617H871.036ZM878.427 166.909C878.427 168.149 878.261 169.29 877.93 170.335C877.602 171.375 877.111 172.338 876.458 173.223H874.763C875.018 172.895 875.253 172.494 875.469 172.02C875.688 171.546 875.877 171.026 876.036 170.459C876.198 169.892 876.324 169.305 876.413 168.699C876.506 168.092 876.553 167.496 876.553 166.909C876.553 166.124 876.473 165.328 876.314 164.523C876.158 163.717 875.945 162.97 875.673 162.281C875.404 161.591 875.101 161.028 874.763 160.59H876.458C877.111 161.475 877.602 162.44 877.93 163.484C878.261 164.524 878.427 165.666 878.427 166.909Z" fill="white"/>
<defs>
<clipPath id="clip0_114_1289">
<rect width="55" height="27" fill="white" transform="translate(112.5 30)"/>
</clipPath>
<clipPath id="clip1_114_1289">
<rect width="13.285" height="26.7776" fill="white" transform="translate(112.5 30.6112)"/>
</clipPath>
<clipPath id="clip2_114_1289">
<rect width="35" height="40" fill="white" transform="translate(122 121)"/>
</clipPath>
<clipPath id="clip3_114_1289">
<rect width="84.7222" height="25" fill="white" transform="translate(788.639 102)"/>
</clipPath>
</defs>
</svg>
