<svg width="971" height="279" viewBox="0 0 971 279" fill="none" xmlns="http://www.w3.org/2000/svg">
<rect width="971" height="279" fill="#121416"/>
<rect x="10.5" y="10.5" width="259" height="258" rx="9.5" stroke="#6EE7B7" stroke-dasharray="4 4"/>
<rect x="20.5" y="20.5" width="239" height="238" rx="7.5" fill="#022C22"/>
<rect x="20.5" y="20.5" width="239" height="238" rx="7.5" stroke="#6EE7B7"/>
<g clip-path="url(#clip0_129_2981)">
<g clip-path="url(#clip1_129_2981)">
<rect x="119.143" y="50.7458" width="6.64251" height="6.64251" fill="#F5F5F5"/>
<rect x="112.5" y="30.8184" width="6.64251" height="6.64251" fill="#F5F5F5"/>
<rect x="119.143" y="37.4608" width="6.64251" height="6.64251" fill="#F5F5F5"/>
<rect x="112.5" y="44.1034" width="6.64251" height="6.64251" fill="#F5F5F5"/>
</g>
<path d="M160.064 46.4031V42.5323C160.064 40.8389 160.897 39.9922 162.564 39.9922H164.944C166.599 39.9922 167.427 40.8389 167.427 42.5323V46.4031C167.427 48.0965 166.599 48.9432 164.944 48.9432H162.564C160.897 48.9432 160.064 48.0965 160.064 46.4031ZM161.135 46.5759C161.135 47.5205 161.6 47.9928 162.53 47.9928H164.978C165.897 47.9928 166.356 47.5205 166.356 46.5759V42.3595C166.356 41.4264 165.897 40.9599 164.978 40.9599H162.53C161.6 40.9599 161.135 41.4264 161.135 42.3595V46.5759Z" fill="#FAFAFA"/>
<path d="M153.955 48.9432V40.9944C154.351 40.3263 155.071 39.9922 156.114 39.9922H157.781L158.359 40.4415V40.9599H156.165C155.644 40.9599 155.264 41.1039 155.026 41.3919V48.9432H153.955Z" fill="#FAFAFA"/>
<path d="M144.155 46.4031V42.5323C144.155 40.8389 144.989 39.9922 146.655 39.9922H148.866C150.521 39.9922 151.348 40.8389 151.348 42.5323V44.8997H145.227V46.5759C145.227 47.5205 145.691 47.9928 146.621 47.9928H151.008V48.4939L150.43 48.9432H146.655C144.989 48.9432 144.155 48.0965 144.155 46.4031ZM145.227 43.9839H150.277V42.3595C150.277 41.4264 149.818 40.9599 148.9 40.9599H146.621C145.691 40.9599 145.227 41.4264 145.227 42.3595V43.9839Z" fill="#FAFAFA"/>
<path d="M134.022 38.0741V37.02H143.171V38.0741H139.157V48.9432H138.035V38.0741H134.022Z" fill="#FAFAFA"/>
</g>
<circle cx="139.5" cy="79.5" r="12.5" fill="#FAFAFA"/>
<path d="M140.923 73.3636V85H138.815V75.4148H138.747L136.026 77.1534V75.2216L138.918 73.3636H140.923Z" fill="#064E3B"/>
<circle cx="237.5" cy="140.5" r="12.5" fill="#FAFAFA"/>
<path d="M233.065 146V144.477L237.105 140.517C237.491 140.127 237.813 139.78 238.071 139.477C238.329 139.174 238.522 138.881 238.651 138.597C238.779 138.312 238.844 138.009 238.844 137.688C238.844 137.32 238.76 137.006 238.594 136.744C238.427 136.479 238.198 136.275 237.906 136.131C237.615 135.987 237.283 135.915 236.912 135.915C236.529 135.915 236.194 135.994 235.906 136.153C235.618 136.309 235.395 136.53 235.236 136.818C235.08 137.106 235.003 137.449 235.003 137.847H232.997C232.997 137.108 233.166 136.466 233.503 135.92C233.84 135.375 234.304 134.953 234.895 134.653C235.49 134.354 236.171 134.205 236.94 134.205C237.721 134.205 238.406 134.35 238.997 134.642C239.588 134.934 240.046 135.333 240.372 135.841C240.702 136.348 240.866 136.928 240.866 137.58C240.866 138.015 240.783 138.443 240.616 138.864C240.45 139.284 240.156 139.75 239.736 140.261C239.319 140.773 238.734 141.392 237.98 142.119L235.974 144.159V144.239H241.043V146H233.065Z" fill="#064E3B"/>
<path d="M227.5 79.4999L227.5 81.4999L227.5 81.4999L227.5 79.4999ZM237.5 89.4999L235.5 89.4999L237.5 89.4999ZM237.5 124L249.047 104L225.953 104L237.5 124ZM158.501 79.5L158.501 81.4999L227.5 81.4999L227.5 79.4999L227.5 77.4999L158.501 77.5L158.501 79.5ZM237.5 89.4999L235.5 89.4999L235.5 106L237.5 106L239.5 106L239.5 89.4999L237.5 89.4999ZM227.5 79.4999L227.5 81.4999C231.918 81.4999 235.5 85.0816 235.5 89.4999L237.5 89.4999L239.5 89.4999C239.5 82.8725 234.127 77.4999 227.5 77.4999L227.5 79.4999Z" fill="#34D399"/>
<g clip-path="url(#clip2_129_2981)">
<path opacity="0.4" d="M129.5 131C129.5 133.652 130.554 136.196 132.429 138.071C134.304 139.946 136.848 141 139.5 141C142.152 141 144.696 139.946 146.571 138.071C148.446 136.196 149.5 133.652 149.5 131C149.5 128.348 148.446 125.804 146.571 123.929C144.696 122.054 142.152 121 139.5 121C136.848 121 134.304 122.054 132.429 123.929C130.554 125.804 129.5 128.348 129.5 131Z" fill="#FAFAFA"/>
<path d="M122 158.68C122 150.984 128.234 144.75 135.93 144.75H143.07C150.766 144.75 157 150.984 157 158.68C157 159.961 155.961 161 154.68 161H124.32C123.039 161 122 159.961 122 158.68Z" fill="#FAFAFA"/>
</g>
<line x1="166" y1="142.5" x2="217" y2="142.5" stroke="white"/>
<line x1="139.5" y1="100" x2="139.5" y2="115" stroke="white"/>
<path d="M94.1094 237.5V241.891H96.5234C97.5026 241.891 98.237 241.711 98.7266 241.352C99.2161 240.987 99.4609 240.422 99.4609 239.656C99.4609 238.859 99.1953 238.302 98.6641 237.984C98.138 237.661 97.3151 237.5 96.1953 237.5H94.1094ZM94.1094 236.414H96.5859C97.3932 236.414 98.0026 236.273 98.4141 235.992C98.8255 235.711 99.0312 235.211 99.0312 234.492C99.0312 233.768 98.7839 233.271 98.2891 233C97.7995 232.724 97.0365 232.586 96 232.586H94.1094V236.414ZM92.7578 231.445H96.0703C97.5547 231.445 98.6536 231.672 99.3672 232.125C100.086 232.578 100.445 233.299 100.445 234.289C100.445 234.435 100.435 234.581 100.414 234.727C100.398 234.867 100.352 235.049 100.273 235.273C100.201 235.497 100.099 235.703 99.9688 235.891C99.8385 236.073 99.6458 236.258 99.3906 236.445C99.1406 236.628 98.8464 236.773 98.5078 236.883C99.2839 237.029 99.8724 237.357 100.273 237.867C100.674 238.378 100.875 238.992 100.875 239.711C100.875 240.758 100.531 241.568 99.8438 242.141C99.1615 242.714 98.1432 243 96.7891 243H92.7578V231.445ZM102.266 240.141V234.43H103.578V240.156C103.578 240.531 103.63 240.849 103.734 241.109C103.844 241.37 103.997 241.573 104.195 241.719C104.398 241.859 104.625 241.961 104.875 242.023C105.13 242.086 105.422 242.117 105.75 242.117C106.427 242.117 106.953 241.969 107.328 241.672C107.708 241.375 107.898 240.87 107.898 240.156V234.43H109.211V240.141C109.211 240.578 109.148 240.971 109.023 241.32C108.898 241.669 108.729 241.961 108.516 242.195C108.307 242.424 108.055 242.615 107.758 242.766C107.461 242.917 107.146 243.026 106.812 243.094C106.484 243.161 106.13 243.195 105.75 243.195C105.375 243.195 105.021 243.161 104.688 243.094C104.354 243.026 104.036 242.917 103.734 242.766C103.438 242.609 103.18 242.417 102.961 242.188C102.747 241.953 102.578 241.661 102.453 241.312C102.328 240.964 102.266 240.573 102.266 240.141ZM112.695 234.43V243H111.383V234.43H112.695ZM112.695 231.312V232.859H111.383V231.312H112.695ZM117.461 243.156C116.628 243.156 116.036 242.932 115.688 242.484C115.344 242.036 115.172 241.258 115.172 240.148V231.102L116.469 231.023V239.633C116.469 239.987 116.471 240.271 116.477 240.484C116.487 240.698 116.508 240.909 116.539 241.117C116.57 241.32 116.612 241.474 116.664 241.578C116.716 241.682 116.792 241.779 116.891 241.867C116.99 241.951 117.107 242.008 117.242 242.039C117.383 242.065 117.555 242.078 117.758 242.078C117.924 242.078 118.253 242.047 118.742 241.984L118.812 243.023C118.276 243.112 117.826 243.156 117.461 243.156ZM122.953 242.055C123.812 242.055 124.451 241.779 124.867 241.227C125.289 240.674 125.5 239.885 125.5 238.859C125.5 237.703 125.297 236.833 124.891 236.25C124.49 235.661 123.839 235.367 122.938 235.367C122.536 235.367 122.182 235.453 121.875 235.625C121.568 235.797 121.32 236.036 121.133 236.344C120.945 236.651 120.802 237.005 120.703 237.406C120.609 237.802 120.562 238.237 120.562 238.711C120.562 239.378 120.643 239.956 120.805 240.445C120.971 240.935 121.237 241.326 121.602 241.617C121.966 241.909 122.417 242.055 122.953 242.055ZM125.523 241.758C125.242 242.19 124.867 242.534 124.398 242.789C123.93 243.044 123.406 243.172 122.828 243.172C121.698 243.172 120.812 242.771 120.172 241.969C119.531 241.161 119.211 240.065 119.211 238.68C119.211 237.357 119.536 236.289 120.188 235.477C120.839 234.659 121.711 234.25 122.805 234.25C123.372 234.25 123.906 234.375 124.406 234.625C124.911 234.87 125.289 235.201 125.539 235.617L125.516 234.875V231.102L126.805 231.023V243H125.695L125.523 241.758ZM138.391 232.438C137.521 232.438 136.771 232.648 136.141 233.07C135.516 233.492 135.049 234.06 134.742 234.773C134.435 235.487 134.281 236.307 134.281 237.234C134.281 237.927 134.365 238.56 134.531 239.133C134.698 239.701 134.948 240.201 135.281 240.633C135.615 241.06 136.047 241.393 136.578 241.633C137.115 241.867 137.729 241.984 138.422 241.984C139.312 241.984 140.234 241.753 141.188 241.289L141.414 242.438C140.638 242.927 139.589 243.172 138.266 243.172C137.396 243.172 136.615 243.029 135.922 242.742C135.234 242.451 134.664 242.042 134.211 241.516C133.763 240.984 133.422 240.354 133.188 239.625C132.953 238.891 132.836 238.076 132.836 237.18C132.836 236.315 132.964 235.518 133.219 234.789C133.474 234.06 133.833 233.435 134.297 232.914C134.766 232.388 135.349 231.979 136.047 231.688C136.745 231.396 137.521 231.25 138.375 231.25C139.672 231.25 140.766 231.536 141.656 232.109L141.125 233.211C140.271 232.695 139.359 232.438 138.391 232.438ZM144.109 238.734C144.109 239.75 144.333 240.565 144.781 241.18C145.234 241.789 145.893 242.094 146.758 242.094C147.612 242.094 148.255 241.789 148.688 241.18C149.125 240.57 149.344 239.75 149.344 238.719C149.344 237.672 149.128 236.849 148.695 236.25C148.268 235.646 147.615 235.344 146.734 235.344C145.88 235.344 145.229 235.651 144.781 236.266C144.333 236.88 144.109 237.703 144.109 238.734ZM150.695 238.711C150.695 240.039 150.341 241.117 149.633 241.945C148.924 242.768 147.945 243.18 146.695 243.18C145.492 243.18 144.534 242.763 143.82 241.93C143.112 241.096 142.758 240.026 142.758 238.719C142.758 237.385 143.115 236.307 143.828 235.484C144.542 234.661 145.521 234.25 146.766 234.25C147.99 234.25 148.951 234.664 149.648 235.492C150.346 236.315 150.695 237.388 150.695 238.711ZM152.547 243V234.43H153.641L153.805 235.656C154.143 235.234 154.565 234.896 155.07 234.641C155.581 234.38 156.13 234.25 156.719 234.25C157.708 234.25 158.44 234.529 158.914 235.086C159.388 235.638 159.625 236.49 159.625 237.641V243H158.32C158.32 239.562 158.318 237.721 158.312 237.477C158.292 236.747 158.143 236.214 157.867 235.875C157.596 235.536 157.141 235.367 156.5 235.367C155.828 235.367 155.268 235.529 154.82 235.852C154.372 236.174 154.081 236.594 153.945 237.109C153.893 237.458 153.867 237.859 153.867 238.312V243H152.547ZM164.531 243.156C163.688 243.156 163.089 242.951 162.734 242.539C162.38 242.128 162.193 241.464 162.172 240.547V235.398H160.898L160.953 234.539L162.164 234.43L162.609 232.469L163.469 232.438V234.43H165.852V235.398H163.469V240.312C163.469 240.964 163.568 241.422 163.766 241.688C163.964 241.953 164.302 242.086 164.781 242.086C164.953 242.086 165.326 242.044 165.898 241.961L165.953 242.992C165.333 243.102 164.859 243.156 164.531 243.156ZM172.188 236.016C171.807 235.557 171.284 235.328 170.617 235.328C169.951 235.328 169.406 235.565 168.984 236.039C168.562 236.508 168.315 237.151 168.242 237.969H172.766C172.766 237.12 172.573 236.469 172.188 236.016ZM170.875 243.18C169.63 243.18 168.648 242.784 167.93 241.992C167.216 241.201 166.859 240.117 166.859 238.742C166.859 237.414 167.206 236.339 167.898 235.516C168.591 234.688 169.503 234.266 170.633 234.25C171.695 234.25 172.536 234.615 173.156 235.344C173.781 236.068 174.094 237.036 174.094 238.25C174.094 238.312 174.091 238.427 174.086 238.594C174.086 238.76 174.086 238.88 174.086 238.953H168.203C168.219 239.927 168.469 240.688 168.953 241.234C169.443 241.776 170.099 242.047 170.922 242.047C171.828 242.047 172.737 241.807 173.648 241.328L173.852 242.383C172.982 242.914 171.99 243.18 170.875 243.18ZM178.172 238.641L175.148 234.43H176.641L178.93 237.695L181.227 234.43H182.719L179.688 238.656L182.797 243H181.352L178.938 239.555L176.523 243H175.031L178.172 238.641ZM186.906 243.156C186.062 243.156 185.464 242.951 185.109 242.539C184.755 242.128 184.568 241.464 184.547 240.547V235.398H183.273L183.328 234.539L184.539 234.43L184.984 232.469L185.844 232.438V234.43H188.227V235.398H185.844V240.312C185.844 240.964 185.943 241.422 186.141 241.688C186.339 241.953 186.677 242.086 187.156 242.086C187.328 242.086 187.701 242.044 188.273 241.961L188.328 242.992C187.708 243.102 187.234 243.156 186.906 243.156Z" fill="white"/>
<path d="M280 139.5L300 151.047V127.953L280 139.5ZM298 139.5V141.5L691.5 141.5V139.5V137.5L298 137.5V139.5Z" fill="#34D399"/>
<mask id="path-23-outside-1_129_2981" maskUnits="userSpaceOnUse" x="430" y="123.5" width="111" height="31" fill="black">
<rect fill="white" x="430" y="123.5" width="111" height="31"/>
<path d="M444.205 144.5V134.318H448.023C448.806 134.318 449.462 134.454 449.992 134.726C450.526 134.998 450.928 135.379 451.2 135.869C451.475 136.357 451.613 136.925 451.613 137.575C451.613 138.228 451.474 138.794 451.195 139.275C450.92 139.752 450.514 140.122 449.977 140.384C449.44 140.642 448.781 140.771 447.999 140.771H445.279V139.24H447.75C448.207 139.24 448.582 139.177 448.874 139.051C449.165 138.922 449.381 138.735 449.52 138.489C449.662 138.241 449.734 137.936 449.734 137.575C449.734 137.213 449.662 136.905 449.52 136.65C449.377 136.391 449.16 136.196 448.869 136.063C448.577 135.927 448.201 135.859 447.74 135.859H446.05V144.5H444.205ZM449.465 139.886L451.986 144.5H449.928L447.452 139.886H449.465ZM454.011 144.5V134.318H460.633V135.864H455.855V138.629H460.29V140.175H455.855V142.954H460.673V144.5H454.011ZM464.522 144.5H462.553L466.138 134.318H468.415L472.004 144.5H470.036L467.316 136.406H467.237L464.522 144.5ZM464.587 140.508H469.956V141.989H464.587V140.508ZM477.496 144.5H474.045V134.318H477.565C478.576 134.318 479.445 134.522 480.17 134.93C480.9 135.334 481.46 135.916 481.851 136.675C482.242 137.434 482.438 138.342 482.438 139.399C482.438 140.46 482.24 141.371 481.846 142.134C481.455 142.896 480.89 143.481 480.151 143.888C479.415 144.296 478.53 144.5 477.496 144.5ZM475.89 142.904H477.406C478.116 142.904 478.707 142.775 479.181 142.516C479.655 142.254 480.011 141.865 480.25 141.348C480.489 140.828 480.608 140.178 480.608 139.399C480.608 138.62 480.489 137.974 480.25 137.46C480.011 136.943 479.658 136.557 479.191 136.302C478.727 136.043 478.15 135.914 477.461 135.914H475.89V142.904ZM492.513 144.5H489.063V134.318H492.583C493.593 134.318 494.462 134.522 495.188 134.93C495.917 135.334 496.477 135.916 496.868 136.675C497.259 137.434 497.455 138.342 497.455 139.399C497.455 140.46 497.257 141.371 496.863 142.134C496.472 142.896 495.907 143.481 495.168 143.888C494.432 144.296 493.547 144.5 492.513 144.5ZM490.907 142.904H492.423C493.133 142.904 493.724 142.775 494.198 142.516C494.672 142.254 495.029 141.865 495.267 141.348C495.506 140.828 495.625 140.178 495.625 139.399C495.625 138.62 495.506 137.974 495.267 137.46C495.029 136.943 494.676 136.557 494.208 136.302C493.744 136.043 493.168 135.914 492.478 135.914H490.907V142.904ZM500.668 144.5H498.699L502.284 134.318H504.561L508.15 144.5H506.181L503.462 136.406H503.382L500.668 144.5ZM500.732 140.508H506.102V141.989H500.732V140.508ZM508.513 135.864V134.318H516.637V135.864H513.49V144.5H511.66V135.864H508.513ZM518.98 144.5H517.011L520.596 134.318H522.873L526.462 144.5H524.493L521.774 136.406H521.694L518.98 144.5ZM519.045 140.508H524.414V141.989H519.045V140.508Z"/>
</mask>
<path d="M444.205 144.5V134.318H448.023C448.806 134.318 449.462 134.454 449.992 134.726C450.526 134.998 450.928 135.379 451.2 135.869C451.475 136.357 451.613 136.925 451.613 137.575C451.613 138.228 451.474 138.794 451.195 139.275C450.92 139.752 450.514 140.122 449.977 140.384C449.44 140.642 448.781 140.771 447.999 140.771H445.279V139.24H447.75C448.207 139.24 448.582 139.177 448.874 139.051C449.165 138.922 449.381 138.735 449.52 138.489C449.662 138.241 449.734 137.936 449.734 137.575C449.734 137.213 449.662 136.905 449.52 136.65C449.377 136.391 449.16 136.196 448.869 136.063C448.577 135.927 448.201 135.859 447.74 135.859H446.05V144.5H444.205ZM449.465 139.886L451.986 144.5H449.928L447.452 139.886H449.465ZM454.011 144.5V134.318H460.633V135.864H455.855V138.629H460.29V140.175H455.855V142.954H460.673V144.5H454.011ZM464.522 144.5H462.553L466.138 134.318H468.415L472.004 144.5H470.036L467.316 136.406H467.237L464.522 144.5ZM464.587 140.508H469.956V141.989H464.587V140.508ZM477.496 144.5H474.045V134.318H477.565C478.576 134.318 479.445 134.522 480.17 134.93C480.9 135.334 481.46 135.916 481.851 136.675C482.242 137.434 482.438 138.342 482.438 139.399C482.438 140.46 482.24 141.371 481.846 142.134C481.455 142.896 480.89 143.481 480.151 143.888C479.415 144.296 478.53 144.5 477.496 144.5ZM475.89 142.904H477.406C478.116 142.904 478.707 142.775 479.181 142.516C479.655 142.254 480.011 141.865 480.25 141.348C480.489 140.828 480.608 140.178 480.608 139.399C480.608 138.62 480.489 137.974 480.25 137.46C480.011 136.943 479.658 136.557 479.191 136.302C478.727 136.043 478.15 135.914 477.461 135.914H475.89V142.904ZM492.513 144.5H489.063V134.318H492.583C493.593 134.318 494.462 134.522 495.188 134.93C495.917 135.334 496.477 135.916 496.868 136.675C497.259 137.434 497.455 138.342 497.455 139.399C497.455 140.46 497.257 141.371 496.863 142.134C496.472 142.896 495.907 143.481 495.168 143.888C494.432 144.296 493.547 144.5 492.513 144.5ZM490.907 142.904H492.423C493.133 142.904 493.724 142.775 494.198 142.516C494.672 142.254 495.029 141.865 495.267 141.348C495.506 140.828 495.625 140.178 495.625 139.399C495.625 138.62 495.506 137.974 495.267 137.46C495.029 136.943 494.676 136.557 494.208 136.302C493.744 136.043 493.168 135.914 492.478 135.914H490.907V142.904ZM500.668 144.5H498.699L502.284 134.318H504.561L508.15 144.5H506.181L503.462 136.406H503.382L500.668 144.5ZM500.732 140.508H506.102V141.989H500.732V140.508ZM508.513 135.864V134.318H516.637V135.864H513.49V144.5H511.66V135.864H508.513ZM518.98 144.5H517.011L520.596 134.318H522.873L526.462 144.5H524.493L521.774 136.406H521.694L518.98 144.5ZM519.045 140.508H524.414V141.989H519.045V140.508Z" fill="white"/>
<path d="M444.205 144.5H434.205V154.5H444.205V144.5ZM444.205 134.318V124.318H434.205V134.318H444.205ZM449.992 134.726L445.431 143.625L445.442 143.631L445.454 143.637L449.992 134.726ZM451.2 135.869L442.453 140.716L442.473 140.751L442.492 140.786L451.2 135.869ZM451.195 139.275L442.542 134.262L442.537 134.272L442.531 134.281L451.195 139.275ZM449.977 140.384L454.315 149.394L454.338 149.383L454.36 149.372L449.977 140.384ZM445.279 140.771H435.279V150.771H445.279V140.771ZM445.279 139.24V129.24H435.279V139.24H445.279ZM448.874 139.051L452.838 148.232L452.882 148.213L452.925 148.194L448.874 139.051ZM449.52 138.489L440.845 133.516L440.834 133.534L440.823 133.553L449.52 138.489ZM449.52 136.65L440.762 141.478L440.776 141.502L440.789 141.526L449.52 136.65ZM448.869 136.063L444.645 145.128L444.688 145.147L444.731 145.167L448.869 136.063ZM446.05 135.859V125.859H436.05V135.859H446.05ZM446.05 144.5V154.5H456.05V144.5H446.05ZM449.465 139.886L458.241 135.092L455.397 129.886H449.465V139.886ZM451.986 144.5V154.5H468.844L460.761 139.706L451.986 144.5ZM449.928 144.5L441.116 149.229L443.945 154.5H449.928V144.5ZM447.452 139.886V129.886H430.736L438.64 144.615L447.452 139.886ZM444.205 144.5H454.205V134.318H444.205H434.205V144.5H444.205ZM444.205 134.318V144.318H448.023V134.318V124.318H444.205V134.318ZM448.023 134.318V144.318C447.697 144.318 446.684 144.267 445.431 143.625L449.992 134.726L454.553 125.827C452.24 124.641 449.914 124.318 448.023 124.318V134.318ZM449.992 134.726L445.454 143.637C444.337 143.068 443.214 142.09 442.453 140.716L451.2 135.869L459.947 131.023C458.643 128.668 456.714 126.927 454.531 125.815L449.992 134.726ZM451.2 135.869L442.492 140.786C441.793 139.547 441.613 138.368 441.613 137.575H451.613H461.613C461.613 135.482 461.158 133.166 459.908 130.953L451.2 135.869ZM451.613 137.575H441.613C441.613 136.779 441.794 135.553 442.542 134.262L451.195 139.275L459.848 144.288C461.153 142.035 461.613 139.676 461.613 137.575H451.613ZM451.195 139.275L442.531 134.281C443.337 132.883 444.496 131.931 445.594 131.395L449.977 140.384L454.36 149.372C456.532 148.313 458.503 146.621 459.859 144.269L451.195 139.275ZM449.977 140.384L445.639 131.374C446.81 130.81 447.729 130.771 447.999 130.771V140.771V150.771C449.833 150.771 452.071 150.474 454.315 149.394L449.977 140.384ZM447.999 140.771V130.771H445.279V140.771V150.771H447.999V140.771ZM445.279 140.771H455.279V139.24H445.279H435.279V140.771H445.279ZM445.279 139.24V149.24H447.75V139.24V129.24H445.279V139.24ZM447.75 139.24V149.24C449.018 149.24 450.871 149.081 452.838 148.232L448.874 139.051L444.909 129.871C446.293 129.273 447.396 129.24 447.75 129.24V139.24ZM448.874 139.051L452.925 148.194C454.907 147.315 456.883 145.775 458.217 143.425L449.52 138.489L440.823 133.553C441.878 131.695 443.423 130.529 444.822 129.909L448.874 139.051ZM449.52 138.489L458.195 143.463C459.404 141.354 459.734 139.233 459.734 137.575H449.734H439.734C439.734 136.639 439.92 135.127 440.845 133.516L449.52 138.489ZM449.734 137.575H459.734C459.734 135.905 459.4 133.833 458.251 131.774L449.52 136.65L440.789 141.526C439.925 139.978 439.734 138.522 439.734 137.575H449.734ZM449.52 136.65L458.277 131.822C457.005 129.515 455.081 127.903 453.007 126.96L448.869 136.063L444.731 145.167C443.239 144.489 441.749 143.268 440.762 141.478L449.52 136.65ZM448.869 136.063L453.092 126.999C451.034 126.04 449.076 125.859 447.74 125.859V135.859V145.859C447.326 145.859 446.12 145.815 444.645 145.128L448.869 136.063ZM447.74 135.859V125.859H446.05V135.859V145.859H447.74V135.859ZM446.05 135.859H436.05V144.5H446.05H456.05V135.859H446.05ZM446.05 144.5V134.5H444.205V144.5V154.5H446.05V144.5ZM449.465 139.886L440.689 144.681L443.21 149.294L451.986 144.5L460.761 139.706L458.241 135.092L449.465 139.886ZM451.986 144.5V134.5H449.928V144.5V154.5H451.986V144.5ZM449.928 144.5L458.739 139.771L456.263 135.158L447.452 139.886L438.64 144.615L441.116 149.229L449.928 144.5ZM447.452 139.886V149.886H449.465V139.886V129.886H447.452V139.886ZM454.011 144.5H444.011V154.5H454.011V144.5ZM454.011 134.318V124.318H444.011V134.318H454.011ZM460.633 134.318H470.633V124.318H460.633V134.318ZM460.633 135.864V145.864H470.633V135.864H460.633ZM455.855 135.864V125.864H445.855V135.864H455.855ZM455.855 138.629H445.855V148.629H455.855V138.629ZM460.29 138.629H470.29V128.629H460.29V138.629ZM460.29 140.175V150.175H470.29V140.175H460.29ZM455.855 140.175V130.175H445.855V140.175H455.855ZM455.855 142.954H445.855V152.954H455.855V142.954ZM460.673 142.954H470.673V132.954H460.673V142.954ZM460.673 144.5V154.5H470.673V144.5H460.673ZM454.011 144.5H464.011V134.318H454.011H444.011V144.5H454.011ZM454.011 134.318V144.318H460.633V134.318V124.318H454.011V134.318ZM460.633 134.318H450.633V135.864H460.633H470.633V134.318H460.633ZM460.633 135.864V125.864H455.855V135.864V145.864H460.633V135.864ZM455.855 135.864H445.855V138.629H455.855H465.855V135.864H455.855ZM455.855 138.629V148.629H460.29V138.629V128.629H455.855V138.629ZM460.29 138.629H450.29V140.175H460.29H470.29V138.629H460.29ZM460.29 140.175V130.175H455.855V140.175V150.175H460.29V140.175ZM455.855 140.175H445.855V142.954H455.855H465.855V140.175H455.855ZM455.855 142.954V152.954H460.673V142.954V132.954H455.855V142.954ZM460.673 142.954H450.673V144.5H460.673H470.673V142.954H460.673ZM460.673 144.5V134.5H454.011V144.5V154.5H460.673V144.5ZM464.522 144.5V154.5H471.716L474.003 147.68L464.522 144.5ZM462.553 144.5L453.121 141.179L448.431 154.5H462.553V144.5ZM466.138 134.318V124.318H459.057L456.705 130.997L466.138 134.318ZM468.415 134.318L477.846 130.993L475.493 124.318H468.415V134.318ZM472.004 144.5V154.5H486.133L481.435 141.175L472.004 144.5ZM470.036 144.5L460.556 147.685L462.846 154.5H470.036V144.5ZM467.316 136.406L476.795 133.221L474.506 126.406H467.316V136.406ZM467.237 136.406V126.406H460.043L457.756 133.227L467.237 136.406ZM464.587 140.508V130.508H454.587V140.508H464.587ZM469.956 140.508H479.956V130.508H469.956V140.508ZM469.956 141.989V151.989H479.956V141.989H469.956ZM464.587 141.989H454.587V151.989H464.587V141.989ZM464.522 144.5V134.5H462.553V144.5V154.5H464.522V144.5ZM462.553 144.5L471.986 147.821L475.57 137.639L466.138 134.318L456.705 130.997L453.121 141.179L462.553 144.5ZM466.138 134.318V144.318H468.415V134.318V124.318H466.138V134.318ZM468.415 134.318L458.984 137.643L462.573 147.825L472.004 144.5L481.435 141.175L477.846 130.993L468.415 134.318ZM472.004 144.5V134.5H470.036V144.5V154.5H472.004V144.5ZM470.036 144.5L479.515 141.315L476.795 133.221L467.316 136.406L457.837 139.591L460.556 147.685L470.036 144.5ZM467.316 136.406V126.406H467.237V136.406V146.406H467.316V136.406ZM467.237 136.406L457.756 133.227L455.041 141.32L464.522 144.5L474.003 147.68L476.718 139.586L467.237 136.406ZM464.587 140.508V150.508H469.956V140.508V130.508H464.587V140.508ZM469.956 140.508H459.956V141.989H469.956H479.956V140.508H469.956ZM469.956 141.989V131.989H464.587V141.989V151.989H469.956V141.989ZM464.587 141.989H474.587V140.508H464.587H454.587V141.989H464.587ZM474.045 144.5H464.045V154.5H474.045V144.5ZM474.045 134.318V124.318H464.045V134.318H474.045ZM480.17 134.93L475.274 143.649L475.297 143.662L475.321 143.675L480.17 134.93ZM481.851 136.675L472.962 141.255L472.962 141.255L481.851 136.675ZM481.846 142.134L472.964 137.538L472.956 137.554L472.949 137.569L481.846 142.134ZM480.151 143.888L475.321 135.132L475.313 135.137L475.304 135.141L480.151 143.888ZM475.89 142.904H465.89V152.904H475.89V142.904ZM479.181 142.516L483.97 151.295L483.993 151.282L484.017 151.269L479.181 142.516ZM480.25 141.348L489.33 145.539L489.335 145.528L489.34 145.517L480.25 141.348ZM480.25 137.46L471.17 141.651L471.176 141.662L471.181 141.673L480.25 137.46ZM479.191 136.302L474.324 145.038L474.361 145.058L474.398 145.078L479.191 136.302ZM475.89 135.914V125.914H465.89V135.914H475.89ZM477.496 144.5V134.5H474.045V144.5V154.5H477.496V144.5ZM474.045 144.5H484.045V134.318H474.045H464.045V144.5H474.045ZM474.045 134.318V144.318H477.565V134.318V124.318H474.045V134.318ZM477.565 134.318V144.318C477.227 144.318 476.333 144.243 475.274 143.649L480.17 134.93L485.067 126.211C482.557 124.801 479.926 124.318 477.565 124.318V134.318ZM480.17 134.93L475.321 143.675C474.278 143.097 473.453 142.208 472.962 141.255L481.851 136.675L490.74 132.094C489.467 129.623 487.521 127.571 485.02 126.184L480.17 134.93ZM481.851 136.675L472.962 141.255C472.469 140.3 472.438 139.562 472.438 139.399H482.438H492.438C492.438 137.121 492.015 134.568 490.74 132.094L481.851 136.675ZM482.438 139.399H472.438C472.438 139.231 472.471 138.492 472.964 137.538L481.846 142.134L490.728 146.729C492.01 144.25 492.438 141.688 492.438 139.399H482.438ZM481.846 142.134L472.949 137.569C473.451 136.589 474.289 135.701 475.321 135.132L480.151 143.888L484.98 152.645C487.49 151.261 489.458 149.203 490.743 146.698L481.846 142.134ZM480.151 143.888L475.304 135.141C476.355 134.559 477.219 134.5 477.496 134.5V144.5V154.5C479.84 154.5 482.474 154.033 484.997 152.636L480.151 143.888ZM475.89 142.904V152.904H477.406V142.904V132.904H475.89V142.904ZM477.406 142.904V152.904C479.281 152.904 481.638 152.567 483.97 151.295L479.181 142.516L474.393 133.737C475.777 132.982 476.95 132.904 477.406 132.904V142.904ZM479.181 142.516L484.017 151.269C486.455 149.922 488.248 147.883 489.33 145.539L480.25 141.348L471.17 137.157C471.775 135.847 472.855 134.587 474.345 133.763L479.181 142.516ZM480.25 141.348L489.34 145.517C490.353 143.306 490.608 141.127 490.608 139.399H480.608H470.608C470.608 139.229 470.624 138.349 471.16 137.179L480.25 141.348ZM480.608 139.399H490.608C490.608 137.679 490.356 135.479 489.319 133.247L480.25 137.46L471.181 141.673C470.622 140.469 470.608 139.562 470.608 139.399H480.608ZM480.25 137.46L489.33 133.27C488.258 130.947 486.47 128.883 483.984 127.525L479.191 136.302L474.398 145.078C472.847 144.231 471.765 142.939 471.17 141.651L480.25 137.46ZM479.191 136.302L484.058 127.566C481.727 126.267 479.36 125.914 477.461 125.914V135.914V145.914C476.94 145.914 475.727 145.819 474.324 145.038L479.191 136.302ZM477.461 135.914V125.914H475.89V135.914V145.914H477.461V135.914ZM475.89 135.914H465.89V142.904H475.89H485.89V135.914H475.89ZM489.063 144.5H479.063V154.5H489.063V144.5ZM489.063 134.318V124.318H479.063V134.318H489.063ZM495.188 134.93L490.291 143.649L490.314 143.662L490.338 143.675L495.188 134.93ZM496.868 136.675L487.979 141.255L487.979 141.255L496.868 136.675ZM496.863 142.134L487.981 137.538L487.974 137.554L487.966 137.569L496.863 142.134ZM495.168 143.888L490.338 135.132L490.33 135.137L490.321 135.141L495.168 143.888ZM490.907 142.904H480.907V152.904H490.907V142.904ZM494.198 142.516L498.987 151.295L499.01 151.282L499.034 151.269L494.198 142.516ZM495.267 141.348L504.347 145.539L504.352 145.528L504.357 145.517L495.267 141.348ZM495.267 137.46L486.188 141.651L486.193 141.662L486.198 141.673L495.267 137.46ZM494.208 136.302L489.341 145.038L489.378 145.058L489.415 145.078L494.208 136.302ZM490.907 135.914V125.914H480.907V135.914H490.907ZM492.513 144.5V134.5H489.063V144.5V154.5H492.513V144.5ZM489.063 144.5H499.063V134.318H489.063H479.063V144.5H489.063ZM489.063 134.318V144.318H492.583V134.318V124.318H489.063V134.318ZM492.583 134.318V144.318C492.244 144.318 491.35 144.243 490.291 143.649L495.188 134.93L500.085 126.211C497.574 124.801 494.943 124.318 492.583 124.318V134.318ZM495.188 134.93L490.338 143.675C489.295 143.097 488.47 142.208 487.979 141.255L496.868 136.675L505.757 132.094C504.484 129.623 502.539 127.571 500.037 126.184L495.188 134.93ZM496.868 136.675L487.979 141.255C487.486 140.3 487.455 139.562 487.455 139.399H497.455H507.455C507.455 137.121 507.032 134.568 505.757 132.094L496.868 136.675ZM497.455 139.399H487.455C487.455 139.231 487.488 138.492 487.981 137.538L496.863 142.134L505.745 146.729C507.027 144.25 507.455 141.688 507.455 139.399H497.455ZM496.863 142.134L487.966 137.569C488.469 136.589 489.307 135.701 490.338 135.132L495.168 143.888L499.998 152.645C502.507 151.261 504.475 149.203 505.76 146.698L496.863 142.134ZM495.168 143.888L490.321 135.141C491.372 134.559 492.236 134.5 492.513 134.5V144.5V154.5C494.858 154.5 497.491 154.033 500.014 152.636L495.168 143.888ZM490.907 142.904V152.904H492.423V142.904V132.904H490.907V142.904ZM492.423 142.904V152.904C494.298 152.904 496.655 152.567 498.987 151.295L494.198 142.516L489.41 133.737C490.794 132.982 491.967 132.904 492.423 132.904V142.904ZM494.198 142.516L499.034 151.269C501.473 149.922 503.265 147.883 504.347 145.539L495.267 141.348L486.188 137.157C486.792 135.847 487.872 134.587 489.363 133.763L494.198 142.516ZM495.267 141.348L504.357 145.517C505.371 143.306 505.625 141.127 505.625 139.399H495.625H485.625C485.625 139.229 485.641 138.349 486.177 137.179L495.267 141.348ZM495.625 139.399H505.625C505.625 137.679 505.373 135.479 504.336 133.247L495.267 137.46L486.198 141.673C485.639 140.469 485.625 139.562 485.625 139.399H495.625ZM495.267 137.46L504.347 133.27C503.275 130.947 501.487 128.883 499.001 127.525L494.208 136.302L489.415 145.078C487.864 144.231 486.782 142.939 486.188 141.651L495.267 137.46ZM494.208 136.302L499.075 127.566C496.744 126.267 494.377 125.914 492.478 125.914V135.914V145.914C491.958 145.914 490.744 145.819 489.341 145.038L494.208 136.302ZM492.478 135.914V125.914H490.907V135.914V145.914H492.478V135.914ZM490.907 135.914H480.907V142.904H490.907H500.907V135.914H490.907ZM500.668 144.5V154.5H507.861L510.149 147.68L500.668 144.5ZM498.699 144.5L489.267 141.179L484.577 154.5H498.699V144.5ZM502.284 134.318V124.318H495.203L492.851 130.997L502.284 134.318ZM504.561 134.318L513.992 130.993L511.638 124.318H504.561V134.318ZM508.15 144.5V154.5H522.279L517.581 141.175L508.15 144.5ZM506.181 144.5L496.702 147.685L498.992 154.5H506.181V144.5ZM503.462 136.406L512.941 133.221L510.651 126.406H503.462V136.406ZM503.382 136.406V126.406H496.189L493.901 133.227L503.382 136.406ZM500.732 140.508V130.508H490.732V140.508H500.732ZM506.102 140.508H516.102V130.508H506.102V140.508ZM506.102 141.989V151.989H516.102V141.989H506.102ZM500.732 141.989H490.732V151.989H500.732V141.989ZM500.668 144.5V134.5H498.699V144.5V154.5H500.668V144.5ZM498.699 144.5L508.132 147.821L511.716 137.639L502.284 134.318L492.851 130.997L489.267 141.179L498.699 144.5ZM502.284 134.318V144.318H504.561V134.318V124.318H502.284V134.318ZM504.561 134.318L495.13 137.643L498.719 147.825L508.15 144.5L517.581 141.175L513.992 130.993L504.561 134.318ZM508.15 144.5V134.5H506.181V144.5V154.5H508.15V144.5ZM506.181 144.5L515.661 141.315L512.941 133.221L503.462 136.406L493.983 139.591L496.702 147.685L506.181 144.5ZM503.462 136.406V126.406H503.382V136.406V146.406H503.462V136.406ZM503.382 136.406L493.901 133.227L491.187 141.32L500.668 144.5L510.149 147.68L512.863 139.586L503.382 136.406ZM500.732 140.508V150.508H506.102V140.508V130.508H500.732V140.508ZM506.102 140.508H496.102V141.989H506.102H516.102V140.508H506.102ZM506.102 141.989V131.989H500.732V141.989V151.989H506.102V141.989ZM500.732 141.989H510.732V140.508H500.732H490.732V141.989H500.732ZM508.513 135.864H498.513V145.864H508.513V135.864ZM508.513 134.318V124.318H498.513V134.318H508.513ZM516.637 134.318H526.637V124.318H516.637V134.318ZM516.637 135.864V145.864H526.637V135.864H516.637ZM513.49 135.864V125.864H503.49V135.864H513.49ZM513.49 144.5V154.5H523.49V144.5H513.49ZM511.66 144.5H501.66V154.5H511.66V144.5ZM511.66 135.864H521.66V125.864H511.66V135.864ZM508.513 135.864H518.513V134.318H508.513H498.513V135.864H508.513ZM508.513 134.318V144.318H516.637V134.318V124.318H508.513V134.318ZM516.637 134.318H506.637V135.864H516.637H526.637V134.318H516.637ZM516.637 135.864V125.864H513.49V135.864V145.864H516.637V135.864ZM513.49 135.864H503.49V144.5H513.49H523.49V135.864H513.49ZM513.49 144.5V134.5H511.66V144.5V154.5H513.49V144.5ZM511.66 144.5H521.66V135.864H511.66H501.66V144.5H511.66ZM511.66 135.864V125.864H508.513V135.864V145.864H511.66V135.864ZM518.98 144.5V154.5H526.174L528.461 147.68L518.98 144.5ZM517.011 144.5L507.579 141.179L502.889 154.5H517.011V144.5ZM520.596 134.318V124.318H513.515L511.163 130.997L520.596 134.318ZM522.873 134.318L532.304 130.993L529.951 124.318H522.873V134.318ZM526.462 144.5V154.5H540.591L535.893 141.175L526.462 144.5ZM524.493 144.5L515.014 147.685L517.304 154.5H524.493V144.5ZM521.774 136.406L531.253 133.221L528.963 126.406H521.774V136.406ZM521.694 136.406V126.406H514.501L512.213 133.227L521.694 136.406ZM519.045 140.508V130.508H509.045V140.508H519.045ZM524.414 140.508H534.414V130.508H524.414V140.508ZM524.414 141.989V151.989H534.414V141.989H524.414ZM519.045 141.989H509.045V151.989H519.045V141.989ZM518.98 144.5V134.5H517.011V144.5V154.5H518.98V144.5ZM517.011 144.5L526.444 147.821L530.028 137.639L520.596 134.318L511.163 130.997L507.579 141.179L517.011 144.5ZM520.596 134.318V144.318H522.873V134.318V124.318H520.596V134.318ZM522.873 134.318L513.442 137.643L517.031 147.825L526.462 144.5L535.893 141.175L532.304 130.993L522.873 134.318ZM526.462 144.5V134.5H524.493V144.5V154.5H526.462V144.5ZM524.493 144.5L533.973 141.315L531.253 133.221L521.774 136.406L512.295 139.591L515.014 147.685L524.493 144.5ZM521.774 136.406V126.406H521.694V136.406V146.406H521.774V136.406ZM521.694 136.406L512.213 133.227L509.499 141.32L518.98 144.5L528.461 147.68L531.175 139.586L521.694 136.406ZM519.045 140.508V150.508H524.414V140.508V130.508H519.045V140.508ZM524.414 140.508H514.414V141.989H524.414H534.414V140.508H524.414ZM524.414 141.989V131.989H519.045V141.989V151.989H524.414V141.989ZM519.045 141.989H529.045V140.508H519.045H509.045V141.989H519.045Z" fill="#121416" mask="url(#path-23-outside-1_129_2981)"/>
<rect x="701.5" y="10.5" width="259" height="258" rx="9.5" stroke="#D4D4D8" stroke-dasharray="4 4"/>
<rect x="711.5" y="20.5" width="239" height="238" rx="7.5" fill="#3F3F46"/>
<rect x="711.5" y="20.5" width="239" height="238" rx="7.5" stroke="#D4D4D8"/>
<path d="M843.578 130.203H839.379V126.023H843.578C847.055 126.023 849.867 123.211 849.867 119.734C849.867 116.258 847.055 113.445 843.578 113.445C841.879 113.445 840.336 114.129 839.203 115.223C839.301 114.637 839.379 114.051 839.379 113.445C839.379 107.664 834.691 102.977 828.91 102.977C823.129 102.977 818.441 107.664 818.441 113.445C818.441 114.93 818.773 116.355 819.32 117.645H814.242C814.242 117.645 812.152 119.148 812.152 121.844C812.152 124.539 814.242 126.043 814.242 126.043H818.441V130.242H816.332C811.703 130.242 807.953 126.492 807.953 121.863C807.953 117.957 810.648 114.695 814.262 113.777C814.262 113.68 814.242 113.582 814.242 113.484C814.242 105.379 820.805 98.8164 828.91 98.8164C835.57 98.8164 841.195 103.27 842.973 109.344C843.168 109.344 843.363 109.285 843.578 109.285C849.359 109.285 854.047 113.973 854.047 119.754C854.047 125.516 849.359 130.203 843.578 130.203ZM829.945 113.445C833.988 113.445 837.27 114.559 837.27 115.945V118.445C837.27 119.832 833.988 120.945 829.945 120.945C825.902 120.945 822.641 119.832 822.641 118.445V115.945C822.621 114.559 825.883 113.445 829.945 113.445ZM829.945 122.703C833.715 122.703 836.84 121.746 837.23 120.555C837.25 120.633 837.27 120.73 837.27 120.809V123.191C837.27 124.5 833.988 125.574 829.945 125.574C825.902 125.574 822.641 124.5 822.641 123.191V120.809C822.641 120.711 822.621 120.633 822.641 120.555C823.031 121.746 826.156 122.703 829.945 122.703ZM829.945 127.332C833.715 127.332 836.82 126.336 837.23 125.145C837.25 125.223 837.27 125.32 837.27 125.398V127.801C837.27 129.129 833.988 130.203 829.945 130.203C825.902 130.203 822.621 129.129 822.621 127.801V125.398C822.621 125.301 822.602 125.223 822.621 125.145C823.031 126.336 826.176 127.332 829.945 127.332Z" fill="#FAFAFA"/>
<path d="M748.788 154.318H750.871L753.361 158.822H753.461L755.952 154.318H758.035L754.331 160.702V164.5H752.491V160.702L748.788 154.318ZM768.565 159.409C768.565 160.506 768.359 161.446 767.948 162.228C767.541 163.007 766.984 163.603 766.278 164.018C765.575 164.432 764.778 164.639 763.887 164.639C762.995 164.639 762.196 164.432 761.49 164.018C760.788 163.6 760.231 163.002 759.82 162.223C759.412 161.441 759.208 160.503 759.208 159.409C759.208 158.312 759.412 157.374 759.82 156.595C760.231 155.813 760.788 155.215 761.49 154.8C762.196 154.386 762.995 154.179 763.887 154.179C764.778 154.179 765.575 154.386 766.278 154.8C766.984 155.215 767.541 155.813 767.948 156.595C768.359 157.374 768.565 158.312 768.565 159.409ZM766.71 159.409C766.71 158.637 766.589 157.986 766.347 157.455C766.109 156.922 765.777 156.519 765.353 156.247C764.929 155.972 764.44 155.835 763.887 155.835C763.333 155.835 762.844 155.972 762.42 156.247C761.996 156.519 761.663 156.922 761.421 157.455C761.182 157.986 761.063 158.637 761.063 159.409C761.063 160.181 761.182 160.834 761.421 161.368C761.663 161.898 761.996 162.301 762.42 162.576C762.844 162.848 763.333 162.984 763.887 162.984C764.44 162.984 764.929 162.848 765.353 162.576C765.777 162.301 766.109 161.898 766.347 161.368C766.589 160.834 766.71 160.181 766.71 159.409ZM777.427 154.318H779.271V160.97C779.271 161.699 779.099 162.341 778.754 162.894C778.413 163.448 777.932 163.88 777.313 164.192C776.693 164.5 775.969 164.654 775.14 164.654C774.308 164.654 773.582 164.5 772.962 164.192C772.343 163.88 771.862 163.448 771.521 162.894C771.179 162.341 771.009 161.699 771.009 160.97V154.318H772.853V160.816C772.853 161.24 772.946 161.618 773.131 161.95C773.32 162.281 773.585 162.541 773.927 162.73C774.268 162.916 774.673 163.009 775.14 163.009C775.607 163.009 776.012 162.916 776.353 162.73C776.698 162.541 776.963 162.281 777.148 161.95C777.334 161.618 777.427 161.24 777.427 160.816V154.318ZM781.976 164.5V154.318H785.794C786.577 154.318 787.233 154.454 787.763 154.726C788.297 154.998 788.699 155.379 788.971 155.869C789.246 156.357 789.384 156.925 789.384 157.575C789.384 158.228 789.245 158.794 788.966 159.275C788.691 159.752 788.285 160.122 787.748 160.384C787.211 160.642 786.552 160.771 785.769 160.771H783.05V159.24H785.521C785.978 159.24 786.353 159.177 786.644 159.051C786.936 158.922 787.152 158.735 787.291 158.489C787.433 158.241 787.505 157.936 787.505 157.575C787.505 157.213 787.433 156.905 787.291 156.65C787.148 156.391 786.931 156.196 786.639 156.063C786.348 155.927 785.972 155.859 785.511 155.859H783.821V164.5H781.976ZM787.236 159.886L789.757 164.5H787.698L785.223 159.886H787.236ZM805.052 159.409C805.052 160.506 804.847 161.446 804.436 162.228C804.028 163.007 803.471 163.603 802.765 164.018C802.063 164.432 801.266 164.639 800.374 164.639C799.482 164.639 798.684 164.432 797.978 164.018C797.275 163.6 796.718 163.002 796.307 162.223C795.9 161.441 795.696 160.503 795.696 159.409C795.696 158.312 795.9 157.374 796.307 156.595C796.718 155.813 797.275 155.215 797.978 154.8C798.684 154.386 799.482 154.179 800.374 154.179C801.266 154.179 802.063 154.386 802.765 154.8C803.471 155.215 804.028 155.813 804.436 156.595C804.847 157.374 805.052 158.312 805.052 159.409ZM803.198 159.409C803.198 158.637 803.077 157.986 802.835 157.455C802.596 156.922 802.265 156.519 801.841 156.247C801.416 155.972 800.928 155.835 800.374 155.835C799.82 155.835 799.332 155.972 798.907 156.247C798.483 156.519 798.15 156.922 797.908 157.455C797.669 157.986 797.55 158.637 797.55 159.409C797.55 160.181 797.669 160.834 797.908 161.368C798.15 161.898 798.483 162.301 798.907 162.576C799.332 162.848 799.82 162.984 800.374 162.984C800.928 162.984 801.416 162.848 801.841 162.576C802.265 162.301 802.596 161.898 802.835 161.368C803.077 160.834 803.198 160.181 803.198 159.409ZM807.496 164.5V154.318H811.394C812.13 154.318 812.741 154.434 813.228 154.666C813.719 154.895 814.085 155.208 814.327 155.606C814.572 156.004 814.695 156.454 814.695 156.958C814.695 157.372 814.615 157.727 814.456 158.022C814.297 158.314 814.083 158.551 813.815 158.733C813.546 158.915 813.247 159.046 812.915 159.126V159.225C813.276 159.245 813.623 159.356 813.954 159.558C814.289 159.757 814.562 160.039 814.774 160.403C814.987 160.768 815.093 161.209 815.093 161.726C815.093 162.253 814.965 162.727 814.71 163.148C814.455 163.565 814.07 163.895 813.556 164.137C813.043 164.379 812.396 164.5 811.618 164.5H807.496ZM809.341 162.959H811.324C811.994 162.959 812.476 162.831 812.771 162.576C813.069 162.317 813.218 161.986 813.218 161.582C813.218 161.28 813.144 161.008 812.995 160.766C812.845 160.521 812.633 160.329 812.358 160.19C812.083 160.047 811.755 159.976 811.374 159.976H809.341V162.959ZM809.341 158.648H811.165C811.483 158.648 811.77 158.59 812.025 158.474C812.28 158.355 812.481 158.188 812.627 157.972C812.776 157.754 812.85 157.495 812.85 157.197C812.85 156.802 812.711 156.478 812.433 156.222C812.158 155.967 811.748 155.839 811.205 155.839H809.341V158.648ZM822.931 157.117C822.884 156.683 822.689 156.345 822.344 156.103C822.003 155.861 821.558 155.74 821.012 155.74C820.627 155.74 820.297 155.798 820.022 155.914C819.747 156.03 819.537 156.187 819.391 156.386C819.245 156.585 819.17 156.812 819.167 157.067C819.167 157.28 819.215 157.464 819.311 157.619C819.411 157.775 819.545 157.908 819.714 158.017C819.883 158.123 820.07 158.213 820.276 158.286C820.481 158.358 820.688 158.42 820.897 158.469L821.852 158.708C822.236 158.798 822.606 158.919 822.96 159.071C823.318 159.223 823.638 159.416 823.92 159.648C824.205 159.88 824.43 160.16 824.596 160.488C824.762 160.816 824.845 161.201 824.845 161.641C824.845 162.238 824.692 162.763 824.387 163.217C824.082 163.668 823.642 164.021 823.065 164.276C822.491 164.528 821.797 164.654 820.982 164.654C820.19 164.654 819.502 164.531 818.919 164.286C818.339 164.041 817.884 163.683 817.556 163.212C817.232 162.742 817.056 162.168 817.029 161.492H818.844C818.87 161.847 818.98 162.142 819.172 162.377C819.364 162.612 819.615 162.788 819.923 162.904C820.234 163.02 820.582 163.078 820.967 163.078C821.368 163.078 821.719 163.018 822.021 162.899C822.326 162.777 822.564 162.607 822.737 162.392C822.909 162.173 822.997 161.918 823 161.626C822.997 161.361 822.919 161.143 822.767 160.97C822.614 160.795 822.4 160.649 822.125 160.533C821.853 160.413 821.535 160.307 821.171 160.214L820.012 159.916C819.174 159.701 818.511 159.374 818.024 158.937C817.54 158.496 817.298 157.911 817.298 157.182C817.298 156.582 817.46 156.057 817.785 155.606C818.113 155.155 818.559 154.805 819.122 154.557C819.686 154.305 820.324 154.179 821.036 154.179C821.759 154.179 822.392 154.305 822.936 154.557C823.482 154.805 823.912 155.152 824.223 155.596C824.535 156.037 824.696 156.544 824.705 157.117H822.931ZM827.189 164.5V154.318H833.811V155.864H829.033V158.629H833.468V160.175H829.033V162.954H833.851V164.5H827.189ZM836.393 164.5V154.318H840.211C840.993 154.318 841.65 154.454 842.18 154.726C842.713 154.998 843.116 155.379 843.388 155.869C843.663 156.357 843.801 156.925 843.801 157.575C843.801 158.228 843.661 158.794 843.383 159.275C843.108 159.752 842.702 160.122 842.165 160.384C841.628 160.642 840.968 160.771 840.186 160.771H837.467V159.24H839.938C840.395 159.24 840.77 159.177 841.061 159.051C841.353 158.922 841.568 158.735 841.708 158.489C841.85 158.241 841.921 157.936 841.921 157.575C841.921 157.213 841.85 156.905 841.708 156.65C841.565 156.391 841.348 156.196 841.056 156.063C840.765 155.927 840.388 155.859 839.928 155.859H838.237V164.5H836.393ZM841.653 159.886L844.173 164.5H842.115L839.639 159.886H841.653ZM847.301 154.318L849.951 162.332H850.055L852.7 154.318H854.728L851.139 164.5H848.862L845.277 154.318H847.301ZM856.888 164.5H854.919L858.503 154.318H860.78L864.37 164.5H862.401L859.682 156.406H859.602L856.888 164.5ZM856.952 160.508H862.322V161.989H856.952V160.508ZM866.411 164.5V154.318H870.309C871.044 154.318 871.656 154.434 872.143 154.666C872.634 154.895 873 155.208 873.242 155.606C873.487 156.004 873.61 156.454 873.61 156.958C873.61 157.372 873.53 157.727 873.371 158.022C873.212 158.314 872.998 158.551 872.73 158.733C872.461 158.915 872.161 159.046 871.83 159.126V159.225C872.191 159.245 872.538 159.356 872.869 159.558C873.204 159.757 873.477 160.039 873.689 160.403C873.901 160.768 874.007 161.209 874.007 161.726C874.007 162.253 873.88 162.727 873.625 163.148C873.369 163.565 872.985 163.895 872.471 164.137C871.958 164.379 871.311 164.5 870.532 164.5H866.411ZM868.255 162.959H870.239C870.909 162.959 871.391 162.831 871.686 162.576C871.984 162.317 872.133 161.986 872.133 161.582C872.133 161.28 872.059 161.008 871.909 160.766C871.76 160.521 871.548 160.329 871.273 160.19C870.998 160.047 870.67 159.976 870.289 159.976H868.255V162.959ZM868.255 158.648H870.08C870.398 158.648 870.685 158.59 870.94 158.474C871.195 158.355 871.396 158.188 871.542 157.972C871.691 157.754 871.765 157.495 871.765 157.197C871.765 156.802 871.626 156.478 871.348 156.222C871.073 155.967 870.663 155.839 870.12 155.839H868.255V158.648ZM878.157 154.318V164.5H876.312V154.318H878.157ZM880.854 164.5V154.318H882.698V162.954H887.183V164.5H880.854ZM891.328 154.318V164.5H889.484V154.318H891.328ZM893.578 155.864V154.318H901.701V155.864H898.554V164.5H896.725V155.864H893.578ZM903.272 154.318H905.355L907.845 158.822H907.945L910.436 154.318H912.519L908.815 160.702V164.5H906.975V160.702L903.272 154.318ZM794.486 184.5V174.318H798.304C799.086 174.318 799.743 174.464 800.273 174.756C800.806 175.047 801.209 175.448 801.481 175.959C801.756 176.466 801.894 177.043 801.894 177.689C801.894 178.342 801.756 178.922 801.481 179.429C801.206 179.936 800.8 180.335 800.263 180.627C799.726 180.915 799.065 181.06 798.279 181.06H795.749V179.543H798.031C798.488 179.543 798.863 179.464 799.154 179.305C799.446 179.146 799.661 178.927 799.801 178.648C799.943 178.37 800.014 178.05 800.014 177.689C800.014 177.328 799.943 177.009 799.801 176.734C799.661 176.459 799.444 176.246 799.149 176.093C798.858 175.937 798.481 175.859 798.021 175.859H796.33V184.5H794.486ZM804.196 184.5V174.318H808.014C808.796 174.318 809.452 174.454 809.983 174.726C810.516 174.998 810.919 175.379 811.191 175.869C811.466 176.357 811.603 176.925 811.603 177.575C811.603 178.228 811.464 178.794 811.186 179.275C810.911 179.752 810.505 180.122 809.968 180.384C809.431 180.642 808.771 180.771 807.989 180.771H805.27V179.24H807.74C808.198 179.24 808.572 179.177 808.864 179.051C809.156 178.922 809.371 178.735 809.51 178.489C809.653 178.241 809.724 177.936 809.724 177.575C809.724 177.213 809.653 176.905 809.51 176.65C809.368 176.391 809.151 176.196 808.859 176.063C808.567 175.927 808.191 175.859 807.73 175.859H806.04V184.5H804.196ZM809.456 179.886L811.976 184.5H809.918L807.442 179.886H809.456ZM823.099 179.409C823.099 180.506 822.894 181.446 822.483 182.228C822.075 183.007 821.518 183.603 820.812 184.018C820.11 184.432 819.312 184.639 818.421 184.639C817.529 184.639 816.731 184.432 816.025 184.018C815.322 183.6 814.765 183.002 814.354 182.223C813.946 181.441 813.743 180.503 813.743 179.409C813.743 178.312 813.946 177.374 814.354 176.595C814.765 175.813 815.322 175.215 816.025 174.8C816.731 174.386 817.529 174.179 818.421 174.179C819.312 174.179 820.11 174.386 820.812 174.8C821.518 175.215 822.075 175.813 822.483 176.595C822.894 177.374 823.099 178.312 823.099 179.409ZM821.245 179.409C821.245 178.637 821.124 177.986 820.882 177.455C820.643 176.922 820.312 176.519 819.888 176.247C819.463 175.972 818.974 175.835 818.421 175.835C817.867 175.835 817.379 175.972 816.954 176.247C816.53 176.519 816.197 176.922 815.955 177.455C815.716 177.986 815.597 178.637 815.597 179.409C815.597 180.181 815.716 180.834 815.955 181.368C816.197 181.898 816.53 182.301 816.954 182.576C817.379 182.848 817.867 182.984 818.421 182.984C818.974 182.984 819.463 182.848 819.888 182.576C820.312 182.301 820.643 181.898 820.882 181.368C821.124 180.834 821.245 180.181 821.245 179.409ZM826.358 174.318L829.008 182.332H829.113L831.757 174.318H833.786L830.196 184.5H827.919L824.335 174.318H826.358ZM837.671 174.318V184.5H835.827V174.318H837.671ZM843.819 184.5H840.369V174.318H843.889C844.899 174.318 845.768 174.522 846.494 174.93C847.223 175.334 847.783 175.916 848.174 176.675C848.565 177.434 848.761 178.342 848.761 179.399C848.761 180.46 848.564 181.371 848.169 182.134C847.778 182.896 847.213 183.481 846.474 183.888C845.738 184.296 844.853 184.5 843.819 184.5ZM842.213 182.904H843.73C844.439 182.904 845.03 182.775 845.504 182.516C845.978 182.254 846.335 181.865 846.573 181.348C846.812 180.828 846.931 180.178 846.931 179.399C846.931 178.62 846.812 177.974 846.573 177.46C846.335 176.943 845.982 176.557 845.514 176.302C845.05 176.043 844.474 175.914 843.784 175.914H842.213V182.904ZM851.213 184.5V174.318H857.835V175.864H853.058V178.629H857.492V180.175H853.058V182.954H857.875V184.5H851.213ZM860.417 184.5V174.318H864.235C865.018 174.318 865.674 174.454 866.204 174.726C866.738 174.998 867.14 175.379 867.412 175.869C867.687 176.357 867.825 176.925 867.825 177.575C867.825 178.228 867.686 178.794 867.407 179.275C867.132 179.752 866.726 180.122 866.189 180.384C865.652 180.642 864.993 180.771 864.21 180.771H861.491V179.24H863.962C864.419 179.24 864.794 179.177 865.085 179.051C865.377 178.922 865.593 178.735 865.732 178.489C865.874 178.241 865.946 177.936 865.946 177.575C865.946 177.213 865.874 176.905 865.732 176.65C865.589 176.391 865.372 176.196 865.081 176.063C864.789 175.927 864.413 175.859 863.952 175.859H862.262V184.5H860.417ZM865.677 179.886L868.198 184.5H866.139L863.664 179.886H865.677Z" fill="white"/>
<defs>
<clipPath id="clip0_129_2981">
<rect width="55" height="27" fill="white" transform="translate(112.5 30)"/>
</clipPath>
<clipPath id="clip1_129_2981">
<rect width="13.285" height="26.7776" fill="white" transform="translate(112.5 30.6112)"/>
</clipPath>
<clipPath id="clip2_129_2981">
<rect width="35" height="40" fill="white" transform="translate(122 121)"/>
</clipPath>
</defs>
</svg>
