<svg width="951" height="259" viewBox="0 0 951 259" fill="none" xmlns="http://www.w3.org/2000/svg">
<g clip-path="url(#clip0_23_635)">
<rect width="951" height="259" fill="#121416"/>
<rect x="0.5" y="0.5" width="259" height="258" rx="9.5" stroke="#737373" stroke-dasharray="4 4"/>
<rect x="10.5" y="10.5" width="239" height="238" rx="7.5" fill="#0A0A0A"/>
<rect x="10.5" y="10.5" width="239" height="238" rx="7.5" stroke="#525252"/>
<g clip-path="url(#clip1_23_635)">
<g clip-path="url(#clip2_23_635)">
<rect x="109.143" y="40.7459" width="6.64251" height="6.64251" fill="#F5F5F5"/>
<rect x="102.5" y="20.8184" width="6.64251" height="6.64251" fill="#F5F5F5"/>
<rect x="109.143" y="27.4609" width="6.64251" height="6.64251" fill="#F5F5F5"/>
<rect x="102.5" y="34.1034" width="6.64251" height="6.64251" fill="#F5F5F5"/>
</g>
<path d="M150.064 36.4031V32.5323C150.064 30.8389 150.897 29.9922 152.563 29.9922H154.944C156.599 29.9922 157.427 30.8389 157.427 32.5323V36.4031C157.427 38.0965 156.599 38.9432 154.944 38.9432H152.563C150.897 38.9432 150.064 38.0965 150.064 36.4031ZM151.135 36.5759C151.135 37.5205 151.6 37.9928 152.529 37.9928H154.978C155.896 37.9928 156.355 37.5205 156.355 36.5759V32.3595C156.355 31.4264 155.896 30.9599 154.978 30.9599H152.529C151.6 30.9599 151.135 31.4264 151.135 32.3595V36.5759Z" fill="#FAFAFA"/>
<path d="M143.954 38.9432V30.9944C144.351 30.3263 145.071 29.9922 146.114 29.9922H147.78L148.358 30.4415V30.9599H146.165C145.643 30.9599 145.264 31.1039 145.025 31.3919V38.9432H143.954Z" fill="#FAFAFA"/>
<path d="M134.155 36.4031V32.5323C134.155 30.8389 134.988 29.9922 136.655 29.9922H138.865C140.52 29.9922 141.348 30.8389 141.348 32.5323V34.8997H135.226V36.5759C135.226 37.5205 135.691 37.9928 136.621 37.9928H141.008V38.4939L140.43 38.9432H136.655C134.988 38.9432 134.155 38.0965 134.155 36.4031ZM135.226 33.9839H140.277V32.3595C140.277 31.4264 139.817 30.9599 138.899 30.9599H136.621C135.691 30.9599 135.226 31.4264 135.226 32.3595V33.9839Z" fill="#FAFAFA"/>
<path d="M124.022 28.0741V27.02H133.17V28.0741H129.157V38.9432H128.035V28.0741H124.022Z" fill="#FAFAFA"/>
</g>
<circle cx="129.5" cy="69.5" r="12.5" fill="#FAFAFA"/>
<path d="M130.923 63.3636V75H128.815V65.4148H128.747L126.026 67.1534V65.2216L128.918 63.3636H130.923Z" fill="#171717"/>
<g clip-path="url(#clip3_23_635)">
<path opacity="0.4" d="M119.5 121C119.5 123.652 120.554 126.196 122.429 128.071C124.304 129.946 126.848 131 129.5 131C132.152 131 134.696 129.946 136.571 128.071C138.446 126.196 139.5 123.652 139.5 121C139.5 118.348 138.446 115.804 136.571 113.929C134.696 112.054 132.152 111 129.5 111C126.848 111 124.304 112.054 122.429 113.929C120.554 115.804 119.5 118.348 119.5 121Z" fill="#FAFAFA"/>
<path d="M112 148.68C112 140.984 118.234 134.75 125.93 134.75H133.07C140.766 134.75 147 140.984 147 148.68C147 149.961 145.961 151 144.68 151H114.32C113.039 151 112 149.961 112 148.68Z" fill="#FAFAFA"/>
</g>
<line x1="129.5" y1="90" x2="129.5" y2="105" stroke="white"/>
<path d="M40.0234 222.438C39.1536 222.438 38.4036 222.648 37.7734 223.07C37.1484 223.492 36.6823 224.06 36.375 224.773C36.0677 225.487 35.9141 226.307 35.9141 227.234C35.9141 227.927 35.9974 228.56 36.1641 229.133C36.3307 229.701 36.5807 230.201 36.9141 230.633C37.2474 231.06 37.6797 231.393 38.2109 231.633C38.7474 231.867 39.362 231.984 40.0547 231.984C40.9453 231.984 41.8672 231.753 42.8203 231.289L43.0469 232.438C42.2708 232.927 41.2214 233.172 39.8984 233.172C39.0286 233.172 38.2474 233.029 37.5547 232.742C36.8672 232.451 36.2969 232.042 35.8438 231.516C35.3958 230.984 35.0547 230.354 34.8203 229.625C34.5859 228.891 34.4688 228.076 34.4688 227.18C34.4688 226.315 34.5964 225.518 34.8516 224.789C35.1068 224.06 35.4661 223.435 35.9297 222.914C36.3984 222.388 36.9818 221.979 37.6797 221.688C38.3776 221.396 39.1536 221.25 40.0078 221.25C41.3047 221.25 42.3984 221.536 43.2891 222.109L42.7578 223.211C41.9036 222.695 40.9922 222.438 40.0234 222.438ZM48.6328 224.352C48.8672 224.352 49.0807 224.367 49.2734 224.398L49.2266 225.602C48.987 225.56 48.7786 225.539 48.6016 225.539C47.8724 225.539 47.2786 225.794 46.8203 226.305C46.3672 226.81 46.1406 227.438 46.1406 228.188V233H44.8359C44.8307 227.74 44.8281 224.883 44.8281 224.43H45.9141L46.0391 225.969C46.3359 225.484 46.7135 225.094 47.1719 224.797C47.6302 224.5 48.1172 224.352 48.6328 224.352ZM55.3984 226.016C55.0182 225.557 54.4948 225.328 53.8281 225.328C53.1615 225.328 52.6172 225.565 52.1953 226.039C51.7734 226.508 51.526 227.151 51.4531 227.969H55.9766C55.9766 227.12 55.7839 226.469 55.3984 226.016ZM54.0859 233.18C52.8411 233.18 51.8594 232.784 51.1406 231.992C50.4271 231.201 50.0703 230.117 50.0703 228.742C50.0703 227.414 50.4167 226.339 51.1094 225.516C51.8021 224.688 52.7135 224.266 53.8438 224.25C54.9062 224.25 55.7474 224.615 56.3672 225.344C56.9922 226.068 57.3047 227.036 57.3047 228.25C57.3047 228.312 57.3021 228.427 57.2969 228.594C57.2969 228.76 57.2969 228.88 57.2969 228.953H51.4141C51.4297 229.927 51.6797 230.688 52.1641 231.234C52.6536 231.776 53.3099 232.047 54.1328 232.047C55.0391 232.047 55.9479 231.807 56.8594 231.328L57.0625 232.383C56.1927 232.914 55.2005 233.18 54.0859 233.18ZM61.5 232.125C62.1198 232.125 62.6641 231.956 63.1328 231.617C63.6068 231.273 63.9115 230.812 64.0469 230.234V228.789C64.0208 228.789 63.862 228.802 63.5703 228.828C63.2839 228.854 63.0964 228.87 63.0078 228.875C61.8776 228.974 61.0885 229.159 60.6406 229.43C60.1979 229.701 59.9766 230.135 59.9766 230.734C59.9766 231.193 60.112 231.539 60.3828 231.773C60.6536 232.008 61.026 232.125 61.5 232.125ZM64.3359 233C64.2578 232.667 64.1823 232.307 64.1094 231.922C63.6354 232.396 63.1901 232.724 62.7734 232.906C62.3568 233.089 61.8672 233.18 61.3047 233.18C60.5026 233.18 59.8568 232.971 59.3672 232.555C58.8828 232.133 58.6406 231.529 58.6406 230.742C58.6406 229.867 58.9714 229.219 59.6328 228.797C60.2995 228.375 61.2578 228.112 62.5078 228.008C62.6797 227.992 62.9375 227.971 63.2812 227.945C63.6302 227.914 63.8906 227.891 64.0625 227.875V227.117C64.0625 226.513 63.9219 226.065 63.6406 225.773C63.3594 225.482 62.9167 225.336 62.3125 225.336C61.4688 225.336 60.6172 225.544 59.7578 225.961C59.7318 225.898 59.6641 225.719 59.5547 225.422C59.4453 225.12 59.388 224.964 59.3828 224.953C59.763 224.74 60.2135 224.57 60.7344 224.445C61.2604 224.315 61.7943 224.25 62.3359 224.25C63.4036 224.25 64.1719 224.484 64.6406 224.953C65.1146 225.417 65.3516 226.208 65.3516 227.328V233H64.3359ZM70.3359 233.156C69.4922 233.156 68.8932 232.951 68.5391 232.539C68.1849 232.128 67.9974 231.464 67.9766 230.547V225.398H66.7031L66.7578 224.539L67.9688 224.43L68.4141 222.469L69.2734 222.438V224.43H71.6562V225.398H69.2734V230.312C69.2734 230.964 69.3724 231.422 69.5703 231.688C69.7682 231.953 70.1068 232.086 70.5859 232.086C70.7578 232.086 71.1302 232.044 71.7031 231.961L71.7578 232.992C71.138 233.102 70.6641 233.156 70.3359 233.156ZM77.9922 226.016C77.612 225.557 77.0885 225.328 76.4219 225.328C75.7552 225.328 75.2109 225.565 74.7891 226.039C74.3672 226.508 74.1198 227.151 74.0469 227.969H78.5703C78.5703 227.12 78.3776 226.469 77.9922 226.016ZM76.6797 233.18C75.4349 233.18 74.4531 232.784 73.7344 231.992C73.0208 231.201 72.6641 230.117 72.6641 228.742C72.6641 227.414 73.0104 226.339 73.7031 225.516C74.3958 224.688 75.3073 224.266 76.4375 224.25C77.5 224.25 78.3411 224.615 78.9609 225.344C79.5859 226.068 79.8984 227.036 79.8984 228.25C79.8984 228.312 79.8958 228.427 79.8906 228.594C79.8906 228.76 79.8906 228.88 79.8906 228.953H74.0078C74.0234 229.927 74.2734 230.688 74.7578 231.234C75.2474 231.776 75.9036 232.047 76.7266 232.047C77.6328 232.047 78.5417 231.807 79.4531 231.328L79.6562 232.383C78.7865 232.914 77.7943 233.18 76.6797 233.18ZM94.0078 227.25C94.0078 225.635 93.5911 224.461 92.7578 223.727C91.9245 222.992 90.7109 222.625 89.1172 222.625H87.3047V231.82H89.3438C90.8646 231.82 92.0208 231.438 92.8125 230.672C93.6094 229.901 94.0078 228.76 94.0078 227.25ZM95.4531 227.211C95.4531 229.091 94.9193 230.526 93.8516 231.516C92.7839 232.505 91.2943 233 89.3828 233H85.9531V221.445H89.1562C90.1198 221.445 90.9818 221.56 91.7422 221.789C92.5026 222.013 93.1615 222.357 93.7188 222.82C94.2812 223.279 94.7109 223.88 95.0078 224.625C95.3047 225.365 95.4531 226.227 95.4531 227.211ZM105.742 227.25C105.742 225.635 105.326 224.461 104.492 223.727C103.659 222.992 102.445 222.625 100.852 222.625H99.0391V231.82H101.078C102.599 231.82 103.755 231.438 104.547 230.672C105.344 229.901 105.742 228.76 105.742 227.25ZM107.188 227.211C107.188 229.091 106.654 230.526 105.586 231.516C104.518 232.505 103.029 233 101.117 233H97.6875V221.445H100.891C101.854 221.445 102.716 221.56 103.477 221.789C104.237 222.013 104.896 222.357 105.453 222.82C106.016 223.279 106.445 223.88 106.742 224.625C107.039 225.365 107.188 226.227 107.188 227.211ZM113.203 231.094C114.406 231.688 115.695 231.984 117.07 231.984C118.763 231.984 119.609 231.214 119.609 229.672C119.609 229.172 119.474 228.768 119.203 228.461C118.938 228.148 118.451 227.904 117.742 227.727L115.445 227.148C113.69 226.706 112.812 225.768 112.812 224.336C112.812 223.237 113.19 222.422 113.945 221.891C114.701 221.354 115.745 221.086 117.078 221.086C117.776 221.086 118.43 221.161 119.039 221.312C119.648 221.464 120.159 221.667 120.57 221.922L120.18 223.023C119.831 222.831 119.367 222.659 118.789 222.508C118.216 222.357 117.635 222.281 117.047 222.281C115.161 222.281 114.219 222.935 114.219 224.242C114.219 224.685 114.362 225.042 114.648 225.312C114.94 225.578 115.375 225.781 115.953 225.922L118.148 226.453C119.086 226.677 119.797 227.036 120.281 227.531C120.766 228.021 121.008 228.719 121.008 229.625C121.008 230.802 120.646 231.69 119.922 232.289C119.203 232.883 118.224 233.18 116.984 233.18C116.057 233.18 115.232 233.086 114.508 232.898C113.789 232.706 113.219 232.479 112.797 232.219L113.203 231.094ZM127.711 226.016C127.331 225.557 126.807 225.328 126.141 225.328C125.474 225.328 124.93 225.565 124.508 226.039C124.086 226.508 123.839 227.151 123.766 227.969H128.289C128.289 227.12 128.096 226.469 127.711 226.016ZM126.398 233.18C125.154 233.18 124.172 232.784 123.453 231.992C122.74 231.201 122.383 230.117 122.383 228.742C122.383 227.414 122.729 226.339 123.422 225.516C124.115 224.688 125.026 224.266 126.156 224.25C127.219 224.25 128.06 224.615 128.68 225.344C129.305 226.068 129.617 227.036 129.617 228.25C129.617 228.312 129.615 228.427 129.609 228.594C129.609 228.76 129.609 228.88 129.609 228.953H123.727C123.742 229.927 123.992 230.688 124.477 231.234C124.966 231.776 125.622 232.047 126.445 232.047C127.352 232.047 128.26 231.807 129.172 231.328L129.375 232.383C128.505 232.914 127.513 233.18 126.398 233.18ZM135.273 224.352C135.508 224.352 135.721 224.367 135.914 224.398L135.867 225.602C135.628 225.56 135.419 225.539 135.242 225.539C134.513 225.539 133.919 225.794 133.461 226.305C133.008 226.81 132.781 227.438 132.781 228.188V233H131.477C131.471 227.74 131.469 224.883 131.469 224.43H132.555L132.68 225.969C132.977 225.484 133.354 225.094 133.812 224.797C134.271 224.5 134.758 224.352 135.273 224.352ZM139.453 233L136.133 224.43H137.531L139.422 229.523C139.422 229.523 139.682 230.247 140.203 231.695C140.38 231.138 140.625 230.419 140.938 229.539C141.333 228.43 141.948 226.727 142.781 224.43H144.172L140.875 233H139.453ZM146.859 224.43V233H145.547V224.43H146.859ZM146.859 221.312V222.859H145.547V221.312H146.859ZM152.945 233.18C151.685 233.18 150.698 232.771 149.984 231.953C149.276 231.135 148.922 230.065 148.922 228.742C148.927 227.409 149.289 226.328 150.008 225.5C150.732 224.667 151.721 224.25 152.977 224.25C153.419 224.25 153.846 224.305 154.258 224.414C154.674 224.523 155.003 224.667 155.242 224.844L154.883 225.859C154.273 225.531 153.63 225.367 152.953 225.367C152.125 225.367 151.469 225.669 150.984 226.273C150.505 226.878 150.266 227.703 150.266 228.75C150.266 229.771 150.503 230.581 150.977 231.18C151.456 231.773 152.117 232.07 152.961 232.07C153.633 232.07 154.32 231.888 155.023 231.523L155.188 232.562C154.62 232.974 153.872 233.18 152.945 233.18ZM161.82 226.016C161.44 225.557 160.917 225.328 160.25 225.328C159.583 225.328 159.039 225.565 158.617 226.039C158.195 226.508 157.948 227.151 157.875 227.969H162.398C162.398 227.12 162.206 226.469 161.82 226.016ZM160.508 233.18C159.263 233.18 158.281 232.784 157.562 231.992C156.849 231.201 156.492 230.117 156.492 228.742C156.492 227.414 156.839 226.339 157.531 225.516C158.224 224.688 159.135 224.266 160.266 224.25C161.328 224.25 162.169 224.615 162.789 225.344C163.414 226.068 163.727 227.036 163.727 228.25C163.727 228.312 163.724 228.427 163.719 228.594C163.719 228.76 163.719 228.88 163.719 228.953H157.836C157.852 229.927 158.102 230.688 158.586 231.234C159.076 231.776 159.732 232.047 160.555 232.047C161.461 232.047 162.37 231.807 163.281 231.328L163.484 232.383C162.615 232.914 161.622 233.18 160.508 233.18ZM175.391 228.203C174.292 225.01 173.685 223.216 173.57 222.82C173.57 222.82 172.938 224.615 171.672 228.203H175.391ZM177.18 233L175.828 229.336H171.219L169.82 233H168.445L172.883 221.422H174.266L178.57 233H177.18ZM183.336 233.18C182.076 233.18 181.089 232.771 180.375 231.953C179.667 231.135 179.312 230.065 179.312 228.742C179.318 227.409 179.68 226.328 180.398 225.5C181.122 224.667 182.112 224.25 183.367 224.25C183.81 224.25 184.237 224.305 184.648 224.414C185.065 224.523 185.393 224.667 185.633 224.844L185.273 225.859C184.664 225.531 184.021 225.367 183.344 225.367C182.516 225.367 181.859 225.669 181.375 226.273C180.896 226.878 180.656 227.703 180.656 228.75C180.656 229.771 180.893 230.581 181.367 231.18C181.846 231.773 182.508 232.07 183.352 232.07C184.023 232.07 184.711 231.888 185.414 231.523L185.578 232.562C185.01 232.974 184.263 233.18 183.336 233.18ZM190.805 233.18C189.544 233.18 188.557 232.771 187.844 231.953C187.135 231.135 186.781 230.065 186.781 228.742C186.786 227.409 187.148 226.328 187.867 225.5C188.591 224.667 189.581 224.25 190.836 224.25C191.279 224.25 191.706 224.305 192.117 224.414C192.534 224.523 192.862 224.667 193.102 224.844L192.742 225.859C192.133 225.531 191.49 225.367 190.812 225.367C189.984 225.367 189.328 225.669 188.844 226.273C188.365 226.878 188.125 227.703 188.125 228.75C188.125 229.771 188.362 230.581 188.836 231.18C189.315 231.773 189.977 232.07 190.82 232.07C191.492 232.07 192.18 231.888 192.883 231.523L193.047 232.562C192.479 232.974 191.732 233.18 190.805 233.18ZM195.695 228.734C195.695 229.75 195.919 230.565 196.367 231.18C196.82 231.789 197.479 232.094 198.344 232.094C199.198 232.094 199.841 231.789 200.273 231.18C200.711 230.57 200.93 229.75 200.93 228.719C200.93 227.672 200.714 226.849 200.281 226.25C199.854 225.646 199.201 225.344 198.32 225.344C197.466 225.344 196.815 225.651 196.367 226.266C195.919 226.88 195.695 227.703 195.695 228.734ZM202.281 228.711C202.281 230.039 201.927 231.117 201.219 231.945C200.51 232.768 199.531 233.18 198.281 233.18C197.078 233.18 196.12 232.763 195.406 231.93C194.698 231.096 194.344 230.026 194.344 228.719C194.344 227.385 194.701 226.307 195.414 225.484C196.128 224.661 197.107 224.25 198.352 224.25C199.576 224.25 200.536 224.664 201.234 225.492C201.932 226.315 202.281 227.388 202.281 228.711ZM203.836 230.141V224.43H205.148V230.156C205.148 230.531 205.201 230.849 205.305 231.109C205.414 231.37 205.568 231.573 205.766 231.719C205.969 231.859 206.195 231.961 206.445 232.023C206.701 232.086 206.992 232.117 207.32 232.117C207.997 232.117 208.523 231.969 208.898 231.672C209.279 231.375 209.469 230.87 209.469 230.156V224.43H210.781V230.141C210.781 230.578 210.719 230.971 210.594 231.32C210.469 231.669 210.299 231.961 210.086 232.195C209.878 232.424 209.625 232.615 209.328 232.766C209.031 232.917 208.716 233.026 208.383 233.094C208.055 233.161 207.701 233.195 207.32 233.195C206.945 233.195 206.591 233.161 206.258 233.094C205.924 233.026 205.607 232.917 205.305 232.766C205.008 232.609 204.75 232.417 204.531 232.188C204.318 231.953 204.148 231.661 204.023 231.312C203.898 230.964 203.836 230.573 203.836 230.141ZM212.727 233V224.43H213.82L213.984 225.656C214.323 225.234 214.745 224.896 215.25 224.641C215.76 224.38 216.31 224.25 216.898 224.25C217.888 224.25 218.62 224.529 219.094 225.086C219.568 225.638 219.805 226.49 219.805 227.641V233H218.5C218.5 229.562 218.497 227.721 218.492 227.477C218.471 226.747 218.323 226.214 218.047 225.875C217.776 225.536 217.32 225.367 216.68 225.367C216.008 225.367 215.448 225.529 215 225.852C214.552 226.174 214.26 226.594 214.125 227.109C214.073 227.458 214.047 227.859 214.047 228.312V233H212.727ZM224.711 233.156C223.867 233.156 223.268 232.951 222.914 232.539C222.56 232.128 222.372 231.464 222.352 230.547V225.398H221.078L221.133 224.539L222.344 224.43L222.789 222.469L223.648 222.438V224.43H226.031V225.398H223.648V230.312C223.648 230.964 223.747 231.422 223.945 231.688C224.143 231.953 224.482 232.086 224.961 232.086C225.133 232.086 225.505 232.044 226.078 231.961L226.133 232.992C225.513 233.102 225.039 233.156 224.711 233.156Z" fill="white"/>
<path d="M681.5 129.5L661.5 117.953V141.047L681.5 129.5ZM270 129.5V131.5L663.5 131.5V129.5V127.5L270 127.5V129.5Z" fill="#34D399"/>
<mask id="path-19-outside-1_23_635" maskUnits="userSpaceOnUse" x="429" y="113.5" width="94" height="32" fill="black">
<rect fill="white" x="429" y="113.5" width="94" height="32"/>
<path d="M448.044 127.754H446.185C446.132 127.449 446.034 127.179 445.892 126.943C445.749 126.705 445.572 126.502 445.36 126.337C445.147 126.171 444.906 126.047 444.634 125.964C444.365 125.878 444.075 125.835 443.764 125.835C443.21 125.835 442.72 125.974 442.292 126.252C441.865 126.527 441.53 126.932 441.288 127.465C441.046 127.996 440.925 128.643 440.925 129.409C440.925 130.188 441.046 130.844 441.288 131.378C441.533 131.908 441.868 132.309 442.292 132.581C442.72 132.849 443.209 132.984 443.759 132.984C444.064 132.984 444.349 132.944 444.614 132.864C444.882 132.781 445.123 132.661 445.335 132.501C445.55 132.342 445.731 132.147 445.877 131.915C446.026 131.683 446.129 131.418 446.185 131.119L448.044 131.129C447.975 131.613 447.824 132.067 447.592 132.491C447.363 132.916 447.063 133.29 446.692 133.615C446.321 133.937 445.887 134.188 445.389 134.371C444.892 134.55 444.34 134.639 443.734 134.639C442.839 134.639 442.04 134.432 441.338 134.018C440.635 133.603 440.081 133.005 439.677 132.223C439.273 131.441 439.071 130.503 439.071 129.409C439.071 128.312 439.274 127.374 439.682 126.595C440.09 125.813 440.645 125.215 441.348 124.8C442.05 124.386 442.846 124.179 443.734 124.179C444.301 124.179 444.828 124.259 445.315 124.418C445.802 124.577 446.236 124.81 446.617 125.119C446.999 125.424 447.312 125.798 447.557 126.242C447.806 126.683 447.968 127.187 448.044 127.754ZM459.531 129.409C459.531 130.506 459.326 131.446 458.915 132.228C458.507 133.007 457.95 133.603 457.244 134.018C456.542 134.432 455.745 134.639 454.853 134.639C453.962 134.639 453.163 134.432 452.457 134.018C451.754 133.6 451.197 133.002 450.786 132.223C450.379 131.441 450.175 130.503 450.175 129.409C450.175 128.312 450.379 127.374 450.786 126.595C451.197 125.813 451.754 125.215 452.457 124.8C453.163 124.386 453.962 124.179 454.853 124.179C455.745 124.179 456.542 124.386 457.244 124.8C457.95 125.215 458.507 125.813 458.915 126.595C459.326 127.374 459.531 128.312 459.531 129.409ZM457.677 129.409C457.677 128.637 457.556 127.986 457.314 127.455C457.075 126.922 456.744 126.519 456.32 126.247C455.895 125.972 455.407 125.835 454.853 125.835C454.3 125.835 453.811 125.972 453.386 126.247C452.962 126.519 452.629 126.922 452.387 127.455C452.149 127.986 452.029 128.637 452.029 129.409C452.029 130.181 452.149 130.834 452.387 131.368C452.629 131.898 452.962 132.301 453.386 132.576C453.811 132.848 454.3 132.984 454.853 132.984C455.407 132.984 455.895 132.848 456.32 132.576C456.744 132.301 457.075 131.898 457.314 131.368C457.556 130.834 457.677 130.181 457.677 129.409ZM470.342 124.318V134.5H468.702L463.904 127.565H463.82V134.5H461.975V124.318H463.626L468.418 131.259H468.508V124.318H470.342ZM481.419 124.318V134.5H479.779L474.981 127.565H474.897V134.5H473.052V124.318H474.703L479.495 131.259H479.585V124.318H481.419ZM484.129 134.5V124.318H490.751V125.864H485.974V128.629H490.408V130.175H485.974V132.954H490.791V134.5H484.129ZM502.048 127.754H500.189C500.136 127.449 500.038 127.179 499.895 126.943C499.753 126.705 499.576 126.502 499.364 126.337C499.151 126.171 498.909 126.047 498.638 125.964C498.369 125.878 498.079 125.835 497.768 125.835C497.214 125.835 496.724 125.974 496.296 126.252C495.868 126.527 495.534 126.932 495.292 127.465C495.05 127.996 494.929 128.643 494.929 129.409C494.929 130.188 495.05 130.844 495.292 131.378C495.537 131.908 495.872 132.309 496.296 132.581C496.724 132.849 497.212 132.984 497.763 132.984C498.068 132.984 498.353 132.944 498.618 132.864C498.886 132.781 499.127 132.661 499.339 132.501C499.554 132.342 499.735 132.147 499.881 131.915C500.03 131.683 500.132 131.418 500.189 131.119L502.048 131.129C501.979 131.613 501.828 132.067 501.596 132.491C501.367 132.916 501.067 133.29 500.696 133.615C500.325 133.937 499.891 134.188 499.393 134.371C498.896 134.55 498.344 134.639 497.738 134.639C496.843 134.639 496.044 134.432 495.341 134.018C494.639 133.603 494.085 133.005 493.681 132.223C493.277 131.441 493.074 130.503 493.074 129.409C493.074 128.312 493.278 127.374 493.686 126.595C494.094 125.813 494.649 125.215 495.351 124.8C496.054 124.386 496.85 124.179 497.738 124.179C498.305 124.179 498.832 124.259 499.319 124.418C499.806 124.577 500.24 124.81 500.621 125.119C501.002 125.424 501.316 125.798 501.561 126.242C501.81 126.683 501.972 127.187 502.048 127.754ZM503.99 125.864V124.318H512.113V125.864H508.966V134.5H507.137V125.864H503.99Z"/>
</mask>
<path d="M448.044 127.754H446.185C446.132 127.449 446.034 127.179 445.892 126.943C445.749 126.705 445.572 126.502 445.36 126.337C445.147 126.171 444.906 126.047 444.634 125.964C444.365 125.878 444.075 125.835 443.764 125.835C443.21 125.835 442.72 125.974 442.292 126.252C441.865 126.527 441.53 126.932 441.288 127.465C441.046 127.996 440.925 128.643 440.925 129.409C440.925 130.188 441.046 130.844 441.288 131.378C441.533 131.908 441.868 132.309 442.292 132.581C442.72 132.849 443.209 132.984 443.759 132.984C444.064 132.984 444.349 132.944 444.614 132.864C444.882 132.781 445.123 132.661 445.335 132.501C445.55 132.342 445.731 132.147 445.877 131.915C446.026 131.683 446.129 131.418 446.185 131.119L448.044 131.129C447.975 131.613 447.824 132.067 447.592 132.491C447.363 132.916 447.063 133.29 446.692 133.615C446.321 133.937 445.887 134.188 445.389 134.371C444.892 134.55 444.34 134.639 443.734 134.639C442.839 134.639 442.04 134.432 441.338 134.018C440.635 133.603 440.081 133.005 439.677 132.223C439.273 131.441 439.071 130.503 439.071 129.409C439.071 128.312 439.274 127.374 439.682 126.595C440.09 125.813 440.645 125.215 441.348 124.8C442.05 124.386 442.846 124.179 443.734 124.179C444.301 124.179 444.828 124.259 445.315 124.418C445.802 124.577 446.236 124.81 446.617 125.119C446.999 125.424 447.312 125.798 447.557 126.242C447.806 126.683 447.968 127.187 448.044 127.754ZM459.531 129.409C459.531 130.506 459.326 131.446 458.915 132.228C458.507 133.007 457.95 133.603 457.244 134.018C456.542 134.432 455.745 134.639 454.853 134.639C453.962 134.639 453.163 134.432 452.457 134.018C451.754 133.6 451.197 133.002 450.786 132.223C450.379 131.441 450.175 130.503 450.175 129.409C450.175 128.312 450.379 127.374 450.786 126.595C451.197 125.813 451.754 125.215 452.457 124.8C453.163 124.386 453.962 124.179 454.853 124.179C455.745 124.179 456.542 124.386 457.244 124.8C457.95 125.215 458.507 125.813 458.915 126.595C459.326 127.374 459.531 128.312 459.531 129.409ZM457.677 129.409C457.677 128.637 457.556 127.986 457.314 127.455C457.075 126.922 456.744 126.519 456.32 126.247C455.895 125.972 455.407 125.835 454.853 125.835C454.3 125.835 453.811 125.972 453.386 126.247C452.962 126.519 452.629 126.922 452.387 127.455C452.149 127.986 452.029 128.637 452.029 129.409C452.029 130.181 452.149 130.834 452.387 131.368C452.629 131.898 452.962 132.301 453.386 132.576C453.811 132.848 454.3 132.984 454.853 132.984C455.407 132.984 455.895 132.848 456.32 132.576C456.744 132.301 457.075 131.898 457.314 131.368C457.556 130.834 457.677 130.181 457.677 129.409ZM470.342 124.318V134.5H468.702L463.904 127.565H463.82V134.5H461.975V124.318H463.626L468.418 131.259H468.508V124.318H470.342ZM481.419 124.318V134.5H479.779L474.981 127.565H474.897V134.5H473.052V124.318H474.703L479.495 131.259H479.585V124.318H481.419ZM484.129 134.5V124.318H490.751V125.864H485.974V128.629H490.408V130.175H485.974V132.954H490.791V134.5H484.129ZM502.048 127.754H500.189C500.136 127.449 500.038 127.179 499.895 126.943C499.753 126.705 499.576 126.502 499.364 126.337C499.151 126.171 498.909 126.047 498.638 125.964C498.369 125.878 498.079 125.835 497.768 125.835C497.214 125.835 496.724 125.974 496.296 126.252C495.868 126.527 495.534 126.932 495.292 127.465C495.05 127.996 494.929 128.643 494.929 129.409C494.929 130.188 495.05 130.844 495.292 131.378C495.537 131.908 495.872 132.309 496.296 132.581C496.724 132.849 497.212 132.984 497.763 132.984C498.068 132.984 498.353 132.944 498.618 132.864C498.886 132.781 499.127 132.661 499.339 132.501C499.554 132.342 499.735 132.147 499.881 131.915C500.03 131.683 500.132 131.418 500.189 131.119L502.048 131.129C501.979 131.613 501.828 132.067 501.596 132.491C501.367 132.916 501.067 133.29 500.696 133.615C500.325 133.937 499.891 134.188 499.393 134.371C498.896 134.55 498.344 134.639 497.738 134.639C496.843 134.639 496.044 134.432 495.341 134.018C494.639 133.603 494.085 133.005 493.681 132.223C493.277 131.441 493.074 130.503 493.074 129.409C493.074 128.312 493.278 127.374 493.686 126.595C494.094 125.813 494.649 125.215 495.351 124.8C496.054 124.386 496.85 124.179 497.738 124.179C498.305 124.179 498.832 124.259 499.319 124.418C499.806 124.577 500.24 124.81 500.621 125.119C501.002 125.424 501.316 125.798 501.561 126.242C501.81 126.683 501.972 127.187 502.048 127.754ZM503.99 125.864V124.318H512.113V125.864H508.966V134.5H507.137V125.864H503.99Z" fill="white"/>
<path d="M448.044 127.754V137.754H459.479L457.955 126.421L448.044 127.754ZM446.185 127.754L436.333 129.467L437.774 137.754H446.185V127.754ZM445.892 126.943L437.306 132.071L437.322 132.097L437.338 132.124L445.892 126.943ZM445.36 126.337L451.516 118.456L451.516 118.456L445.36 126.337ZM444.634 125.964L441.577 135.485L441.647 135.508L441.718 135.529L444.634 125.964ZM442.292 126.252L447.703 134.662L447.726 134.647L447.749 134.632L442.292 126.252ZM441.288 127.465L450.386 131.616L450.391 131.605L450.395 131.595L441.288 127.465ZM441.288 131.378L432.18 135.507L432.196 135.542L432.212 135.576L441.288 131.378ZM442.292 132.581L436.898 141.001L436.936 141.026L436.974 141.05L442.292 132.581ZM444.614 132.864L447.487 142.443L447.525 142.431L447.563 142.42L444.614 132.864ZM445.335 132.501L439.394 124.457L439.364 124.479L439.335 124.501L445.335 132.501ZM445.877 131.915L437.465 126.507L437.437 126.55L437.41 126.593L445.877 131.915ZM446.185 131.119L446.238 121.119L437.905 121.075L436.359 129.263L446.185 131.119ZM448.044 131.129L457.942 132.553L459.577 121.191L448.098 121.129L448.044 131.129ZM447.592 132.491L438.818 127.693L438.804 127.72L438.789 127.746L447.592 132.491ZM446.692 133.615L453.239 141.174L453.258 141.158L453.277 141.141L446.692 133.615ZM445.389 134.371L448.777 143.78L448.804 143.77L448.832 143.76L445.389 134.371ZM441.338 134.018L446.417 125.404L441.338 134.018ZM439.677 132.223L430.794 136.815H430.794L439.677 132.223ZM439.682 126.595L448.542 131.232L448.546 131.225L448.55 131.217L439.682 126.595ZM441.348 124.8L436.268 116.186L436.268 116.186L441.348 124.8ZM445.315 124.418L448.419 114.912L448.419 114.912L445.315 124.418ZM446.617 125.119L440.329 132.894L440.35 132.911L440.37 132.927L446.617 125.119ZM447.557 126.242L438.803 131.076L438.825 131.115L438.847 131.154L447.557 126.242ZM448.044 127.754V117.754H446.185V127.754V137.754H448.044V127.754ZM446.185 127.754L456.037 126.04C455.797 124.661 455.308 123.188 454.445 121.763L445.892 126.943L437.338 132.124C436.76 131.169 436.467 130.236 436.333 129.467L446.185 127.754ZM445.892 126.943L454.477 121.816C453.723 120.553 452.733 119.407 451.516 118.456L445.36 126.337L439.203 134.217C438.411 133.598 437.775 132.856 437.306 132.071L445.892 126.943ZM445.36 126.337L451.516 118.456C450.284 117.494 448.93 116.819 447.55 116.398L444.634 125.964L441.718 135.529C440.881 135.274 440.011 134.848 439.203 134.217L445.36 126.337ZM444.634 125.964L447.69 116.442C446.336 116.008 445.005 115.835 443.764 115.835V125.835V135.835C443.146 135.835 442.395 135.748 441.577 135.485L444.634 125.964ZM443.764 125.835V115.835C441.444 115.835 439.024 116.447 436.835 117.872L442.292 126.252L447.749 134.632C446.415 135.501 444.976 135.835 443.764 135.835V125.835ZM442.292 126.252L436.881 117.842C434.6 119.31 433.093 121.323 432.18 123.336L441.288 127.465L450.395 131.595C449.967 132.54 449.129 133.744 447.703 134.662L442.292 126.252ZM441.288 127.465L432.19 123.314C431.198 125.488 430.925 127.64 430.925 129.409H440.925H450.925C450.925 129.647 450.894 130.503 450.386 131.616L441.288 127.465ZM440.925 129.409H430.925C430.925 131.166 431.19 133.324 432.18 135.507L441.288 131.378L450.395 127.248C450.902 128.365 450.925 129.21 450.925 129.409H440.925ZM441.288 131.378L432.212 135.576C433.126 137.554 434.626 139.546 436.898 141.001L442.292 132.581L447.686 124.161C449.11 125.072 449.94 126.263 450.364 127.18L441.288 131.378ZM442.292 132.581L436.974 141.05C439.138 142.408 441.503 142.984 443.759 142.984V132.984V122.984C444.915 122.984 446.302 123.291 447.61 124.112L442.292 132.581ZM443.759 132.984V142.984C444.939 142.984 446.201 142.829 447.487 142.443L444.614 132.864L441.74 123.286C442.497 123.059 443.188 122.984 443.759 122.984V132.984ZM444.614 132.864L447.563 142.42C448.864 142.018 450.149 141.391 451.335 140.501L445.335 132.501L439.335 124.501C440.096 123.93 440.9 123.545 441.665 123.309L444.614 132.864ZM445.335 132.501L451.275 140.546C452.519 139.627 453.548 138.501 454.343 137.236L445.877 131.915L437.41 126.593C437.913 125.793 438.582 125.057 439.394 124.457L445.335 132.501ZM445.877 131.915L454.288 137.322C455.2 135.904 455.74 134.41 456.011 132.975L446.185 131.119L436.359 129.263C436.517 128.425 436.852 127.461 437.465 126.507L445.877 131.915ZM446.185 131.119L446.131 141.119L447.991 141.129L448.044 131.129L448.098 121.129L446.238 121.119L446.185 131.119ZM448.044 131.129L438.146 129.706C438.245 129.02 438.47 128.329 438.818 127.693L447.592 132.491L456.366 137.29C457.177 135.805 457.705 134.206 457.942 132.553L448.044 131.129ZM447.592 132.491L438.789 127.746C439.141 127.094 439.6 126.533 440.107 126.089L446.692 133.615L453.277 141.141C454.526 140.048 455.585 138.738 456.394 137.237L447.592 132.491ZM446.692 133.615L440.145 126.056C440.759 125.525 441.397 125.184 441.947 124.982L445.389 134.371L448.832 143.76C450.377 143.193 451.883 142.349 453.239 141.174L446.692 133.615ZM445.389 134.371L442.002 124.962C442.739 124.697 443.354 124.639 443.734 124.639V134.639V144.639C445.327 144.639 447.045 144.403 448.777 143.78L445.389 134.371ZM443.734 134.639V124.639C444.447 124.639 445.434 124.824 446.417 125.404L441.338 134.018L436.259 142.632C438.647 144.04 441.231 144.639 443.734 144.639V134.639ZM441.338 134.018L446.417 125.404C447.464 126.021 448.172 126.879 448.56 127.631L439.677 132.223L430.794 136.815C431.991 139.131 433.806 141.186 436.259 142.632L441.338 134.018ZM439.677 132.223L448.56 127.631C449.046 128.571 449.071 129.285 449.071 129.409H439.071H429.071C429.071 131.721 429.499 134.311 430.794 136.815L439.677 132.223ZM439.071 129.409H449.071C449.071 129.534 449.046 130.269 448.542 131.232L439.682 126.595L430.822 121.958C429.503 124.479 429.071 127.09 429.071 129.409H439.071ZM439.682 126.595L448.55 131.217C448.166 131.953 447.467 132.801 446.427 133.415L441.348 124.8L436.268 116.186C433.823 117.628 432.013 119.672 430.814 121.973L439.682 126.595ZM441.348 124.8L446.427 133.415C445.455 133.987 444.468 134.179 443.734 134.179V124.179V114.179C441.223 114.179 438.645 114.785 436.268 116.186L441.348 124.8ZM443.734 124.179V134.179C443.357 134.179 442.826 134.124 442.211 133.924L445.315 124.418L448.419 114.912C446.829 114.393 445.244 114.179 443.734 114.179V124.179ZM445.315 124.418L442.211 133.924C441.594 133.722 440.938 133.386 440.329 132.894L446.617 125.119L452.906 117.343C451.534 116.234 450.011 115.431 448.419 114.912L445.315 124.418ZM446.617 125.119L440.37 132.927C439.689 132.382 439.165 131.732 438.803 131.076L447.557 126.242L456.311 121.408C455.458 119.864 454.308 118.465 452.864 117.31L446.617 125.119ZM447.557 126.242L438.847 131.154C438.396 130.354 438.205 129.616 438.134 129.087L448.044 127.754L457.955 126.421C457.731 124.758 457.216 123.012 456.268 121.33L447.557 126.242ZM458.915 132.228L450.062 127.577L450.059 127.584L450.055 127.591L458.915 132.228ZM457.244 134.018L452.183 125.393L452.174 125.398L452.165 125.404L457.244 134.018ZM452.457 134.018L447.348 142.614L447.372 142.628L447.395 142.642L452.457 134.018ZM450.786 132.223L441.918 136.845L441.93 136.867L441.942 136.89L450.786 132.223ZM450.786 126.595L441.934 121.944L441.93 121.951L441.927 121.958L450.786 126.595ZM452.457 124.8L447.395 116.176L447.387 116.181L447.378 116.186L452.457 124.8ZM457.244 124.8L452.165 133.415L452.174 133.42L452.183 133.425L457.244 124.8ZM458.915 126.595L450.047 131.217L450.059 131.239L450.071 131.262L458.915 126.595ZM457.314 127.455L448.185 131.538L448.201 131.572L448.216 131.606L457.314 127.455ZM456.32 126.247L450.879 134.638L450.902 134.653L450.925 134.667L456.32 126.247ZM453.386 126.247L458.781 134.667L458.804 134.653L458.827 134.638L453.386 126.247ZM452.387 127.455L443.28 123.326L443.274 123.339L443.268 123.352L452.387 127.455ZM452.387 131.368L443.258 135.45L443.274 135.485L443.289 135.519L452.387 131.368ZM453.386 132.576L447.946 140.966L447.969 140.981L447.992 140.996L453.386 132.576ZM456.32 132.576L461.714 140.996L461.737 140.981L461.76 140.966L456.32 132.576ZM457.314 131.368L448.207 127.238L448.201 127.251L448.195 127.264L457.314 131.368ZM459.531 129.409H449.531C449.531 129.27 449.559 128.535 450.062 127.577L458.915 132.228L467.767 136.879C469.093 134.357 469.531 131.742 469.531 129.409H459.531ZM458.915 132.228L450.055 127.591C450.449 126.839 451.155 125.997 452.183 125.393L457.244 134.018L462.306 142.642C464.746 141.21 466.566 139.175 467.775 136.865L458.915 132.228ZM457.244 134.018L452.165 125.404C453.143 124.827 454.13 124.639 454.853 124.639V134.639V144.639C457.36 144.639 459.941 144.037 462.324 142.632L457.244 134.018ZM454.853 134.639V124.639C455.577 124.639 456.554 124.827 457.518 125.393L452.457 134.018L447.395 142.642C449.771 144.037 452.346 144.639 454.853 144.639V134.639ZM452.457 134.018L457.566 125.421C458.569 126.018 459.251 126.837 459.631 127.556L450.786 132.223L441.942 136.89C443.143 139.167 444.939 141.183 447.348 142.614L452.457 134.018ZM450.786 132.223L459.654 127.601C460.148 128.548 460.175 129.273 460.175 129.409H450.175H440.175C440.175 131.733 440.61 134.333 441.918 136.845L450.786 132.223ZM450.175 129.409H460.175C460.175 129.534 460.151 130.269 459.646 131.232L450.786 126.595L441.927 121.958C440.607 124.479 440.175 127.09 440.175 129.409H450.175ZM450.786 126.595L459.639 131.246C459.26 131.968 458.568 132.806 457.536 133.415L452.457 124.8L447.378 116.186C444.94 117.623 443.135 119.658 441.934 121.944L450.786 126.595ZM452.457 124.8L457.518 133.425C456.554 133.991 455.577 134.179 454.853 134.179V124.179V114.179C452.346 114.179 449.771 114.782 447.395 116.176L452.457 124.8ZM454.853 124.179V134.179C454.13 134.179 453.143 133.991 452.165 133.415L457.244 124.8L462.324 116.186C459.941 114.781 457.36 114.179 454.853 114.179V124.179ZM457.244 124.8L452.183 133.425C451.144 132.815 450.437 131.965 450.047 131.217L458.915 126.595L467.783 121.973C466.577 119.66 464.757 117.615 462.306 116.176L457.244 124.8ZM458.915 126.595L450.071 131.262C449.558 130.291 449.531 129.546 449.531 129.409H459.531H469.531C469.531 127.078 469.093 124.457 467.759 121.928L458.915 126.595ZM457.677 129.409H467.677C467.677 127.648 467.408 125.488 466.412 123.304L457.314 127.455L448.216 131.606C447.704 130.483 447.677 129.626 447.677 129.409H457.677ZM457.314 127.455L466.443 123.373C465.539 121.352 464.029 119.31 461.714 117.827L456.32 126.247L450.925 134.667C449.459 133.728 448.612 132.491 448.185 131.538L457.314 127.455ZM456.32 126.247L461.76 117.857C459.564 116.432 457.147 115.835 454.853 115.835V125.835V135.835C453.666 135.835 452.227 135.512 450.879 134.638L456.32 126.247ZM454.853 125.835V115.835C452.559 115.835 450.143 116.432 447.946 117.857L453.386 126.247L458.827 134.638C457.479 135.512 456.04 135.835 454.853 135.835V125.835ZM453.386 126.247L447.992 117.827C445.691 119.301 444.186 121.326 443.28 123.326L452.387 127.455L461.495 131.585C461.072 132.517 460.234 133.737 458.781 134.667L453.386 126.247ZM452.387 127.455L443.268 123.352C442.292 125.521 442.029 127.663 442.029 129.409H452.029H462.029C462.029 129.61 462.006 130.45 461.506 131.559L452.387 127.455ZM452.029 129.409H442.029C442.029 131.158 442.293 133.29 443.258 135.45L452.387 131.368L461.516 127.285C462.005 128.378 462.029 129.205 462.029 129.409H452.029ZM452.387 131.368L443.289 135.519C444.198 137.511 445.691 139.504 447.946 140.966L453.386 132.576L458.827 124.186C460.233 125.097 461.06 126.285 461.485 127.217L452.387 131.368ZM453.386 132.576L447.992 140.996C450.184 142.4 452.583 142.984 454.853 142.984V132.984V122.984C456.016 122.984 457.438 123.295 458.781 124.156L453.386 132.576ZM454.853 132.984V142.984C457.123 142.984 459.523 142.4 461.714 140.996L456.32 132.576L450.925 124.156C452.268 123.295 453.69 122.984 454.853 122.984V132.984ZM456.32 132.576L461.76 140.966C464.029 139.496 465.527 137.485 466.433 135.472L457.314 131.368L448.195 127.264C448.624 126.311 449.459 125.106 450.879 124.186L456.32 132.576ZM457.314 131.368L466.422 135.497C467.407 133.324 467.677 131.174 467.677 129.409H457.677H447.677C447.677 129.189 447.705 128.345 448.207 127.238L457.314 131.368ZM470.342 124.318H480.342V114.318H470.342V124.318ZM470.342 134.5V144.5H480.342V134.5H470.342ZM468.702 134.5L460.478 140.189L463.46 144.5H468.702V134.5ZM463.904 127.565L472.128 121.876L469.146 117.565H463.904V127.565ZM463.82 127.565V117.565H453.82V127.565H463.82ZM463.82 134.5V144.5H473.82V134.5H463.82ZM461.975 134.5H451.975V144.5H461.975V134.5ZM461.975 124.318V114.318H451.975V124.318H461.975ZM463.626 124.318L471.854 118.636L468.873 114.318H463.626V124.318ZM468.418 131.259L460.19 136.941L463.171 141.259H468.418V131.259ZM468.508 131.259V141.259H478.508V131.259H468.508ZM468.508 124.318V114.318H458.508V124.318H468.508ZM470.342 124.318H460.342V134.5H470.342H480.342V124.318H470.342ZM470.342 134.5V124.5H468.702V134.5V144.5H470.342V134.5ZM468.702 134.5L476.926 128.811L472.128 121.876L463.904 127.565L455.68 133.254L460.478 140.189L468.702 134.5ZM463.904 127.565V117.565H463.82V127.565V137.565H463.904V127.565ZM463.82 127.565H453.82V134.5H463.82H473.82V127.565H463.82ZM463.82 134.5V124.5H461.975V134.5V144.5H463.82V134.5ZM461.975 134.5H471.975V124.318H461.975H451.975V134.5H461.975ZM461.975 124.318V134.318H463.626V124.318V114.318H461.975V124.318ZM463.626 124.318L455.397 130L460.19 136.941L468.418 131.259L476.647 125.576L471.854 118.636L463.626 124.318ZM468.418 131.259V141.259H468.508V131.259V121.259H468.418V131.259ZM468.508 131.259H478.508V124.318H468.508H458.508V131.259H468.508ZM468.508 124.318V134.318H470.342V124.318V114.318H468.508V124.318ZM481.419 124.318H491.419V114.318H481.419V124.318ZM481.419 134.5V144.5H491.419V134.5H481.419ZM479.779 134.5L471.555 140.189L474.537 144.5H479.779V134.5ZM474.981 127.565L483.205 121.876L480.223 117.565H474.981V127.565ZM474.897 127.565V117.565H464.897V127.565H474.897ZM474.897 134.5V144.5H484.897V134.5H474.897ZM473.052 134.5H463.052V144.5H473.052V134.5ZM473.052 124.318V114.318H463.052V124.318H473.052ZM474.703 124.318L482.931 118.636L479.95 114.318H474.703V124.318ZM479.495 131.259L471.267 136.941L474.248 141.259H479.495V131.259ZM479.585 131.259V141.259H489.585V131.259H479.585ZM479.585 124.318V114.318H469.585V124.318H479.585ZM481.419 124.318H471.419V134.5H481.419H491.419V124.318H481.419ZM481.419 134.5V124.5H479.779V134.5V144.5H481.419V134.5ZM479.779 134.5L488.003 128.811L483.205 121.876L474.981 127.565L466.757 133.254L471.555 140.189L479.779 134.5ZM474.981 127.565V117.565H474.897V127.565V137.565H474.981V127.565ZM474.897 127.565H464.897V134.5H474.897H484.897V127.565H474.897ZM474.897 134.5V124.5H473.052V134.5V144.5H474.897V134.5ZM473.052 134.5H483.052V124.318H473.052H463.052V134.5H473.052ZM473.052 124.318V134.318H474.703V124.318V114.318H473.052V124.318ZM474.703 124.318L466.474 130L471.267 136.941L479.495 131.259L487.724 125.576L482.931 118.636L474.703 124.318ZM479.495 131.259V141.259H479.585V131.259V121.259H479.495V131.259ZM479.585 131.259H489.585V124.318H479.585H469.585V131.259H479.585ZM479.585 124.318V134.318H481.419V124.318V114.318H479.585V124.318ZM484.129 134.5H474.129V144.5H484.129V134.5ZM484.129 124.318V114.318H474.129V124.318H484.129ZM490.751 124.318H500.751V114.318H490.751V124.318ZM490.751 125.864V135.864H500.751V125.864H490.751ZM485.974 125.864V115.864H475.974V125.864H485.974ZM485.974 128.629H475.974V138.629H485.974V128.629ZM490.408 128.629H500.408V118.629H490.408V128.629ZM490.408 130.175V140.175H500.408V130.175H490.408ZM485.974 130.175V120.175H475.974V130.175H485.974ZM485.974 132.954H475.974V142.954H485.974V132.954ZM490.791 132.954H500.791V122.954H490.791V132.954ZM490.791 134.5V144.5H500.791V134.5H490.791ZM484.129 134.5H494.129V124.318H484.129H474.129V134.5H484.129ZM484.129 124.318V134.318H490.751V124.318V114.318H484.129V124.318ZM490.751 124.318H480.751V125.864H490.751H500.751V124.318H490.751ZM490.751 125.864V115.864H485.974V125.864V135.864H490.751V125.864ZM485.974 125.864H475.974V128.629H485.974H495.974V125.864H485.974ZM485.974 128.629V138.629H490.408V128.629V118.629H485.974V128.629ZM490.408 128.629H480.408V130.175H490.408H500.408V128.629H490.408ZM490.408 130.175V120.175H485.974V130.175V140.175H490.408V130.175ZM485.974 130.175H475.974V132.954H485.974H495.974V130.175H485.974ZM485.974 132.954V142.954H490.791V132.954V122.954H485.974V132.954ZM490.791 132.954H480.791V134.5H490.791H500.791V132.954H490.791ZM490.791 134.5V124.5H484.129V134.5V144.5H490.791V134.5ZM502.048 127.754V137.754H513.483L511.959 126.421L502.048 127.754ZM500.189 127.754L490.337 129.467L491.778 137.754H500.189V127.754ZM499.895 126.943L491.31 132.071L491.326 132.097L491.342 132.124L499.895 126.943ZM499.364 126.337L505.52 118.456L505.52 118.456L499.364 126.337ZM498.638 125.964L495.581 135.485L495.651 135.508L495.721 135.529L498.638 125.964ZM496.296 126.252L501.707 134.662L501.73 134.647L501.753 134.632L496.296 126.252ZM495.292 127.465L504.39 131.616L504.394 131.605L504.399 131.595L495.292 127.465ZM495.292 131.378L486.184 135.507L486.2 135.542L486.216 135.576L495.292 131.378ZM496.296 132.581L490.902 141.001L490.94 141.026L490.978 141.05L496.296 132.581ZM498.618 132.864L501.491 142.443L501.529 142.431L501.567 142.42L498.618 132.864ZM499.339 132.501L493.398 124.457L493.368 124.479L493.339 124.501L499.339 132.501ZM499.881 131.915L491.469 126.507L491.441 126.55L491.414 126.593L499.881 131.915ZM500.189 131.119L500.242 121.119L491.909 121.075L490.363 129.263L500.189 131.119ZM502.048 131.129L511.946 132.553L513.581 121.191L502.102 121.129L502.048 131.129ZM501.596 132.491L492.822 127.693L492.808 127.72L492.793 127.746L501.596 132.491ZM500.696 133.615L507.243 141.174L507.262 141.158L507.281 141.141L500.696 133.615ZM499.393 134.371L502.781 143.78L502.808 143.77L502.836 143.76L499.393 134.371ZM495.341 134.018L500.421 125.404L495.341 134.018ZM493.681 132.223L484.798 136.815L493.681 132.223ZM493.686 126.595L502.546 131.232L502.55 131.225L502.554 131.217L493.686 126.595ZM495.351 124.8L490.272 116.186L490.272 116.186L495.351 124.8ZM499.319 124.418L502.423 114.912L502.423 114.912L499.319 124.418ZM500.621 125.119L494.333 132.894L494.354 132.911L494.374 132.927L500.621 125.119ZM501.561 126.242L492.807 131.076L492.829 131.115L492.85 131.154L501.561 126.242ZM502.048 127.754V117.754H500.189V127.754V137.754H502.048V127.754ZM500.189 127.754L510.041 126.04C509.801 124.661 509.312 123.188 508.449 121.763L499.895 126.943L491.342 132.124C490.764 131.169 490.47 130.236 490.337 129.467L500.189 127.754ZM499.895 126.943L508.481 121.816C507.727 120.553 506.736 119.407 505.52 118.456L499.364 126.337L493.207 134.217C492.415 133.598 491.779 132.856 491.31 132.071L499.895 126.943ZM499.364 126.337L505.52 118.456C504.287 117.494 502.934 116.819 501.554 116.398L498.638 125.964L495.721 135.529C494.885 135.274 494.015 134.848 493.207 134.217L499.364 126.337ZM498.638 125.964L501.694 116.442C500.34 116.008 499.009 115.835 497.768 115.835V125.835V135.835C497.15 135.835 496.399 135.748 495.581 135.485L498.638 125.964ZM497.768 125.835V115.835C495.448 115.835 493.028 116.447 490.839 117.872L496.296 126.252L501.753 134.632C500.419 135.501 498.98 135.835 497.768 135.835V125.835ZM496.296 126.252L490.885 117.842C488.604 119.31 487.097 121.323 486.184 123.336L495.292 127.465L504.399 131.595C503.971 132.54 503.133 133.744 501.707 134.662L496.296 126.252ZM495.292 127.465L486.194 123.314C485.202 125.488 484.929 127.64 484.929 129.409H494.929H504.929C504.929 129.647 504.898 130.503 504.39 131.616L495.292 127.465ZM494.929 129.409H484.929C484.929 131.166 485.194 133.324 486.184 135.507L495.292 131.378L504.399 127.248C504.905 128.365 504.929 129.21 504.929 129.409H494.929ZM495.292 131.378L486.216 135.576C487.13 137.554 488.63 139.546 490.902 141.001L496.296 132.581L501.69 124.161C503.114 125.072 503.944 126.263 504.368 127.18L495.292 131.378ZM496.296 132.581L490.978 141.05C493.141 142.408 495.507 142.984 497.763 142.984V132.984V122.984C498.918 122.984 500.306 123.291 501.614 124.112L496.296 132.581ZM497.763 132.984V142.984C498.943 142.984 500.205 142.829 501.491 142.443L498.618 132.864L495.744 123.286C496.501 123.059 497.192 122.984 497.763 122.984V132.984ZM498.618 132.864L501.567 142.42C502.868 142.018 504.153 141.391 505.339 140.501L499.339 132.501L493.339 124.501C494.1 123.93 494.904 123.545 495.669 123.309L498.618 132.864ZM499.339 132.501L505.279 140.546C506.523 139.627 507.552 138.501 508.347 137.236L499.881 131.915L491.414 126.593C491.917 125.793 492.586 125.057 493.398 124.457L499.339 132.501ZM499.881 131.915L508.292 137.322C509.204 135.904 509.744 134.41 510.015 132.975L500.189 131.119L490.363 129.263C490.521 128.425 490.856 127.461 491.469 126.507L499.881 131.915ZM500.189 131.119L500.135 141.119L501.995 141.129L502.048 131.129L502.102 121.129L500.242 121.119L500.189 131.119ZM502.048 131.129L492.15 129.706C492.249 129.02 492.474 128.329 492.822 127.693L501.596 132.491L510.369 137.29C511.181 135.805 511.708 134.206 511.946 132.553L502.048 131.129ZM501.596 132.491L492.793 127.746C493.145 127.094 493.604 126.533 494.111 126.089L500.696 133.615L507.281 141.141C508.53 140.048 509.589 138.738 510.398 137.237L501.596 132.491ZM500.696 133.615L494.149 126.056C494.763 125.525 495.4 125.184 495.951 124.982L499.393 134.371L502.836 143.76C504.381 143.193 505.887 142.349 507.243 141.174L500.696 133.615ZM499.393 134.371L496.006 124.962C496.743 124.697 497.358 124.639 497.738 124.639V134.639V144.639C499.331 144.639 501.049 144.403 502.781 143.78L499.393 134.371ZM497.738 134.639V124.639C498.451 124.639 499.437 124.824 500.421 125.404L495.341 134.018L490.262 142.632C492.651 144.04 495.235 144.639 497.738 144.639V134.639ZM495.341 134.018L500.421 125.404C501.468 126.021 502.176 126.879 502.564 127.631L493.681 132.223L484.798 136.815C485.995 139.131 487.809 141.186 490.262 142.632L495.341 134.018ZM493.681 132.223L502.564 127.631C503.05 128.571 503.074 129.285 503.074 129.409H493.074H483.074C483.074 131.721 483.503 134.311 484.798 136.815L493.681 132.223ZM493.074 129.409H503.074C503.074 129.534 503.05 130.269 502.546 131.232L493.686 126.595L484.826 121.958C483.506 124.479 483.074 127.09 483.074 129.409H493.074ZM493.686 126.595L502.554 131.217C502.17 131.953 501.47 132.801 500.431 133.415L495.351 124.8L490.272 116.186C487.827 117.628 486.017 119.672 484.818 121.973L493.686 126.595ZM495.351 124.8L500.431 133.415C499.459 133.987 498.472 134.179 497.738 134.179V124.179V114.179C495.227 114.179 492.649 114.785 490.272 116.186L495.351 124.8ZM497.738 124.179V134.179C497.361 134.179 496.83 134.124 496.215 133.924L499.319 124.418L502.423 114.912C500.833 114.393 499.248 114.179 497.738 114.179V124.179ZM499.319 124.418L496.215 133.924C495.598 133.722 494.942 133.386 494.333 132.894L500.621 125.119L506.909 117.343C505.538 116.234 504.014 115.431 502.423 114.912L499.319 124.418ZM500.621 125.119L494.374 132.927C493.693 132.382 493.169 131.732 492.807 131.076L501.561 126.242L510.315 121.408C509.462 119.864 508.312 118.465 506.868 117.31L500.621 125.119ZM501.561 126.242L492.85 131.154C492.4 130.354 492.209 129.616 492.137 129.087L502.048 127.754L511.959 126.421C511.735 124.758 511.22 123.012 510.271 121.33L501.561 126.242ZM503.99 125.864H493.99V135.864H503.99V125.864ZM503.99 124.318V114.318H493.99V124.318H503.99ZM512.113 124.318H522.113V114.318H512.113V124.318ZM512.113 125.864V135.864H522.113V125.864H512.113ZM508.966 125.864V115.864H498.966V125.864H508.966ZM508.966 134.5V144.5H518.966V134.5H508.966ZM507.137 134.5H497.137V144.5H507.137V134.5ZM507.137 125.864H517.137V115.864H507.137V125.864ZM503.99 125.864H513.99V124.318H503.99H493.99V125.864H503.99ZM503.99 124.318V134.318H512.113V124.318V114.318H503.99V124.318ZM512.113 124.318H502.113V125.864H512.113H522.113V124.318H512.113ZM512.113 125.864V115.864H508.966V125.864V135.864H512.113V125.864ZM508.966 125.864H498.966V134.5H508.966H518.966V125.864H508.966ZM508.966 134.5V124.5H507.137V134.5V144.5H508.966V134.5ZM507.137 134.5H517.137V125.864H507.137H497.137V134.5H507.137ZM507.137 125.864V115.864H503.99V125.864V135.864H507.137V125.864Z" fill="#121416" mask="url(#path-19-outside-1_23_635)"/>
<rect x="691.5" y="0.5" width="259" height="258" rx="9.5" stroke="#C4B5FD" stroke-dasharray="4 4"/>
<rect x="701.5" y="10.5" width="239" height="238" rx="7.5" fill="#2E1065"/>
<rect x="701.5" y="10.5" width="239" height="238" rx="7.5" stroke="#C4B5FD"/>
<g clip-path="url(#clip4_23_635)">
<path d="M816.764 97.5876C818.135 96.6532 819.901 97.0205 819.606 97.3021C819.042 97.839 819.792 97.6803 819.873 98.671C819.932 99.4008 819.694 99.8026 819.489 100.031C819.061 100.087 818.541 100.192 817.914 100.395C817.543 100.516 817.221 100.65 816.939 100.785C816.864 100.736 816.783 100.677 816.688 100.594C815.72 99.7554 815.753 98.2767 816.764 97.5876ZM824.954 103.364C825.203 103.171 826.333 102.808 827.38 102.684C827.93 102.619 828.713 102.582 828.88 102.675C829.212 102.858 829.212 103.425 828.985 103.949C828.654 104.71 828.186 105.551 827.656 105.62C826.791 105.734 825.974 105.266 825.041 104.569C824.708 104.319 824.503 103.712 824.954 103.364ZM826.531 95.955C827.807 96.5487 827.64 97.6785 827.676 98.3422C827.685 98.5329 827.682 98.6614 827.666 98.7497C827.489 98.654 827.21 98.5836 826.767 98.6033C826.638 98.6085 826.512 98.6238 826.39 98.6431C825.919 98.3908 825.637 97.8971 825.38 97.3725C825.356 97.3239 825.338 97.2807 825.32 97.2387C825.313 97.2194 825.305 97.1989 825.297 97.1814C825.294 97.1718 825.292 97.1644 825.289 97.1556C825.148 96.7074 825.242 96.6178 825.302 96.4797C825.364 96.3384 825.594 96.2221 825.253 96.1045C825.224 96.0936 825.188 96.0875 825.147 96.0796C825.372 95.7998 826.048 95.732 826.531 95.955ZM819.573 109.463C818.198 108.58 816.776 107.314 816.153 106.613C816.049 106.535 816.066 106.185 816.066 106.185C816.627 106.622 818.956 108.286 821.419 109.046C822.288 109.314 823.621 109.415 824.778 108.76C825.661 108.259 826.725 107.386 827.36 106.486L827.476 106.688C827.472 106.821 827.18 107.473 827.031 107.735C827.3 107.89 827.5 107.931 827.798 108.013L829.838 107.695C830.57 106.513 831.094 104.606 830.535 102.791C830.216 101.75 828.552 99.6775 828.432 99.5634C828.014 99.1616 828.502 97.6094 827.674 95.9161C826.798 94.1248 824.516 92.2569 823.525 91.4441C823.817 91.6575 825.616 92.3828 826.454 93.395C826.533 93.2905 826.565 92.747 826.638 92.6093C825.917 91.6662 825.862 89.9881 825.862 89.5396C825.862 88.7171 825.444 87.785 825.444 87.785C825.444 87.785 826.164 88.3551 826.35 89.3371C826.57 90.5001 827.039 91.4161 827.659 92.1913C828.832 93.653 829.892 94.4028 830.427 93.8629C831.068 93.214 829.777 90.3117 828.128 88.6918C826.203 86.8012 825.7 87.0447 824.57 87.4479C823.669 87.7692 823.182 90.3279 820.833 90.2772C820.436 90.2308 819.411 90.2059 818.904 90.2103C819.168 89.8417 819.394 89.557 819.394 89.557C819.394 89.557 818.607 89.874 817.935 90.2758L817.883 90.1985C818.11 89.721 818.353 89.4193 818.353 89.4193C818.353 89.4193 817.724 89.7975 817.149 90.2505C817.254 89.6812 817.65 89.3205 817.65 89.3205C817.65 89.3205 816.854 89.4639 815.841 90.5784C814.69 90.8932 814.413 91.1 813.496 91.5062C812.004 91.1809 811.301 90.6558 810.63 89.6891C810.119 88.9506 809.21 88.8387 808.282 89.2204C806.927 89.78 805.215 90.5465 805.215 90.5465C805.215 90.5465 805.773 90.5238 806.355 90.5487C805.558 90.8504 804.793 91.2653 804.793 91.2653C804.793 91.2653 805.166 91.2522 805.627 91.26C805.309 91.5241 805.133 91.65 804.83 91.8507C804.102 92.3798 803.511 92.991 803.511 92.991C803.511 92.991 804.005 92.7658 804.45 92.6395C804.139 93.3509 803.524 93.8747 803.637 94.7456C803.746 95.5409 804.722 97.1792 805.982 98.1848C806.091 98.2723 807.812 99.8651 809.111 99.211C810.409 98.5578 810.921 97.9758 811.134 97.0835C811.385 96.0586 811.242 95.2834 810.706 93.0588C810.529 92.3247 810.069 90.8128 809.847 90.0896L809.896 90.0542C810.321 90.95 811.407 93.3115 811.845 94.8978C812.528 97.3712 812.315 98.626 812.002 99.086C811.059 100.473 808.643 100.656 807.543 99.8878C807.375 102.551 807.97 103.724 808.172 104.314C808.072 104.993 808.511 106.254 808.511 106.254C808.511 106.254 808.561 105.681 808.762 105.379C808.816 106.053 809.156 106.853 809.156 106.853C809.156 106.853 809.135 106.359 809.29 105.932C809.507 106.3 809.667 106.388 809.873 106.664C810.079 107.385 810.492 107.911 810.492 107.911C810.492 107.911 810.425 107.524 810.462 107.123C811.469 108.091 811.643 109.503 811.743 110.589C812.025 113.573 807.037 115.947 806.07 117.814C805.338 118.919 804.899 120.669 806.14 121.7C809.139 124.191 807.987 124.877 809.488 125.971C811.548 127.473 814.125 126.8 815.002 125.579C816.223 123.878 815.91 122.273 815.456 120.771C815.101 119.597 814.138 117.647 812.946 116.892C811.728 116.12 810.543 115.976 809.54 116.079L809.633 115.973C811.076 115.686 812.585 115.843 813.676 116.547C814.916 117.344 816.05 118.71 816.643 120.804C817.315 120.709 817.41 120.665 818.026 120.578L816.64 109.789L819.573 109.463ZM820.374 122.987L820.215 121.49L823.332 116.736L826.87 117.77L829.913 112.688L833.56 115.094L836.331 109.282L837.316 119.866L820.374 122.987ZM837.353 107.115L826.216 109.133C825.94 109.489 825.258 110.113 824.93 110.276C823.524 110.984 822.573 110.779 821.752 110.566C821.223 110.432 820.917 110.357 820.479 110.16L817.761 110.533L819.411 124.3L838.489 120.86L837.353 107.115Z" fill="white"/>
</g>
<path d="M761.875 136.663H763.958L766.449 141.168H766.549L769.039 136.663H771.122L767.419 143.047V146.845H765.579V143.047L761.875 136.663ZM781.652 141.754C781.652 142.851 781.447 143.791 781.036 144.573C780.628 145.352 780.072 145.949 779.366 146.363C778.663 146.777 777.866 146.984 776.974 146.984C776.083 146.984 775.284 146.777 774.578 146.363C773.875 145.945 773.318 145.347 772.907 144.568C772.5 143.786 772.296 142.848 772.296 141.754C772.296 140.657 772.5 139.719 772.907 138.94C773.318 138.158 773.875 137.56 774.578 137.145C775.284 136.731 776.083 136.524 776.974 136.524C777.866 136.524 778.663 136.731 779.366 137.145C780.072 137.56 780.628 138.158 781.036 138.94C781.447 139.719 781.652 140.657 781.652 141.754ZM779.798 141.754C779.798 140.982 779.677 140.331 779.435 139.8C779.197 139.267 778.865 138.864 778.441 138.592C778.017 138.317 777.528 138.18 776.974 138.18C776.421 138.18 775.932 138.317 775.508 138.592C775.083 138.864 774.75 139.267 774.508 139.8C774.27 140.331 774.15 140.982 774.15 141.754C774.15 142.526 774.27 143.179 774.508 143.713C774.75 144.243 775.083 144.646 775.508 144.921C775.932 145.193 776.421 145.329 776.974 145.329C777.528 145.329 778.017 145.193 778.441 144.921C778.865 144.646 779.197 144.243 779.435 143.713C779.677 143.179 779.798 142.526 779.798 141.754ZM790.515 136.663H792.359V143.315C792.359 144.044 792.187 144.686 791.842 145.239C791.501 145.793 791.02 146.225 790.4 146.537C789.78 146.845 789.056 146.999 788.228 146.999C787.396 146.999 786.67 146.845 786.05 146.537C785.43 146.225 784.95 145.793 784.608 145.239C784.267 144.686 784.096 144.044 784.096 143.315V136.663H785.941V143.161C785.941 143.585 786.034 143.963 786.219 144.295C786.408 144.626 786.673 144.886 787.015 145.075C787.356 145.261 787.76 145.354 788.228 145.354C788.695 145.354 789.099 145.261 789.441 145.075C789.785 144.886 790.051 144.626 790.236 144.295C790.422 143.963 790.515 143.585 790.515 143.161V136.663ZM795.064 146.845V136.663H798.882C799.664 136.663 800.32 136.799 800.851 137.071C801.384 137.343 801.787 137.724 802.059 138.214C802.334 138.702 802.472 139.27 802.472 139.92C802.472 140.573 802.332 141.139 802.054 141.62C801.779 142.097 801.373 142.467 800.836 142.729C800.299 142.987 799.639 143.116 798.857 143.116H796.138V141.585H798.609C799.066 141.585 799.44 141.522 799.732 141.396C800.024 141.267 800.239 141.08 800.378 140.834C800.521 140.586 800.592 140.281 800.592 139.92C800.592 139.558 800.521 139.25 800.378 138.995C800.236 138.736 800.019 138.541 799.727 138.408C799.436 138.272 799.059 138.204 798.599 138.204H796.908V146.845H795.064ZM800.324 142.231L802.844 146.845H800.786L798.31 142.231H800.324ZM812.492 146.845H809.042V136.663H812.562C813.573 136.663 814.441 136.867 815.167 137.275C815.896 137.679 816.456 138.261 816.847 139.02C817.238 139.779 817.434 140.687 817.434 141.744C817.434 142.805 817.237 143.716 816.842 144.479C816.451 145.241 815.886 145.826 815.147 146.234C814.411 146.641 813.526 146.845 812.492 146.845ZM810.886 145.249H812.403C813.112 145.249 813.704 145.12 814.178 144.861C814.652 144.6 815.008 144.21 815.247 143.693C815.485 143.173 815.604 142.523 815.604 141.744C815.604 140.965 815.485 140.319 815.247 139.805C815.008 139.288 814.655 138.902 814.188 138.647C813.724 138.388 813.147 138.259 812.457 138.259H810.886V145.249ZM820.647 146.845H818.678L822.263 136.663H824.54L828.129 146.845H826.161L823.441 138.751H823.362L820.647 146.845ZM820.712 142.853H826.081V144.334H820.712V142.853ZM828.493 138.209V136.663H836.616V138.209H833.469V146.845H831.64V138.209H828.493ZM838.959 146.845H836.991L840.575 136.663H842.852L846.441 146.845H844.473L841.753 138.751H841.674L838.959 146.845ZM839.024 142.853H844.393V144.334H839.024V142.853ZM851.933 146.845H848.483V136.663H852.002C853.013 136.663 853.882 136.867 854.608 137.275C855.337 137.679 855.897 138.261 856.288 139.02C856.679 139.779 856.875 140.687 856.875 141.744C856.875 142.805 856.677 143.716 856.283 144.479C855.892 145.241 855.327 145.826 854.588 146.234C853.852 146.641 852.967 146.845 851.933 146.845ZM850.327 145.249H851.843C852.553 145.249 853.144 145.12 853.618 144.861C854.092 144.6 854.449 144.21 854.687 143.693C854.926 143.173 855.045 142.523 855.045 141.744C855.045 140.965 854.926 140.319 854.687 139.805C854.449 139.288 854.096 138.902 853.628 138.647C853.164 138.388 852.587 138.259 851.898 138.259H850.327V145.249ZM868.425 141.754C868.425 142.851 868.22 143.791 867.809 144.573C867.401 145.352 866.844 145.949 866.138 146.363C865.436 146.777 864.638 146.984 863.747 146.984C862.855 146.984 862.057 146.777 861.351 146.363C860.648 145.945 860.091 145.347 859.68 144.568C859.272 143.786 859.069 142.848 859.069 141.754C859.069 140.657 859.272 139.719 859.68 138.94C860.091 138.158 860.648 137.56 861.351 137.145C862.057 136.731 862.855 136.524 863.747 136.524C864.638 136.524 865.436 136.731 866.138 137.145C866.844 137.56 867.401 138.158 867.809 138.94C868.22 139.719 868.425 140.657 868.425 141.754ZM866.571 141.754C866.571 140.982 866.45 140.331 866.208 139.8C865.969 139.267 865.638 138.864 865.213 138.592C864.789 138.317 864.3 138.18 863.747 138.18C863.193 138.18 862.704 138.317 862.28 138.592C861.856 138.864 861.523 139.267 861.281 139.8C861.042 140.331 860.923 140.982 860.923 141.754C860.923 142.526 861.042 143.179 861.281 143.713C861.523 144.243 861.856 144.646 862.28 144.921C862.704 145.193 863.193 145.329 863.747 145.329C864.3 145.329 864.789 145.193 865.213 144.921C865.638 144.646 865.969 144.243 866.208 143.713C866.45 143.179 866.571 142.526 866.571 141.754ZM877.69 139.915C877.607 139.646 877.493 139.406 877.347 139.194C877.204 138.978 877.032 138.794 876.83 138.642C876.631 138.489 876.402 138.375 876.144 138.299C875.885 138.219 875.604 138.18 875.299 138.18C874.752 138.18 874.265 138.317 873.837 138.592C873.409 138.867 873.073 139.272 872.828 139.805C872.586 140.336 872.465 140.982 872.465 141.744C872.465 142.513 872.586 143.164 872.828 143.698C873.07 144.232 873.406 144.638 873.837 144.916C874.268 145.191 874.768 145.329 875.338 145.329C875.855 145.329 876.303 145.229 876.681 145.03C877.062 144.832 877.355 144.55 877.561 144.185C877.766 143.817 877.869 143.386 877.869 142.893L878.287 142.957H875.522V141.516H879.654V142.739C879.654 143.61 879.468 144.364 879.097 145.001C878.726 145.637 878.215 146.127 877.566 146.472C876.916 146.814 876.17 146.984 875.328 146.984C874.39 146.984 873.567 146.774 872.858 146.353C872.152 145.929 871.6 145.327 871.202 144.548C870.808 143.766 870.61 142.838 870.61 141.764C870.61 140.942 870.726 140.208 870.958 139.562C871.194 138.915 871.522 138.367 871.943 137.916C872.364 137.462 872.858 137.117 873.424 136.882C873.991 136.643 874.608 136.524 875.274 136.524C875.837 136.524 876.363 136.607 876.85 136.773C877.337 136.935 877.769 137.167 878.147 137.469C878.528 137.77 878.842 138.128 879.087 138.543C879.332 138.957 879.493 139.414 879.569 139.915H877.69ZM774.511 166.845H772.543L776.127 156.663H778.404L781.994 166.845H780.025L777.305 158.751H777.226L774.511 166.845ZM774.576 162.853H779.945V164.334H774.576V162.853ZM792.271 160.099H790.412C790.359 159.794 790.261 159.524 790.119 159.288C789.976 159.05 789.799 158.847 789.587 158.682C789.375 158.516 789.133 158.392 788.861 158.309C788.592 158.223 788.302 158.18 787.991 158.18C787.437 158.18 786.947 158.319 786.519 158.597C786.092 158.872 785.757 159.277 785.515 159.81C785.273 160.341 785.152 160.989 785.152 161.754C785.152 162.533 785.273 163.189 785.515 163.723C785.76 164.253 786.095 164.654 786.519 164.926C786.947 165.194 787.436 165.329 787.986 165.329C788.291 165.329 788.576 165.289 788.841 165.209C789.109 165.127 789.35 165.006 789.562 164.846C789.777 164.687 789.958 164.492 790.104 164.26C790.253 164.028 790.356 163.763 790.412 163.464L792.271 163.474C792.202 163.958 792.051 164.412 791.819 164.837C791.59 165.261 791.29 165.635 790.919 165.96C790.548 166.282 790.114 166.534 789.617 166.716C789.119 166.895 788.568 166.984 787.961 166.984C787.066 166.984 786.267 166.777 785.565 166.363C784.862 165.949 784.309 165.35 783.904 164.568C783.5 163.786 783.298 162.848 783.298 161.754C783.298 160.657 783.502 159.719 783.909 158.94C784.317 158.158 784.872 157.56 785.575 157.145C786.277 156.731 787.073 156.524 787.961 156.524C788.528 156.524 789.055 156.604 789.542 156.763C790.029 156.922 790.463 157.155 790.845 157.464C791.226 157.769 791.539 158.143 791.784 158.587C792.033 159.028 792.195 159.532 792.271 160.099ZM803.376 160.099H801.516C801.463 159.794 801.366 159.524 801.223 159.288C801.08 159.05 800.903 158.847 800.691 158.682C800.479 158.516 800.237 158.392 799.965 158.309C799.697 158.223 799.407 158.18 799.095 158.18C798.542 158.18 798.051 158.319 797.624 158.597C797.196 158.872 796.861 159.277 796.619 159.81C796.377 160.341 796.256 160.989 796.256 161.754C796.256 162.533 796.377 163.189 796.619 163.723C796.865 164.253 797.199 164.654 797.624 164.926C798.051 165.194 798.54 165.329 799.09 165.329C799.395 165.329 799.68 165.289 799.945 165.209C800.214 165.127 800.454 165.006 800.666 164.846C800.882 164.687 801.062 164.492 801.208 164.26C801.357 164.028 801.46 163.763 801.516 163.464L803.376 163.474C803.306 163.958 803.155 164.412 802.923 164.837C802.695 165.261 802.395 165.635 802.023 165.96C801.652 166.282 801.218 166.534 800.721 166.716C800.224 166.895 799.672 166.984 799.065 166.984C798.17 166.984 797.372 166.777 796.669 166.363C795.966 165.949 795.413 165.35 795.009 164.568C794.604 163.786 794.402 162.848 794.402 161.754C794.402 160.657 794.606 159.719 795.013 158.94C795.421 158.158 795.976 157.56 796.679 157.145C797.382 156.731 798.177 156.524 799.065 156.524C799.632 156.524 800.159 156.604 800.646 156.763C801.134 156.922 801.568 157.155 801.949 157.464C802.33 157.769 802.643 158.143 802.888 158.587C803.137 159.028 803.299 159.532 803.376 160.099ZM814.863 161.754C814.863 162.851 814.657 163.791 814.246 164.573C813.839 165.352 813.282 165.949 812.576 166.363C811.873 166.777 811.076 166.984 810.185 166.984C809.293 166.984 808.494 166.777 807.788 166.363C807.086 165.945 806.529 165.347 806.118 164.568C805.71 163.786 805.506 162.848 805.506 161.754C805.506 160.657 805.71 159.719 806.118 158.94C806.529 158.158 807.086 157.56 807.788 157.145C808.494 156.731 809.293 156.524 810.185 156.524C811.076 156.524 811.873 156.731 812.576 157.145C813.282 157.56 813.839 158.158 814.246 158.94C814.657 159.719 814.863 160.657 814.863 161.754ZM813.008 161.754C813.008 160.982 812.887 160.331 812.645 159.8C812.407 159.267 812.075 158.864 811.651 158.592C811.227 158.317 810.738 158.18 810.185 158.18C809.631 158.18 809.142 158.317 808.718 158.592C808.294 158.864 807.961 159.267 807.719 159.8C807.48 160.331 807.361 160.982 807.361 161.754C807.361 162.526 807.48 163.179 807.719 163.713C807.961 164.243 808.294 164.646 808.718 164.921C809.142 165.193 809.631 165.329 810.185 165.329C810.738 165.329 811.227 165.193 811.651 164.921C812.075 164.646 812.407 164.243 812.645 163.713C812.887 163.179 813.008 162.526 813.008 161.754ZM823.725 156.663H825.569V163.315C825.569 164.044 825.397 164.686 825.052 165.239C824.711 165.793 824.23 166.225 823.611 166.537C822.991 166.845 822.267 166.999 821.438 166.999C820.606 166.999 819.88 166.845 819.26 166.537C818.641 166.225 818.16 165.793 817.819 165.239C817.477 164.686 817.307 164.044 817.307 163.315V156.663H819.151V163.161C819.151 163.585 819.244 163.963 819.429 164.295C819.618 164.626 819.884 164.886 820.225 165.075C820.566 165.261 820.971 165.354 821.438 165.354C821.905 165.354 822.31 165.261 822.651 165.075C822.996 164.886 823.261 164.626 823.447 164.295C823.632 163.963 823.725 163.585 823.725 163.161V156.663ZM836.641 156.663V166.845H835.001L830.203 159.91H830.119V166.845H828.274V156.663H829.925L834.717 163.604H834.807V156.663H836.641ZM838.904 158.209V156.663H847.027V158.209H843.88V166.845H842.051V158.209H838.904ZM849.661 161.754C849.661 160.511 849.825 159.369 850.153 158.329C850.485 157.285 850.977 156.32 851.63 155.435H853.325C853.073 155.763 852.838 156.166 852.619 156.643C852.401 157.117 852.21 157.638 852.048 158.204C851.888 158.768 851.763 159.353 851.67 159.959C851.58 160.566 851.536 161.164 851.536 161.754C851.536 162.54 851.613 163.335 851.769 164.141C851.928 164.946 852.142 165.693 852.411 166.383C852.682 167.069 852.987 167.631 853.325 168.068H851.63C850.977 167.183 850.485 166.22 850.153 165.18C849.825 164.136 849.661 162.994 849.661 161.754ZM861.036 159.462C860.99 159.028 860.795 158.69 860.45 158.448C860.108 158.206 859.664 158.085 859.117 158.085C858.733 158.085 858.403 158.143 858.128 158.259C857.853 158.375 857.643 158.533 857.497 158.731C857.351 158.93 857.276 159.157 857.273 159.413C857.273 159.625 857.321 159.809 857.417 159.964C857.517 160.12 857.651 160.253 857.82 160.362C857.989 160.468 858.176 160.558 858.382 160.631C858.587 160.703 858.794 160.765 859.003 160.815L859.958 161.053C860.342 161.143 860.712 161.264 861.066 161.416C861.424 161.569 861.744 161.761 862.026 161.993C862.311 162.225 862.536 162.505 862.702 162.833C862.868 163.161 862.951 163.546 862.951 163.986C862.951 164.583 862.798 165.108 862.493 165.562C862.188 166.013 861.747 166.366 861.171 166.621C860.597 166.873 859.903 166.999 859.088 166.999C858.295 166.999 857.608 166.877 857.024 166.631C856.444 166.386 855.99 166.028 855.662 165.557C855.337 165.087 855.162 164.513 855.135 163.837H856.95C856.976 164.192 857.086 164.487 857.278 164.722C857.47 164.958 857.72 165.133 858.029 165.249C858.34 165.365 858.688 165.423 859.073 165.423C859.474 165.423 859.825 165.364 860.127 165.244C860.432 165.122 860.67 164.953 860.843 164.737C861.015 164.518 861.103 164.263 861.106 163.971C861.103 163.706 861.025 163.488 860.872 163.315C860.72 163.14 860.506 162.994 860.231 162.878C859.959 162.758 859.641 162.652 859.277 162.56L858.118 162.261C857.28 162.046 856.617 161.719 856.13 161.282C855.646 160.841 855.404 160.256 855.404 159.527C855.404 158.927 855.566 158.402 855.891 157.951C856.219 157.5 856.665 157.15 857.228 156.902C857.792 156.65 858.43 156.524 859.142 156.524C859.865 156.524 860.498 156.65 861.041 156.902C861.588 157.15 862.018 157.497 862.329 157.941C862.641 158.382 862.801 158.889 862.811 159.462H861.036ZM868.427 161.754C868.427 162.994 868.261 164.136 867.93 165.18C867.602 166.22 867.111 167.183 866.458 168.068H864.763C865.018 167.74 865.253 167.339 865.469 166.865C865.688 166.391 865.877 165.871 866.036 165.304C866.198 164.737 866.324 164.15 866.413 163.544C866.506 162.937 866.553 162.341 866.553 161.754C866.553 160.969 866.473 160.173 866.314 159.368C866.158 158.562 865.945 157.815 865.673 157.126C865.404 156.436 865.101 155.873 864.763 155.435H866.458C867.111 156.32 867.602 157.285 867.93 158.329C868.261 159.369 868.427 160.511 868.427 161.754Z" fill="white"/>
</g>
<defs>
<clipPath id="clip0_23_635">
<rect width="951" height="259" fill="white"/>
</clipPath>
<clipPath id="clip1_23_635">
<rect width="55" height="27" fill="white" transform="translate(102.5 20)"/>
</clipPath>
<clipPath id="clip2_23_635">
<rect width="13.285" height="26.7776" fill="white" transform="translate(102.5 20.6112)"/>
</clipPath>
<clipPath id="clip3_23_635">
<rect width="35" height="40" fill="white" transform="translate(112 111)"/>
</clipPath>
<clipPath id="clip4_23_635">
<rect width="35" height="39.6901" fill="white" transform="translate(803.5 87.1549)"/>
</clipPath>
</defs>
</svg>
