<svg width="971" height="279" viewBox="0 0 971 279" fill="none" xmlns="http://www.w3.org/2000/svg">
<rect width="971" height="279" fill="#121416"/>
<rect x="10.5" y="10.5" width="259" height="258" rx="9.5" stroke="#6EE7B7" stroke-dasharray="4 4"/>
<rect x="20.5" y="20.5" width="239" height="238" rx="7.5" fill="#022C22"/>
<rect x="20.5" y="20.5" width="239" height="238" rx="7.5" stroke="#6EE7B7"/>
<g clip-path="url(#clip0_114_1625)">
<g clip-path="url(#clip1_114_1625)">
<rect x="119.143" y="50.7458" width="6.64251" height="6.64251" fill="#F5F5F5"/>
<rect x="112.5" y="30.8184" width="6.64251" height="6.64251" fill="#F5F5F5"/>
<rect x="119.143" y="37.4608" width="6.64251" height="6.64251" fill="#F5F5F5"/>
<rect x="112.5" y="44.1034" width="6.64251" height="6.64251" fill="#F5F5F5"/>
</g>
<path d="M160.064 46.4031V42.5323C160.064 40.8389 160.897 39.9922 162.564 39.9922H164.944C166.599 39.9922 167.427 40.8389 167.427 42.5323V46.4031C167.427 48.0965 166.599 48.9432 164.944 48.9432H162.564C160.897 48.9432 160.064 48.0965 160.064 46.4031ZM161.135 46.5759C161.135 47.5205 161.6 47.9928 162.53 47.9928H164.978C165.897 47.9928 166.356 47.5205 166.356 46.5759V42.3595C166.356 41.4264 165.897 40.9599 164.978 40.9599H162.53C161.6 40.9599 161.135 41.4264 161.135 42.3595V46.5759Z" fill="#FAFAFA"/>
<path d="M153.955 48.9432V40.9944C154.351 40.3263 155.071 39.9922 156.114 39.9922H157.781L158.359 40.4415V40.9599H156.165C155.644 40.9599 155.264 41.1039 155.026 41.3919V48.9432H153.955Z" fill="#FAFAFA"/>
<path d="M144.155 46.4031V42.5323C144.155 40.8389 144.989 39.9922 146.655 39.9922H148.866C150.521 39.9922 151.348 40.8389 151.348 42.5323V44.8997H145.227V46.5759C145.227 47.5205 145.691 47.9928 146.621 47.9928H151.008V48.4939L150.43 48.9432H146.655C144.989 48.9432 144.155 48.0965 144.155 46.4031ZM145.227 43.9839H150.277V42.3595C150.277 41.4264 149.818 40.9599 148.9 40.9599H146.621C145.691 40.9599 145.227 41.4264 145.227 42.3595V43.9839Z" fill="#FAFAFA"/>
<path d="M134.022 38.0741V37.02H143.171V38.0741H139.157V48.9432H138.035V38.0741H134.022Z" fill="#FAFAFA"/>
</g>
<circle cx="139.5" cy="79.5" r="12.5" fill="#FAFAFA"/>
<path d="M140.923 73.3636V85H138.815V75.4148H138.747L136.026 77.1534V75.2216L138.918 73.3636H140.923Z" fill="#064E3B"/>
<circle cx="237.5" cy="140.5" r="12.5" fill="#FAFAFA"/>
<path d="M233.065 146V144.477L237.105 140.517C237.491 140.127 237.813 139.78 238.071 139.477C238.329 139.174 238.522 138.881 238.651 138.597C238.779 138.312 238.844 138.009 238.844 137.688C238.844 137.32 238.76 137.006 238.594 136.744C238.427 136.479 238.198 136.275 237.906 136.131C237.615 135.987 237.283 135.915 236.912 135.915C236.529 135.915 236.194 135.994 235.906 136.153C235.618 136.309 235.395 136.53 235.236 136.818C235.08 137.106 235.003 137.449 235.003 137.847H232.997C232.997 137.108 233.166 136.466 233.503 135.92C233.84 135.375 234.304 134.953 234.895 134.653C235.49 134.354 236.171 134.205 236.94 134.205C237.721 134.205 238.406 134.35 238.997 134.642C239.588 134.934 240.046 135.333 240.372 135.841C240.702 136.348 240.866 136.928 240.866 137.58C240.866 138.015 240.783 138.443 240.616 138.864C240.45 139.284 240.156 139.75 239.736 140.261C239.319 140.773 238.734 141.392 237.98 142.119L235.974 144.159V144.239H241.043V146H233.065Z" fill="#064E3B"/>
<circle cx="139.5" cy="202.5" r="12.5" fill="#FAFAFA"/>
<path d="M139.499 209.159C138.681 209.159 137.954 209.019 137.317 208.739C136.685 208.458 136.185 208.068 135.817 207.568C135.45 207.068 135.255 206.491 135.232 205.835H137.369C137.388 206.15 137.492 206.424 137.681 206.659C137.871 206.89 138.122 207.07 138.437 207.199C138.751 207.328 139.103 207.392 139.494 207.392C139.91 207.392 140.28 207.32 140.602 207.176C140.924 207.028 141.175 206.824 141.357 206.562C141.539 206.301 141.628 206 141.624 205.659C141.628 205.307 141.537 204.996 141.352 204.727C141.166 204.458 140.897 204.248 140.545 204.097C140.196 203.945 139.776 203.869 139.283 203.869H138.255V202.244H139.283C139.689 202.244 140.043 202.174 140.346 202.034C140.653 201.894 140.893 201.697 141.067 201.443C141.242 201.186 141.327 200.888 141.323 200.551C141.327 200.222 141.253 199.936 141.102 199.693C140.954 199.447 140.744 199.256 140.471 199.119C140.202 198.983 139.886 198.915 139.522 198.915C139.166 198.915 138.836 198.979 138.533 199.108C138.23 199.237 137.986 199.42 137.8 199.659C137.615 199.894 137.516 200.174 137.505 200.5H135.477C135.492 199.848 135.679 199.277 136.039 198.784C136.403 198.288 136.888 197.902 137.494 197.625C138.1 197.345 138.78 197.205 139.533 197.205C140.31 197.205 140.984 197.35 141.556 197.642C142.132 197.93 142.577 198.318 142.891 198.807C143.206 199.295 143.363 199.835 143.363 200.426C143.367 201.081 143.174 201.631 142.783 202.074C142.397 202.517 141.889 202.807 141.261 202.943V203.034C142.079 203.148 142.706 203.451 143.141 203.943C143.581 204.432 143.799 205.04 143.795 205.767C143.795 206.419 143.609 207.002 143.238 207.517C142.871 208.028 142.363 208.43 141.715 208.722C141.071 209.013 140.333 209.159 139.499 209.159Z" fill="#064E3B"/>
<path d="M227.5 79.4999L227.5 81.4999L227.5 81.4999L227.5 79.4999ZM237.5 89.4999L235.5 89.4999L237.5 89.4999ZM237.5 124L249.047 104L225.953 104L237.5 124ZM158.501 79.5L158.501 81.4999L227.5 81.4999L227.5 79.4999L227.5 77.4999L158.501 77.5L158.501 79.5ZM237.5 89.4999L235.5 89.4999L235.5 106L237.5 106L239.5 106L239.5 89.4999L237.5 89.4999ZM227.5 79.4999L227.5 81.4999C231.918 81.4999 235.5 85.0816 235.5 89.4999L237.5 89.4999L239.5 89.4999C239.5 82.8725 234.127 77.4999 227.5 77.4999L227.5 79.4999Z" fill="#34D399"/>
<path d="M237.499 192.5L235.499 192.5L237.499 192.5ZM227.499 202.5L227.499 204.5L227.499 202.5ZM155.5 202.5L175.5 214.047L175.5 190.953L155.5 202.5ZM237.499 159.5L235.499 159.5L235.499 192.5L237.499 192.5L239.499 192.5L239.499 159.5L237.499 159.5ZM227.499 202.5L227.499 200.5L173.5 200.5L173.5 202.5L173.5 204.5L227.499 204.5L227.499 202.5ZM237.499 192.5L235.499 192.5C235.499 196.918 231.917 200.5 227.499 200.5L227.499 202.5L227.499 204.5C234.127 204.5 239.499 199.127 239.499 192.5L237.499 192.5Z" fill="#34D399"/>
<g clip-path="url(#clip2_114_1625)">
<path opacity="0.4" d="M129.5 131C129.5 133.652 130.554 136.196 132.429 138.071C134.304 139.946 136.848 141 139.5 141C142.152 141 144.696 139.946 146.571 138.071C148.446 136.196 149.5 133.652 149.5 131C149.5 128.348 148.446 125.804 146.571 123.929C144.696 122.054 142.152 121 139.5 121C136.848 121 134.304 122.054 132.429 123.929C130.554 125.804 129.5 128.348 129.5 131Z" fill="#FAFAFA"/>
<path d="M122 158.68C122 150.984 128.234 144.75 135.93 144.75H143.07C150.766 144.75 157 150.984 157 158.68C157 159.961 155.961 161 154.68 161H124.32C123.039 161 122 159.961 122 158.68Z" fill="#FAFAFA"/>
</g>
<line x1="139.5" y1="168" x2="139.5" y2="183" stroke="white"/>
<line x1="166" y1="142.5" x2="217" y2="142.5" stroke="white"/>
<line x1="139.5" y1="100" x2="139.5" y2="115" stroke="white"/>
<path d="M95.5625 238.203C94.4635 235.01 93.8568 233.216 93.7422 232.82C93.7422 232.82 93.1094 234.615 91.8438 238.203H95.5625ZM97.3516 243L96 239.336H91.3906L89.9922 243H88.6172L93.0547 231.422H94.4375L98.7422 243H97.3516ZM102.438 243.18C101.854 243.18 101.315 243.117 100.82 242.992C100.331 242.867 99.9323 242.706 99.625 242.508L99.7891 241.406C100.659 241.87 101.513 242.102 102.352 242.102C103.622 242.102 104.276 241.654 104.312 240.758C104.312 240.378 104.177 240.078 103.906 239.859C103.635 239.641 103.104 239.396 102.312 239.125L101.664 238.898C100.914 238.648 100.378 238.339 100.055 237.969C99.737 237.599 99.5755 237.138 99.5703 236.586C99.5703 235.914 99.8385 235.357 100.375 234.914C100.917 234.471 101.656 234.25 102.594 234.25C103.562 234.25 104.445 234.438 105.242 234.812L104.859 235.812C104.052 235.479 103.297 235.312 102.594 235.312C102.047 235.312 101.617 235.422 101.305 235.641C100.997 235.854 100.844 236.156 100.844 236.547C100.844 236.88 100.956 237.135 101.18 237.312C101.404 237.49 101.852 237.693 102.523 237.922C102.695 237.984 102.911 238.057 103.172 238.141C104.036 238.422 104.648 238.755 105.008 239.141C105.367 239.521 105.547 240.036 105.547 240.688C105.536 241.479 105.253 242.094 104.695 242.531C104.138 242.964 103.385 243.18 102.438 243.18ZM107.352 243V231.102L108.648 231.023V237.25V238.344C108.68 238.312 108.727 238.26 108.789 238.188C108.852 238.115 108.901 238.06 108.938 238.023C109.391 237.529 110.562 236.331 112.453 234.43H114.109L110.547 238.039L114.359 243H112.734L109.602 238.781L108.648 239.602V243H107.352ZM128.258 246.672C128.008 246.422 127.594 245.911 127.016 245.141C126.438 244.375 126.005 243.695 125.719 243.102C125.396 243.148 125.062 243.172 124.719 243.172C123.552 243.172 122.552 242.924 121.719 242.43C120.891 241.93 120.268 241.237 119.852 240.352C119.44 239.461 119.234 238.417 119.234 237.219C119.234 235.37 119.716 233.911 120.68 232.844C121.643 231.776 122.992 231.242 124.727 231.242C126.435 231.242 127.771 231.781 128.734 232.859C129.703 233.932 130.188 235.388 130.188 237.227C130.188 238.565 129.914 239.719 129.367 240.688C128.82 241.651 128.036 242.341 127.016 242.758C127.099 242.904 127.214 243.094 127.359 243.328C127.505 243.568 127.768 243.953 128.148 244.484C128.534 245.021 128.878 245.438 129.18 245.734L128.258 246.672ZM121.695 240.727C122.378 241.57 123.385 241.992 124.719 241.992C126.052 241.992 127.055 241.57 127.727 240.727C128.404 239.883 128.742 238.716 128.742 237.227C128.742 235.706 128.401 234.526 127.719 233.688C127.042 232.849 126.044 232.43 124.727 232.43C123.409 232.43 122.404 232.849 121.711 233.688C121.018 234.526 120.672 235.706 120.672 237.227C120.672 238.711 121.013 239.878 121.695 240.727ZM131.883 240.141V234.43H133.195V240.156C133.195 240.531 133.247 240.849 133.352 241.109C133.461 241.37 133.615 241.573 133.812 241.719C134.016 241.859 134.242 241.961 134.492 242.023C134.747 242.086 135.039 242.117 135.367 242.117C136.044 242.117 136.57 241.969 136.945 241.672C137.326 241.375 137.516 240.87 137.516 240.156V234.43H138.828V240.141C138.828 240.578 138.766 240.971 138.641 241.32C138.516 241.669 138.346 241.961 138.133 242.195C137.924 242.424 137.672 242.615 137.375 242.766C137.078 242.917 136.763 243.026 136.43 243.094C136.102 243.161 135.747 243.195 135.367 243.195C134.992 243.195 134.638 243.161 134.305 243.094C133.971 243.026 133.654 242.917 133.352 242.766C133.055 242.609 132.797 242.417 132.578 242.188C132.365 241.953 132.195 241.661 132.07 241.312C131.945 240.964 131.883 240.573 131.883 240.141ZM145.711 236.016C145.331 235.557 144.807 235.328 144.141 235.328C143.474 235.328 142.93 235.565 142.508 236.039C142.086 236.508 141.839 237.151 141.766 237.969H146.289C146.289 237.12 146.096 236.469 145.711 236.016ZM144.398 243.18C143.154 243.18 142.172 242.784 141.453 241.992C140.74 241.201 140.383 240.117 140.383 238.742C140.383 237.414 140.729 236.339 141.422 235.516C142.115 234.688 143.026 234.266 144.156 234.25C145.219 234.25 146.06 234.615 146.68 235.344C147.305 236.068 147.617 237.036 147.617 238.25C147.617 238.312 147.615 238.427 147.609 238.594C147.609 238.76 147.609 238.88 147.609 238.953H141.727C141.742 239.927 141.992 240.688 142.477 241.234C142.966 241.776 143.622 242.047 144.445 242.047C145.352 242.047 146.26 241.807 147.172 241.328L147.375 242.383C146.505 242.914 145.513 243.18 144.398 243.18ZM151.984 243.18C151.401 243.18 150.862 243.117 150.367 242.992C149.878 242.867 149.479 242.706 149.172 242.508L149.336 241.406C150.206 241.87 151.06 242.102 151.898 242.102C153.169 242.102 153.823 241.654 153.859 240.758C153.859 240.378 153.724 240.078 153.453 239.859C153.182 239.641 152.651 239.396 151.859 239.125L151.211 238.898C150.461 238.648 149.924 238.339 149.602 237.969C149.284 237.599 149.122 237.138 149.117 236.586C149.117 235.914 149.385 235.357 149.922 234.914C150.464 234.471 151.203 234.25 152.141 234.25C153.109 234.25 153.992 234.438 154.789 234.812L154.406 235.812C153.599 235.479 152.844 235.312 152.141 235.312C151.594 235.312 151.164 235.422 150.852 235.641C150.544 235.854 150.391 236.156 150.391 236.547C150.391 236.88 150.503 237.135 150.727 237.312C150.951 237.49 151.398 237.693 152.07 237.922C152.242 237.984 152.458 238.057 152.719 238.141C153.583 238.422 154.195 238.755 154.555 239.141C154.914 239.521 155.094 240.036 155.094 240.688C155.083 241.479 154.799 242.094 154.242 242.531C153.685 242.964 152.932 243.18 151.984 243.18ZM159.617 243.156C158.773 243.156 158.174 242.951 157.82 242.539C157.466 242.128 157.279 241.464 157.258 240.547V235.398H155.984L156.039 234.539L157.25 234.43L157.695 232.469L158.555 232.438V234.43H160.938V235.398H158.555V240.312C158.555 240.964 158.654 241.422 158.852 241.688C159.049 241.953 159.388 242.086 159.867 242.086C160.039 242.086 160.411 242.044 160.984 241.961L161.039 242.992C160.419 243.102 159.945 243.156 159.617 243.156ZM163.969 234.43V243H162.656V234.43H163.969ZM163.969 231.312V232.859H162.656V231.312H163.969ZM167.383 238.734C167.383 239.75 167.607 240.565 168.055 241.18C168.508 241.789 169.167 242.094 170.031 242.094C170.885 242.094 171.529 241.789 171.961 241.18C172.398 240.57 172.617 239.75 172.617 238.719C172.617 237.672 172.401 236.849 171.969 236.25C171.542 235.646 170.888 235.344 170.008 235.344C169.154 235.344 168.503 235.651 168.055 236.266C167.607 236.88 167.383 237.703 167.383 238.734ZM173.969 238.711C173.969 240.039 173.615 241.117 172.906 241.945C172.198 242.768 171.219 243.18 169.969 243.18C168.766 243.18 167.807 242.763 167.094 241.93C166.385 241.096 166.031 240.026 166.031 238.719C166.031 237.385 166.388 236.307 167.102 235.484C167.815 234.661 168.794 234.25 170.039 234.25C171.263 234.25 172.224 234.664 172.922 235.492C173.62 236.315 173.969 237.388 173.969 238.711ZM175.82 243V234.43H176.914L177.078 235.656C177.417 235.234 177.839 234.896 178.344 234.641C178.854 234.38 179.404 234.25 179.992 234.25C180.982 234.25 181.714 234.529 182.188 235.086C182.661 235.638 182.898 236.49 182.898 237.641V243H181.594C181.594 239.562 181.591 237.721 181.586 237.477C181.565 236.747 181.417 236.214 181.141 235.875C180.87 235.536 180.414 235.367 179.773 235.367C179.102 235.367 178.542 235.529 178.094 235.852C177.646 236.174 177.354 236.594 177.219 237.109C177.167 237.458 177.141 237.859 177.141 238.312V243H175.82ZM187.625 243.18C187.042 243.18 186.503 243.117 186.008 242.992C185.518 242.867 185.12 242.706 184.812 242.508L184.977 241.406C185.846 241.87 186.701 242.102 187.539 242.102C188.81 242.102 189.464 241.654 189.5 240.758C189.5 240.378 189.365 240.078 189.094 239.859C188.823 239.641 188.292 239.396 187.5 239.125L186.852 238.898C186.102 238.648 185.565 238.339 185.242 237.969C184.924 237.599 184.763 237.138 184.758 236.586C184.758 235.914 185.026 235.357 185.562 234.914C186.104 234.471 186.844 234.25 187.781 234.25C188.75 234.25 189.633 234.438 190.43 234.812L190.047 235.812C189.24 235.479 188.484 235.312 187.781 235.312C187.234 235.312 186.805 235.422 186.492 235.641C186.185 235.854 186.031 236.156 186.031 236.547C186.031 236.88 186.143 237.135 186.367 237.312C186.591 237.49 187.039 237.693 187.711 237.922C187.883 237.984 188.099 238.057 188.359 238.141C189.224 238.422 189.836 238.755 190.195 239.141C190.555 239.521 190.734 240.036 190.734 240.688C190.724 241.479 190.44 242.094 189.883 242.531C189.326 242.964 188.573 243.18 187.625 243.18Z" fill="white"/>
<path d="M280 139.5L300 151.047V127.953L280 139.5ZM298 139.5V141.5L691.5 141.5V139.5V137.5L298 137.5V139.5Z" fill="#34D399"/>
<mask id="path-27-outside-1_114_1625" maskUnits="userSpaceOnUse" x="430" y="123.5" width="111" height="31" fill="black">
<rect fill="white" x="430" y="123.5" width="111" height="31"/>
<path d="M444.205 144.5V134.318H448.023C448.806 134.318 449.462 134.454 449.992 134.726C450.526 134.998 450.928 135.379 451.2 135.869C451.475 136.357 451.613 136.925 451.613 137.575C451.613 138.228 451.474 138.794 451.195 139.275C450.92 139.752 450.514 140.122 449.977 140.384C449.44 140.642 448.781 140.771 447.999 140.771H445.279V139.24H447.75C448.207 139.24 448.582 139.177 448.874 139.051C449.165 138.922 449.381 138.735 449.52 138.489C449.662 138.241 449.734 137.936 449.734 137.575C449.734 137.213 449.662 136.905 449.52 136.65C449.377 136.391 449.16 136.196 448.869 136.063C448.577 135.927 448.201 135.859 447.74 135.859H446.05V144.5H444.205ZM449.465 139.886L451.986 144.5H449.928L447.452 139.886H449.465ZM454.011 144.5V134.318H460.633V135.864H455.855V138.629H460.29V140.175H455.855V142.954H460.673V144.5H454.011ZM464.522 144.5H462.553L466.138 134.318H468.415L472.004 144.5H470.036L467.316 136.406H467.237L464.522 144.5ZM464.587 140.508H469.956V141.989H464.587V140.508ZM477.496 144.5H474.045V134.318H477.565C478.576 134.318 479.445 134.522 480.17 134.93C480.9 135.334 481.46 135.916 481.851 136.675C482.242 137.434 482.438 138.342 482.438 139.399C482.438 140.46 482.24 141.371 481.846 142.134C481.455 142.896 480.89 143.481 480.151 143.888C479.415 144.296 478.53 144.5 477.496 144.5ZM475.89 142.904H477.406C478.116 142.904 478.707 142.775 479.181 142.516C479.655 142.254 480.011 141.865 480.25 141.348C480.489 140.828 480.608 140.178 480.608 139.399C480.608 138.62 480.489 137.974 480.25 137.46C480.011 136.943 479.658 136.557 479.191 136.302C478.727 136.043 478.15 135.914 477.461 135.914H475.89V142.904ZM492.513 144.5H489.063V134.318H492.583C493.593 134.318 494.462 134.522 495.188 134.93C495.917 135.334 496.477 135.916 496.868 136.675C497.259 137.434 497.455 138.342 497.455 139.399C497.455 140.46 497.257 141.371 496.863 142.134C496.472 142.896 495.907 143.481 495.168 143.888C494.432 144.296 493.547 144.5 492.513 144.5ZM490.907 142.904H492.423C493.133 142.904 493.724 142.775 494.198 142.516C494.672 142.254 495.029 141.865 495.267 141.348C495.506 140.828 495.625 140.178 495.625 139.399C495.625 138.62 495.506 137.974 495.267 137.46C495.029 136.943 494.676 136.557 494.208 136.302C493.744 136.043 493.168 135.914 492.478 135.914H490.907V142.904ZM500.668 144.5H498.699L502.284 134.318H504.561L508.15 144.5H506.181L503.462 136.406H503.382L500.668 144.5ZM500.732 140.508H506.102V141.989H500.732V140.508ZM508.513 135.864V134.318H516.637V135.864H513.49V144.5H511.66V135.864H508.513ZM518.98 144.5H517.011L520.596 134.318H522.873L526.462 144.5H524.493L521.774 136.406H521.694L518.98 144.5ZM519.045 140.508H524.414V141.989H519.045V140.508Z"/>
</mask>
<path d="M444.205 144.5V134.318H448.023C448.806 134.318 449.462 134.454 449.992 134.726C450.526 134.998 450.928 135.379 451.2 135.869C451.475 136.357 451.613 136.925 451.613 137.575C451.613 138.228 451.474 138.794 451.195 139.275C450.92 139.752 450.514 140.122 449.977 140.384C449.44 140.642 448.781 140.771 447.999 140.771H445.279V139.24H447.75C448.207 139.24 448.582 139.177 448.874 139.051C449.165 138.922 449.381 138.735 449.52 138.489C449.662 138.241 449.734 137.936 449.734 137.575C449.734 137.213 449.662 136.905 449.52 136.65C449.377 136.391 449.16 136.196 448.869 136.063C448.577 135.927 448.201 135.859 447.74 135.859H446.05V144.5H444.205ZM449.465 139.886L451.986 144.5H449.928L447.452 139.886H449.465ZM454.011 144.5V134.318H460.633V135.864H455.855V138.629H460.29V140.175H455.855V142.954H460.673V144.5H454.011ZM464.522 144.5H462.553L466.138 134.318H468.415L472.004 144.5H470.036L467.316 136.406H467.237L464.522 144.5ZM464.587 140.508H469.956V141.989H464.587V140.508ZM477.496 144.5H474.045V134.318H477.565C478.576 134.318 479.445 134.522 480.17 134.93C480.9 135.334 481.46 135.916 481.851 136.675C482.242 137.434 482.438 138.342 482.438 139.399C482.438 140.46 482.24 141.371 481.846 142.134C481.455 142.896 480.89 143.481 480.151 143.888C479.415 144.296 478.53 144.5 477.496 144.5ZM475.89 142.904H477.406C478.116 142.904 478.707 142.775 479.181 142.516C479.655 142.254 480.011 141.865 480.25 141.348C480.489 140.828 480.608 140.178 480.608 139.399C480.608 138.62 480.489 137.974 480.25 137.46C480.011 136.943 479.658 136.557 479.191 136.302C478.727 136.043 478.15 135.914 477.461 135.914H475.89V142.904ZM492.513 144.5H489.063V134.318H492.583C493.593 134.318 494.462 134.522 495.188 134.93C495.917 135.334 496.477 135.916 496.868 136.675C497.259 137.434 497.455 138.342 497.455 139.399C497.455 140.46 497.257 141.371 496.863 142.134C496.472 142.896 495.907 143.481 495.168 143.888C494.432 144.296 493.547 144.5 492.513 144.5ZM490.907 142.904H492.423C493.133 142.904 493.724 142.775 494.198 142.516C494.672 142.254 495.029 141.865 495.267 141.348C495.506 140.828 495.625 140.178 495.625 139.399C495.625 138.62 495.506 137.974 495.267 137.46C495.029 136.943 494.676 136.557 494.208 136.302C493.744 136.043 493.168 135.914 492.478 135.914H490.907V142.904ZM500.668 144.5H498.699L502.284 134.318H504.561L508.15 144.5H506.181L503.462 136.406H503.382L500.668 144.5ZM500.732 140.508H506.102V141.989H500.732V140.508ZM508.513 135.864V134.318H516.637V135.864H513.49V144.5H511.66V135.864H508.513ZM518.98 144.5H517.011L520.596 134.318H522.873L526.462 144.5H524.493L521.774 136.406H521.694L518.98 144.5ZM519.045 140.508H524.414V141.989H519.045V140.508Z" fill="white"/>
<path d="M444.205 144.5H434.205V154.5H444.205V144.5ZM444.205 134.318V124.318H434.205V134.318H444.205ZM449.992 134.726L445.431 143.625L445.442 143.631L445.454 143.637L449.992 134.726ZM451.2 135.869L442.453 140.716L442.473 140.751L442.492 140.786L451.2 135.869ZM451.195 139.275L442.542 134.262L442.537 134.272L442.531 134.281L451.195 139.275ZM449.977 140.384L454.315 149.394L454.338 149.383L454.36 149.372L449.977 140.384ZM445.279 140.771H435.279V150.771H445.279V140.771ZM445.279 139.24V129.24H435.279V139.24H445.279ZM448.874 139.051L452.838 148.232L452.882 148.213L452.925 148.194L448.874 139.051ZM449.52 138.489L440.845 133.516L440.834 133.534L440.823 133.553L449.52 138.489ZM449.52 136.65L440.762 141.478L440.776 141.502L440.789 141.526L449.52 136.65ZM448.869 136.063L444.645 145.128L444.688 145.147L444.731 145.167L448.869 136.063ZM446.05 135.859V125.859H436.05V135.859H446.05ZM446.05 144.5V154.5H456.05V144.5H446.05ZM449.465 139.886L458.241 135.092L455.397 129.886H449.465V139.886ZM451.986 144.5V154.5H468.844L460.761 139.706L451.986 144.5ZM449.928 144.5L441.116 149.229L443.945 154.5H449.928V144.5ZM447.452 139.886V129.886H430.736L438.64 144.615L447.452 139.886ZM444.205 144.5H454.205V134.318H444.205H434.205V144.5H444.205ZM444.205 134.318V144.318H448.023V134.318V124.318H444.205V134.318ZM448.023 134.318V144.318C447.697 144.318 446.684 144.267 445.431 143.625L449.992 134.726L454.553 125.827C452.24 124.641 449.914 124.318 448.023 124.318V134.318ZM449.992 134.726L445.454 143.637C444.337 143.068 443.214 142.09 442.453 140.716L451.2 135.869L459.947 131.023C458.643 128.668 456.714 126.927 454.531 125.815L449.992 134.726ZM451.2 135.869L442.492 140.786C441.793 139.547 441.613 138.368 441.613 137.575H451.613H461.613C461.613 135.482 461.158 133.166 459.908 130.953L451.2 135.869ZM451.613 137.575H441.613C441.613 136.779 441.794 135.553 442.542 134.262L451.195 139.275L459.848 144.288C461.153 142.035 461.613 139.676 461.613 137.575H451.613ZM451.195 139.275L442.531 134.281C443.337 132.883 444.496 131.931 445.594 131.395L449.977 140.384L454.36 149.372C456.532 148.313 458.503 146.621 459.859 144.269L451.195 139.275ZM449.977 140.384L445.639 131.374C446.81 130.81 447.729 130.771 447.999 130.771V140.771V150.771C449.833 150.771 452.071 150.474 454.315 149.394L449.977 140.384ZM447.999 140.771V130.771H445.279V140.771V150.771H447.999V140.771ZM445.279 140.771H455.279V139.24H445.279H435.279V140.771H445.279ZM445.279 139.24V149.24H447.75V139.24V129.24H445.279V139.24ZM447.75 139.24V149.24C449.018 149.24 450.871 149.081 452.838 148.232L448.874 139.051L444.909 129.871C446.293 129.273 447.396 129.24 447.75 129.24V139.24ZM448.874 139.051L452.925 148.194C454.907 147.315 456.883 145.775 458.217 143.425L449.52 138.489L440.823 133.553C441.878 131.695 443.423 130.529 444.822 129.909L448.874 139.051ZM449.52 138.489L458.195 143.463C459.404 141.354 459.734 139.233 459.734 137.575H449.734H439.734C439.734 136.639 439.92 135.127 440.845 133.516L449.52 138.489ZM449.734 137.575H459.734C459.734 135.905 459.4 133.833 458.251 131.774L449.52 136.65L440.789 141.526C439.925 139.978 439.734 138.522 439.734 137.575H449.734ZM449.52 136.65L458.277 131.822C457.005 129.515 455.081 127.903 453.007 126.96L448.869 136.063L444.731 145.167C443.239 144.489 441.749 143.268 440.762 141.478L449.52 136.65ZM448.869 136.063L453.092 126.999C451.034 126.04 449.076 125.859 447.74 125.859V135.859V145.859C447.326 145.859 446.12 145.815 444.645 145.128L448.869 136.063ZM447.74 135.859V125.859H446.05V135.859V145.859H447.74V135.859ZM446.05 135.859H436.05V144.5H446.05H456.05V135.859H446.05ZM446.05 144.5V134.5H444.205V144.5V154.5H446.05V144.5ZM449.465 139.886L440.689 144.681L443.21 149.294L451.986 144.5L460.761 139.706L458.241 135.092L449.465 139.886ZM451.986 144.5V134.5H449.928V144.5V154.5H451.986V144.5ZM449.928 144.5L458.739 139.771L456.263 135.158L447.452 139.886L438.64 144.615L441.116 149.229L449.928 144.5ZM447.452 139.886V149.886H449.465V139.886V129.886H447.452V139.886ZM454.011 144.5H444.011V154.5H454.011V144.5ZM454.011 134.318V124.318H444.011V134.318H454.011ZM460.633 134.318H470.633V124.318H460.633V134.318ZM460.633 135.864V145.864H470.633V135.864H460.633ZM455.855 135.864V125.864H445.855V135.864H455.855ZM455.855 138.629H445.855V148.629H455.855V138.629ZM460.29 138.629H470.29V128.629H460.29V138.629ZM460.29 140.175V150.175H470.29V140.175H460.29ZM455.855 140.175V130.175H445.855V140.175H455.855ZM455.855 142.954H445.855V152.954H455.855V142.954ZM460.673 142.954H470.673V132.954H460.673V142.954ZM460.673 144.5V154.5H470.673V144.5H460.673ZM454.011 144.5H464.011V134.318H454.011H444.011V144.5H454.011ZM454.011 134.318V144.318H460.633V134.318V124.318H454.011V134.318ZM460.633 134.318H450.633V135.864H460.633H470.633V134.318H460.633ZM460.633 135.864V125.864H455.855V135.864V145.864H460.633V135.864ZM455.855 135.864H445.855V138.629H455.855H465.855V135.864H455.855ZM455.855 138.629V148.629H460.29V138.629V128.629H455.855V138.629ZM460.29 138.629H450.29V140.175H460.29H470.29V138.629H460.29ZM460.29 140.175V130.175H455.855V140.175V150.175H460.29V140.175ZM455.855 140.175H445.855V142.954H455.855H465.855V140.175H455.855ZM455.855 142.954V152.954H460.673V142.954V132.954H455.855V142.954ZM460.673 142.954H450.673V144.5H460.673H470.673V142.954H460.673ZM460.673 144.5V134.5H454.011V144.5V154.5H460.673V144.5ZM464.522 144.5V154.5H471.716L474.003 147.68L464.522 144.5ZM462.553 144.5L453.121 141.179L448.431 154.5H462.553V144.5ZM466.138 134.318V124.318H459.057L456.705 130.997L466.138 134.318ZM468.415 134.318L477.846 130.993L475.493 124.318H468.415V134.318ZM472.004 144.5V154.5H486.133L481.435 141.175L472.004 144.5ZM470.036 144.5L460.556 147.685L462.846 154.5H470.036V144.5ZM467.316 136.406L476.795 133.221L474.506 126.406H467.316V136.406ZM467.237 136.406V126.406H460.043L457.756 133.227L467.237 136.406ZM464.587 140.508V130.508H454.587V140.508H464.587ZM469.956 140.508H479.956V130.508H469.956V140.508ZM469.956 141.989V151.989H479.956V141.989H469.956ZM464.587 141.989H454.587V151.989H464.587V141.989ZM464.522 144.5V134.5H462.553V144.5V154.5H464.522V144.5ZM462.553 144.5L471.986 147.821L475.57 137.639L466.138 134.318L456.705 130.997L453.121 141.179L462.553 144.5ZM466.138 134.318V144.318H468.415V134.318V124.318H466.138V134.318ZM468.415 134.318L458.984 137.643L462.573 147.825L472.004 144.5L481.435 141.175L477.846 130.993L468.415 134.318ZM472.004 144.5V134.5H470.036V144.5V154.5H472.004V144.5ZM470.036 144.5L479.515 141.315L476.795 133.221L467.316 136.406L457.837 139.591L460.556 147.685L470.036 144.5ZM467.316 136.406V126.406H467.237V136.406V146.406H467.316V136.406ZM467.237 136.406L457.756 133.227L455.041 141.32L464.522 144.5L474.003 147.68L476.718 139.586L467.237 136.406ZM464.587 140.508V150.508H469.956V140.508V130.508H464.587V140.508ZM469.956 140.508H459.956V141.989H469.956H479.956V140.508H469.956ZM469.956 141.989V131.989H464.587V141.989V151.989H469.956V141.989ZM464.587 141.989H474.587V140.508H464.587H454.587V141.989H464.587ZM474.045 144.5H464.045V154.5H474.045V144.5ZM474.045 134.318V124.318H464.045V134.318H474.045ZM480.17 134.93L475.274 143.649L475.297 143.662L475.321 143.675L480.17 134.93ZM481.851 136.675L472.962 141.255L472.962 141.255L481.851 136.675ZM481.846 142.134L472.964 137.538L472.956 137.554L472.949 137.569L481.846 142.134ZM480.151 143.888L475.321 135.132L475.313 135.137L475.304 135.141L480.151 143.888ZM475.89 142.904H465.89V152.904H475.89V142.904ZM479.181 142.516L483.97 151.295L483.993 151.282L484.017 151.269L479.181 142.516ZM480.25 141.348L489.33 145.539L489.335 145.528L489.34 145.517L480.25 141.348ZM480.25 137.46L471.17 141.651L471.176 141.662L471.181 141.673L480.25 137.46ZM479.191 136.302L474.324 145.038L474.361 145.058L474.398 145.078L479.191 136.302ZM475.89 135.914V125.914H465.89V135.914H475.89ZM477.496 144.5V134.5H474.045V144.5V154.5H477.496V144.5ZM474.045 144.5H484.045V134.318H474.045H464.045V144.5H474.045ZM474.045 134.318V144.318H477.565V134.318V124.318H474.045V134.318ZM477.565 134.318V144.318C477.227 144.318 476.333 144.243 475.274 143.649L480.17 134.93L485.067 126.211C482.557 124.801 479.926 124.318 477.565 124.318V134.318ZM480.17 134.93L475.321 143.675C474.278 143.097 473.453 142.208 472.962 141.255L481.851 136.675L490.74 132.094C489.467 129.623 487.521 127.571 485.02 126.184L480.17 134.93ZM481.851 136.675L472.962 141.255C472.469 140.3 472.438 139.562 472.438 139.399H482.438H492.438C492.438 137.121 492.015 134.568 490.74 132.094L481.851 136.675ZM482.438 139.399H472.438C472.438 139.231 472.471 138.492 472.964 137.538L481.846 142.134L490.728 146.729C492.01 144.25 492.438 141.688 492.438 139.399H482.438ZM481.846 142.134L472.949 137.569C473.451 136.589 474.289 135.701 475.321 135.132L480.151 143.888L484.98 152.645C487.49 151.261 489.458 149.203 490.743 146.698L481.846 142.134ZM480.151 143.888L475.304 135.141C476.355 134.559 477.219 134.5 477.496 134.5V144.5V154.5C479.84 154.5 482.474 154.033 484.997 152.636L480.151 143.888ZM475.89 142.904V152.904H477.406V142.904V132.904H475.89V142.904ZM477.406 142.904V152.904C479.281 152.904 481.638 152.567 483.97 151.295L479.181 142.516L474.393 133.737C475.777 132.982 476.95 132.904 477.406 132.904V142.904ZM479.181 142.516L484.017 151.269C486.455 149.922 488.248 147.883 489.33 145.539L480.25 141.348L471.17 137.157C471.775 135.847 472.855 134.587 474.345 133.763L479.181 142.516ZM480.25 141.348L489.34 145.517C490.353 143.306 490.608 141.127 490.608 139.399H480.608H470.608C470.608 139.229 470.624 138.349 471.16 137.179L480.25 141.348ZM480.608 139.399H490.608C490.608 137.679 490.356 135.479 489.319 133.247L480.25 137.46L471.181 141.673C470.622 140.469 470.608 139.562 470.608 139.399H480.608ZM480.25 137.46L489.33 133.27C488.258 130.947 486.47 128.883 483.984 127.525L479.191 136.302L474.398 145.078C472.847 144.231 471.765 142.939 471.17 141.651L480.25 137.46ZM479.191 136.302L484.058 127.566C481.727 126.267 479.36 125.914 477.461 125.914V135.914V145.914C476.94 145.914 475.727 145.819 474.324 145.038L479.191 136.302ZM477.461 135.914V125.914H475.89V135.914V145.914H477.461V135.914ZM475.89 135.914H465.89V142.904H475.89H485.89V135.914H475.89ZM489.063 144.5H479.063V154.5H489.063V144.5ZM489.063 134.318V124.318H479.063V134.318H489.063ZM495.188 134.93L490.291 143.649L490.314 143.662L490.338 143.675L495.188 134.93ZM496.868 136.675L487.979 141.255L487.979 141.255L496.868 136.675ZM496.863 142.134L487.981 137.538L487.974 137.554L487.966 137.569L496.863 142.134ZM495.168 143.888L490.338 135.132L490.33 135.137L490.321 135.141L495.168 143.888ZM490.907 142.904H480.907V152.904H490.907V142.904ZM494.198 142.516L498.987 151.295L499.01 151.282L499.034 151.269L494.198 142.516ZM495.267 141.348L504.347 145.539L504.352 145.528L504.357 145.517L495.267 141.348ZM495.267 137.46L486.188 141.651L486.193 141.662L486.198 141.673L495.267 137.46ZM494.208 136.302L489.341 145.038L489.378 145.058L489.415 145.078L494.208 136.302ZM490.907 135.914V125.914H480.907V135.914H490.907ZM492.513 144.5V134.5H489.063V144.5V154.5H492.513V144.5ZM489.063 144.5H499.063V134.318H489.063H479.063V144.5H489.063ZM489.063 134.318V144.318H492.583V134.318V124.318H489.063V134.318ZM492.583 134.318V144.318C492.244 144.318 491.35 144.243 490.291 143.649L495.188 134.93L500.085 126.211C497.574 124.801 494.943 124.318 492.583 124.318V134.318ZM495.188 134.93L490.338 143.675C489.295 143.097 488.47 142.208 487.979 141.255L496.868 136.675L505.757 132.094C504.484 129.623 502.539 127.571 500.037 126.184L495.188 134.93ZM496.868 136.675L487.979 141.255C487.486 140.3 487.455 139.562 487.455 139.399H497.455H507.455C507.455 137.121 507.032 134.568 505.757 132.094L496.868 136.675ZM497.455 139.399H487.455C487.455 139.231 487.488 138.492 487.981 137.538L496.863 142.134L505.745 146.729C507.027 144.25 507.455 141.688 507.455 139.399H497.455ZM496.863 142.134L487.966 137.569C488.469 136.589 489.307 135.701 490.338 135.132L495.168 143.888L499.998 152.645C502.507 151.261 504.475 149.203 505.76 146.698L496.863 142.134ZM495.168 143.888L490.321 135.141C491.372 134.559 492.236 134.5 492.513 134.5V144.5V154.5C494.858 154.5 497.491 154.033 500.014 152.636L495.168 143.888ZM490.907 142.904V152.904H492.423V142.904V132.904H490.907V142.904ZM492.423 142.904V152.904C494.298 152.904 496.655 152.567 498.987 151.295L494.198 142.516L489.41 133.737C490.794 132.982 491.967 132.904 492.423 132.904V142.904ZM494.198 142.516L499.034 151.269C501.473 149.922 503.265 147.883 504.347 145.539L495.267 141.348L486.188 137.157C486.792 135.847 487.872 134.587 489.363 133.763L494.198 142.516ZM495.267 141.348L504.357 145.517C505.371 143.306 505.625 141.127 505.625 139.399H495.625H485.625C485.625 139.229 485.641 138.349 486.177 137.179L495.267 141.348ZM495.625 139.399H505.625C505.625 137.679 505.373 135.479 504.336 133.247L495.267 137.46L486.198 141.673C485.639 140.469 485.625 139.562 485.625 139.399H495.625ZM495.267 137.46L504.347 133.27C503.275 130.947 501.487 128.883 499.001 127.525L494.208 136.302L489.415 145.078C487.864 144.231 486.782 142.939 486.188 141.651L495.267 137.46ZM494.208 136.302L499.075 127.566C496.744 126.267 494.377 125.914 492.478 125.914V135.914V145.914C491.958 145.914 490.744 145.819 489.341 145.038L494.208 136.302ZM492.478 135.914V125.914H490.907V135.914V145.914H492.478V135.914ZM490.907 135.914H480.907V142.904H490.907H500.907V135.914H490.907ZM500.668 144.5V154.5H507.861L510.149 147.68L500.668 144.5ZM498.699 144.5L489.267 141.179L484.577 154.5H498.699V144.5ZM502.284 134.318V124.318H495.203L492.851 130.997L502.284 134.318ZM504.561 134.318L513.992 130.993L511.638 124.318H504.561V134.318ZM508.15 144.5V154.5H522.279L517.581 141.175L508.15 144.5ZM506.181 144.5L496.702 147.685L498.992 154.5H506.181V144.5ZM503.462 136.406L512.941 133.221L510.651 126.406H503.462V136.406ZM503.382 136.406V126.406H496.189L493.901 133.227L503.382 136.406ZM500.732 140.508V130.508H490.732V140.508H500.732ZM506.102 140.508H516.102V130.508H506.102V140.508ZM506.102 141.989V151.989H516.102V141.989H506.102ZM500.732 141.989H490.732V151.989H500.732V141.989ZM500.668 144.5V134.5H498.699V144.5V154.5H500.668V144.5ZM498.699 144.5L508.132 147.821L511.716 137.639L502.284 134.318L492.851 130.997L489.267 141.179L498.699 144.5ZM502.284 134.318V144.318H504.561V134.318V124.318H502.284V134.318ZM504.561 134.318L495.13 137.643L498.719 147.825L508.15 144.5L517.581 141.175L513.992 130.993L504.561 134.318ZM508.15 144.5V134.5H506.181V144.5V154.5H508.15V144.5ZM506.181 144.5L515.661 141.315L512.941 133.221L503.462 136.406L493.983 139.591L496.702 147.685L506.181 144.5ZM503.462 136.406V126.406H503.382V136.406V146.406H503.462V136.406ZM503.382 136.406L493.901 133.227L491.187 141.32L500.668 144.5L510.149 147.68L512.863 139.586L503.382 136.406ZM500.732 140.508V150.508H506.102V140.508V130.508H500.732V140.508ZM506.102 140.508H496.102V141.989H506.102H516.102V140.508H506.102ZM506.102 141.989V131.989H500.732V141.989V151.989H506.102V141.989ZM500.732 141.989H510.732V140.508H500.732H490.732V141.989H500.732ZM508.513 135.864H498.513V145.864H508.513V135.864ZM508.513 134.318V124.318H498.513V134.318H508.513ZM516.637 134.318H526.637V124.318H516.637V134.318ZM516.637 135.864V145.864H526.637V135.864H516.637ZM513.49 135.864V125.864H503.49V135.864H513.49ZM513.49 144.5V154.5H523.49V144.5H513.49ZM511.66 144.5H501.66V154.5H511.66V144.5ZM511.66 135.864H521.66V125.864H511.66V135.864ZM508.513 135.864H518.513V134.318H508.513H498.513V135.864H508.513ZM508.513 134.318V144.318H516.637V134.318V124.318H508.513V134.318ZM516.637 134.318H506.637V135.864H516.637H526.637V134.318H516.637ZM516.637 135.864V125.864H513.49V135.864V145.864H516.637V135.864ZM513.49 135.864H503.49V144.5H513.49H523.49V135.864H513.49ZM513.49 144.5V134.5H511.66V144.5V154.5H513.49V144.5ZM511.66 144.5H521.66V135.864H511.66H501.66V144.5H511.66ZM511.66 135.864V125.864H508.513V135.864V145.864H511.66V135.864ZM518.98 144.5V154.5H526.174L528.461 147.68L518.98 144.5ZM517.011 144.5L507.579 141.179L502.889 154.5H517.011V144.5ZM520.596 134.318V124.318H513.515L511.163 130.997L520.596 134.318ZM522.873 134.318L532.304 130.993L529.951 124.318H522.873V134.318ZM526.462 144.5V154.5H540.591L535.893 141.175L526.462 144.5ZM524.493 144.5L515.014 147.685L517.304 154.5H524.493V144.5ZM521.774 136.406L531.253 133.221L528.963 126.406H521.774V136.406ZM521.694 136.406V126.406H514.501L512.213 133.227L521.694 136.406ZM519.045 140.508V130.508H509.045V140.508H519.045ZM524.414 140.508H534.414V130.508H524.414V140.508ZM524.414 141.989V151.989H534.414V141.989H524.414ZM519.045 141.989H509.045V151.989H519.045V141.989ZM518.98 144.5V134.5H517.011V144.5V154.5H518.98V144.5ZM517.011 144.5L526.444 147.821L530.028 137.639L520.596 134.318L511.163 130.997L507.579 141.179L517.011 144.5ZM520.596 134.318V144.318H522.873V134.318V124.318H520.596V134.318ZM522.873 134.318L513.442 137.643L517.031 147.825L526.462 144.5L535.893 141.175L532.304 130.993L522.873 134.318ZM526.462 144.5V134.5H524.493V144.5V154.5H526.462V144.5ZM524.493 144.5L533.973 141.315L531.253 133.221L521.774 136.406L512.295 139.591L515.014 147.685L524.493 144.5ZM521.774 136.406V126.406H521.694V136.406V146.406H521.774V136.406ZM521.694 136.406L512.213 133.227L509.499 141.32L518.98 144.5L528.461 147.68L531.175 139.586L521.694 136.406ZM519.045 140.508V150.508H524.414V140.508V130.508H519.045V140.508ZM524.414 140.508H514.414V141.989H524.414H534.414V140.508H524.414ZM524.414 141.989V131.989H519.045V141.989V151.989H524.414V141.989ZM519.045 141.989H529.045V140.508H519.045H509.045V141.989H519.045Z" fill="#121416" mask="url(#path-27-outside-1_114_1625)"/>
<rect x="701.5" y="10.5" width="259" height="258" rx="9.5" stroke="#D4D4D8" stroke-dasharray="4 4"/>
<rect x="711.5" y="20.5" width="239" height="238" rx="7.5" fill="#7C2D12"/>
<rect x="711.5" y="20.5" width="239" height="238" rx="7.5" stroke="#FDBA74"/>
<g clip-path="url(#clip3_114_1625)">
<path d="M797.618 117.139C797.618 117.696 797.5 118.213 797.265 118.692C797.029 119.164 796.695 119.57 796.276 119.897C795.851 120.231 795.347 120.487 794.765 120.67C794.182 120.854 793.541 120.945 792.847 120.945C792.016 120.945 791.27 120.834 790.616 120.605C789.962 120.382 789.301 120.002 788.64 119.478L789.733 117.702C790.256 118.141 790.727 118.462 791.153 118.665C791.572 118.868 792.004 118.967 792.449 118.967C792.992 118.967 793.424 118.829 793.758 118.547C794.091 118.266 794.248 117.892 794.248 117.414C794.248 117.211 794.216 117.021 794.157 116.844C794.098 116.667 793.987 116.484 793.83 116.294C793.673 116.11 793.45 115.901 793.169 115.684C792.894 115.468 792.534 115.193 792.089 114.872C791.755 114.636 791.422 114.387 791.101 114.138C790.78 113.882 790.492 113.614 790.224 113.325C789.962 113.037 789.753 112.716 789.589 112.356C789.432 112.002 789.347 111.589 789.347 111.137C789.347 110.613 789.458 110.128 789.674 109.696C789.89 109.263 790.191 108.896 790.571 108.589C790.95 108.281 791.402 108.045 791.938 107.875C792.468 107.704 793.043 107.619 793.672 107.619C794.333 107.619 794.968 107.704 795.582 107.881C796.197 108.058 796.767 108.314 797.297 108.654L796.309 110.253C795.635 109.781 794.921 109.539 794.175 109.539C793.724 109.539 793.344 109.657 793.05 109.893C792.755 110.129 792.605 110.423 792.605 110.784C792.605 111.124 792.736 111.432 792.997 111.701C793.259 111.976 793.711 112.35 794.352 112.848C795 113.319 795.537 113.739 795.956 114.092C796.381 114.446 796.715 114.786 796.963 115.101C797.212 115.416 797.376 115.73 797.474 116.057C797.572 116.391 797.618 116.746 797.618 117.139ZM808.84 114.145C808.84 114.637 808.788 115.167 808.683 115.737C808.585 116.307 808.408 116.831 808.16 117.316C807.911 117.801 807.59 118.201 807.191 118.508C806.792 118.823 806.281 118.98 805.673 118.98C804.652 118.98 803.847 118.574 803.258 117.755C802.669 116.943 802.375 115.822 802.375 114.401C802.375 112.94 802.669 111.787 803.272 110.929C803.867 110.07 804.678 109.645 805.699 109.645C806.668 109.645 807.433 110.051 807.996 110.85C808.559 111.656 808.84 112.756 808.84 114.145ZM812.387 114.021C812.387 113.071 812.249 112.206 811.981 111.433C811.706 110.653 811.327 109.985 810.823 109.422C810.319 108.859 809.73 108.426 809.043 108.112C808.356 107.797 807.597 107.64 806.766 107.64C805.85 107.64 805.045 107.817 804.351 108.158C803.658 108.505 803.01 109.049 802.421 109.795L802.401 107.941H799.136V126.997H802.395V118.948C802.715 119.321 803.023 119.636 803.324 119.891C803.618 120.146 803.919 120.356 804.227 120.513C804.534 120.671 804.855 120.788 805.195 120.854C805.535 120.92 805.902 120.952 806.288 120.952C807.152 120.952 807.963 120.775 808.709 120.435C809.455 120.087 810.102 119.603 810.645 118.974C811.189 118.344 811.614 117.611 811.922 116.779C812.236 115.94 812.387 115.017 812.387 114.021ZM813.84 120.644H817.19V101.999H813.84V120.644ZM831.478 120.651V107.929H828.128V114.775C828.128 115.384 828.102 115.856 828.05 116.19C827.997 116.524 827.912 116.819 827.795 117.094C827.324 118.142 826.453 118.673 825.19 118.673C824.202 118.673 823.515 118.319 823.122 117.605C822.965 117.336 822.861 117.029 822.802 116.688C822.743 116.347 822.71 115.856 822.71 115.207V107.929H819.36V115.159C819.36 115.65 819.367 116.069 819.373 116.403C819.38 116.737 819.406 117.045 819.439 117.307C819.471 117.569 819.511 117.805 819.557 118.009C819.596 118.212 819.661 118.408 819.746 118.592C820.054 119.371 820.545 119.961 821.232 120.36C821.919 120.76 822.763 120.957 823.757 120.957C824.654 120.957 825.446 120.799 826.126 120.485C826.807 120.17 827.468 119.659 828.109 118.945L828.115 120.649L831.479 120.655L831.478 120.651ZM845.916 120.644V113.429C845.916 112.938 845.909 112.519 845.903 112.171C845.896 111.824 845.877 111.523 845.837 111.267C845.805 111.012 845.759 110.789 845.713 110.599C845.661 110.402 845.602 110.212 845.536 110.029C845.229 109.269 844.738 108.68 844.051 108.267C843.364 107.853 842.52 107.644 841.518 107.644C840.622 107.644 839.83 107.801 839.15 108.116C838.469 108.43 837.808 108.948 837.167 109.655L837.16 107.952H833.79V120.646H837.167V113.794C837.167 113.204 837.186 112.739 837.232 112.411C837.271 112.083 837.356 111.775 837.474 111.48C837.69 110.969 838.03 110.589 838.482 110.328C838.933 110.066 839.47 109.935 840.098 109.935C841.086 109.935 841.773 110.288 842.166 111.003C842.316 111.271 842.421 111.579 842.48 111.913C842.539 112.247 842.572 112.745 842.572 113.387V120.63L845.915 120.637L845.916 120.644ZM859.777 119.805L854.674 113.457L858.985 108.832L856.446 107.738L851.958 112.946H851.604V102.002H848.228V120.648H851.604V113.894L856.656 120.901L859.776 119.806L859.777 119.805ZM872.826 115.246V113.169L862.673 108.071V110.358L870.541 114.19L862.673 118.075V120.309L872.826 115.246ZM863.659 104.774C863.037 104.774 862.533 105.285 862.533 105.914C862.533 106.556 863.037 107.06 863.659 107.06C864.287 107.06 864.785 106.556 864.785 105.914C864.785 105.278 864.287 104.774 863.659 104.774ZM863.666 104.95C864.169 104.95 864.575 105.383 864.575 105.92C864.575 106.457 864.169 106.889 863.666 106.883C863.155 106.883 862.749 106.457 862.749 105.914C862.749 105.383 863.155 104.95 863.666 104.95ZM863.45 106.032H863.587C863.751 106.032 863.829 106.091 863.862 106.254C863.888 106.425 863.921 106.536 863.947 106.575H864.163C864.143 106.536 864.11 106.458 864.085 106.261C864.058 106.071 863.986 105.973 863.869 105.953V105.94C864.006 105.901 864.117 105.796 864.117 105.632C864.117 105.514 864.078 105.422 863.999 105.37C863.921 105.311 863.796 105.272 863.607 105.272C863.456 105.272 863.351 105.285 863.247 105.305V106.575H863.45V106.032ZM863.45 105.442C863.483 105.435 863.528 105.429 863.594 105.429C863.823 105.429 863.901 105.54 863.901 105.652C863.901 105.809 863.757 105.868 863.594 105.868H863.45V105.442Z" fill="#FAFAFA"/>
</g>
<path d="M778.248 141.818H780.331L782.822 146.322H782.921L785.412 141.818H787.495L783.791 148.202V152H781.952V148.202L778.248 141.818ZM798.025 146.909C798.025 148.006 797.819 148.946 797.408 149.728C797.001 150.507 796.444 151.103 795.738 151.518C795.035 151.932 794.238 152.139 793.347 152.139C792.455 152.139 791.656 151.932 790.95 151.518C790.248 151.1 789.691 150.502 789.28 149.723C788.872 148.941 788.668 148.003 788.668 146.909C788.668 145.812 788.872 144.874 789.28 144.095C789.691 143.313 790.248 142.715 790.95 142.3C791.656 141.886 792.455 141.679 793.347 141.679C794.238 141.679 795.035 141.886 795.738 142.3C796.444 142.715 797.001 143.313 797.408 144.095C797.819 144.874 798.025 145.812 798.025 146.909ZM796.171 146.909C796.171 146.137 796.05 145.486 795.808 144.955C795.569 144.422 795.238 144.019 794.813 143.747C794.389 143.472 793.9 143.335 793.347 143.335C792.793 143.335 792.304 143.472 791.88 143.747C791.456 144.019 791.123 144.422 790.881 144.955C790.642 145.486 790.523 146.137 790.523 146.909C790.523 147.681 790.642 148.334 790.881 148.868C791.123 149.398 791.456 149.801 791.88 150.076C792.304 150.348 792.793 150.484 793.347 150.484C793.9 150.484 794.389 150.348 794.813 150.076C795.238 149.801 795.569 149.398 795.808 148.868C796.05 148.334 796.171 147.681 796.171 146.909ZM806.887 141.818H808.732V148.47C808.732 149.199 808.559 149.841 808.214 150.394C807.873 150.948 807.392 151.38 806.773 151.692C806.153 152 805.429 152.154 804.6 152.154C803.768 152.154 803.042 152 802.423 151.692C801.803 151.38 801.322 150.948 800.981 150.394C800.639 149.841 800.469 149.199 800.469 148.47V141.818H802.313V148.316C802.313 148.74 802.406 149.118 802.592 149.45C802.781 149.781 803.046 150.041 803.387 150.23C803.728 150.416 804.133 150.509 804.6 150.509C805.067 150.509 805.472 150.416 805.813 150.23C806.158 150.041 806.423 149.781 806.609 149.45C806.794 149.118 806.887 148.74 806.887 148.316V141.818ZM811.436 152V141.818H815.254C816.037 141.818 816.693 141.954 817.223 142.226C817.757 142.498 818.16 142.879 818.431 143.369C818.706 143.857 818.844 144.425 818.844 145.075C818.844 145.728 818.705 146.294 818.426 146.775C818.151 147.252 817.745 147.622 817.208 147.884C816.671 148.142 816.012 148.271 815.23 148.271H812.51V146.74H814.981C815.438 146.74 815.813 146.677 816.105 146.551C816.396 146.422 816.612 146.235 816.751 145.989C816.893 145.741 816.965 145.436 816.965 145.075C816.965 144.713 816.893 144.405 816.751 144.15C816.608 143.891 816.391 143.696 816.1 143.563C815.808 143.427 815.432 143.359 814.971 143.359H813.281V152H811.436ZM816.696 147.386L819.217 152H817.159L814.683 147.386H816.696ZM830.948 144.617C830.901 144.183 830.706 143.845 830.361 143.603C830.02 143.361 829.576 143.24 829.029 143.24C828.644 143.24 828.315 143.298 828.039 143.414C827.764 143.53 827.554 143.687 827.408 143.886C827.262 144.085 827.188 144.312 827.184 144.567C827.184 144.78 827.232 144.964 827.328 145.119C827.428 145.275 827.562 145.408 827.731 145.517C827.9 145.623 828.087 145.713 828.293 145.786C828.498 145.858 828.706 145.92 828.914 145.969L829.869 146.208C830.253 146.298 830.623 146.419 830.978 146.571C831.336 146.723 831.655 146.916 831.937 147.148C832.222 147.38 832.448 147.66 832.613 147.988C832.779 148.316 832.862 148.701 832.862 149.141C832.862 149.738 832.709 150.263 832.404 150.717C832.1 151.168 831.659 151.521 831.082 151.776C830.509 152.028 829.814 152.154 828.999 152.154C828.207 152.154 827.519 152.031 826.936 151.786C826.356 151.541 825.902 151.183 825.574 150.712C825.249 150.242 825.073 149.668 825.047 148.992H826.861C826.888 149.347 826.997 149.642 827.189 149.877C827.382 150.112 827.632 150.288 827.94 150.404C828.252 150.52 828.6 150.578 828.984 150.578C829.385 150.578 829.736 150.518 830.038 150.399C830.343 150.277 830.582 150.107 830.754 149.892C830.926 149.673 831.014 149.418 831.017 149.126C831.014 148.861 830.936 148.643 830.784 148.47C830.631 148.295 830.417 148.149 830.142 148.033C829.871 147.913 829.552 147.807 829.188 147.714L828.029 147.416C827.191 147.201 826.528 146.874 826.041 146.437C825.557 145.996 825.315 145.411 825.315 144.682C825.315 144.082 825.477 143.557 825.802 143.106C826.13 142.655 826.576 142.305 827.14 142.057C827.703 141.805 828.341 141.679 829.054 141.679C829.776 141.679 830.409 141.805 830.953 142.057C831.5 142.305 831.929 142.652 832.24 143.096C832.552 143.537 832.713 144.044 832.723 144.617H830.948ZM835.206 152V141.818H839.024C839.807 141.818 840.463 141.964 840.993 142.256C841.527 142.547 841.929 142.948 842.201 143.459C842.476 143.966 842.614 144.543 842.614 145.189C842.614 145.842 842.476 146.422 842.201 146.929C841.926 147.436 841.52 147.835 840.983 148.127C840.446 148.415 839.785 148.56 839 148.56H836.469V147.043H838.751C839.208 147.043 839.583 146.964 839.875 146.805C840.166 146.646 840.382 146.427 840.521 146.148C840.663 145.87 840.735 145.55 840.735 145.189C840.735 144.828 840.663 144.509 840.521 144.234C840.382 143.959 840.165 143.746 839.87 143.593C839.578 143.437 839.202 143.359 838.741 143.359H837.051V152H835.206ZM844.916 152V141.818H846.76V150.454H851.245V152H844.916ZM859.964 141.818H861.808V148.47C861.808 149.199 861.636 149.841 861.291 150.394C860.95 150.948 860.469 151.38 859.85 151.692C859.23 152 858.506 152.154 857.677 152.154C856.845 152.154 856.119 152 855.5 151.692C854.88 151.38 854.399 150.948 854.058 150.394C853.716 149.841 853.546 149.199 853.546 148.47V141.818H855.39V148.316C855.39 148.74 855.483 149.118 855.669 149.45C855.857 149.781 856.123 150.041 856.464 150.23C856.805 150.416 857.21 150.509 857.677 150.509C858.144 150.509 858.549 150.416 858.89 150.23C859.235 150.041 859.5 149.781 859.686 149.45C859.871 149.118 859.964 148.74 859.964 148.316V141.818ZM872.88 141.818V152H871.24L866.442 145.065H866.358V152H864.513V141.818H866.164L870.956 148.759H871.046V141.818H872.88ZM875.59 152V141.818H877.435V146.496H877.559L881.531 141.818H883.783L879.846 146.387L883.818 152H881.601L878.563 147.635L877.435 148.967V152H875.59ZM784.511 172H782.543L786.127 161.818H788.404L791.994 172H790.025L787.305 163.906H787.226L784.511 172ZM784.576 168.008H789.945V169.489H784.576V168.008ZM802.271 165.254H800.412C800.359 164.949 800.261 164.679 800.119 164.443C799.976 164.205 799.799 164.002 799.587 163.837C799.375 163.671 799.133 163.547 798.861 163.464C798.592 163.378 798.302 163.335 797.991 163.335C797.437 163.335 796.947 163.474 796.519 163.752C796.092 164.027 795.757 164.432 795.515 164.965C795.273 165.496 795.152 166.143 795.152 166.909C795.152 167.688 795.273 168.344 795.515 168.878C795.76 169.408 796.095 169.809 796.519 170.081C796.947 170.349 797.436 170.484 797.986 170.484C798.291 170.484 798.576 170.444 798.841 170.364C799.109 170.281 799.35 170.161 799.562 170.001C799.777 169.842 799.958 169.647 800.104 169.415C800.253 169.183 800.356 168.918 800.412 168.619L802.271 168.629C802.202 169.113 802.051 169.567 801.819 169.991C801.59 170.416 801.29 170.79 800.919 171.115C800.548 171.437 800.114 171.688 799.617 171.871C799.119 172.05 798.568 172.139 797.961 172.139C797.066 172.139 796.267 171.932 795.565 171.518C794.862 171.103 794.309 170.505 793.904 169.723C793.5 168.941 793.298 168.003 793.298 166.909C793.298 165.812 793.502 164.874 793.909 164.095C794.317 163.313 794.872 162.715 795.575 162.3C796.277 161.886 797.073 161.679 797.961 161.679C798.528 161.679 799.055 161.759 799.542 161.918C800.029 162.077 800.463 162.31 800.845 162.619C801.226 162.924 801.539 163.298 801.784 163.742C802.033 164.183 802.195 164.687 802.271 165.254ZM813.376 165.254H811.516C811.463 164.949 811.366 164.679 811.223 164.443C811.08 164.205 810.903 164.002 810.691 163.837C810.479 163.671 810.237 163.547 809.965 163.464C809.697 163.378 809.407 163.335 809.095 163.335C808.542 163.335 808.051 163.474 807.624 163.752C807.196 164.027 806.861 164.432 806.619 164.965C806.377 165.496 806.256 166.143 806.256 166.909C806.256 167.688 806.377 168.344 806.619 168.878C806.865 169.408 807.199 169.809 807.624 170.081C808.051 170.349 808.54 170.484 809.09 170.484C809.395 170.484 809.68 170.444 809.945 170.364C810.214 170.281 810.454 170.161 810.666 170.001C810.882 169.842 811.062 169.647 811.208 169.415C811.357 169.183 811.46 168.918 811.516 168.619L813.376 168.629C813.306 169.113 813.155 169.567 812.923 169.991C812.695 170.416 812.395 170.79 812.023 171.115C811.652 171.437 811.218 171.688 810.721 171.871C810.224 172.05 809.672 172.139 809.065 172.139C808.17 172.139 807.372 171.932 806.669 171.518C805.966 171.103 805.413 170.505 805.009 169.723C804.604 168.941 804.402 168.003 804.402 166.909C804.402 165.812 804.606 164.874 805.013 164.095C805.421 163.313 805.976 162.715 806.679 162.3C807.382 161.886 808.177 161.679 809.065 161.679C809.632 161.679 810.159 161.759 810.646 161.918C811.134 162.077 811.568 162.31 811.949 162.619C812.33 162.924 812.643 163.298 812.888 163.742C813.137 164.183 813.299 164.687 813.376 165.254ZM824.863 166.909C824.863 168.006 824.657 168.946 824.246 169.728C823.839 170.507 823.282 171.103 822.576 171.518C821.873 171.932 821.076 172.139 820.185 172.139C819.293 172.139 818.494 171.932 817.788 171.518C817.086 171.1 816.529 170.502 816.118 169.723C815.71 168.941 815.506 168.003 815.506 166.909C815.506 165.812 815.71 164.874 816.118 164.095C816.529 163.313 817.086 162.715 817.788 162.3C818.494 161.886 819.293 161.679 820.185 161.679C821.076 161.679 821.873 161.886 822.576 162.3C823.282 162.715 823.839 163.313 824.246 164.095C824.657 164.874 824.863 165.812 824.863 166.909ZM823.008 166.909C823.008 166.137 822.887 165.486 822.645 164.955C822.407 164.422 822.075 164.019 821.651 163.747C821.227 163.472 820.738 163.335 820.185 163.335C819.631 163.335 819.142 163.472 818.718 163.747C818.294 164.019 817.961 164.422 817.719 164.955C817.48 165.486 817.361 166.137 817.361 166.909C817.361 167.681 817.48 168.334 817.719 168.868C817.961 169.398 818.294 169.801 818.718 170.076C819.142 170.348 819.631 170.484 820.185 170.484C820.738 170.484 821.227 170.348 821.651 170.076C822.075 169.801 822.407 169.398 822.645 168.868C822.887 168.334 823.008 167.681 823.008 166.909ZM833.725 161.818H835.569V168.47C835.569 169.199 835.397 169.841 835.052 170.394C834.711 170.948 834.23 171.38 833.611 171.692C832.991 172 832.267 172.154 831.438 172.154C830.606 172.154 829.88 172 829.26 171.692C828.641 171.38 828.16 170.948 827.819 170.394C827.477 169.841 827.307 169.199 827.307 168.47V161.818H829.151V168.316C829.151 168.74 829.244 169.118 829.429 169.45C829.618 169.781 829.884 170.041 830.225 170.23C830.566 170.416 830.971 170.509 831.438 170.509C831.905 170.509 832.31 170.416 832.651 170.23C832.996 170.041 833.261 169.781 833.447 169.45C833.632 169.118 833.725 168.74 833.725 168.316V161.818ZM846.641 161.818V172H845.001L840.203 165.065H840.119V172H838.274V161.818H839.925L844.717 168.759H844.807V161.818H846.641ZM848.904 163.364V161.818H857.027V163.364H853.88V172H852.051V163.364H848.904ZM859.661 166.909C859.661 165.666 859.825 164.524 860.153 163.484C860.485 162.44 860.977 161.475 861.63 160.59H863.325C863.073 160.918 862.838 161.321 862.619 161.798C862.401 162.272 862.21 162.793 862.048 163.359C861.888 163.923 861.763 164.508 861.67 165.114C861.58 165.721 861.536 166.319 861.536 166.909C861.536 167.695 861.613 168.49 861.769 169.295C861.928 170.101 862.142 170.848 862.411 171.538C862.682 172.224 862.987 172.786 863.325 173.223H861.63C860.977 172.338 860.485 171.375 860.153 170.335C859.825 169.29 859.661 168.149 859.661 166.909ZM871.036 164.617C870.99 164.183 870.795 163.845 870.45 163.603C870.108 163.361 869.664 163.24 869.117 163.24C868.733 163.24 868.403 163.298 868.128 163.414C867.853 163.53 867.643 163.687 867.497 163.886C867.351 164.085 867.276 164.312 867.273 164.567C867.273 164.78 867.321 164.964 867.417 165.119C867.517 165.275 867.651 165.408 867.82 165.517C867.989 165.623 868.176 165.713 868.382 165.786C868.587 165.858 868.794 165.92 869.003 165.969L869.958 166.208C870.342 166.298 870.712 166.419 871.066 166.571C871.424 166.723 871.744 166.916 872.026 167.148C872.311 167.38 872.536 167.66 872.702 167.988C872.868 168.316 872.951 168.701 872.951 169.141C872.951 169.738 872.798 170.263 872.493 170.717C872.188 171.168 871.747 171.521 871.171 171.776C870.597 172.028 869.903 172.154 869.088 172.154C868.295 172.154 867.608 172.031 867.024 171.786C866.444 171.541 865.99 171.183 865.662 170.712C865.337 170.242 865.162 169.668 865.135 168.992H866.95C866.976 169.347 867.086 169.642 867.278 169.877C867.47 170.112 867.72 170.288 868.029 170.404C868.34 170.52 868.688 170.578 869.073 170.578C869.474 170.578 869.825 170.518 870.127 170.399C870.432 170.277 870.67 170.107 870.843 169.892C871.015 169.673 871.103 169.418 871.106 169.126C871.103 168.861 871.025 168.643 870.872 168.47C870.72 168.295 870.506 168.149 870.231 168.033C869.959 167.913 869.641 167.807 869.277 167.714L868.118 167.416C867.28 167.201 866.617 166.874 866.13 166.437C865.646 165.996 865.404 165.411 865.404 164.682C865.404 164.082 865.566 163.557 865.891 163.106C866.219 162.655 866.665 162.305 867.228 162.057C867.792 161.805 868.43 161.679 869.142 161.679C869.865 161.679 870.498 161.805 871.041 162.057C871.588 162.305 872.018 162.652 872.329 163.096C872.641 163.537 872.801 164.044 872.811 164.617H871.036ZM878.427 166.909C878.427 168.149 878.261 169.29 877.93 170.335C877.602 171.375 877.111 172.338 876.458 173.223H874.763C875.018 172.895 875.253 172.494 875.469 172.02C875.688 171.546 875.877 171.026 876.036 170.459C876.198 169.892 876.324 169.305 876.413 168.699C876.506 168.092 876.553 167.496 876.553 166.909C876.553 166.124 876.473 165.328 876.314 164.523C876.158 163.717 875.945 162.97 875.673 162.281C875.404 161.591 875.101 161.028 874.763 160.59H876.458C877.111 161.475 877.602 162.44 877.93 163.484C878.261 164.524 878.427 165.666 878.427 166.909Z" fill="white"/>
<defs>
<clipPath id="clip0_114_1625">
<rect width="55" height="27" fill="white" transform="translate(112.5 30)"/>
</clipPath>
<clipPath id="clip1_114_1625">
<rect width="13.285" height="26.7776" fill="white" transform="translate(112.5 30.6112)"/>
</clipPath>
<clipPath id="clip2_114_1625">
<rect width="35" height="40" fill="white" transform="translate(122 121)"/>
</clipPath>
<clipPath id="clip3_114_1625">
<rect width="84.7222" height="25" fill="white" transform="translate(788.639 102)"/>
</clipPath>
</defs>
</svg>
