<svg width="971" height="279" viewBox="0 0 971 279" fill="none" xmlns="http://www.w3.org/2000/svg">
<rect width="971" height="279" fill="#121416"/>
<rect x="10.5" y="10.5" width="259" height="258" rx="9.5" stroke="#6EE7B7" stroke-dasharray="4 4"/>
<rect x="20.5" y="20.5" width="239" height="238" rx="7.5" fill="#022C22"/>
<rect x="20.5" y="20.5" width="239" height="238" rx="7.5" stroke="#6EE7B7"/>
<g clip-path="url(#clip0_114_2364)">
<g clip-path="url(#clip1_114_2364)">
<rect x="119.143" y="50.7459" width="6.64251" height="6.64251" fill="#F5F5F5"/>
<rect x="112.5" y="30.8184" width="6.64251" height="6.64251" fill="#F5F5F5"/>
<rect x="119.143" y="37.4609" width="6.64251" height="6.64251" fill="#F5F5F5"/>
<rect x="112.5" y="44.1034" width="6.64251" height="6.64251" fill="#F5F5F5"/>
</g>
<path d="M160.064 46.4031V42.5323C160.064 40.8389 160.897 39.9922 162.564 39.9922H164.944C166.599 39.9922 167.427 40.8389 167.427 42.5323V46.4031C167.427 48.0965 166.599 48.9432 164.944 48.9432H162.564C160.897 48.9432 160.064 48.0965 160.064 46.4031ZM161.135 46.5759C161.135 47.5205 161.6 47.9928 162.53 47.9928H164.978C165.897 47.9928 166.356 47.5205 166.356 46.5759V42.3595C166.356 41.4264 165.897 40.9599 164.978 40.9599H162.53C161.6 40.9599 161.135 41.4264 161.135 42.3595V46.5759Z" fill="#FAFAFA"/>
<path d="M153.955 48.9432V40.9944C154.351 40.3263 155.071 39.9922 156.114 39.9922H157.781L158.359 40.4415V40.9599H156.165C155.644 40.9599 155.264 41.1039 155.026 41.3919V48.9432H153.955Z" fill="#FAFAFA"/>
<path d="M144.155 46.4031V42.5323C144.155 40.8389 144.989 39.9922 146.655 39.9922H148.866C150.521 39.9922 151.348 40.8389 151.348 42.5323V44.8997H145.227V46.5759C145.227 47.5205 145.691 47.9928 146.621 47.9928H151.008V48.4939L150.43 48.9432H146.655C144.989 48.9432 144.155 48.0965 144.155 46.4031ZM145.227 43.9839H150.277V42.3595C150.277 41.4264 149.818 40.9599 148.9 40.9599H146.621C145.691 40.9599 145.227 41.4264 145.227 42.3595V43.9839Z" fill="#FAFAFA"/>
<path d="M134.022 38.0741V37.02H143.171V38.0741H139.157V48.9432H138.035V38.0741H134.022Z" fill="#FAFAFA"/>
</g>
<circle cx="139.5" cy="79.5" r="12.5" fill="#FAFAFA"/>
<path d="M140.923 73.3636V85H138.815V75.4148H138.747L136.026 77.1534V75.2216L138.918 73.3636H140.923Z" fill="#064E3B"/>
<circle cx="237.5" cy="140.5" r="12.5" fill="#FAFAFA"/>
<path d="M233.065 146V144.477L237.105 140.517C237.491 140.127 237.813 139.78 238.071 139.477C238.329 139.174 238.522 138.881 238.651 138.597C238.779 138.312 238.844 138.009 238.844 137.688C238.844 137.32 238.76 137.006 238.594 136.744C238.427 136.479 238.198 136.275 237.906 136.131C237.615 135.987 237.283 135.915 236.912 135.915C236.529 135.915 236.194 135.994 235.906 136.153C235.618 136.309 235.395 136.53 235.236 136.818C235.08 137.106 235.003 137.449 235.003 137.847H232.997C232.997 137.108 233.166 136.466 233.503 135.92C233.84 135.375 234.304 134.953 234.895 134.653C235.49 134.354 236.171 134.205 236.94 134.205C237.721 134.205 238.406 134.35 238.997 134.642C239.588 134.934 240.046 135.333 240.372 135.841C240.702 136.348 240.866 136.928 240.866 137.58C240.866 138.015 240.783 138.443 240.616 138.864C240.45 139.284 240.156 139.75 239.736 140.261C239.319 140.773 238.734 141.392 237.98 142.119L235.974 144.159V144.239H241.043V146H233.065Z" fill="#064E3B"/>
<circle cx="139.5" cy="202.5" r="12.5" fill="#FAFAFA"/>
<path d="M139.499 209.159C138.681 209.159 137.954 209.019 137.317 208.739C136.685 208.458 136.185 208.068 135.817 207.568C135.45 207.068 135.255 206.491 135.232 205.835H137.369C137.388 206.15 137.492 206.424 137.681 206.659C137.871 206.89 138.122 207.07 138.437 207.199C138.751 207.328 139.103 207.392 139.494 207.392C139.91 207.392 140.28 207.32 140.602 207.176C140.924 207.028 141.175 206.824 141.357 206.562C141.539 206.301 141.628 206 141.624 205.659C141.628 205.307 141.537 204.996 141.352 204.727C141.166 204.458 140.897 204.248 140.545 204.097C140.196 203.945 139.776 203.869 139.283 203.869H138.255V202.244H139.283C139.689 202.244 140.043 202.174 140.346 202.034C140.653 201.894 140.893 201.697 141.067 201.443C141.242 201.186 141.327 200.888 141.323 200.551C141.327 200.222 141.253 199.936 141.102 199.693C140.954 199.447 140.744 199.256 140.471 199.119C140.202 198.983 139.886 198.915 139.522 198.915C139.166 198.915 138.836 198.979 138.533 199.108C138.23 199.237 137.986 199.42 137.8 199.659C137.615 199.894 137.516 200.174 137.505 200.5H135.477C135.492 199.848 135.679 199.277 136.039 198.784C136.403 198.288 136.888 197.902 137.494 197.625C138.1 197.345 138.78 197.205 139.533 197.205C140.31 197.205 140.984 197.35 141.556 197.642C142.132 197.93 142.577 198.318 142.891 198.807C143.206 199.295 143.363 199.835 143.363 200.426C143.367 201.081 143.174 201.631 142.783 202.074C142.397 202.517 141.889 202.807 141.261 202.943V203.034C142.079 203.148 142.706 203.451 143.141 203.943C143.581 204.432 143.799 205.04 143.795 205.767C143.795 206.419 143.609 207.002 143.238 207.517C142.871 208.028 142.363 208.43 141.715 208.722C141.071 209.013 140.333 209.159 139.499 209.159Z" fill="#064E3B"/>
<path d="M227.5 79.5L227.5 81.5L227.5 81.5L227.5 79.5ZM237.5 89.4999L235.5 89.4999L237.5 89.4999ZM237.5 124L249.047 104L225.953 104L237.5 124ZM158.501 79.5L158.501 81.5L227.5 81.5L227.5 79.5L227.5 77.5L158.501 77.5L158.501 79.5ZM237.5 89.4999L235.5 89.4999L235.5 106L237.5 106L239.5 106L239.5 89.4999L237.5 89.4999ZM227.5 79.5L227.5 81.5C231.918 81.5 235.5 85.0817 235.5 89.4999L237.5 89.4999L239.5 89.4999C239.5 82.8725 234.127 77.5 227.5 77.5L227.5 79.5Z" fill="#34D399"/>
<path d="M237.499 192.5L235.499 192.5L237.499 192.5ZM227.499 202.5L227.499 204.5L227.499 202.5ZM155.5 202.5L175.5 214.047L175.5 190.953L155.5 202.5ZM237.499 159.5L235.499 159.5L235.499 192.5L237.499 192.5L239.499 192.5L239.499 159.5L237.499 159.5ZM227.499 202.5L227.499 200.5L173.5 200.5L173.5 202.5L173.5 204.5L227.499 204.5L227.499 202.5ZM237.499 192.5L235.499 192.5C235.499 196.918 231.917 200.5 227.499 200.5L227.499 202.5L227.499 204.5C234.127 204.5 239.499 199.127 239.499 192.5L237.499 192.5Z" fill="#34D399"/>
<g clip-path="url(#clip2_114_2364)">
<path opacity="0.4" d="M129.5 131C129.5 133.652 130.554 136.196 132.429 138.071C134.304 139.946 136.848 141 139.5 141C142.152 141 144.696 139.946 146.571 138.071C148.446 136.196 149.5 133.652 149.5 131C149.5 128.348 148.446 125.804 146.571 123.929C144.696 122.054 142.152 121 139.5 121C136.848 121 134.304 122.054 132.429 123.929C130.554 125.804 129.5 128.348 129.5 131Z" fill="#FAFAFA"/>
<path d="M122 158.68C122 150.984 128.234 144.75 135.93 144.75H143.07C150.766 144.75 157 150.984 157 158.68C157 159.961 155.961 161 154.68 161H124.32C123.039 161 122 159.961 122 158.68Z" fill="#FAFAFA"/>
</g>
<line x1="139.5" y1="168" x2="139.5" y2="183" stroke="white"/>
<line x1="166" y1="142.5" x2="217" y2="142.5" stroke="white"/>
<line x1="139.5" y1="100" x2="139.5" y2="115" stroke="white"/>
<path d="M95.5625 238.203C94.4635 235.01 93.8568 233.216 93.7422 232.82C93.7422 232.82 93.1094 234.615 91.8438 238.203H95.5625ZM97.3516 243L96 239.336H91.3906L89.9922 243H88.6172L93.0547 231.422H94.4375L98.7422 243H97.3516ZM102.438 243.18C101.854 243.18 101.315 243.117 100.82 242.992C100.331 242.867 99.9323 242.706 99.625 242.508L99.7891 241.406C100.659 241.87 101.513 242.102 102.352 242.102C103.622 242.102 104.276 241.654 104.312 240.758C104.312 240.378 104.177 240.078 103.906 239.859C103.635 239.641 103.104 239.396 102.312 239.125L101.664 238.898C100.914 238.648 100.378 238.339 100.055 237.969C99.737 237.599 99.5755 237.138 99.5703 236.586C99.5703 235.914 99.8385 235.357 100.375 234.914C100.917 234.471 101.656 234.25 102.594 234.25C103.562 234.25 104.445 234.438 105.242 234.812L104.859 235.812C104.052 235.479 103.297 235.312 102.594 235.312C102.047 235.312 101.617 235.422 101.305 235.641C100.997 235.854 100.844 236.156 100.844 236.547C100.844 236.88 100.956 237.135 101.18 237.312C101.404 237.49 101.852 237.693 102.523 237.922C102.695 237.984 102.911 238.057 103.172 238.141C104.036 238.422 104.648 238.755 105.008 239.141C105.367 239.521 105.547 240.036 105.547 240.688C105.536 241.479 105.253 242.094 104.695 242.531C104.138 242.964 103.385 243.18 102.438 243.18ZM107.352 243V231.102L108.648 231.023V237.25V238.344C108.68 238.312 108.727 238.26 108.789 238.188C108.852 238.115 108.901 238.06 108.938 238.023C109.391 237.529 110.562 236.331 112.453 234.43H114.109L110.547 238.039L114.359 243H112.734L109.602 238.781L108.648 239.602V243H107.352ZM128.258 246.672C128.008 246.422 127.594 245.911 127.016 245.141C126.438 244.375 126.005 243.695 125.719 243.102C125.396 243.148 125.062 243.172 124.719 243.172C123.552 243.172 122.552 242.924 121.719 242.43C120.891 241.93 120.268 241.237 119.852 240.352C119.44 239.461 119.234 238.417 119.234 237.219C119.234 235.37 119.716 233.911 120.68 232.844C121.643 231.776 122.992 231.242 124.727 231.242C126.435 231.242 127.771 231.781 128.734 232.859C129.703 233.932 130.188 235.388 130.188 237.227C130.188 238.565 129.914 239.719 129.367 240.688C128.82 241.651 128.036 242.341 127.016 242.758C127.099 242.904 127.214 243.094 127.359 243.328C127.505 243.568 127.768 243.953 128.148 244.484C128.534 245.021 128.878 245.438 129.18 245.734L128.258 246.672ZM121.695 240.727C122.378 241.57 123.385 241.992 124.719 241.992C126.052 241.992 127.055 241.57 127.727 240.727C128.404 239.883 128.742 238.716 128.742 237.227C128.742 235.706 128.401 234.526 127.719 233.688C127.042 232.849 126.044 232.43 124.727 232.43C123.409 232.43 122.404 232.849 121.711 233.688C121.018 234.526 120.672 235.706 120.672 237.227C120.672 238.711 121.013 239.878 121.695 240.727ZM131.883 240.141V234.43H133.195V240.156C133.195 240.531 133.247 240.849 133.352 241.109C133.461 241.37 133.615 241.573 133.812 241.719C134.016 241.859 134.242 241.961 134.492 242.023C134.747 242.086 135.039 242.117 135.367 242.117C136.044 242.117 136.57 241.969 136.945 241.672C137.326 241.375 137.516 240.87 137.516 240.156V234.43H138.828V240.141C138.828 240.578 138.766 240.971 138.641 241.32C138.516 241.669 138.346 241.961 138.133 242.195C137.924 242.424 137.672 242.615 137.375 242.766C137.078 242.917 136.763 243.026 136.43 243.094C136.102 243.161 135.747 243.195 135.367 243.195C134.992 243.195 134.638 243.161 134.305 243.094C133.971 243.026 133.654 242.917 133.352 242.766C133.055 242.609 132.797 242.417 132.578 242.188C132.365 241.953 132.195 241.661 132.07 241.312C131.945 240.964 131.883 240.573 131.883 240.141ZM145.711 236.016C145.331 235.557 144.807 235.328 144.141 235.328C143.474 235.328 142.93 235.565 142.508 236.039C142.086 236.508 141.839 237.151 141.766 237.969H146.289C146.289 237.12 146.096 236.469 145.711 236.016ZM144.398 243.18C143.154 243.18 142.172 242.784 141.453 241.992C140.74 241.201 140.383 240.117 140.383 238.742C140.383 237.414 140.729 236.339 141.422 235.516C142.115 234.688 143.026 234.266 144.156 234.25C145.219 234.25 146.06 234.615 146.68 235.344C147.305 236.068 147.617 237.036 147.617 238.25C147.617 238.312 147.615 238.427 147.609 238.594C147.609 238.76 147.609 238.88 147.609 238.953H141.727C141.742 239.927 141.992 240.688 142.477 241.234C142.966 241.776 143.622 242.047 144.445 242.047C145.352 242.047 146.26 241.807 147.172 241.328L147.375 242.383C146.505 242.914 145.513 243.18 144.398 243.18ZM151.984 243.18C151.401 243.18 150.862 243.117 150.367 242.992C149.878 242.867 149.479 242.706 149.172 242.508L149.336 241.406C150.206 241.87 151.06 242.102 151.898 242.102C153.169 242.102 153.823 241.654 153.859 240.758C153.859 240.378 153.724 240.078 153.453 239.859C153.182 239.641 152.651 239.396 151.859 239.125L151.211 238.898C150.461 238.648 149.924 238.339 149.602 237.969C149.284 237.599 149.122 237.138 149.117 236.586C149.117 235.914 149.385 235.357 149.922 234.914C150.464 234.471 151.203 234.25 152.141 234.25C153.109 234.25 153.992 234.438 154.789 234.812L154.406 235.812C153.599 235.479 152.844 235.312 152.141 235.312C151.594 235.312 151.164 235.422 150.852 235.641C150.544 235.854 150.391 236.156 150.391 236.547C150.391 236.88 150.503 237.135 150.727 237.312C150.951 237.49 151.398 237.693 152.07 237.922C152.242 237.984 152.458 238.057 152.719 238.141C153.583 238.422 154.195 238.755 154.555 239.141C154.914 239.521 155.094 240.036 155.094 240.688C155.083 241.479 154.799 242.094 154.242 242.531C153.685 242.964 152.932 243.18 151.984 243.18ZM159.617 243.156C158.773 243.156 158.174 242.951 157.82 242.539C157.466 242.128 157.279 241.464 157.258 240.547V235.398H155.984L156.039 234.539L157.25 234.43L157.695 232.469L158.555 232.438V234.43H160.938V235.398H158.555V240.312C158.555 240.964 158.654 241.422 158.852 241.688C159.049 241.953 159.388 242.086 159.867 242.086C160.039 242.086 160.411 242.044 160.984 241.961L161.039 242.992C160.419 243.102 159.945 243.156 159.617 243.156ZM163.969 234.43V243H162.656V234.43H163.969ZM163.969 231.312V232.859H162.656V231.312H163.969ZM167.383 238.734C167.383 239.75 167.607 240.565 168.055 241.18C168.508 241.789 169.167 242.094 170.031 242.094C170.885 242.094 171.529 241.789 171.961 241.18C172.398 240.57 172.617 239.75 172.617 238.719C172.617 237.672 172.401 236.849 171.969 236.25C171.542 235.646 170.888 235.344 170.008 235.344C169.154 235.344 168.503 235.651 168.055 236.266C167.607 236.88 167.383 237.703 167.383 238.734ZM173.969 238.711C173.969 240.039 173.615 241.117 172.906 241.945C172.198 242.768 171.219 243.18 169.969 243.18C168.766 243.18 167.807 242.763 167.094 241.93C166.385 241.096 166.031 240.026 166.031 238.719C166.031 237.385 166.388 236.307 167.102 235.484C167.815 234.661 168.794 234.25 170.039 234.25C171.263 234.25 172.224 234.664 172.922 235.492C173.62 236.315 173.969 237.388 173.969 238.711ZM175.82 243V234.43H176.914L177.078 235.656C177.417 235.234 177.839 234.896 178.344 234.641C178.854 234.38 179.404 234.25 179.992 234.25C180.982 234.25 181.714 234.529 182.188 235.086C182.661 235.638 182.898 236.49 182.898 237.641V243H181.594C181.594 239.562 181.591 237.721 181.586 237.477C181.565 236.747 181.417 236.214 181.141 235.875C180.87 235.536 180.414 235.367 179.773 235.367C179.102 235.367 178.542 235.529 178.094 235.852C177.646 236.174 177.354 236.594 177.219 237.109C177.167 237.458 177.141 237.859 177.141 238.312V243H175.82ZM187.625 243.18C187.042 243.18 186.503 243.117 186.008 242.992C185.518 242.867 185.12 242.706 184.812 242.508L184.977 241.406C185.846 241.87 186.701 242.102 187.539 242.102C188.81 242.102 189.464 241.654 189.5 240.758C189.5 240.378 189.365 240.078 189.094 239.859C188.823 239.641 188.292 239.396 187.5 239.125L186.852 238.898C186.102 238.648 185.565 238.339 185.242 237.969C184.924 237.599 184.763 237.138 184.758 236.586C184.758 235.914 185.026 235.357 185.562 234.914C186.104 234.471 186.844 234.25 187.781 234.25C188.75 234.25 189.633 234.438 190.43 234.812L190.047 235.812C189.24 235.479 188.484 235.312 187.781 235.312C187.234 235.312 186.805 235.422 186.492 235.641C186.185 235.854 186.031 236.156 186.031 236.547C186.031 236.88 186.143 237.135 186.367 237.312C186.591 237.49 187.039 237.693 187.711 237.922C187.883 237.984 188.099 238.057 188.359 238.141C189.224 238.422 189.836 238.755 190.195 239.141C190.555 239.521 190.734 240.036 190.734 240.688C190.724 241.479 190.44 242.094 189.883 242.531C189.326 242.964 188.573 243.18 187.625 243.18Z" fill="white"/>
<path d="M280 139.5L300 151.047V127.953L280 139.5ZM298 139.5V141.5L691.5 141.5V139.5V137.5L298 137.5V139.5Z" fill="#34D399"/>
<mask id="path-27-outside-1_114_2364" maskUnits="userSpaceOnUse" x="430" y="123.5" width="111" height="31" fill="black">
<rect fill="white" x="430" y="123.5" width="111" height="31"/>
<path d="M444.205 144.5V134.318H448.023C448.806 134.318 449.462 134.454 449.992 134.726C450.526 134.998 450.928 135.379 451.2 135.869C451.475 136.357 451.613 136.925 451.613 137.575C451.613 138.228 451.474 138.794 451.195 139.275C450.92 139.752 450.514 140.122 449.977 140.384C449.44 140.642 448.781 140.771 447.999 140.771H445.279V139.24H447.75C448.207 139.24 448.582 139.177 448.874 139.051C449.165 138.922 449.381 138.735 449.52 138.489C449.662 138.241 449.734 137.936 449.734 137.575C449.734 137.213 449.662 136.905 449.52 136.65C449.377 136.391 449.16 136.196 448.869 136.063C448.577 135.927 448.201 135.859 447.74 135.859H446.05V144.5H444.205ZM449.465 139.886L451.986 144.5H449.928L447.452 139.886H449.465ZM454.011 144.5V134.318H460.633V135.864H455.855V138.629H460.29V140.175H455.855V142.954H460.673V144.5H454.011ZM464.522 144.5H462.553L466.138 134.318H468.415L472.004 144.5H470.036L467.316 136.406H467.237L464.522 144.5ZM464.587 140.508H469.956V141.989H464.587V140.508ZM477.496 144.5H474.045V134.318H477.565C478.576 134.318 479.445 134.522 480.17 134.93C480.9 135.334 481.46 135.916 481.851 136.675C482.242 137.434 482.438 138.342 482.438 139.399C482.438 140.46 482.24 141.371 481.846 142.134C481.455 142.896 480.89 143.481 480.151 143.888C479.415 144.296 478.53 144.5 477.496 144.5ZM475.89 142.904H477.406C478.116 142.904 478.707 142.775 479.181 142.516C479.655 142.254 480.011 141.865 480.25 141.348C480.489 140.828 480.608 140.178 480.608 139.399C480.608 138.62 480.489 137.974 480.25 137.46C480.011 136.943 479.658 136.557 479.191 136.302C478.727 136.043 478.15 135.914 477.461 135.914H475.89V142.904ZM492.513 144.5H489.063V134.318H492.583C493.593 134.318 494.462 134.522 495.188 134.93C495.917 135.334 496.477 135.916 496.868 136.675C497.259 137.434 497.455 138.342 497.455 139.399C497.455 140.46 497.257 141.371 496.863 142.134C496.472 142.896 495.907 143.481 495.168 143.888C494.432 144.296 493.547 144.5 492.513 144.5ZM490.907 142.904H492.423C493.133 142.904 493.724 142.775 494.198 142.516C494.672 142.254 495.029 141.865 495.267 141.348C495.506 140.828 495.625 140.178 495.625 139.399C495.625 138.62 495.506 137.974 495.267 137.46C495.029 136.943 494.676 136.557 494.208 136.302C493.744 136.043 493.168 135.914 492.478 135.914H490.907V142.904ZM500.668 144.5H498.699L502.284 134.318H504.561L508.15 144.5H506.181L503.462 136.406H503.382L500.668 144.5ZM500.732 140.508H506.102V141.989H500.732V140.508ZM508.513 135.864V134.318H516.637V135.864H513.49V144.5H511.66V135.864H508.513ZM518.98 144.5H517.011L520.596 134.318H522.873L526.462 144.5H524.493L521.774 136.406H521.694L518.98 144.5ZM519.045 140.508H524.414V141.989H519.045V140.508Z"/>
</mask>
<path d="M444.205 144.5V134.318H448.023C448.806 134.318 449.462 134.454 449.992 134.726C450.526 134.998 450.928 135.379 451.2 135.869C451.475 136.357 451.613 136.925 451.613 137.575C451.613 138.228 451.474 138.794 451.195 139.275C450.92 139.752 450.514 140.122 449.977 140.384C449.44 140.642 448.781 140.771 447.999 140.771H445.279V139.24H447.75C448.207 139.24 448.582 139.177 448.874 139.051C449.165 138.922 449.381 138.735 449.52 138.489C449.662 138.241 449.734 137.936 449.734 137.575C449.734 137.213 449.662 136.905 449.52 136.65C449.377 136.391 449.16 136.196 448.869 136.063C448.577 135.927 448.201 135.859 447.74 135.859H446.05V144.5H444.205ZM449.465 139.886L451.986 144.5H449.928L447.452 139.886H449.465ZM454.011 144.5V134.318H460.633V135.864H455.855V138.629H460.29V140.175H455.855V142.954H460.673V144.5H454.011ZM464.522 144.5H462.553L466.138 134.318H468.415L472.004 144.5H470.036L467.316 136.406H467.237L464.522 144.5ZM464.587 140.508H469.956V141.989H464.587V140.508ZM477.496 144.5H474.045V134.318H477.565C478.576 134.318 479.445 134.522 480.17 134.93C480.9 135.334 481.46 135.916 481.851 136.675C482.242 137.434 482.438 138.342 482.438 139.399C482.438 140.46 482.24 141.371 481.846 142.134C481.455 142.896 480.89 143.481 480.151 143.888C479.415 144.296 478.53 144.5 477.496 144.5ZM475.89 142.904H477.406C478.116 142.904 478.707 142.775 479.181 142.516C479.655 142.254 480.011 141.865 480.25 141.348C480.489 140.828 480.608 140.178 480.608 139.399C480.608 138.62 480.489 137.974 480.25 137.46C480.011 136.943 479.658 136.557 479.191 136.302C478.727 136.043 478.15 135.914 477.461 135.914H475.89V142.904ZM492.513 144.5H489.063V134.318H492.583C493.593 134.318 494.462 134.522 495.188 134.93C495.917 135.334 496.477 135.916 496.868 136.675C497.259 137.434 497.455 138.342 497.455 139.399C497.455 140.46 497.257 141.371 496.863 142.134C496.472 142.896 495.907 143.481 495.168 143.888C494.432 144.296 493.547 144.5 492.513 144.5ZM490.907 142.904H492.423C493.133 142.904 493.724 142.775 494.198 142.516C494.672 142.254 495.029 141.865 495.267 141.348C495.506 140.828 495.625 140.178 495.625 139.399C495.625 138.62 495.506 137.974 495.267 137.46C495.029 136.943 494.676 136.557 494.208 136.302C493.744 136.043 493.168 135.914 492.478 135.914H490.907V142.904ZM500.668 144.5H498.699L502.284 134.318H504.561L508.15 144.5H506.181L503.462 136.406H503.382L500.668 144.5ZM500.732 140.508H506.102V141.989H500.732V140.508ZM508.513 135.864V134.318H516.637V135.864H513.49V144.5H511.66V135.864H508.513ZM518.98 144.5H517.011L520.596 134.318H522.873L526.462 144.5H524.493L521.774 136.406H521.694L518.98 144.5ZM519.045 140.508H524.414V141.989H519.045V140.508Z" fill="white"/>
<path d="M444.205 144.5H434.205V154.5H444.205V144.5ZM444.205 134.318V124.318H434.205V134.318H444.205ZM449.992 134.726L445.431 143.625L445.442 143.631L445.454 143.637L449.992 134.726ZM451.2 135.869L442.453 140.716L442.473 140.751L442.492 140.786L451.2 135.869ZM451.195 139.275L442.542 134.262L442.537 134.272L442.531 134.281L451.195 139.275ZM449.977 140.384L454.315 149.394L454.338 149.383L454.36 149.372L449.977 140.384ZM445.279 140.771H435.279V150.771H445.279V140.771ZM445.279 139.24V129.24H435.279V139.24H445.279ZM448.874 139.051L452.838 148.232L452.882 148.213L452.925 148.194L448.874 139.051ZM449.52 138.489L440.845 133.516L440.834 133.534L440.823 133.553L449.52 138.489ZM449.52 136.65L440.762 141.478L440.776 141.502L440.789 141.526L449.52 136.65ZM448.869 136.063L444.645 145.128L444.688 145.147L444.731 145.167L448.869 136.063ZM446.05 135.859V125.859H436.05V135.859H446.05ZM446.05 144.5V154.5H456.05V144.5H446.05ZM449.465 139.886L458.241 135.092L455.397 129.886H449.465V139.886ZM451.986 144.5V154.5H468.844L460.761 139.706L451.986 144.5ZM449.928 144.5L441.116 149.229L443.945 154.5H449.928V144.5ZM447.452 139.886V129.886H430.736L438.64 144.615L447.452 139.886ZM444.205 144.5H454.205V134.318H444.205H434.205V144.5H444.205ZM444.205 134.318V144.318H448.023V134.318V124.318H444.205V134.318ZM448.023 134.318V144.318C447.697 144.318 446.684 144.267 445.431 143.625L449.992 134.726L454.553 125.827C452.24 124.641 449.914 124.318 448.023 124.318V134.318ZM449.992 134.726L445.454 143.637C444.337 143.068 443.214 142.09 442.453 140.716L451.2 135.869L459.947 131.023C458.643 128.668 456.714 126.927 454.531 125.815L449.992 134.726ZM451.2 135.869L442.492 140.786C441.793 139.547 441.613 138.368 441.613 137.575H451.613H461.613C461.613 135.482 461.158 133.166 459.908 130.953L451.2 135.869ZM451.613 137.575H441.613C441.613 136.779 441.794 135.553 442.542 134.262L451.195 139.275L459.848 144.288C461.153 142.035 461.613 139.676 461.613 137.575H451.613ZM451.195 139.275L442.531 134.281C443.337 132.883 444.496 131.931 445.594 131.395L449.977 140.384L454.36 149.372C456.532 148.313 458.503 146.621 459.859 144.269L451.195 139.275ZM449.977 140.384L445.639 131.374C446.81 130.81 447.729 130.771 447.999 130.771V140.771V150.771C449.833 150.771 452.071 150.474 454.315 149.394L449.977 140.384ZM447.999 140.771V130.771H445.279V140.771V150.771H447.999V140.771ZM445.279 140.771H455.279V139.24H445.279H435.279V140.771H445.279ZM445.279 139.24V149.24H447.75V139.24V129.24H445.279V139.24ZM447.75 139.24V149.24C449.018 149.24 450.871 149.081 452.838 148.232L448.874 139.051L444.909 129.871C446.293 129.273 447.396 129.24 447.75 129.24V139.24ZM448.874 139.051L452.925 148.194C454.907 147.315 456.883 145.775 458.217 143.425L449.52 138.489L440.823 133.553C441.878 131.695 443.423 130.529 444.822 129.909L448.874 139.051ZM449.52 138.489L458.195 143.463C459.404 141.354 459.734 139.233 459.734 137.575H449.734H439.734C439.734 136.639 439.92 135.127 440.845 133.516L449.52 138.489ZM449.734 137.575H459.734C459.734 135.905 459.4 133.833 458.251 131.774L449.52 136.65L440.789 141.526C439.925 139.978 439.734 138.522 439.734 137.575H449.734ZM449.52 136.65L458.277 131.822C457.005 129.515 455.081 127.903 453.007 126.96L448.869 136.063L444.731 145.167C443.239 144.489 441.749 143.268 440.762 141.478L449.52 136.65ZM448.869 136.063L453.092 126.999C451.034 126.04 449.076 125.859 447.74 125.859V135.859V145.859C447.326 145.859 446.12 145.815 444.645 145.128L448.869 136.063ZM447.74 135.859V125.859H446.05V135.859V145.859H447.74V135.859ZM446.05 135.859H436.05V144.5H446.05H456.05V135.859H446.05ZM446.05 144.5V134.5H444.205V144.5V154.5H446.05V144.5ZM449.465 139.886L440.689 144.681L443.21 149.294L451.986 144.5L460.761 139.706L458.241 135.092L449.465 139.886ZM451.986 144.5V134.5H449.928V144.5V154.5H451.986V144.5ZM449.928 144.5L458.739 139.771L456.263 135.158L447.452 139.886L438.64 144.615L441.116 149.229L449.928 144.5ZM447.452 139.886V149.886H449.465V139.886V129.886H447.452V139.886ZM454.011 144.5H444.011V154.5H454.011V144.5ZM454.011 134.318V124.318H444.011V134.318H454.011ZM460.633 134.318H470.633V124.318H460.633V134.318ZM460.633 135.864V145.864H470.633V135.864H460.633ZM455.855 135.864V125.864H445.855V135.864H455.855ZM455.855 138.629H445.855V148.629H455.855V138.629ZM460.29 138.629H470.29V128.629H460.29V138.629ZM460.29 140.175V150.175H470.29V140.175H460.29ZM455.855 140.175V130.175H445.855V140.175H455.855ZM455.855 142.954H445.855V152.954H455.855V142.954ZM460.673 142.954H470.673V132.954H460.673V142.954ZM460.673 144.5V154.5H470.673V144.5H460.673ZM454.011 144.5H464.011V134.318H454.011H444.011V144.5H454.011ZM454.011 134.318V144.318H460.633V134.318V124.318H454.011V134.318ZM460.633 134.318H450.633V135.864H460.633H470.633V134.318H460.633ZM460.633 135.864V125.864H455.855V135.864V145.864H460.633V135.864ZM455.855 135.864H445.855V138.629H455.855H465.855V135.864H455.855ZM455.855 138.629V148.629H460.29V138.629V128.629H455.855V138.629ZM460.29 138.629H450.29V140.175H460.29H470.29V138.629H460.29ZM460.29 140.175V130.175H455.855V140.175V150.175H460.29V140.175ZM455.855 140.175H445.855V142.954H455.855H465.855V140.175H455.855ZM455.855 142.954V152.954H460.673V142.954V132.954H455.855V142.954ZM460.673 142.954H450.673V144.5H460.673H470.673V142.954H460.673ZM460.673 144.5V134.5H454.011V144.5V154.5H460.673V144.5ZM464.522 144.5V154.5H471.716L474.003 147.68L464.522 144.5ZM462.553 144.5L453.121 141.179L448.431 154.5H462.553V144.5ZM466.138 134.318V124.318H459.057L456.705 130.997L466.138 134.318ZM468.415 134.318L477.846 130.993L475.493 124.318H468.415V134.318ZM472.004 144.5V154.5H486.133L481.435 141.175L472.004 144.5ZM470.036 144.5L460.556 147.685L462.846 154.5H470.036V144.5ZM467.316 136.406L476.795 133.221L474.506 126.406H467.316V136.406ZM467.237 136.406V126.406H460.043L457.756 133.227L467.237 136.406ZM464.587 140.508V130.508H454.587V140.508H464.587ZM469.956 140.508H479.956V130.508H469.956V140.508ZM469.956 141.989V151.989H479.956V141.989H469.956ZM464.587 141.989H454.587V151.989H464.587V141.989ZM464.522 144.5V134.5H462.553V144.5V154.5H464.522V144.5ZM462.553 144.5L471.986 147.821L475.57 137.639L466.138 134.318L456.705 130.997L453.121 141.179L462.553 144.5ZM466.138 134.318V144.318H468.415V134.318V124.318H466.138V134.318ZM468.415 134.318L458.984 137.643L462.573 147.825L472.004 144.5L481.435 141.175L477.846 130.993L468.415 134.318ZM472.004 144.5V134.5H470.036V144.5V154.5H472.004V144.5ZM470.036 144.5L479.515 141.315L476.795 133.221L467.316 136.406L457.837 139.591L460.556 147.685L470.036 144.5ZM467.316 136.406V126.406H467.237V136.406V146.406H467.316V136.406ZM467.237 136.406L457.756 133.227L455.041 141.32L464.522 144.5L474.003 147.68L476.718 139.586L467.237 136.406ZM464.587 140.508V150.508H469.956V140.508V130.508H464.587V140.508ZM469.956 140.508H459.956V141.989H469.956H479.956V140.508H469.956ZM469.956 141.989V131.989H464.587V141.989V151.989H469.956V141.989ZM464.587 141.989H474.587V140.508H464.587H454.587V141.989H464.587ZM474.045 144.5H464.045V154.5H474.045V144.5ZM474.045 134.318V124.318H464.045V134.318H474.045ZM480.17 134.93L475.274 143.649L475.297 143.662L475.321 143.675L480.17 134.93ZM481.851 136.675L472.962 141.255L472.962 141.255L481.851 136.675ZM481.846 142.134L472.964 137.538L472.956 137.554L472.949 137.569L481.846 142.134ZM480.151 143.888L475.321 135.132L475.313 135.137L475.304 135.141L480.151 143.888ZM475.89 142.904H465.89V152.904H475.89V142.904ZM479.181 142.516L483.97 151.295L483.993 151.282L484.017 151.269L479.181 142.516ZM480.25 141.348L489.33 145.539L489.335 145.528L489.34 145.517L480.25 141.348ZM480.25 137.46L471.17 141.651L471.176 141.662L471.181 141.673L480.25 137.46ZM479.191 136.302L474.324 145.038L474.361 145.058L474.398 145.078L479.191 136.302ZM475.89 135.914V125.914H465.89V135.914H475.89ZM477.496 144.5V134.5H474.045V144.5V154.5H477.496V144.5ZM474.045 144.5H484.045V134.318H474.045H464.045V144.5H474.045ZM474.045 134.318V144.318H477.565V134.318V124.318H474.045V134.318ZM477.565 134.318V144.318C477.227 144.318 476.333 144.243 475.274 143.649L480.17 134.93L485.067 126.211C482.557 124.801 479.926 124.318 477.565 124.318V134.318ZM480.17 134.93L475.321 143.675C474.278 143.097 473.453 142.208 472.962 141.255L481.851 136.675L490.74 132.094C489.467 129.623 487.521 127.571 485.02 126.184L480.17 134.93ZM481.851 136.675L472.962 141.255C472.469 140.3 472.438 139.562 472.438 139.399H482.438H492.438C492.438 137.121 492.015 134.568 490.74 132.094L481.851 136.675ZM482.438 139.399H472.438C472.438 139.231 472.471 138.492 472.964 137.538L481.846 142.134L490.728 146.729C492.01 144.25 492.438 141.688 492.438 139.399H482.438ZM481.846 142.134L472.949 137.569C473.451 136.589 474.289 135.701 475.321 135.132L480.151 143.888L484.98 152.645C487.49 151.261 489.458 149.203 490.743 146.698L481.846 142.134ZM480.151 143.888L475.304 135.141C476.355 134.559 477.219 134.5 477.496 134.5V144.5V154.5C479.84 154.5 482.474 154.033 484.997 152.636L480.151 143.888ZM475.89 142.904V152.904H477.406V142.904V132.904H475.89V142.904ZM477.406 142.904V152.904C479.281 152.904 481.638 152.567 483.97 151.295L479.181 142.516L474.393 133.737C475.777 132.982 476.95 132.904 477.406 132.904V142.904ZM479.181 142.516L484.017 151.269C486.455 149.922 488.248 147.883 489.33 145.539L480.25 141.348L471.17 137.157C471.775 135.847 472.855 134.587 474.345 133.763L479.181 142.516ZM480.25 141.348L489.34 145.517C490.353 143.306 490.608 141.127 490.608 139.399H480.608H470.608C470.608 139.229 470.624 138.349 471.16 137.179L480.25 141.348ZM480.608 139.399H490.608C490.608 137.679 490.356 135.479 489.319 133.247L480.25 137.46L471.181 141.673C470.622 140.469 470.608 139.562 470.608 139.399H480.608ZM480.25 137.46L489.33 133.27C488.258 130.947 486.47 128.883 483.984 127.525L479.191 136.302L474.398 145.078C472.847 144.231 471.765 142.939 471.17 141.651L480.25 137.46ZM479.191 136.302L484.058 127.566C481.727 126.267 479.36 125.914 477.461 125.914V135.914V145.914C476.94 145.914 475.727 145.819 474.324 145.038L479.191 136.302ZM477.461 135.914V125.914H475.89V135.914V145.914H477.461V135.914ZM475.89 135.914H465.89V142.904H475.89H485.89V135.914H475.89ZM489.063 144.5H479.063V154.5H489.063V144.5ZM489.063 134.318V124.318H479.063V134.318H489.063ZM495.188 134.93L490.291 143.649L490.314 143.662L490.338 143.675L495.188 134.93ZM496.868 136.675L487.979 141.255L487.979 141.255L496.868 136.675ZM496.863 142.134L487.981 137.538L487.974 137.554L487.966 137.569L496.863 142.134ZM495.168 143.888L490.338 135.132L490.33 135.137L490.321 135.141L495.168 143.888ZM490.907 142.904H480.907V152.904H490.907V142.904ZM494.198 142.516L498.987 151.295L499.01 151.282L499.034 151.269L494.198 142.516ZM495.267 141.348L504.347 145.539L504.352 145.528L504.357 145.517L495.267 141.348ZM495.267 137.46L486.188 141.651L486.193 141.662L486.198 141.673L495.267 137.46ZM494.208 136.302L489.341 145.038L489.378 145.058L489.415 145.078L494.208 136.302ZM490.907 135.914V125.914H480.907V135.914H490.907ZM492.513 144.5V134.5H489.063V144.5V154.5H492.513V144.5ZM489.063 144.5H499.063V134.318H489.063H479.063V144.5H489.063ZM489.063 134.318V144.318H492.583V134.318V124.318H489.063V134.318ZM492.583 134.318V144.318C492.244 144.318 491.35 144.243 490.291 143.649L495.188 134.93L500.085 126.211C497.574 124.801 494.943 124.318 492.583 124.318V134.318ZM495.188 134.93L490.338 143.675C489.295 143.097 488.47 142.208 487.979 141.255L496.868 136.675L505.757 132.094C504.484 129.623 502.539 127.571 500.037 126.184L495.188 134.93ZM496.868 136.675L487.979 141.255C487.486 140.3 487.455 139.562 487.455 139.399H497.455H507.455C507.455 137.121 507.032 134.568 505.757 132.094L496.868 136.675ZM497.455 139.399H487.455C487.455 139.231 487.488 138.492 487.981 137.538L496.863 142.134L505.745 146.729C507.027 144.25 507.455 141.688 507.455 139.399H497.455ZM496.863 142.134L487.966 137.569C488.469 136.589 489.307 135.701 490.338 135.132L495.168 143.888L499.998 152.645C502.507 151.261 504.475 149.203 505.76 146.698L496.863 142.134ZM495.168 143.888L490.321 135.141C491.372 134.559 492.236 134.5 492.513 134.5V144.5V154.5C494.858 154.5 497.491 154.033 500.014 152.636L495.168 143.888ZM490.907 142.904V152.904H492.423V142.904V132.904H490.907V142.904ZM492.423 142.904V152.904C494.298 152.904 496.655 152.567 498.987 151.295L494.198 142.516L489.41 133.737C490.794 132.982 491.967 132.904 492.423 132.904V142.904ZM494.198 142.516L499.034 151.269C501.473 149.922 503.265 147.883 504.347 145.539L495.267 141.348L486.188 137.157C486.792 135.847 487.872 134.587 489.363 133.763L494.198 142.516ZM495.267 141.348L504.357 145.517C505.371 143.306 505.625 141.127 505.625 139.399H495.625H485.625C485.625 139.229 485.641 138.349 486.177 137.179L495.267 141.348ZM495.625 139.399H505.625C505.625 137.679 505.373 135.479 504.336 133.247L495.267 137.46L486.198 141.673C485.639 140.469 485.625 139.562 485.625 139.399H495.625ZM495.267 137.46L504.347 133.27C503.275 130.947 501.487 128.883 499.001 127.525L494.208 136.302L489.415 145.078C487.864 144.231 486.782 142.939 486.188 141.651L495.267 137.46ZM494.208 136.302L499.075 127.566C496.744 126.267 494.377 125.914 492.478 125.914V135.914V145.914C491.958 145.914 490.744 145.819 489.341 145.038L494.208 136.302ZM492.478 135.914V125.914H490.907V135.914V145.914H492.478V135.914ZM490.907 135.914H480.907V142.904H490.907H500.907V135.914H490.907ZM500.668 144.5V154.5H507.861L510.149 147.68L500.668 144.5ZM498.699 144.5L489.267 141.179L484.577 154.5H498.699V144.5ZM502.284 134.318V124.318H495.203L492.851 130.997L502.284 134.318ZM504.561 134.318L513.992 130.993L511.638 124.318H504.561V134.318ZM508.15 144.5V154.5H522.279L517.581 141.175L508.15 144.5ZM506.181 144.5L496.702 147.685L498.992 154.5H506.181V144.5ZM503.462 136.406L512.941 133.221L510.651 126.406H503.462V136.406ZM503.382 136.406V126.406H496.189L493.901 133.227L503.382 136.406ZM500.732 140.508V130.508H490.732V140.508H500.732ZM506.102 140.508H516.102V130.508H506.102V140.508ZM506.102 141.989V151.989H516.102V141.989H506.102ZM500.732 141.989H490.732V151.989H500.732V141.989ZM500.668 144.5V134.5H498.699V144.5V154.5H500.668V144.5ZM498.699 144.5L508.132 147.821L511.716 137.639L502.284 134.318L492.851 130.997L489.267 141.179L498.699 144.5ZM502.284 134.318V144.318H504.561V134.318V124.318H502.284V134.318ZM504.561 134.318L495.13 137.643L498.719 147.825L508.15 144.5L517.581 141.175L513.992 130.993L504.561 134.318ZM508.15 144.5V134.5H506.181V144.5V154.5H508.15V144.5ZM506.181 144.5L515.661 141.315L512.941 133.221L503.462 136.406L493.983 139.591L496.702 147.685L506.181 144.5ZM503.462 136.406V126.406H503.382V136.406V146.406H503.462V136.406ZM503.382 136.406L493.901 133.227L491.187 141.32L500.668 144.5L510.149 147.68L512.863 139.586L503.382 136.406ZM500.732 140.508V150.508H506.102V140.508V130.508H500.732V140.508ZM506.102 140.508H496.102V141.989H506.102H516.102V140.508H506.102ZM506.102 141.989V131.989H500.732V141.989V151.989H506.102V141.989ZM500.732 141.989H510.732V140.508H500.732H490.732V141.989H500.732ZM508.513 135.864H498.513V145.864H508.513V135.864ZM508.513 134.318V124.318H498.513V134.318H508.513ZM516.637 134.318H526.637V124.318H516.637V134.318ZM516.637 135.864V145.864H526.637V135.864H516.637ZM513.49 135.864V125.864H503.49V135.864H513.49ZM513.49 144.5V154.5H523.49V144.5H513.49ZM511.66 144.5H501.66V154.5H511.66V144.5ZM511.66 135.864H521.66V125.864H511.66V135.864ZM508.513 135.864H518.513V134.318H508.513H498.513V135.864H508.513ZM508.513 134.318V144.318H516.637V134.318V124.318H508.513V134.318ZM516.637 134.318H506.637V135.864H516.637H526.637V134.318H516.637ZM516.637 135.864V125.864H513.49V135.864V145.864H516.637V135.864ZM513.49 135.864H503.49V144.5H513.49H523.49V135.864H513.49ZM513.49 144.5V134.5H511.66V144.5V154.5H513.49V144.5ZM511.66 144.5H521.66V135.864H511.66H501.66V144.5H511.66ZM511.66 135.864V125.864H508.513V135.864V145.864H511.66V135.864ZM518.98 144.5V154.5H526.174L528.461 147.68L518.98 144.5ZM517.011 144.5L507.579 141.179L502.889 154.5H517.011V144.5ZM520.596 134.318V124.318H513.515L511.163 130.997L520.596 134.318ZM522.873 134.318L532.304 130.993L529.951 124.318H522.873V134.318ZM526.462 144.5V154.5H540.591L535.893 141.175L526.462 144.5ZM524.493 144.5L515.014 147.685L517.304 154.5H524.493V144.5ZM521.774 136.406L531.253 133.221L528.963 126.406H521.774V136.406ZM521.694 136.406V126.406H514.501L512.213 133.227L521.694 136.406ZM519.045 140.508V130.508H509.045V140.508H519.045ZM524.414 140.508H534.414V130.508H524.414V140.508ZM524.414 141.989V151.989H534.414V141.989H524.414ZM519.045 141.989H509.045V151.989H519.045V141.989ZM518.98 144.5V134.5H517.011V144.5V154.5H518.98V144.5ZM517.011 144.5L526.444 147.821L530.028 137.639L520.596 134.318L511.163 130.997L507.579 141.179L517.011 144.5ZM520.596 134.318V144.318H522.873V134.318V124.318H520.596V134.318ZM522.873 134.318L513.442 137.643L517.031 147.825L526.462 144.5L535.893 141.175L532.304 130.993L522.873 134.318ZM526.462 144.5V134.5H524.493V144.5V154.5H526.462V144.5ZM524.493 144.5L533.973 141.315L531.253 133.221L521.774 136.406L512.295 139.591L515.014 147.685L524.493 144.5ZM521.774 136.406V126.406H521.694V136.406V146.406H521.774V136.406ZM521.694 136.406L512.213 133.227L509.499 141.32L518.98 144.5L528.461 147.68L531.175 139.586L521.694 136.406ZM519.045 140.508V150.508H524.414V140.508V130.508H519.045V140.508ZM524.414 140.508H514.414V141.989H524.414H534.414V140.508H524.414ZM524.414 141.989V131.989H519.045V141.989V151.989H524.414V141.989ZM519.045 141.989H529.045V140.508H519.045H509.045V141.989H519.045Z" fill="#121416" mask="url(#path-27-outside-1_114_2364)"/>
<rect x="701.5" y="10.5" width="259" height="258" rx="9.5" stroke="#D4D4D8" stroke-dasharray="4 4"/>
<rect x="711.5" y="20.5" width="239" height="238" rx="7.5" fill="#1E3A8A"/>
<rect x="711.5" y="20.5" width="239" height="238" rx="7.5" stroke="#93C5FD"/>
<g clip-path="url(#clip3_114_2364)">
<path d="M832.14 128.812C830.501 130.452 830.501 133.111 832.14 134.752C833.781 136.391 836.439 136.391 838.079 134.752C839.719 133.111 839.719 130.452 838.079 128.812C836.439 127.172 833.781 127.172 832.14 128.812ZM836.58 133.255C836.387 133.448 836.158 133.602 835.905 133.706C835.653 133.811 835.383 133.865 835.109 133.865C834.836 133.865 834.566 133.811 834.314 133.706C834.061 133.602 833.832 133.448 833.639 133.255C833.446 133.062 833.293 132.833 833.188 132.581C833.084 132.328 833.03 132.058 833.03 131.785C833.03 131.512 833.084 131.242 833.188 130.99C833.293 130.737 833.446 130.508 833.639 130.315C833.832 130.122 834.061 129.969 834.314 129.864C834.566 129.76 834.836 129.706 835.109 129.706C835.383 129.706 835.653 129.76 835.905 129.864C836.158 129.969 836.387 130.122 836.58 130.315C837.392 131.123 837.392 132.443 836.58 133.255ZM838.009 108.147L835.436 110.721C835.194 110.965 835.058 111.295 835.058 111.639C835.058 111.983 835.194 112.312 835.436 112.557L845.483 122.603C845.727 122.845 846.057 122.981 846.401 122.981C846.744 122.981 847.074 122.845 847.319 122.603L849.892 120.03C850.395 119.527 850.395 118.698 849.892 118.195L839.841 108.147C839.597 107.906 839.268 107.77 838.925 107.77C838.582 107.77 838.253 107.906 838.009 108.147ZM819.981 141.03C820.2 140.809 820.323 140.511 820.323 140.2C820.323 139.889 820.2 139.591 819.981 139.37L818.674 138.062C818.453 137.843 818.154 137.719 817.843 137.719C817.532 137.719 817.234 137.843 817.013 138.062L814.312 140.765L814.307 140.768L813.566 140.026C813.156 139.616 812.488 139.616 812.082 140.026C811.671 140.436 811.671 141.104 812.082 141.511L816.534 145.961C816.631 146.059 816.746 146.136 816.874 146.189C817.001 146.242 817.137 146.269 817.275 146.269C817.413 146.269 817.549 146.242 817.677 146.189C817.804 146.136 817.919 146.059 818.017 145.961C818.423 145.551 818.427 144.883 818.017 144.478L817.274 143.736L817.279 143.732L819.981 141.03Z" fill="#F5A800"/>
<path d="M833.593 115.535L827.876 121.252C827.368 121.759 827.368 122.596 827.876 123.103L831.406 126.632C833.901 124.837 837.4 125.059 839.645 127.305L842.503 124.446C843.01 123.938 843.01 123.103 842.503 122.596L835.444 115.535C835.322 115.414 835.178 115.317 835.019 115.251C834.86 115.186 834.69 115.152 834.518 115.152C834.347 115.152 834.176 115.186 834.018 115.251C833.859 115.317 833.714 115.414 833.593 115.535ZM829.922 128.12L827.837 126.035C827.348 125.547 826.548 125.547 826.061 126.035L818.707 133.392C818.473 133.628 818.341 133.947 818.341 134.28C818.341 134.613 818.473 134.932 818.707 135.169L822.873 139.335C823.11 139.57 823.429 139.701 823.762 139.701C824.095 139.701 824.415 139.57 824.651 139.335L829.38 134.598C828.38 132.533 828.559 130.038 829.922 128.12Z" fill="#425CC7"/>
</g>
<path d="M749.035 156.818H751.118L753.609 161.322H753.708L756.199 156.818H758.282L754.578 163.202V167H752.739V163.202L749.035 156.818ZM768.812 161.909C768.812 163.006 768.607 163.946 768.196 164.728C767.788 165.507 767.231 166.103 766.525 166.518C765.823 166.932 765.026 167.139 764.134 167.139C763.242 167.139 762.444 166.932 761.738 166.518C761.035 166.1 760.478 165.502 760.067 164.723C759.66 163.941 759.456 163.003 759.456 161.909C759.456 160.812 759.66 159.874 760.067 159.095C760.478 158.313 761.035 157.715 761.738 157.3C762.444 156.886 763.242 156.679 764.134 156.679C765.026 156.679 765.823 156.886 766.525 157.3C767.231 157.715 767.788 158.313 768.196 159.095C768.607 159.874 768.812 160.812 768.812 161.909ZM766.958 161.909C766.958 161.137 766.837 160.486 766.595 159.955C766.356 159.422 766.025 159.019 765.601 158.747C765.176 158.472 764.687 158.335 764.134 158.335C763.58 158.335 763.092 158.472 762.667 158.747C762.243 159.019 761.91 159.422 761.668 159.955C761.429 160.486 761.31 161.137 761.31 161.909C761.31 162.681 761.429 163.334 761.668 163.868C761.91 164.398 762.243 164.801 762.667 165.076C763.092 165.348 763.58 165.484 764.134 165.484C764.687 165.484 765.176 165.348 765.601 165.076C766.025 164.801 766.356 164.398 766.595 163.868C766.837 163.334 766.958 162.681 766.958 161.909ZM777.674 156.818H779.519V163.47C779.519 164.199 779.346 164.841 779.002 165.394C778.66 165.948 778.18 166.38 777.56 166.692C776.94 167 776.216 167.154 775.387 167.154C774.556 167.154 773.83 167 773.21 166.692C772.59 166.38 772.109 165.948 771.768 165.394C771.427 164.841 771.256 164.199 771.256 163.47V156.818H773.1V163.316C773.1 163.74 773.193 164.118 773.379 164.45C773.568 164.781 773.833 165.041 774.174 165.23C774.516 165.416 774.92 165.509 775.387 165.509C775.855 165.509 776.259 165.416 776.6 165.23C776.945 165.041 777.21 164.781 777.396 164.45C777.582 164.118 777.674 163.74 777.674 163.316V156.818ZM782.224 167V156.818H786.042C786.824 156.818 787.48 156.954 788.011 157.226C788.544 157.498 788.947 157.879 789.219 158.369C789.494 158.857 789.631 159.425 789.631 160.075C789.631 160.728 789.492 161.294 789.214 161.775C788.939 162.252 788.533 162.622 787.996 162.884C787.459 163.142 786.799 163.271 786.017 163.271H783.297V161.74H785.768C786.226 161.74 786.6 161.677 786.892 161.551C787.184 161.422 787.399 161.235 787.538 160.989C787.681 160.741 787.752 160.436 787.752 160.075C787.752 159.713 787.681 159.405 787.538 159.15C787.396 158.891 787.179 158.696 786.887 158.563C786.595 158.427 786.219 158.359 785.758 158.359H784.068V167H782.224ZM787.484 162.386L790.004 167H787.946L785.47 162.386H787.484ZM805.3 161.909C805.3 163.006 805.094 163.946 804.683 164.728C804.276 165.507 803.719 166.103 803.013 166.518C802.31 166.932 801.513 167.139 800.621 167.139C799.73 167.139 798.931 166.932 798.225 166.518C797.523 166.1 796.966 165.502 796.555 164.723C796.147 163.941 795.943 163.003 795.943 161.909C795.943 160.812 796.147 159.874 796.555 159.095C796.966 158.313 797.523 157.715 798.225 157.3C798.931 156.886 799.73 156.679 800.621 156.679C801.513 156.679 802.31 156.886 803.013 157.3C803.719 157.715 804.276 158.313 804.683 159.095C805.094 159.874 805.3 160.812 805.3 161.909ZM803.445 161.909C803.445 161.137 803.324 160.486 803.082 159.955C802.844 159.422 802.512 159.019 802.088 158.747C801.664 158.472 801.175 158.335 800.621 158.335C800.068 158.335 799.579 158.472 799.155 158.747C798.731 159.019 798.398 159.422 798.156 159.955C797.917 160.486 797.798 161.137 797.798 161.909C797.798 162.681 797.917 163.334 798.156 163.868C798.398 164.398 798.731 164.801 799.155 165.076C799.579 165.348 800.068 165.484 800.621 165.484C801.175 165.484 801.664 165.348 802.088 165.076C802.512 164.801 802.844 164.398 803.082 163.868C803.324 163.334 803.445 162.681 803.445 161.909ZM806.845 158.364V156.818H814.968V158.364H811.821V167H809.992V158.364H806.845ZM817.235 167V156.818H823.857V158.364H819.079V161.129H823.514V162.675H819.079V165.454H823.896V167H817.235ZM826.438 167V156.818H828.283V165.454H832.767V167H826.438ZM839.241 167V156.818H843.059C843.841 156.818 844.497 156.964 845.028 157.256C845.561 157.547 845.964 157.948 846.236 158.459C846.511 158.966 846.648 159.543 846.648 160.189C846.648 160.842 846.511 161.422 846.236 161.929C845.961 162.436 845.555 162.835 845.018 163.127C844.481 163.415 843.82 163.56 843.034 163.56H840.504V162.043H842.786C843.243 162.043 843.617 161.964 843.909 161.805C844.201 161.646 844.416 161.427 844.555 161.148C844.698 160.87 844.769 160.55 844.769 160.189C844.769 159.828 844.698 159.509 844.555 159.234C844.416 158.959 844.199 158.746 843.904 158.593C843.612 158.437 843.236 158.359 842.776 158.359H841.085V167H839.241ZM848.951 167V156.818H852.769C853.551 156.818 854.207 156.954 854.737 157.226C855.271 157.498 855.674 157.879 855.946 158.369C856.221 158.857 856.358 159.425 856.358 160.075C856.358 160.728 856.219 161.294 855.941 161.775C855.666 162.252 855.259 162.622 854.723 162.884C854.186 163.142 853.526 163.271 852.744 163.271H850.024V161.74H852.495C852.953 161.74 853.327 161.677 853.619 161.551C853.911 161.422 854.126 161.235 854.265 160.989C854.408 160.741 854.479 160.436 854.479 160.075C854.479 159.713 854.408 159.405 854.265 159.15C854.123 158.891 853.906 158.696 853.614 158.563C853.322 158.427 852.946 158.359 852.485 158.359H850.795V167H848.951ZM854.21 162.386L856.731 167H854.673L852.197 162.386H854.21ZM867.854 161.909C867.854 163.006 867.649 163.946 867.238 164.728C866.83 165.507 866.273 166.103 865.567 166.518C864.864 166.932 864.067 167.139 863.176 167.139C862.284 167.139 861.485 166.932 860.779 166.518C860.077 166.1 859.52 165.502 859.109 164.723C858.701 163.941 858.498 163.003 858.498 161.909C858.498 160.812 858.701 159.874 859.109 159.095C859.52 158.313 860.077 157.715 860.779 157.3C861.485 156.886 862.284 156.679 863.176 156.679C864.067 156.679 864.864 156.886 865.567 157.3C866.273 157.715 866.83 158.313 867.238 159.095C867.649 159.874 867.854 160.812 867.854 161.909ZM866 161.909C866 161.137 865.879 160.486 865.637 159.955C865.398 159.422 865.067 159.019 864.642 158.747C864.218 158.472 863.729 158.335 863.176 158.335C862.622 158.335 862.133 158.472 861.709 158.747C861.285 159.019 860.952 159.422 860.71 159.955C860.471 160.486 860.352 161.137 860.352 161.909C860.352 162.681 860.471 163.334 860.71 163.868C860.952 164.398 861.285 164.801 861.709 165.076C862.133 165.348 862.622 165.484 863.176 165.484C863.729 165.484 864.218 165.348 864.642 165.076C865.067 164.801 865.398 164.398 865.637 163.868C865.879 163.334 866 162.681 866 161.909ZM871.113 156.818L873.763 164.832H873.867L876.512 156.818H878.541L874.951 167H872.674L869.09 156.818H871.113ZM882.426 156.818V167H880.582V156.818H882.426ZM888.574 167H885.124V156.818H888.643C889.654 156.818 890.523 157.022 891.249 157.43C891.978 157.834 892.538 158.416 892.929 159.175C893.32 159.934 893.516 160.842 893.516 161.899C893.516 162.96 893.318 163.871 892.924 164.634C892.533 165.396 891.968 165.981 891.229 166.388C890.493 166.796 889.608 167 888.574 167ZM886.968 165.404H888.484C889.194 165.404 889.785 165.275 890.259 165.016C890.733 164.754 891.09 164.365 891.328 163.848C891.567 163.328 891.686 162.678 891.686 161.899C891.686 161.12 891.567 160.474 891.328 159.96C891.09 159.443 890.737 159.057 890.269 158.802C889.805 158.543 889.228 158.414 888.539 158.414H886.968V165.404ZM895.968 167V156.818H902.59V158.364H897.813V161.129H902.247V162.675H897.813V165.454H902.63V167H895.968ZM905.172 167V156.818H908.99C909.772 156.818 910.429 156.954 910.959 157.226C911.493 157.498 911.895 157.879 912.167 158.369C912.442 158.857 912.58 159.425 912.58 160.075C912.58 160.728 912.44 161.294 912.162 161.775C911.887 162.252 911.481 162.622 910.944 162.884C910.407 163.142 909.748 163.271 908.965 163.271H906.246V161.74H908.717C909.174 161.74 909.549 161.677 909.84 161.551C910.132 161.422 910.347 161.235 910.487 160.989C910.629 160.741 910.7 160.436 910.7 160.075C910.7 159.713 910.629 159.405 910.487 159.15C910.344 158.891 910.127 158.696 909.835 158.563C909.544 158.427 909.168 158.359 908.707 158.359H907.016V167H905.172ZM910.432 162.386L912.953 167H910.894L908.418 162.386H910.432Z" fill="white"/>
<defs>
<clipPath id="clip0_114_2364">
<rect width="55" height="27" fill="white" transform="translate(112.5 30)"/>
</clipPath>
<clipPath id="clip1_114_2364">
<rect width="13.285" height="26.7776" fill="white" transform="translate(112.5 30.6112)"/>
</clipPath>
<clipPath id="clip2_114_2364">
<rect width="35" height="40" fill="white" transform="translate(122 121)"/>
</clipPath>
<clipPath id="clip3_114_2364">
<rect width="40" height="40" fill="white" transform="translate(811 107)"/>
</clipPath>
</defs>
</svg>
