<svg width="361" height="100" viewBox="0 0 361 100" fill="none" xmlns="http://www.w3.org/2000/svg">
<g clip-path="url(#clip0_18_300)">
<g clip-path="url(#clip1_18_300)">
<g clip-path="url(#clip2_18_300)">
<rect x="25" y="75.1924" width="25" height="24.8062" fill="#F5F5F5"/>
<rect y="0.773438" width="25" height="24.8062" fill="#F5F5F5"/>
<rect x="25" y="25.5801" width="25" height="24.8062" fill="#F5F5F5"/>
<rect y="50.3857" width="25" height="24.8062" fill="#F5F5F5"/>
</g>
<path d="M179.012 60.7518V46.4158C179.012 40.1438 182.148 37.0078 188.42 37.0078H197.38C203.609 37.0078 206.724 40.1438 206.724 46.4158V60.7518C206.724 67.0238 203.609 70.1598 197.38 70.1598H188.42C182.148 70.1598 179.012 67.0238 179.012 60.7518ZM183.044 61.3918C183.044 64.8905 184.793 66.6398 188.292 66.6398H197.508C200.964 66.6398 202.692 64.8905 202.692 61.3918V45.7758C202.692 42.3198 200.964 40.5918 197.508 40.5918H188.292C184.793 40.5918 183.044 42.3198 183.044 45.7758V61.3918Z" fill="#FAFAFA"/>
<path d="M156.018 70.1598V40.7198C157.511 38.2451 160.22 37.0078 164.146 37.0078H170.418L172.594 38.6718V40.5918H164.338C162.375 40.5918 160.946 41.1251 160.05 42.1918V70.1598H156.018Z" fill="#FAFAFA"/>
<path d="M119.137 60.7518V46.4158C119.137 40.1438 122.273 37.0078 128.545 37.0078H136.865C143.094 37.0078 146.209 40.1438 146.209 46.4158V55.1838H123.169V61.3918C123.169 64.8905 124.918 66.6398 128.417 66.6398H144.929V68.4958L142.753 70.1598H128.545C122.273 70.1598 119.137 67.0238 119.137 60.7518ZM123.169 51.7918H142.177V45.7758C142.177 42.3198 140.449 40.5918 136.993 40.5918H128.417C124.918 40.5918 123.169 42.3198 123.169 45.7758V51.7918Z" fill="#FAFAFA"/>
<path d="M81 29.904V26H115.432V29.904H100.328V70.16H96.104V29.904H81Z" fill="#FAFAFA"/>
</g>
<path d="M221.888 71V26.84H239.36C249.6 26.84 254.72 31.9813 254.72 42.264V55.576C254.72 65.8587 249.6 71 239.36 71H221.888ZM226.176 67.096H239.616C246.827 67.096 250.432 63.4907 250.432 56.28V41.56C250.432 34.3493 246.827 30.744 239.616 30.744H226.176V67.096ZM264.111 61.592V47.256C264.111 40.984 267.247 37.848 273.519 37.848H282.479C288.708 37.848 291.823 40.984 291.823 47.256V61.592C291.823 67.864 288.708 71 282.479 71H273.519C267.247 71 264.111 67.864 264.111 61.592ZM268.143 62.232C268.143 65.7307 269.892 67.48 273.391 67.48H282.607C286.063 67.48 287.791 65.7307 287.791 62.232V46.616C287.791 43.16 286.063 41.432 282.607 41.432H273.391C269.892 41.432 268.143 43.16 268.143 46.616V62.232ZM301.361 61.592V47.256C301.361 40.984 304.497 37.848 310.769 37.848H323.505L325.681 39.512V41.432H310.641C307.142 41.432 305.393 43.16 305.393 46.616V62.232C305.393 65.7307 307.142 67.48 310.641 67.48H325.681V69.336L323.505 71H310.769C304.497 71 301.361 67.864 301.361 61.592ZM332.529 69.336V67.48H347.377C350.79 67.48 352.497 65.7733 352.497 62.36C352.497 58.9467 351.132 57.0267 348.401 56.6L340.593 55.256C335.217 54.36 332.529 51.5227 332.529 46.744C332.529 40.8133 335.686 37.848 342.001 37.848H352.817L354.993 39.512V41.432H341.745C338.289 41.432 336.561 43.1173 336.561 46.488C336.561 49.4747 337.99 51.2027 340.849 51.672L348.721 53.016C353.926 53.8693 356.529 56.8987 356.529 62.104C356.529 68.0347 353.372 71 347.057 71H334.705L332.529 69.336Z" fill="#4ADE80"/>
</g>
<defs>
<clipPath id="clip0_18_300">
<rect width="361" height="100" fill="white"/>
</clipPath>
<clipPath id="clip1_18_300">
<rect width="207" height="100" fill="white"/>
</clipPath>
<clipPath id="clip2_18_300">
<rect width="50" height="100" fill="white"/>
</clipPath>
</defs>
</svg>
