<svg width="361" height="100" viewBox="0 0 361 100" fill="none" xmlns="http://www.w3.org/2000/svg">
<g clip-path="url(#clip0_18_188)">
<g clip-path="url(#clip1_18_188)">
<g clip-path="url(#clip2_18_188)">
<rect x="25" y="75" width="25" height="25" fill="#0A0A0A"/>
<rect width="25" height="25" fill="#0A0A0A"/>
<rect x="25" y="25" width="25" height="25" fill="#0A0A0A"/>
<rect y="50" width="25" height="25" fill="#0A0A0A"/>
</g>
<path d="M159.012 61.7518V47.4158C159.012 41.1438 162.148 38.0078 168.42 38.0078H177.38C183.609 38.0078 186.724 41.1438 186.724 47.4158V61.7518C186.724 68.0238 183.609 71.1598 177.38 71.1598H168.42C162.148 71.1598 159.012 68.0238 159.012 61.7518ZM163.044 62.3918C163.044 65.8905 164.793 67.6398 168.292 67.6398H177.508C180.964 67.6398 182.692 65.8905 182.692 62.3918V46.7758C182.692 43.3198 180.964 41.5918 177.508 41.5918H168.292C164.793 41.5918 163.044 43.3198 163.044 46.7758V62.3918Z" fill="#0A0A0A"/>
<path d="M136.018 71.1598V41.7198C137.511 39.2451 140.22 38.0078 144.146 38.0078H150.418L152.594 39.6718V41.5918H144.338C142.375 41.5918 140.946 42.1251 140.05 43.1918V71.1598H136.018Z" fill="#0A0A0A"/>
<path d="M99.137 61.7518V47.4158C99.137 41.1438 102.273 38.0078 108.545 38.0078H116.865C123.094 38.0078 126.209 41.1438 126.209 47.4158V56.1838H103.169V62.3918C103.169 65.8905 104.918 67.6398 108.417 67.6398H124.929V69.4958L122.753 71.1598H108.545C102.273 71.1598 99.137 68.0238 99.137 61.7518ZM103.169 52.7918H122.177V46.7758C122.177 43.3198 120.449 41.5918 116.993 41.5918H108.417C104.918 41.5918 103.169 43.3198 103.169 46.7758V52.7918Z" fill="#0A0A0A"/>
<path d="M61 30.904V27H95.432V30.904H80.328V71.16H76.104V30.904H61Z" fill="#0A0A0A"/>
</g>
<path d="M201.888 71V26.84H219.36C229.6 26.84 234.72 31.9813 234.72 42.264V55.576C234.72 65.8587 229.6 71 219.36 71H201.888ZM206.176 67.096H219.616C226.827 67.096 230.432 63.4907 230.432 56.28V41.56C230.432 34.3493 226.827 30.744 219.616 30.744H206.176V67.096ZM244.111 61.592V47.256C244.111 40.984 247.247 37.848 253.519 37.848H262.479C268.708 37.848 271.823 40.984 271.823 47.256V61.592C271.823 67.864 268.708 71 262.479 71H253.519C247.247 71 244.111 67.864 244.111 61.592ZM248.143 62.232C248.143 65.7307 249.892 67.48 253.391 67.48H262.607C266.063 67.48 267.791 65.7307 267.791 62.232V46.616C267.791 43.16 266.063 41.432 262.607 41.432H253.391C249.892 41.432 248.143 43.16 248.143 46.616V62.232ZM281.361 61.592V47.256C281.361 40.984 284.497 37.848 290.769 37.848H303.505L305.681 39.512V41.432H290.641C287.142 41.432 285.393 43.16 285.393 46.616V62.232C285.393 65.7307 287.142 67.48 290.641 67.48H305.681V69.336L303.505 71H290.769C284.497 71 281.361 67.864 281.361 61.592ZM312.529 69.336V67.48H327.377C330.79 67.48 332.497 65.7733 332.497 62.36C332.497 58.9467 331.132 57.0267 328.401 56.6L320.593 55.256C315.217 54.36 312.529 51.5227 312.529 46.744C312.529 40.8133 315.686 37.848 322.001 37.848H332.817L334.993 39.512V41.432H321.745C318.289 41.432 316.561 43.1173 316.561 46.488C316.561 49.4747 317.99 51.2027 320.849 51.672L328.721 53.016C333.926 53.8693 336.529 56.8987 336.529 62.104C336.529 68.0347 333.372 71 327.057 71H314.705L312.529 69.336Z" fill="#4ADE80"/>
</g>
<defs>
<clipPath id="clip0_18_188">
<rect width="341" height="100" fill="white"/>
</clipPath>
<clipPath id="clip1_18_188">
<rect width="187" height="100" fill="white"/>
</clipPath>
<clipPath id="clip2_18_188">
<rect width="50" height="100" fill="white"/>
</clipPath>
</defs>
</svg>
