<svg width="381" height="140" viewBox="0 0 381 140" fill="none" xmlns="http://www.w3.org/2000/svg">
<rect x="0.5" y="0.5" width="380" height="139" rx="4.5" stroke="#9747FF" stroke-dasharray="10 5"/>
<g clip-path="url(#clip0_18_188)">
<g clip-path="url(#clip1_18_188)">
<g clip-path="url(#clip2_18_188)">
<rect x="45" y="95" width="25" height="25" fill="#0A0A0A"/>
<rect x="20" y="20" width="25" height="25" fill="#0A0A0A"/>
<rect x="45" y="45" width="25" height="25" fill="#0A0A0A"/>
<rect x="20" y="70" width="25" height="25" fill="#0A0A0A"/>
</g>
<path d="M179.012 81.7518V67.4158C179.012 61.1438 182.148 58.0078 188.42 58.0078H197.38C203.609 58.0078 206.724 61.1438 206.724 67.4158V81.7518C206.724 88.0238 203.609 91.1598 197.38 91.1598H188.42C182.148 91.1598 179.012 88.0238 179.012 81.7518ZM183.044 82.3918C183.044 85.8905 184.793 87.6398 188.292 87.6398H197.508C200.964 87.6398 202.692 85.8905 202.692 82.3918V66.7758C202.692 63.3198 200.964 61.5918 197.508 61.5918H188.292C184.793 61.5918 183.044 63.3198 183.044 66.7758V82.3918Z" fill="#0A0A0A"/>
<path d="M156.018 91.1598V61.7198C157.511 59.2451 160.22 58.0078 164.146 58.0078H170.418L172.594 59.6718V61.5918H164.338C162.375 61.5918 160.946 62.1251 160.05 63.1918V91.1598H156.018Z" fill="#0A0A0A"/>
<path d="M119.137 81.7518V67.4158C119.137 61.1438 122.273 58.0078 128.545 58.0078H136.865C143.094 58.0078 146.209 61.1438 146.209 67.4158V76.1838H123.169V82.3918C123.169 85.8905 124.918 87.6398 128.417 87.6398H144.929V89.4958L142.753 91.1598H128.545C122.273 91.1598 119.137 88.0238 119.137 81.7518ZM123.169 72.7918H142.177V66.7758C142.177 63.3198 140.449 61.5918 136.993 61.5918H128.417C124.918 61.5918 123.169 63.3198 123.169 66.7758V72.7918Z" fill="#0A0A0A"/>
<path d="M81 50.904V47H115.432V50.904H100.328V91.16H96.104V50.904H81Z" fill="#0A0A0A"/>
</g>
<path d="M221.888 91V46.84H239.36C249.6 46.84 254.72 51.9813 254.72 62.264V75.576C254.72 85.8587 249.6 91 239.36 91H221.888ZM226.176 87.096H239.616C246.827 87.096 250.432 83.4907 250.432 76.28V61.56C250.432 54.3493 246.827 50.744 239.616 50.744H226.176V87.096ZM264.111 81.592V67.256C264.111 60.984 267.247 57.848 273.519 57.848H282.479C288.708 57.848 291.823 60.984 291.823 67.256V81.592C291.823 87.864 288.708 91 282.479 91H273.519C267.247 91 264.111 87.864 264.111 81.592ZM268.143 82.232C268.143 85.7307 269.892 87.48 273.391 87.48H282.607C286.063 87.48 287.791 85.7307 287.791 82.232V66.616C287.791 63.16 286.063 61.432 282.607 61.432H273.391C269.892 61.432 268.143 63.16 268.143 66.616V82.232ZM301.361 81.592V67.256C301.361 60.984 304.497 57.848 310.769 57.848H323.505L325.681 59.512V61.432H310.641C307.142 61.432 305.393 63.16 305.393 66.616V82.232C305.393 85.7307 307.142 87.48 310.641 87.48H325.681V89.336L323.505 91H310.769C304.497 91 301.361 87.864 301.361 81.592ZM332.529 89.336V87.48H347.377C350.79 87.48 352.497 85.7733 352.497 82.36C352.497 78.9467 351.132 77.0267 348.401 76.6L340.593 75.256C335.217 74.36 332.529 71.5227 332.529 66.744C332.529 60.8133 335.686 57.848 342.001 57.848H352.817L354.993 59.512V61.432H341.745C338.289 61.432 336.561 63.1173 336.561 66.488C336.561 69.4747 337.99 71.2027 340.849 71.672L348.721 73.016C353.926 73.8693 356.529 76.8987 356.529 82.104C356.529 88.0347 353.372 91 347.057 91H334.705L332.529 89.336Z" fill="#4ADE80"/>
</g>
<defs>
<clipPath id="clip0_18_188">
<rect width="341" height="100" fill="white" transform="translate(20 20)"/>
</clipPath>
<clipPath id="clip1_18_188">
<rect width="187" height="100" fill="white" transform="translate(20 20)"/>
</clipPath>
<clipPath id="clip2_18_188">
<rect width="50" height="100" fill="white" transform="translate(20 20)"/>
</clipPath>
</defs>
</svg>
